ISO-10303-21;
HEADER;
/* Generated by software containing ST-Developer
 * from STEP Tools, Inc. (www.steptools.com) 
 */

FILE_DESCRIPTION(
/* description */ (''),
/* implementation_level */ '2;1');

FILE_NAME(
/* name */ 'Bottom.step',
/* time_stamp */ '2026-08-14T15:48:21-04:00',
/* author */ (''),
/* organization */ (''),
/* preprocessor_version */ 'ST-DEVELOPER v20.1',
/* originating_system */ 'Autodesk Translation Framework v15.8.0.0',
/* authorisation */ '');

FILE_SCHEMA (('AUTOMOTIVE_DESIGN { 1 0 10303 214 3 1 1 }'));
ENDSEC;

DATA;
#10=MECHANICAL_DESIGN_GEOMETRIC_PRESENTATION_REPRESENTATION('',(#13,#14),
#1869);
#11=SHAPE_REPRESENTATION_RELATIONSHIP('SRR','None',#1875,#12);
#12=ADVANCED_BREP_SHAPE_REPRESENTATION('',(#15,#16),#1868);
#13=STYLED_ITEM('',(#1884),#15);
#14=STYLED_ITEM('',(#1884),#16);
#15=MANIFOLD_SOLID_BREP('Body2',#1037);
#16=MANIFOLD_SOLID_BREP('Body11',#1038);
#17=ELLIPSE('',#1096,8.48303011900818,8.47);
#18=ELLIPSE('',#1098,8.48303011900818,8.47);
#19=B_SPLINE_SURFACE_WITH_KNOTS('',3,1,((#1601,#1602),(#1603,#1604),(#1605,
#1606),(#1607,#1608),(#1609,#1610),(#1611,#1612),(#1613,#1614),(#1615,#1616),
(#1617,#1618),(#1619,#1620),(#1621,#1622),(#1623,#1624)),.UNSPECIFIED.,
 .F.,.F.,.F.,(4,2,2,2,2,4),(2,2),(0.,0.234528916497641,0.511095773727063,
0.826478632281311,1.03689481828746,1.25504614237797),(0.,0.325),
 .UNSPECIFIED.);
#20=B_SPLINE_SURFACE_WITH_KNOTS('',3,1,((#1673,#1674),(#1675,#1676),(#1677,
#1678),(#1679,#1680),(#1681,#1682),(#1683,#1684),(#1685,#1686),(#1687,#1688),
(#1689,#1690),(#1691,#1692),(#1693,#1694),(#1695,#1696)),.UNSPECIFIED.,
 .F.,.F.,.F.,(4,2,2,2,2,4),(2,2),(0.,0.310313753764509,0.608601608980418,
0.883096475040929,1.15326838794416,1.25565360765391),(0.,0.325),
 .UNSPECIFIED.);
#21=B_SPLINE_SURFACE_WITH_KNOTS('',3,3,((#1732,#1733,#1734,#1735,#1736,
#1737,#1738),(#1739,#1740,#1741,#1742,#1743,#1744,#1745),(#1746,#1747,#1748,
#1749,#1750,#1751,#1752),(#1753,#1754,#1755,#1756,#1757,#1758,#1759),(#1760,
#1761,#1762,#1763,#1764,#1765,#1766)),.UNSPECIFIED.,.F.,.F.,.F.,(4,1,4),
(4,1,1,1,4),(0.18980663246744,0.537032361409966,1.),(1.47636040508664E-16,
0.17591097240411,0.351821944808219,0.703643889616438,1.23137680682877),
 .UNSPECIFIED.);
#22=B_SPLINE_SURFACE_WITH_KNOTS('',3,3,((#1772,#1773,#1774,#1775,#1776,
#1777,#1778,#1779),(#1780,#1781,#1782,#1783,#1784,#1785,#1786,#1787),(#1788,
#1789,#1790,#1791,#1792,#1793,#1794,#1795),(#1796,#1797,#1798,#1799,#1800,
#1801,#1802,#1803),(#1804,#1805,#1806,#1807,#1808,#1809,#1810,#1811)),
 .UNSPECIFIED.,.F.,.F.,.F.,(4,1,4),(4,1,1,1,1,4),(0.,0.347225728942526,
0.81019336753256),(7.38180202543323E-17,0.17591097240411,0.35182194480822,
0.52773291721233,0.87955486202055,1.23137680682877),.UNSPECIFIED.);
#23=CYLINDRICAL_SURFACE('',#1061,7.112);
#24=CYLINDRICAL_SURFACE('',#1073,3.);
#25=CYLINDRICAL_SURFACE('',#1077,3.);
#26=CYLINDRICAL_SURFACE('',#1094,8.);
#27=CYLINDRICAL_SURFACE('',#1097,8.47);
#28=CYLINDRICAL_SURFACE('',#1101,8.);
#29=CYLINDRICAL_SURFACE('',#1107,7.112);
#30=CYLINDRICAL_SURFACE('',#1110,8.);
#31=CYLINDRICAL_SURFACE('',#1113,8.);
#32=SPHERICAL_SURFACE('',#1053,1.35);
#33=SPHERICAL_SURFACE('',#1056,2.1);
#34=FACE_BOUND('',#101,.T.);
#35=FACE_BOUND('',#110,.T.);
#36=B_SPLINE_CURVE_WITH_KNOTS('',3,(#1437,#1438,#1439,#1440,#1441,#1442,
#1443,#1444,#1445,#1446,#1447,#1448,#1449,#1450,#1451,#1452),
 .UNSPECIFIED.,.F.,.F.,(4,3,3,3,3,4),(0.,0.234528916497641,0.511095773727063,
0.826478632281311,1.03689481828746,1.25504614237797),.UNSPECIFIED.);
#37=B_SPLINE_CURVE_WITH_KNOTS('',3,(#1515,#1516,#1517,#1518,#1519,#1520,
#1521,#1522,#1523,#1524,#1525,#1526,#1527,#1528,#1529,#1530),
 .UNSPECIFIED.,.F.,.F.,(4,3,3,3,3,4),(0.,0.310313753764509,0.608601608980418,
0.883096475040929,1.15326838794416,1.25565360765391),.UNSPECIFIED.);
#38=B_SPLINE_CURVE_WITH_KNOTS('',3,(#1626,#1627,#1628,#1629,#1630,#1631,
#1632,#1633,#1634,#1635,#1636,#1637,#1638,#1639,#1640,#1641),
 .UNSPECIFIED.,.F.,.F.,(4,3,3,3,3,4),(-1.25504614237797,-1.03689481828746,
-0.826478632281311,-0.511095773727063,-0.234528916497641,0.),
 .UNSPECIFIED.);
#39=B_SPLINE_CURVE_WITH_KNOTS('',3,(#1697,#1698,#1699,#1700,#1701,#1702,
#1703,#1704,#1705,#1706,#1707,#1708,#1709,#1710,#1711,#1712),
 .UNSPECIFIED.,.F.,.F.,(4,3,3,3,3,4),(-1.25565360765391,-1.15326838794416,
-0.883096475040929,-0.608601608980418,-0.310313753764509,0.),
 .UNSPECIFIED.);
#40=FACE_OUTER_BOUND('',#98,.T.);
#41=FACE_OUTER_BOUND('',#99,.T.);
#42=FACE_OUTER_BOUND('',#100,.T.);
#43=FACE_OUTER_BOUND('',#102,.T.);
#44=FACE_OUTER_BOUND('',#103,.T.);
#45=FACE_OUTER_BOUND('',#104,.T.);
#46=FACE_OUTER_BOUND('',#105,.T.);
#47=FACE_OUTER_BOUND('',#106,.T.);
#48=FACE_OUTER_BOUND('',#107,.T.);
#49=FACE_OUTER_BOUND('',#108,.T.);
#50=FACE_OUTER_BOUND('',#109,.T.);
#51=FACE_OUTER_BOUND('',#111,.T.);
#52=FACE_OUTER_BOUND('',#112,.T.);
#53=FACE_OUTER_BOUND('',#113,.T.);
#54=FACE_OUTER_BOUND('',#114,.T.);
#55=FACE_OUTER_BOUND('',#115,.T.);
#56=FACE_OUTER_BOUND('',#116,.T.);
#57=FACE_OUTER_BOUND('',#117,.T.);
#58=FACE_OUTER_BOUND('',#118,.T.);
#59=FACE_OUTER_BOUND('',#119,.T.);
#60=FACE_OUTER_BOUND('',#120,.T.);
#61=FACE_OUTER_BOUND('',#121,.T.);
#62=FACE_OUTER_BOUND('',#122,.T.);
#63=FACE_OUTER_BOUND('',#123,.T.);
#64=FACE_OUTER_BOUND('',#124,.T.);
#65=FACE_OUTER_BOUND('',#125,.T.);
#66=FACE_OUTER_BOUND('',#126,.T.);
#67=FACE_OUTER_BOUND('',#127,.T.);
#68=FACE_OUTER_BOUND('',#128,.T.);
#69=FACE_OUTER_BOUND('',#129,.T.);
#70=FACE_OUTER_BOUND('',#130,.T.);
#71=FACE_OUTER_BOUND('',#131,.T.);
#72=FACE_OUTER_BOUND('',#132,.T.);
#73=FACE_OUTER_BOUND('',#133,.T.);
#74=FACE_OUTER_BOUND('',#134,.T.);
#75=FACE_OUTER_BOUND('',#135,.T.);
#76=FACE_OUTER_BOUND('',#136,.T.);
#77=FACE_OUTER_BOUND('',#137,.T.);
#78=FACE_OUTER_BOUND('',#138,.T.);
#79=FACE_OUTER_BOUND('',#139,.T.);
#80=FACE_OUTER_BOUND('',#140,.T.);
#81=FACE_OUTER_BOUND('',#141,.T.);
#82=FACE_OUTER_BOUND('',#142,.T.);
#83=FACE_OUTER_BOUND('',#143,.T.);
#84=FACE_OUTER_BOUND('',#144,.T.);
#85=FACE_OUTER_BOUND('',#145,.T.);
#86=FACE_OUTER_BOUND('',#146,.T.);
#87=FACE_OUTER_BOUND('',#147,.T.);
#88=FACE_OUTER_BOUND('',#148,.T.);
#89=FACE_OUTER_BOUND('',#149,.T.);
#90=FACE_OUTER_BOUND('',#150,.T.);
#91=FACE_OUTER_BOUND('',#151,.T.);
#92=FACE_OUTER_BOUND('',#152,.T.);
#93=FACE_OUTER_BOUND('',#153,.T.);
#94=FACE_OUTER_BOUND('',#154,.T.);
#95=FACE_OUTER_BOUND('',#155,.T.);
#96=FACE_OUTER_BOUND('',#156,.T.);
#97=FACE_OUTER_BOUND('',#157,.T.);
#98=EDGE_LOOP('',(#648,#649,#650,#651,#652,#653,#654,#655,#656,#657,#658,
#659,#660,#661));
#99=EDGE_LOOP('',(#662,#663,#664,#665));
#100=EDGE_LOOP('',(#666,#667,#668,#669,#670,#671,#672));
#101=EDGE_LOOP('',(#673));
#102=EDGE_LOOP('',(#674,#675,#676,#677));
#103=EDGE_LOOP('',(#678,#679,#680,#681));
#104=EDGE_LOOP('',(#682,#683,#684,#685,#686));
#105=EDGE_LOOP('',(#687,#688,#689,#690,#691,#692,#693,#694,#695,#696,#697,
#698,#699,#700,#701,#702));
#106=EDGE_LOOP('',(#703,#704,#705));
#107=EDGE_LOOP('',(#706,#707,#708));
#108=EDGE_LOOP('',(#709,#710,#711,#712));
#109=EDGE_LOOP('',(#713,#714,#715,#716,#717,#718,#719,#720,#721));
#110=EDGE_LOOP('',(#722));
#111=EDGE_LOOP('',(#723,#724,#725,#726,#727,#728,#729,#730));
#112=EDGE_LOOP('',(#731,#732,#733,#734));
#113=EDGE_LOOP('',(#735,#736,#737,#738,#739));
#114=EDGE_LOOP('',(#740,#741,#742,#743,#744));
#115=EDGE_LOOP('',(#745,#746,#747,#748));
#116=EDGE_LOOP('',(#749,#750,#751,#752));
#117=EDGE_LOOP('',(#753,#754,#755,#756));
#118=EDGE_LOOP('',(#757,#758,#759,#760));
#119=EDGE_LOOP('',(#761,#762,#763,#764,#765));
#120=EDGE_LOOP('',(#766,#767,#768,#769,#770,#771));
#121=EDGE_LOOP('',(#772,#773,#774,#775));
#122=EDGE_LOOP('',(#776,#777,#778,#779,#780,#781));
#123=EDGE_LOOP('',(#782,#783,#784,#785));
#124=EDGE_LOOP('',(#786,#787,#788,#789));
#125=EDGE_LOOP('',(#790,#791,#792,#793));
#126=EDGE_LOOP('',(#794,#795,#796,#797));
#127=EDGE_LOOP('',(#798,#799,#800,#801,#802));
#128=EDGE_LOOP('',(#803,#804,#805,#806,#807,#808,#809,#810,#811,#812));
#129=EDGE_LOOP('',(#813,#814,#815,#816));
#130=EDGE_LOOP('',(#817,#818,#819,#820));
#131=EDGE_LOOP('',(#821,#822,#823,#824));
#132=EDGE_LOOP('',(#825,#826,#827,#828));
#133=EDGE_LOOP('',(#829,#830,#831,#832));
#134=EDGE_LOOP('',(#833,#834,#835,#836));
#135=EDGE_LOOP('',(#837,#838,#839,#840,#841));
#136=EDGE_LOOP('',(#842,#843,#844,#845));
#137=EDGE_LOOP('',(#846,#847,#848,#849));
#138=EDGE_LOOP('',(#850,#851,#852,#853));
#139=EDGE_LOOP('',(#854,#855,#856,#857));
#140=EDGE_LOOP('',(#858,#859,#860,#861));
#141=EDGE_LOOP('',(#862,#863));
#142=EDGE_LOOP('',(#864,#865,#866,#867));
#143=EDGE_LOOP('',(#868,#869,#870));
#144=EDGE_LOOP('',(#871,#872,#873,#874,#875,#876));
#145=EDGE_LOOP('',(#877,#878,#879));
#146=EDGE_LOOP('',(#880,#881,#882,#883));
#147=EDGE_LOOP('',(#884,#885,#886,#887));
#148=EDGE_LOOP('',(#888,#889,#890,#891));
#149=EDGE_LOOP('',(#892,#893,#894,#895,#896,#897,#898,#899));
#150=EDGE_LOOP('',(#900,#901,#902,#903));
#151=EDGE_LOOP('',(#904,#905,#906,#907));
#152=EDGE_LOOP('',(#908,#909,#910,#911));
#153=EDGE_LOOP('',(#912,#913,#914,#915));
#154=EDGE_LOOP('',(#916,#917,#918,#919));
#155=EDGE_LOOP('',(#920,#921,#922,#923));
#156=EDGE_LOOP('',(#924,#925,#926,#927));
#157=EDGE_LOOP('',(#928,#929,#930,#931,#932,#933,#934,#935));
#158=CIRCLE('',#1041,8.);
#159=CIRCLE('',#1042,8.);
#160=CIRCLE('',#1043,7.112);
#161=CIRCLE('',#1046,2.1);
#162=CIRCLE('',#1051,3.);
#163=CIRCLE('',#1052,3.);
#164=CIRCLE('',#1054,1.35);
#165=CIRCLE('',#1055,1.35);
#166=CIRCLE('',#1057,2.1);
#167=CIRCLE('',#1059,7.112);
#168=CIRCLE('',#1062,7.112);
#169=CIRCLE('',#1063,7.112);
#170=CIRCLE('',#1074,3.);
#171=CIRCLE('',#1076,3.);
#172=CIRCLE('',#1095,8.);
#173=CIRCLE('',#1099,8.);
#174=CIRCLE('',#1104,7.112);
#175=CIRCLE('',#1105,8.);
#176=CIRCLE('',#1106,8.);
#177=CIRCLE('',#1108,7.112);
#178=CIRCLE('',#1111,8.);
#179=CIRCLE('',#1114,8.);
#180=LINE('',#1396,#296);
#181=LINE('',#1398,#297);
#182=LINE('',#1400,#298);
#183=LINE('',#1402,#299);
#184=LINE('',#1404,#300);
#185=LINE('',#1406,#301);
#186=LINE('',#1410,#302);
#187=LINE('',#1414,#303);
#188=LINE('',#1416,#304);
#189=LINE('',#1420,#305);
#190=LINE('',#1421,#306);
#191=LINE('',#1424,#307);
#192=LINE('',#1426,#308);
#193=LINE('',#1427,#309);
#194=LINE('',#1430,#310);
#195=LINE('',#1432,#311);
#196=LINE('',#1434,#312);
#197=LINE('',#1436,#313);
#198=LINE('',#1457,#314);
#199=LINE('',#1458,#315);
#200=LINE('',#1461,#316);
#201=LINE('',#1462,#317);
#202=LINE('',#1465,#318);
#203=LINE('',#1467,#319);
#204=LINE('',#1468,#320);
#205=LINE('',#1471,#321);
#206=LINE('',#1475,#322);
#207=LINE('',#1478,#323);
#208=LINE('',#1480,#324);
#209=LINE('',#1482,#325);
#210=LINE('',#1484,#326);
#211=LINE('',#1486,#327);
#212=LINE('',#1488,#328);
#213=LINE('',#1490,#329);
#214=LINE('',#1492,#330);
#215=LINE('',#1493,#331);
#216=LINE('',#1505,#332);
#217=LINE('',#1507,#333);
#218=LINE('',#1510,#334);
#219=LINE('',#1513,#335);
#220=LINE('',#1532,#336);
#221=LINE('',#1533,#337);
#222=LINE('',#1535,#338);
#223=LINE('',#1537,#339);
#224=LINE('',#1538,#340);
#225=LINE('',#1542,#341);
#226=LINE('',#1546,#342);
#227=LINE('',#1548,#343);
#228=LINE('',#1549,#344);
#229=LINE('',#1552,#345);
#230=LINE('',#1554,#346);
#231=LINE('',#1555,#347);
#232=LINE('',#1558,#348);
#233=LINE('',#1560,#349);
#234=LINE('',#1561,#350);
#235=LINE('',#1564,#351);
#236=LINE('',#1566,#352);
#237=LINE('',#1567,#353);
#238=LINE('',#1570,#354);
#239=LINE('',#1571,#355);
#240=LINE('',#1574,#356);
#241=LINE('',#1575,#357);
#242=LINE('',#1577,#358);
#243=LINE('',#1580,#359);
#244=LINE('',#1582,#360);
#245=LINE('',#1583,#361);
#246=LINE('',#1586,#362);
#247=LINE('',#1588,#363);
#248=LINE('',#1589,#364);
#249=LINE('',#1593,#365);
#250=LINE('',#1595,#366);
#251=LINE('',#1597,#367);
#252=LINE('',#1600,#368);
#253=LINE('',#1642,#369);
#254=LINE('',#1645,#370);
#255=LINE('',#1646,#371);
#256=LINE('',#1649,#372);
#257=LINE('',#1650,#373);
#258=LINE('',#1652,#374);
#259=LINE('',#1655,#375);
#260=LINE('',#1657,#376);
#261=LINE('',#1659,#377);
#262=LINE('',#1661,#378);
#263=LINE('',#1662,#379);
#264=LINE('',#1663,#380);
#265=LINE('',#1667,#381);
#266=LINE('',#1668,#382);
#267=LINE('',#1671,#383);
#268=LINE('',#1672,#384);
#269=LINE('',#1714,#385);
#270=LINE('',#1715,#386);
#271=LINE('',#1717,#387);
#272=LINE('',#1718,#388);
#273=LINE('',#1723,#389);
#274=LINE('',#1725,#390);
#275=LINE('',#1731,#391);
#276=LINE('',#1771,#392);
#277=LINE('',#1814,#393);
#278=LINE('',#1819,#394);
#279=LINE('',#1821,#395);
#280=LINE('',#1823,#396);
#281=LINE('',#1824,#397);
#282=LINE('',#1827,#398);
#283=LINE('',#1831,#399);
#284=LINE('',#1835,#400);
#285=LINE('',#1838,#401);
#286=LINE('',#1841,#402);
#287=LINE('',#1844,#403);
#288=LINE('',#1847,#404);
#289=LINE('',#1848,#405);
#290=LINE('',#1852,#406);
#291=LINE('',#1855,#407);
#292=LINE('',#1856,#408);
#293=LINE('',#1860,#409);
#294=LINE('',#1862,#410);
#295=LINE('',#1864,#411);
#296=VECTOR('',#1122,10.);
#297=VECTOR('',#1123,10.);
#298=VECTOR('',#1124,10.);
#299=VECTOR('',#1125,10.);
#300=VECTOR('',#1126,10.);
#301=VECTOR('',#1127,10.);
#302=VECTOR('',#1130,10.);
#303=VECTOR('',#1133,10.);
#304=VECTOR('',#1134,10.);
#305=VECTOR('',#1137,10.);
#306=VECTOR('',#1138,10.);
#307=VECTOR('',#1141,10.);
#308=VECTOR('',#1142,10.);
#309=VECTOR('',#1143,10.);
#310=VECTOR('',#1146,10.);
#311=VECTOR('',#1147,10.);
#312=VECTOR('',#1148,10.);
#313=VECTOR('',#1149,10.);
#314=VECTOR('',#1154,10.);
#315=VECTOR('',#1155,10.);
#316=VECTOR('',#1158,10.);
#317=VECTOR('',#1159,10.);
#318=VECTOR('',#1162,10.);
#319=VECTOR('',#1163,10.);
#320=VECTOR('',#1164,10.);
#321=VECTOR('',#1167,10.);
#322=VECTOR('',#1170,10.);
#323=VECTOR('',#1173,10.);
#324=VECTOR('',#1174,10.);
#325=VECTOR('',#1175,10.);
#326=VECTOR('',#1176,10.);
#327=VECTOR('',#1177,10.);
#328=VECTOR('',#1178,10.);
#329=VECTOR('',#1179,10.);
#330=VECTOR('',#1180,10.);
#331=VECTOR('',#1181,10.);
#332=VECTOR('',#1194,10.);
#333=VECTOR('',#1195,10.);
#334=VECTOR('',#1198,10.);
#335=VECTOR('',#1201,10.);
#336=VECTOR('',#1202,10.);
#337=VECTOR('',#1203,10.);
#338=VECTOR('',#1204,10.);
#339=VECTOR('',#1205,10.);
#340=VECTOR('',#1206,10.);
#341=VECTOR('',#1211,10.);
#342=VECTOR('',#1216,10.);
#343=VECTOR('',#1217,10.);
#344=VECTOR('',#1218,10.);
#345=VECTOR('',#1221,10.);
#346=VECTOR('',#1222,10.);
#347=VECTOR('',#1223,10.);
#348=VECTOR('',#1226,10.);
#349=VECTOR('',#1227,10.);
#350=VECTOR('',#1228,10.);
#351=VECTOR('',#1231,10.);
#352=VECTOR('',#1232,10.);
#353=VECTOR('',#1233,10.);
#354=VECTOR('',#1236,10.);
#355=VECTOR('',#1237,10.);
#356=VECTOR('',#1240,10.);
#357=VECTOR('',#1241,10.);
#358=VECTOR('',#1244,10.);
#359=VECTOR('',#1247,10.);
#360=VECTOR('',#1248,10.);
#361=VECTOR('',#1249,10.);
#362=VECTOR('',#1252,10.);
#363=VECTOR('',#1253,10.);
#364=VECTOR('',#1254,10.);
#365=VECTOR('',#1259,10.);
#366=VECTOR('',#1262,10.);
#367=VECTOR('',#1263,10.);
#368=VECTOR('',#1268,10.);
#369=VECTOR('',#1269,10.);
#370=VECTOR('',#1272,10.);
#371=VECTOR('',#1273,10.);
#372=VECTOR('',#1276,10.);
#373=VECTOR('',#1277,10.);
#374=VECTOR('',#1280,10.);
#375=VECTOR('',#1283,10.);
#376=VECTOR('',#1284,10.);
#377=VECTOR('',#1285,10.);
#378=VECTOR('',#1286,10.);
#379=VECTOR('',#1287,10.);
#380=VECTOR('',#1288,10.);
#381=VECTOR('',#1293,10.);
#382=VECTOR('',#1294,10.);
#383=VECTOR('',#1297,10.);
#384=VECTOR('',#1298,10.);
#385=VECTOR('',#1301,10.);
#386=VECTOR('',#1302,10.);
#387=VECTOR('',#1305,10.);
#388=VECTOR('',#1306,10.);
#389=VECTOR('',#1315,10.);
#390=VECTOR('',#1318,10.);
#391=VECTOR('',#1327,10.);
#392=VECTOR('',#1334,10.);
#393=VECTOR('',#1339,10.);
#394=VECTOR('',#1344,10.);
#395=VECTOR('',#1345,10.);
#396=VECTOR('',#1346,10.);
#397=VECTOR('',#1347,10.);
#398=VECTOR('',#1350,10.);
#399=VECTOR('',#1353,10.);
#400=VECTOR('',#1356,10.);
#401=VECTOR('',#1359,10.);
#402=VECTOR('',#1362,10.);
#403=VECTOR('',#1365,10.);
#404=VECTOR('',#1368,10.);
#405=VECTOR('',#1369,10.);
#406=VECTOR('',#1374,10.);
#407=VECTOR('',#1377,10.);
#408=VECTOR('',#1378,10.);
#409=VECTOR('',#1383,10.);
#410=VECTOR('',#1386,10.);
#411=VECTOR('',#1389,10.);
#412=VERTEX_POINT('',#1394);
#413=VERTEX_POINT('',#1395);
#414=VERTEX_POINT('',#1397);
#415=VERTEX_POINT('',#1399);
#416=VERTEX_POINT('',#1401);
#417=VERTEX_POINT('',#1403);
#418=VERTEX_POINT('',#1405);
#419=VERTEX_POINT('',#1407);
#420=VERTEX_POINT('',#1409);
#421=VERTEX_POINT('',#1411);
#422=VERTEX_POINT('',#1413);
#423=VERTEX_POINT('',#1415);
#424=VERTEX_POINT('',#1417);
#425=VERTEX_POINT('',#1419);
#426=VERTEX_POINT('',#1423);
#427=VERTEX_POINT('',#1425);
#428=VERTEX_POINT('',#1429);
#429=VERTEX_POINT('',#1431);
#430=VERTEX_POINT('',#1433);
#431=VERTEX_POINT('',#1435);
#432=VERTEX_POINT('',#1453);
#433=VERTEX_POINT('',#1456);
#434=VERTEX_POINT('',#1460);
#435=VERTEX_POINT('',#1464);
#436=VERTEX_POINT('',#1466);
#437=VERTEX_POINT('',#1470);
#438=VERTEX_POINT('',#1472);
#439=VERTEX_POINT('',#1474);
#440=VERTEX_POINT('',#1476);
#441=VERTEX_POINT('',#1479);
#442=VERTEX_POINT('',#1481);
#443=VERTEX_POINT('',#1483);
#444=VERTEX_POINT('',#1485);
#445=VERTEX_POINT('',#1487);
#446=VERTEX_POINT('',#1489);
#447=VERTEX_POINT('',#1491);
#448=VERTEX_POINT('',#1495);
#449=VERTEX_POINT('',#1497);
#450=VERTEX_POINT('',#1500);
#451=VERTEX_POINT('',#1503);
#452=VERTEX_POINT('',#1504);
#453=VERTEX_POINT('',#1506);
#454=VERTEX_POINT('',#1508);
#455=VERTEX_POINT('',#1512);
#456=VERTEX_POINT('',#1514);
#457=VERTEX_POINT('',#1531);
#458=VERTEX_POINT('',#1534);
#459=VERTEX_POINT('',#1536);
#460=VERTEX_POINT('',#1541);
#461=VERTEX_POINT('',#1545);
#462=VERTEX_POINT('',#1547);
#463=VERTEX_POINT('',#1551);
#464=VERTEX_POINT('',#1553);
#465=VERTEX_POINT('',#1557);
#466=VERTEX_POINT('',#1559);
#467=VERTEX_POINT('',#1563);
#468=VERTEX_POINT('',#1565);
#469=VERTEX_POINT('',#1569);
#470=VERTEX_POINT('',#1573);
#471=VERTEX_POINT('',#1579);
#472=VERTEX_POINT('',#1581);
#473=VERTEX_POINT('',#1585);
#474=VERTEX_POINT('',#1587);
#475=VERTEX_POINT('',#1591);
#476=VERTEX_POINT('',#1596);
#477=VERTEX_POINT('',#1625);
#478=VERTEX_POINT('',#1644);
#479=VERTEX_POINT('',#1648);
#480=VERTEX_POINT('',#1654);
#481=VERTEX_POINT('',#1656);
#482=VERTEX_POINT('',#1658);
#483=VERTEX_POINT('',#1660);
#484=VERTEX_POINT('',#1666);
#485=VERTEX_POINT('',#1670);
#486=VERTEX_POINT('',#1729);
#487=VERTEX_POINT('',#1769);
#488=VERTEX_POINT('',#1817);
#489=VERTEX_POINT('',#1818);
#490=VERTEX_POINT('',#1820);
#491=VERTEX_POINT('',#1822);
#492=VERTEX_POINT('',#1826);
#493=VERTEX_POINT('',#1828);
#494=VERTEX_POINT('',#1830);
#495=VERTEX_POINT('',#1832);
#496=VERTEX_POINT('',#1834);
#497=VERTEX_POINT('',#1836);
#498=VERTEX_POINT('',#1840);
#499=VERTEX_POINT('',#1842);
#500=VERTEX_POINT('',#1846);
#501=VERTEX_POINT('',#1850);
#502=VERTEX_POINT('',#1854);
#503=VERTEX_POINT('',#1858);
#504=EDGE_CURVE('',#412,#413,#180,.T.);
#505=EDGE_CURVE('',#414,#412,#181,.T.);
#506=EDGE_CURVE('',#415,#414,#182,.T.);
#507=EDGE_CURVE('',#416,#415,#183,.T.);
#508=EDGE_CURVE('',#417,#416,#184,.T.);
#509=EDGE_CURVE('',#418,#417,#185,.T.);
#510=EDGE_CURVE('',#419,#418,#158,.T.);
#511=EDGE_CURVE('',#420,#419,#186,.T.);
#512=EDGE_CURVE('',#421,#420,#159,.T.);
#513=EDGE_CURVE('',#422,#421,#187,.T.);
#514=EDGE_CURVE('',#423,#422,#188,.T.);
#515=EDGE_CURVE('',#424,#423,#160,.T.);
#516=EDGE_CURVE('',#425,#424,#189,.T.);
#517=EDGE_CURVE('',#425,#413,#190,.T.);
#518=EDGE_CURVE('',#426,#417,#191,.T.);
#519=EDGE_CURVE('',#427,#426,#192,.T.);
#520=EDGE_CURVE('',#418,#427,#193,.T.);
#521=EDGE_CURVE('',#416,#428,#194,.T.);
#522=EDGE_CURVE('',#428,#429,#195,.T.);
#523=EDGE_CURVE('',#429,#430,#196,.T.);
#524=EDGE_CURVE('',#430,#431,#197,.T.);
#525=EDGE_CURVE('',#431,#426,#36,.T.);
#526=EDGE_CURVE('',#432,#432,#161,.F.);
#527=EDGE_CURVE('',#433,#415,#198,.T.);
#528=EDGE_CURVE('',#428,#433,#199,.T.);
#529=EDGE_CURVE('',#414,#434,#200,.T.);
#530=EDGE_CURVE('',#434,#433,#201,.T.);
#531=EDGE_CURVE('',#435,#412,#202,.T.);
#532=EDGE_CURVE('',#436,#435,#203,.T.);
#533=EDGE_CURVE('',#436,#434,#204,.T.);
#534=EDGE_CURVE('',#437,#413,#205,.F.);
#535=EDGE_CURVE('',#438,#437,#162,.F.);
#536=EDGE_CURVE('',#439,#438,#206,.T.);
#537=EDGE_CURVE('',#440,#439,#163,.F.);
#538=EDGE_CURVE('',#440,#425,#207,.T.);
#539=EDGE_CURVE('',#441,#424,#208,.T.);
#540=EDGE_CURVE('',#442,#441,#209,.F.);
#541=EDGE_CURVE('',#443,#442,#210,.T.);
#542=EDGE_CURVE('',#444,#443,#211,.T.);
#543=EDGE_CURVE('',#445,#444,#212,.T.);
#544=EDGE_CURVE('',#446,#445,#213,.T.);
#545=EDGE_CURVE('',#447,#446,#214,.T.);
#546=EDGE_CURVE('',#435,#447,#215,.T.);
#547=EDGE_CURVE('',#448,#448,#164,.F.);
#548=EDGE_CURVE('',#449,#448,#165,.T.);
#549=EDGE_CURVE('',#450,#432,#166,.T.);
#550=EDGE_CURVE('',#451,#452,#216,.T.);
#551=EDGE_CURVE('',#453,#451,#217,.T.);
#552=EDGE_CURVE('',#454,#453,#167,.T.);
#553=EDGE_CURVE('',#452,#454,#218,.T.);
#554=EDGE_CURVE('',#422,#455,#219,.T.);
#555=EDGE_CURVE('',#455,#456,#37,.T.);
#556=EDGE_CURVE('',#456,#457,#220,.T.);
#557=EDGE_CURVE('',#457,#452,#221,.T.);
#558=EDGE_CURVE('',#454,#458,#222,.T.);
#559=EDGE_CURVE('',#458,#459,#223,.T.);
#560=EDGE_CURVE('',#459,#423,#224,.T.);
#561=EDGE_CURVE('',#459,#458,#168,.T.);
#562=EDGE_CURVE('',#460,#453,#225,.T.);
#563=EDGE_CURVE('',#460,#441,#169,.F.);
#564=EDGE_CURVE('',#461,#425,#226,.T.);
#565=EDGE_CURVE('',#461,#462,#227,.T.);
#566=EDGE_CURVE('',#413,#462,#228,.T.);
#567=EDGE_CURVE('',#463,#462,#229,.T.);
#568=EDGE_CURVE('',#464,#463,#230,.F.);
#569=EDGE_CURVE('',#437,#464,#231,.T.);
#570=EDGE_CURVE('',#465,#440,#232,.T.);
#571=EDGE_CURVE('',#466,#465,#233,.T.);
#572=EDGE_CURVE('',#461,#466,#234,.T.);
#573=EDGE_CURVE('',#467,#461,#235,.T.);
#574=EDGE_CURVE('',#468,#467,#236,.T.);
#575=EDGE_CURVE('',#462,#468,#237,.T.);
#576=EDGE_CURVE('',#469,#468,#238,.T.);
#577=EDGE_CURVE('',#463,#469,#239,.T.);
#578=EDGE_CURVE('',#470,#467,#240,.T.);
#579=EDGE_CURVE('',#470,#469,#241,.T.);
#580=EDGE_CURVE('',#466,#470,#242,.T.);
#581=EDGE_CURVE('',#471,#457,#243,.T.);
#582=EDGE_CURVE('',#472,#471,#244,.T.);
#583=EDGE_CURVE('',#451,#472,#245,.T.);
#584=EDGE_CURVE('',#472,#473,#246,.T.);
#585=EDGE_CURVE('',#473,#474,#247,.T.);
#586=EDGE_CURVE('',#474,#460,#248,.F.);
#587=EDGE_CURVE('',#475,#465,#170,.T.);
#588=EDGE_CURVE('',#439,#475,#249,.T.);
#589=EDGE_CURVE('',#463,#466,#250,.T.);
#590=EDGE_CURVE('',#475,#476,#251,.T.);
#591=EDGE_CURVE('',#464,#476,#171,.T.);
#592=EDGE_CURVE('',#476,#438,#252,.T.);
#593=EDGE_CURVE('',#427,#477,#38,.T.);
#594=EDGE_CURVE('',#477,#431,#253,.T.);
#595=EDGE_CURVE('',#430,#478,#254,.T.);
#596=EDGE_CURVE('',#477,#478,#255,.T.);
#597=EDGE_CURVE('',#478,#479,#256,.T.);
#598=EDGE_CURVE('',#479,#429,#257,.T.);
#599=EDGE_CURVE('',#479,#434,#258,.T.);
#600=EDGE_CURVE('',#436,#480,#259,.T.);
#601=EDGE_CURVE('',#480,#481,#260,.T.);
#602=EDGE_CURVE('',#481,#482,#261,.T.);
#603=EDGE_CURVE('',#482,#483,#262,.T.);
#604=EDGE_CURVE('',#483,#472,#263,.T.);
#605=EDGE_CURVE('',#478,#471,#264,.T.);
#606=EDGE_CURVE('',#484,#456,#265,.T.);
#607=EDGE_CURVE('',#471,#484,#266,.T.);
#608=EDGE_CURVE('',#485,#421,#267,.T.);
#609=EDGE_CURVE('',#485,#455,#268,.T.);
#610=EDGE_CURVE('',#484,#485,#39,.T.);
#611=EDGE_CURVE('',#482,#445,#269,.T.);
#612=EDGE_CURVE('',#483,#444,#270,.T.);
#613=EDGE_CURVE('',#474,#442,#271,.T.);
#614=EDGE_CURVE('',#473,#443,#272,.T.);
#615=EDGE_CURVE('',#481,#446,#273,.T.);
#616=EDGE_CURVE('',#480,#447,#274,.T.);
#617=EDGE_CURVE('',#486,#427,#172,.T.);
#618=EDGE_CURVE('',#419,#486,#275,.T.);
#619=EDGE_CURVE('',#477,#486,#17,.T.);
#620=EDGE_CURVE('',#487,#484,#18,.T.);
#621=EDGE_CURVE('',#487,#486,#276,.T.);
#622=EDGE_CURVE('',#485,#487,#173,.T.);
#623=EDGE_CURVE('',#420,#487,#277,.T.);
#624=EDGE_CURVE('',#488,#489,#278,.T.);
#625=EDGE_CURVE('',#489,#490,#279,.T.);
#626=EDGE_CURVE('',#491,#490,#280,.T.);
#627=EDGE_CURVE('',#491,#488,#281,.T.);
#628=EDGE_CURVE('',#491,#492,#282,.T.);
#629=EDGE_CURVE('',#492,#493,#174,.T.);
#630=EDGE_CURVE('',#493,#494,#283,.T.);
#631=EDGE_CURVE('',#494,#495,#175,.T.);
#632=EDGE_CURVE('',#495,#496,#284,.T.);
#633=EDGE_CURVE('',#496,#497,#176,.T.);
#634=EDGE_CURVE('',#497,#488,#285,.T.);
#635=EDGE_CURVE('',#498,#492,#286,.T.);
#636=EDGE_CURVE('',#499,#498,#177,.T.);
#637=EDGE_CURVE('',#493,#499,#287,.T.);
#638=EDGE_CURVE('',#500,#499,#288,.T.);
#639=EDGE_CURVE('',#494,#500,#289,.T.);
#640=EDGE_CURVE('',#501,#500,#178,.T.);
#641=EDGE_CURVE('',#495,#501,#290,.T.);
#642=EDGE_CURVE('',#502,#501,#291,.T.);
#643=EDGE_CURVE('',#496,#502,#292,.T.);
#644=EDGE_CURVE('',#503,#502,#179,.T.);
#645=EDGE_CURVE('',#497,#503,#293,.T.);
#646=EDGE_CURVE('',#503,#489,#294,.T.);
#647=EDGE_CURVE('',#498,#490,#295,.T.);
#648=ORIENTED_EDGE('',*,*,#504,.F.);
#649=ORIENTED_EDGE('',*,*,#505,.F.);
#650=ORIENTED_EDGE('',*,*,#506,.F.);
#651=ORIENTED_EDGE('',*,*,#507,.F.);
#652=ORIENTED_EDGE('',*,*,#508,.F.);
#653=ORIENTED_EDGE('',*,*,#509,.F.);
#654=ORIENTED_EDGE('',*,*,#510,.F.);
#655=ORIENTED_EDGE('',*,*,#511,.F.);
#656=ORIENTED_EDGE('',*,*,#512,.F.);
#657=ORIENTED_EDGE('',*,*,#513,.F.);
#658=ORIENTED_EDGE('',*,*,#514,.F.);
#659=ORIENTED_EDGE('',*,*,#515,.F.);
#660=ORIENTED_EDGE('',*,*,#516,.F.);
#661=ORIENTED_EDGE('',*,*,#517,.T.);
#662=ORIENTED_EDGE('',*,*,#509,.T.);
#663=ORIENTED_EDGE('',*,*,#518,.F.);
#664=ORIENTED_EDGE('',*,*,#519,.F.);
#665=ORIENTED_EDGE('',*,*,#520,.F.);
#666=ORIENTED_EDGE('',*,*,#508,.T.);
#667=ORIENTED_EDGE('',*,*,#521,.T.);
#668=ORIENTED_EDGE('',*,*,#522,.T.);
#669=ORIENTED_EDGE('',*,*,#523,.T.);
#670=ORIENTED_EDGE('',*,*,#524,.T.);
#671=ORIENTED_EDGE('',*,*,#525,.T.);
#672=ORIENTED_EDGE('',*,*,#518,.T.);
#673=ORIENTED_EDGE('',*,*,#526,.T.);
#674=ORIENTED_EDGE('',*,*,#507,.T.);
#675=ORIENTED_EDGE('',*,*,#527,.F.);
#676=ORIENTED_EDGE('',*,*,#528,.F.);
#677=ORIENTED_EDGE('',*,*,#521,.F.);
#678=ORIENTED_EDGE('',*,*,#506,.T.);
#679=ORIENTED_EDGE('',*,*,#529,.T.);
#680=ORIENTED_EDGE('',*,*,#530,.T.);
#681=ORIENTED_EDGE('',*,*,#527,.T.);
#682=ORIENTED_EDGE('',*,*,#505,.T.);
#683=ORIENTED_EDGE('',*,*,#531,.F.);
#684=ORIENTED_EDGE('',*,*,#532,.F.);
#685=ORIENTED_EDGE('',*,*,#533,.T.);
#686=ORIENTED_EDGE('',*,*,#529,.F.);
#687=ORIENTED_EDGE('',*,*,#504,.T.);
#688=ORIENTED_EDGE('',*,*,#534,.F.);
#689=ORIENTED_EDGE('',*,*,#535,.F.);
#690=ORIENTED_EDGE('',*,*,#536,.F.);
#691=ORIENTED_EDGE('',*,*,#537,.F.);
#692=ORIENTED_EDGE('',*,*,#538,.T.);
#693=ORIENTED_EDGE('',*,*,#516,.T.);
#694=ORIENTED_EDGE('',*,*,#539,.F.);
#695=ORIENTED_EDGE('',*,*,#540,.F.);
#696=ORIENTED_EDGE('',*,*,#541,.F.);
#697=ORIENTED_EDGE('',*,*,#542,.F.);
#698=ORIENTED_EDGE('',*,*,#543,.F.);
#699=ORIENTED_EDGE('',*,*,#544,.F.);
#700=ORIENTED_EDGE('',*,*,#545,.F.);
#701=ORIENTED_EDGE('',*,*,#546,.F.);
#702=ORIENTED_EDGE('',*,*,#531,.T.);
#703=ORIENTED_EDGE('',*,*,#547,.F.);
#704=ORIENTED_EDGE('',*,*,#548,.F.);
#705=ORIENTED_EDGE('',*,*,#548,.T.);
#706=ORIENTED_EDGE('',*,*,#526,.F.);
#707=ORIENTED_EDGE('',*,*,#549,.F.);
#708=ORIENTED_EDGE('',*,*,#549,.T.);
#709=ORIENTED_EDGE('',*,*,#550,.F.);
#710=ORIENTED_EDGE('',*,*,#551,.F.);
#711=ORIENTED_EDGE('',*,*,#552,.F.);
#712=ORIENTED_EDGE('',*,*,#553,.F.);
#713=ORIENTED_EDGE('',*,*,#514,.T.);
#714=ORIENTED_EDGE('',*,*,#554,.T.);
#715=ORIENTED_EDGE('',*,*,#555,.T.);
#716=ORIENTED_EDGE('',*,*,#556,.T.);
#717=ORIENTED_EDGE('',*,*,#557,.T.);
#718=ORIENTED_EDGE('',*,*,#553,.T.);
#719=ORIENTED_EDGE('',*,*,#558,.T.);
#720=ORIENTED_EDGE('',*,*,#559,.T.);
#721=ORIENTED_EDGE('',*,*,#560,.T.);
#722=ORIENTED_EDGE('',*,*,#547,.T.);
#723=ORIENTED_EDGE('',*,*,#515,.T.);
#724=ORIENTED_EDGE('',*,*,#560,.F.);
#725=ORIENTED_EDGE('',*,*,#561,.T.);
#726=ORIENTED_EDGE('',*,*,#558,.F.);
#727=ORIENTED_EDGE('',*,*,#552,.T.);
#728=ORIENTED_EDGE('',*,*,#562,.F.);
#729=ORIENTED_EDGE('',*,*,#563,.T.);
#730=ORIENTED_EDGE('',*,*,#539,.T.);
#731=ORIENTED_EDGE('',*,*,#564,.F.);
#732=ORIENTED_EDGE('',*,*,#565,.T.);
#733=ORIENTED_EDGE('',*,*,#566,.F.);
#734=ORIENTED_EDGE('',*,*,#517,.F.);
#735=ORIENTED_EDGE('',*,*,#566,.T.);
#736=ORIENTED_EDGE('',*,*,#567,.F.);
#737=ORIENTED_EDGE('',*,*,#568,.F.);
#738=ORIENTED_EDGE('',*,*,#569,.F.);
#739=ORIENTED_EDGE('',*,*,#534,.T.);
#740=ORIENTED_EDGE('',*,*,#538,.F.);
#741=ORIENTED_EDGE('',*,*,#570,.F.);
#742=ORIENTED_EDGE('',*,*,#571,.F.);
#743=ORIENTED_EDGE('',*,*,#572,.F.);
#744=ORIENTED_EDGE('',*,*,#564,.T.);
#745=ORIENTED_EDGE('',*,*,#565,.F.);
#746=ORIENTED_EDGE('',*,*,#573,.F.);
#747=ORIENTED_EDGE('',*,*,#574,.F.);
#748=ORIENTED_EDGE('',*,*,#575,.F.);
#749=ORIENTED_EDGE('',*,*,#575,.T.);
#750=ORIENTED_EDGE('',*,*,#576,.F.);
#751=ORIENTED_EDGE('',*,*,#577,.F.);
#752=ORIENTED_EDGE('',*,*,#567,.T.);
#753=ORIENTED_EDGE('',*,*,#574,.T.);
#754=ORIENTED_EDGE('',*,*,#578,.F.);
#755=ORIENTED_EDGE('',*,*,#579,.T.);
#756=ORIENTED_EDGE('',*,*,#576,.T.);
#757=ORIENTED_EDGE('',*,*,#573,.T.);
#758=ORIENTED_EDGE('',*,*,#572,.T.);
#759=ORIENTED_EDGE('',*,*,#580,.T.);
#760=ORIENTED_EDGE('',*,*,#578,.T.);
#761=ORIENTED_EDGE('',*,*,#550,.T.);
#762=ORIENTED_EDGE('',*,*,#557,.F.);
#763=ORIENTED_EDGE('',*,*,#581,.F.);
#764=ORIENTED_EDGE('',*,*,#582,.F.);
#765=ORIENTED_EDGE('',*,*,#583,.F.);
#766=ORIENTED_EDGE('',*,*,#551,.T.);
#767=ORIENTED_EDGE('',*,*,#583,.T.);
#768=ORIENTED_EDGE('',*,*,#584,.T.);
#769=ORIENTED_EDGE('',*,*,#585,.T.);
#770=ORIENTED_EDGE('',*,*,#586,.T.);
#771=ORIENTED_EDGE('',*,*,#562,.T.);
#772=ORIENTED_EDGE('',*,*,#587,.T.);
#773=ORIENTED_EDGE('',*,*,#570,.T.);
#774=ORIENTED_EDGE('',*,*,#537,.T.);
#775=ORIENTED_EDGE('',*,*,#588,.T.);
#776=ORIENTED_EDGE('',*,*,#589,.T.);
#777=ORIENTED_EDGE('',*,*,#571,.T.);
#778=ORIENTED_EDGE('',*,*,#587,.F.);
#779=ORIENTED_EDGE('',*,*,#590,.T.);
#780=ORIENTED_EDGE('',*,*,#591,.F.);
#781=ORIENTED_EDGE('',*,*,#568,.T.);
#782=ORIENTED_EDGE('',*,*,#591,.T.);
#783=ORIENTED_EDGE('',*,*,#592,.T.);
#784=ORIENTED_EDGE('',*,*,#535,.T.);
#785=ORIENTED_EDGE('',*,*,#569,.T.);
#786=ORIENTED_EDGE('',*,*,#593,.F.);
#787=ORIENTED_EDGE('',*,*,#519,.T.);
#788=ORIENTED_EDGE('',*,*,#525,.F.);
#789=ORIENTED_EDGE('',*,*,#594,.F.);
#790=ORIENTED_EDGE('',*,*,#595,.T.);
#791=ORIENTED_EDGE('',*,*,#596,.F.);
#792=ORIENTED_EDGE('',*,*,#594,.T.);
#793=ORIENTED_EDGE('',*,*,#524,.F.);
#794=ORIENTED_EDGE('',*,*,#597,.F.);
#795=ORIENTED_EDGE('',*,*,#595,.F.);
#796=ORIENTED_EDGE('',*,*,#523,.F.);
#797=ORIENTED_EDGE('',*,*,#598,.F.);
#798=ORIENTED_EDGE('',*,*,#528,.T.);
#799=ORIENTED_EDGE('',*,*,#530,.F.);
#800=ORIENTED_EDGE('',*,*,#599,.F.);
#801=ORIENTED_EDGE('',*,*,#598,.T.);
#802=ORIENTED_EDGE('',*,*,#522,.F.);
#803=ORIENTED_EDGE('',*,*,#599,.T.);
#804=ORIENTED_EDGE('',*,*,#533,.F.);
#805=ORIENTED_EDGE('',*,*,#600,.T.);
#806=ORIENTED_EDGE('',*,*,#601,.T.);
#807=ORIENTED_EDGE('',*,*,#602,.T.);
#808=ORIENTED_EDGE('',*,*,#603,.T.);
#809=ORIENTED_EDGE('',*,*,#604,.T.);
#810=ORIENTED_EDGE('',*,*,#582,.T.);
#811=ORIENTED_EDGE('',*,*,#605,.F.);
#812=ORIENTED_EDGE('',*,*,#597,.T.);
#813=ORIENTED_EDGE('',*,*,#577,.T.);
#814=ORIENTED_EDGE('',*,*,#579,.F.);
#815=ORIENTED_EDGE('',*,*,#580,.F.);
#816=ORIENTED_EDGE('',*,*,#589,.F.);
#817=ORIENTED_EDGE('',*,*,#581,.T.);
#818=ORIENTED_EDGE('',*,*,#556,.F.);
#819=ORIENTED_EDGE('',*,*,#606,.F.);
#820=ORIENTED_EDGE('',*,*,#607,.F.);
#821=ORIENTED_EDGE('',*,*,#513,.T.);
#822=ORIENTED_EDGE('',*,*,#608,.F.);
#823=ORIENTED_EDGE('',*,*,#609,.T.);
#824=ORIENTED_EDGE('',*,*,#554,.F.);
#825=ORIENTED_EDGE('',*,*,#610,.F.);
#826=ORIENTED_EDGE('',*,*,#606,.T.);
#827=ORIENTED_EDGE('',*,*,#555,.F.);
#828=ORIENTED_EDGE('',*,*,#609,.F.);
#829=ORIENTED_EDGE('',*,*,#611,.T.);
#830=ORIENTED_EDGE('',*,*,#543,.T.);
#831=ORIENTED_EDGE('',*,*,#612,.F.);
#832=ORIENTED_EDGE('',*,*,#603,.F.);
#833=ORIENTED_EDGE('',*,*,#613,.F.);
#834=ORIENTED_EDGE('',*,*,#585,.F.);
#835=ORIENTED_EDGE('',*,*,#614,.T.);
#836=ORIENTED_EDGE('',*,*,#541,.T.);
#837=ORIENTED_EDGE('',*,*,#604,.F.);
#838=ORIENTED_EDGE('',*,*,#612,.T.);
#839=ORIENTED_EDGE('',*,*,#542,.T.);
#840=ORIENTED_EDGE('',*,*,#614,.F.);
#841=ORIENTED_EDGE('',*,*,#584,.F.);
#842=ORIENTED_EDGE('',*,*,#613,.T.);
#843=ORIENTED_EDGE('',*,*,#540,.T.);
#844=ORIENTED_EDGE('',*,*,#563,.F.);
#845=ORIENTED_EDGE('',*,*,#586,.F.);
#846=ORIENTED_EDGE('',*,*,#588,.F.);
#847=ORIENTED_EDGE('',*,*,#536,.T.);
#848=ORIENTED_EDGE('',*,*,#592,.F.);
#849=ORIENTED_EDGE('',*,*,#590,.F.);
#850=ORIENTED_EDGE('',*,*,#602,.F.);
#851=ORIENTED_EDGE('',*,*,#615,.T.);
#852=ORIENTED_EDGE('',*,*,#544,.T.);
#853=ORIENTED_EDGE('',*,*,#611,.F.);
#854=ORIENTED_EDGE('',*,*,#601,.F.);
#855=ORIENTED_EDGE('',*,*,#616,.T.);
#856=ORIENTED_EDGE('',*,*,#545,.T.);
#857=ORIENTED_EDGE('',*,*,#615,.F.);
#858=ORIENTED_EDGE('',*,*,#532,.T.);
#859=ORIENTED_EDGE('',*,*,#546,.T.);
#860=ORIENTED_EDGE('',*,*,#616,.F.);
#861=ORIENTED_EDGE('',*,*,#600,.F.);
#862=ORIENTED_EDGE('',*,*,#561,.F.);
#863=ORIENTED_EDGE('',*,*,#559,.F.);
#864=ORIENTED_EDGE('',*,*,#510,.T.);
#865=ORIENTED_EDGE('',*,*,#520,.T.);
#866=ORIENTED_EDGE('',*,*,#617,.F.);
#867=ORIENTED_EDGE('',*,*,#618,.F.);
#868=ORIENTED_EDGE('',*,*,#593,.T.);
#869=ORIENTED_EDGE('',*,*,#619,.T.);
#870=ORIENTED_EDGE('',*,*,#617,.T.);
#871=ORIENTED_EDGE('',*,*,#596,.T.);
#872=ORIENTED_EDGE('',*,*,#605,.T.);
#873=ORIENTED_EDGE('',*,*,#607,.T.);
#874=ORIENTED_EDGE('',*,*,#620,.F.);
#875=ORIENTED_EDGE('',*,*,#621,.T.);
#876=ORIENTED_EDGE('',*,*,#619,.F.);
#877=ORIENTED_EDGE('',*,*,#610,.T.);
#878=ORIENTED_EDGE('',*,*,#622,.T.);
#879=ORIENTED_EDGE('',*,*,#620,.T.);
#880=ORIENTED_EDGE('',*,*,#511,.T.);
#881=ORIENTED_EDGE('',*,*,#618,.T.);
#882=ORIENTED_EDGE('',*,*,#621,.F.);
#883=ORIENTED_EDGE('',*,*,#623,.F.);
#884=ORIENTED_EDGE('',*,*,#512,.T.);
#885=ORIENTED_EDGE('',*,*,#623,.T.);
#886=ORIENTED_EDGE('',*,*,#622,.F.);
#887=ORIENTED_EDGE('',*,*,#608,.T.);
#888=ORIENTED_EDGE('',*,*,#624,.T.);
#889=ORIENTED_EDGE('',*,*,#625,.T.);
#890=ORIENTED_EDGE('',*,*,#626,.F.);
#891=ORIENTED_EDGE('',*,*,#627,.T.);
#892=ORIENTED_EDGE('',*,*,#628,.T.);
#893=ORIENTED_EDGE('',*,*,#629,.T.);
#894=ORIENTED_EDGE('',*,*,#630,.T.);
#895=ORIENTED_EDGE('',*,*,#631,.T.);
#896=ORIENTED_EDGE('',*,*,#632,.T.);
#897=ORIENTED_EDGE('',*,*,#633,.T.);
#898=ORIENTED_EDGE('',*,*,#634,.T.);
#899=ORIENTED_EDGE('',*,*,#627,.F.);
#900=ORIENTED_EDGE('',*,*,#635,.F.);
#901=ORIENTED_EDGE('',*,*,#636,.F.);
#902=ORIENTED_EDGE('',*,*,#637,.F.);
#903=ORIENTED_EDGE('',*,*,#629,.F.);
#904=ORIENTED_EDGE('',*,*,#637,.T.);
#905=ORIENTED_EDGE('',*,*,#638,.F.);
#906=ORIENTED_EDGE('',*,*,#639,.F.);
#907=ORIENTED_EDGE('',*,*,#630,.F.);
#908=ORIENTED_EDGE('',*,*,#639,.T.);
#909=ORIENTED_EDGE('',*,*,#640,.F.);
#910=ORIENTED_EDGE('',*,*,#641,.F.);
#911=ORIENTED_EDGE('',*,*,#631,.F.);
#912=ORIENTED_EDGE('',*,*,#641,.T.);
#913=ORIENTED_EDGE('',*,*,#642,.F.);
#914=ORIENTED_EDGE('',*,*,#643,.F.);
#915=ORIENTED_EDGE('',*,*,#632,.F.);
#916=ORIENTED_EDGE('',*,*,#643,.T.);
#917=ORIENTED_EDGE('',*,*,#644,.F.);
#918=ORIENTED_EDGE('',*,*,#645,.F.);
#919=ORIENTED_EDGE('',*,*,#633,.F.);
#920=ORIENTED_EDGE('',*,*,#645,.T.);
#921=ORIENTED_EDGE('',*,*,#646,.T.);
#922=ORIENTED_EDGE('',*,*,#624,.F.);
#923=ORIENTED_EDGE('',*,*,#634,.F.);
#924=ORIENTED_EDGE('',*,*,#626,.T.);
#925=ORIENTED_EDGE('',*,*,#647,.F.);
#926=ORIENTED_EDGE('',*,*,#635,.T.);
#927=ORIENTED_EDGE('',*,*,#628,.F.);
#928=ORIENTED_EDGE('',*,*,#647,.T.);
#929=ORIENTED_EDGE('',*,*,#625,.F.);
#930=ORIENTED_EDGE('',*,*,#646,.F.);
#931=ORIENTED_EDGE('',*,*,#644,.T.);
#932=ORIENTED_EDGE('',*,*,#642,.T.);
#933=ORIENTED_EDGE('',*,*,#640,.T.);
#934=ORIENTED_EDGE('',*,*,#638,.T.);
#935=ORIENTED_EDGE('',*,*,#636,.T.);
#936=PLANE('',#1040);
#937=PLANE('',#1044);
#938=PLANE('',#1045);
#939=PLANE('',#1047);
#940=PLANE('',#1048);
#941=PLANE('',#1049);
#942=PLANE('',#1050);
#943=PLANE('',#1058);
#944=PLANE('',#1060);
#945=PLANE('',#1064);
#946=PLANE('',#1065);
#947=PLANE('',#1066);
#948=PLANE('',#1067);
#949=PLANE('',#1068);
#950=PLANE('',#1069);
#951=PLANE('',#1070);
#952=PLANE('',#1071);
#953=PLANE('',#1072);
#954=PLANE('',#1075);
#955=PLANE('',#1078);
#956=PLANE('',#1079);
#957=PLANE('',#1080);
#958=PLANE('',#1081);
#959=PLANE('',#1082);
#960=PLANE('',#1083);
#961=PLANE('',#1084);
#962=PLANE('',#1085);
#963=PLANE('',#1086);
#964=PLANE('',#1087);
#965=PLANE('',#1088);
#966=PLANE('',#1089);
#967=PLANE('',#1090);
#968=PLANE('',#1091);
#969=PLANE('',#1092);
#970=PLANE('',#1093);
#971=PLANE('',#1100);
#972=PLANE('',#1102);
#973=PLANE('',#1103);
#974=PLANE('',#1109);
#975=PLANE('',#1112);
#976=PLANE('',#1115);
#977=PLANE('',#1116);
#978=PLANE('',#1117);
#979=ADVANCED_FACE('',(#40),#936,.F.);
#980=ADVANCED_FACE('',(#41),#937,.T.);
#981=ADVANCED_FACE('',(#42,#34),#938,.F.);
#982=ADVANCED_FACE('',(#43),#939,.F.);
#983=ADVANCED_FACE('',(#44),#940,.T.);
#984=ADVANCED_FACE('',(#45),#941,.T.);
#985=ADVANCED_FACE('',(#46),#942,.F.);
#986=ADVANCED_FACE('',(#47),#32,.F.);
#987=ADVANCED_FACE('',(#48),#33,.F.);
#988=ADVANCED_FACE('',(#49),#943,.T.);
#989=ADVANCED_FACE('',(#50,#35),#944,.F.);
#990=ADVANCED_FACE('',(#51),#23,.F.);
#991=ADVANCED_FACE('',(#52),#945,.F.);
#992=ADVANCED_FACE('',(#53),#946,.F.);
#993=ADVANCED_FACE('',(#54),#947,.F.);
#994=ADVANCED_FACE('',(#55),#948,.F.);
#995=ADVANCED_FACE('',(#56),#949,.F.);
#996=ADVANCED_FACE('',(#57),#950,.F.);
#997=ADVANCED_FACE('',(#58),#951,.T.);
#998=ADVANCED_FACE('',(#59),#952,.F.);
#999=ADVANCED_FACE('',(#60),#953,.T.);
#1000=ADVANCED_FACE('',(#61),#24,.T.);
#1001=ADVANCED_FACE('',(#62),#954,.F.);
#1002=ADVANCED_FACE('',(#63),#25,.T.);
#1003=ADVANCED_FACE('',(#64),#19,.T.);
#1004=ADVANCED_FACE('',(#65),#955,.T.);
#1005=ADVANCED_FACE('',(#66),#956,.F.);
#1006=ADVANCED_FACE('',(#67),#957,.F.);
#1007=ADVANCED_FACE('',(#68),#958,.F.);
#1008=ADVANCED_FACE('',(#69),#959,.F.);
#1009=ADVANCED_FACE('',(#70),#960,.T.);
#1010=ADVANCED_FACE('',(#71),#961,.T.);
#1011=ADVANCED_FACE('',(#72),#20,.T.);
#1012=ADVANCED_FACE('',(#73),#962,.F.);
#1013=ADVANCED_FACE('',(#74),#963,.F.);
#1014=ADVANCED_FACE('',(#75),#964,.F.);
#1015=ADVANCED_FACE('',(#76),#965,.F.);
#1016=ADVANCED_FACE('',(#77),#966,.F.);
#1017=ADVANCED_FACE('',(#78),#967,.F.);
#1018=ADVANCED_FACE('',(#79),#968,.F.);
#1019=ADVANCED_FACE('',(#80),#969,.F.);
#1020=ADVANCED_FACE('',(#81),#970,.F.);
#1021=ADVANCED_FACE('',(#82),#26,.T.);
#1022=ADVANCED_FACE('',(#83),#21,.F.);
#1023=ADVANCED_FACE('',(#84),#27,.T.);
#1024=ADVANCED_FACE('',(#85),#22,.F.);
#1025=ADVANCED_FACE('',(#86),#971,.T.);
#1026=ADVANCED_FACE('',(#87),#28,.T.);
#1027=ADVANCED_FACE('',(#88),#972,.T.);
#1028=ADVANCED_FACE('',(#89),#973,.T.);
#1029=ADVANCED_FACE('',(#90),#29,.F.);
#1030=ADVANCED_FACE('',(#91),#974,.T.);
#1031=ADVANCED_FACE('',(#92),#30,.T.);
#1032=ADVANCED_FACE('',(#93),#975,.T.);
#1033=ADVANCED_FACE('',(#94),#31,.T.);
#1034=ADVANCED_FACE('',(#95),#976,.T.);
#1035=ADVANCED_FACE('',(#96),#977,.T.);
#1036=ADVANCED_FACE('',(#97),#978,.F.);
#1037=CLOSED_SHELL('',(#979,#980,#981,#982,#983,#984,#985,#986,#987,#988,
#989,#990,#991,#992,#993,#994,#995,#996,#997,#998,#999,#1000,#1001,#1002,
#1003,#1004,#1005,#1006,#1007,#1008,#1009,#1010,#1011,#1012,#1013,#1014,
#1015,#1016,#1017,#1018,#1019,#1020,#1021,#1022,#1023,#1024,#1025,#1026));
#1038=CLOSED_SHELL('',(#1027,#1028,#1029,#1030,#1031,#1032,#1033,#1034,
#1035,#1036));
#1039=AXIS2_PLACEMENT_3D('',#1392,#1118,#1119);
#1040=AXIS2_PLACEMENT_3D('',#1393,#1120,#1121);
#1041=AXIS2_PLACEMENT_3D('',#1408,#1128,#1129);
#1042=AXIS2_PLACEMENT_3D('',#1412,#1131,#1132);
#1043=AXIS2_PLACEMENT_3D('',#1418,#1135,#1136);
#1044=AXIS2_PLACEMENT_3D('',#1422,#1139,#1140);
#1045=AXIS2_PLACEMENT_3D('',#1428,#1144,#1145);
#1046=AXIS2_PLACEMENT_3D('',#1454,#1150,#1151);
#1047=AXIS2_PLACEMENT_3D('',#1455,#1152,#1153);
#1048=AXIS2_PLACEMENT_3D('',#1459,#1156,#1157);
#1049=AXIS2_PLACEMENT_3D('',#1463,#1160,#1161);
#1050=AXIS2_PLACEMENT_3D('',#1469,#1165,#1166);
#1051=AXIS2_PLACEMENT_3D('',#1473,#1168,#1169);
#1052=AXIS2_PLACEMENT_3D('',#1477,#1171,#1172);
#1053=AXIS2_PLACEMENT_3D('',#1494,#1182,#1183);
#1054=AXIS2_PLACEMENT_3D('',#1496,#1184,#1185);
#1055=AXIS2_PLACEMENT_3D('',#1498,#1186,#1187);
#1056=AXIS2_PLACEMENT_3D('',#1499,#1188,#1189);
#1057=AXIS2_PLACEMENT_3D('',#1501,#1190,#1191);
#1058=AXIS2_PLACEMENT_3D('',#1502,#1192,#1193);
#1059=AXIS2_PLACEMENT_3D('',#1509,#1196,#1197);
#1060=AXIS2_PLACEMENT_3D('',#1511,#1199,#1200);
#1061=AXIS2_PLACEMENT_3D('',#1539,#1207,#1208);
#1062=AXIS2_PLACEMENT_3D('',#1540,#1209,#1210);
#1063=AXIS2_PLACEMENT_3D('',#1543,#1212,#1213);
#1064=AXIS2_PLACEMENT_3D('',#1544,#1214,#1215);
#1065=AXIS2_PLACEMENT_3D('',#1550,#1219,#1220);
#1066=AXIS2_PLACEMENT_3D('',#1556,#1224,#1225);
#1067=AXIS2_PLACEMENT_3D('',#1562,#1229,#1230);
#1068=AXIS2_PLACEMENT_3D('',#1568,#1234,#1235);
#1069=AXIS2_PLACEMENT_3D('',#1572,#1238,#1239);
#1070=AXIS2_PLACEMENT_3D('',#1576,#1242,#1243);
#1071=AXIS2_PLACEMENT_3D('',#1578,#1245,#1246);
#1072=AXIS2_PLACEMENT_3D('',#1584,#1250,#1251);
#1073=AXIS2_PLACEMENT_3D('',#1590,#1255,#1256);
#1074=AXIS2_PLACEMENT_3D('',#1592,#1257,#1258);
#1075=AXIS2_PLACEMENT_3D('',#1594,#1260,#1261);
#1076=AXIS2_PLACEMENT_3D('',#1598,#1264,#1265);
#1077=AXIS2_PLACEMENT_3D('',#1599,#1266,#1267);
#1078=AXIS2_PLACEMENT_3D('',#1643,#1270,#1271);
#1079=AXIS2_PLACEMENT_3D('',#1647,#1274,#1275);
#1080=AXIS2_PLACEMENT_3D('',#1651,#1278,#1279);
#1081=AXIS2_PLACEMENT_3D('',#1653,#1281,#1282);
#1082=AXIS2_PLACEMENT_3D('',#1664,#1289,#1290);
#1083=AXIS2_PLACEMENT_3D('',#1665,#1291,#1292);
#1084=AXIS2_PLACEMENT_3D('',#1669,#1295,#1296);
#1085=AXIS2_PLACEMENT_3D('',#1713,#1299,#1300);
#1086=AXIS2_PLACEMENT_3D('',#1716,#1303,#1304);
#1087=AXIS2_PLACEMENT_3D('',#1719,#1307,#1308);
#1088=AXIS2_PLACEMENT_3D('',#1720,#1309,#1310);
#1089=AXIS2_PLACEMENT_3D('',#1721,#1311,#1312);
#1090=AXIS2_PLACEMENT_3D('',#1722,#1313,#1314);
#1091=AXIS2_PLACEMENT_3D('',#1724,#1316,#1317);
#1092=AXIS2_PLACEMENT_3D('',#1726,#1319,#1320);
#1093=AXIS2_PLACEMENT_3D('',#1727,#1321,#1322);
#1094=AXIS2_PLACEMENT_3D('',#1728,#1323,#1324);
#1095=AXIS2_PLACEMENT_3D('',#1730,#1325,#1326);
#1096=AXIS2_PLACEMENT_3D('',#1767,#1328,#1329);
#1097=AXIS2_PLACEMENT_3D('',#1768,#1330,#1331);
#1098=AXIS2_PLACEMENT_3D('',#1770,#1332,#1333);
#1099=AXIS2_PLACEMENT_3D('',#1812,#1335,#1336);
#1100=AXIS2_PLACEMENT_3D('',#1813,#1337,#1338);
#1101=AXIS2_PLACEMENT_3D('',#1815,#1340,#1341);
#1102=AXIS2_PLACEMENT_3D('',#1816,#1342,#1343);
#1103=AXIS2_PLACEMENT_3D('',#1825,#1348,#1349);
#1104=AXIS2_PLACEMENT_3D('',#1829,#1351,#1352);
#1105=AXIS2_PLACEMENT_3D('',#1833,#1354,#1355);
#1106=AXIS2_PLACEMENT_3D('',#1837,#1357,#1358);
#1107=AXIS2_PLACEMENT_3D('',#1839,#1360,#1361);
#1108=AXIS2_PLACEMENT_3D('',#1843,#1363,#1364);
#1109=AXIS2_PLACEMENT_3D('',#1845,#1366,#1367);
#1110=AXIS2_PLACEMENT_3D('',#1849,#1370,#1371);
#1111=AXIS2_PLACEMENT_3D('',#1851,#1372,#1373);
#1112=AXIS2_PLACEMENT_3D('',#1853,#1375,#1376);
#1113=AXIS2_PLACEMENT_3D('',#1857,#1379,#1380);
#1114=AXIS2_PLACEMENT_3D('',#1859,#1381,#1382);
#1115=AXIS2_PLACEMENT_3D('',#1861,#1384,#1385);
#1116=AXIS2_PLACEMENT_3D('',#1863,#1387,#1388);
#1117=AXIS2_PLACEMENT_3D('',#1865,#1390,#1391);
#1118=DIRECTION('axis',(0.,0.,1.));
#1119=DIRECTION('refdir',(1.,0.,0.));
#1120=DIRECTION('center_axis',(0.,0.,1.));
#1121=DIRECTION('ref_axis',(1.,0.,0.));
#1122=DIRECTION('',(-1.,0.,0.));
#1123=DIRECTION('',(0.,-1.,0.));
#1124=DIRECTION('',(1.,-9.01138988943489E-24,0.));
#1125=DIRECTION('',(0.,-1.,0.));
#1126=DIRECTION('',(-1.,9.01138988943489E-24,0.));
#1127=DIRECTION('',(0.,1.,0.));
#1128=DIRECTION('center_axis',(0.,0.,1.));
#1129=DIRECTION('ref_axis',(0.,-1.,0.));
#1130=DIRECTION('',(1.,0.,0.));
#1131=DIRECTION('center_axis',(0.,0.,1.));
#1132=DIRECTION('ref_axis',(-1.,-1.12757025938492E-16,0.));
#1133=DIRECTION('',(0.,-1.,0.));
#1134=DIRECTION('',(-1.,9.01138988943489E-24,0.));
#1135=DIRECTION('center_axis',(0.,0.,-1.));
#1136=DIRECTION('ref_axis',(1.,0.,0.));
#1137=DIRECTION('',(-1.,0.,0.));
#1138=DIRECTION('',(1.,-3.71686181131396E-82,0.));
#1139=DIRECTION('center_axis',(1.,0.,0.));
#1140=DIRECTION('ref_axis',(0.,0.,-1.));
#1141=DIRECTION('',(0.,0.,-1.));
#1142=DIRECTION('',(0.,1.,0.));
#1143=DIRECTION('',(0.,0.,1.));
#1144=DIRECTION('center_axis',(-9.01138988943489E-24,-1.,-6.31088723951704E-30));
#1145=DIRECTION('ref_axis',(0.,6.31088723951704E-30,-1.));
#1146=DIRECTION('',(0.,-6.31088723951704E-30,1.));
#1147=DIRECTION('',(1.,-9.01138988943489E-24,-1.04971031249319E-15));
#1148=DIRECTION('',(9.72274738965752E-16,-6.31088724827859E-30,1.));
#1149=DIRECTION('',(1.,0.,0.));
#1150=DIRECTION('center_axis',(9.01138988943489E-24,1.,6.31088723951704E-30));
#1151=DIRECTION('ref_axis',(0.,-6.31088723951704E-30,1.));
#1152=DIRECTION('center_axis',(1.,0.,0.));
#1153=DIRECTION('ref_axis',(0.,-7.23929203686377E-45,1.));
#1154=DIRECTION('',(0.,6.31088723951704E-30,-1.));
#1155=DIRECTION('',(0.,-1.,0.));
#1156=DIRECTION('center_axis',(-9.01138988943489E-24,-1.,-6.31088723951704E-30));
#1157=DIRECTION('ref_axis',(0.,6.31088723951704E-30,-1.));
#1158=DIRECTION('',(-4.93038065763134E-32,-6.31088723951704E-30,1.));
#1159=DIRECTION('',(-1.,9.01138988943489E-24,1.04971031249319E-15));
#1160=DIRECTION('center_axis',(-1.,0.,-4.93038065763134E-32));
#1161=DIRECTION('ref_axis',(-4.93038065763134E-32,0.,1.));
#1162=DIRECTION('',(4.93038065763134E-32,0.,-1.));
#1163=DIRECTION('',(0.,-1.,0.));
#1164=DIRECTION('',(4.93038065763135E-32,6.31088723951704E-30,-1.));
#1165=DIRECTION('center_axis',(0.,-1.,0.));
#1166=DIRECTION('ref_axis',(0.,0.,-1.));
#1167=DIRECTION('',(-4.93038065763132E-32,0.,1.));
#1168=DIRECTION('center_axis',(0.,-1.,0.));
#1169=DIRECTION('ref_axis',(0.707106781186547,0.,0.707106781186548));
#1170=DIRECTION('',(1.,0.,4.93038065763132E-32));
#1171=DIRECTION('center_axis',(0.,-1.,0.));
#1172=DIRECTION('ref_axis',(-0.707106781186547,0.,0.707106781186548));
#1173=DIRECTION('',(0.,0.,-1.));
#1174=DIRECTION('',(0.,0.,-1.));
#1175=DIRECTION('',(1.,0.,0.));
#1176=DIRECTION('',(4.93038065763132E-32,1.39937455517499E-45,-1.));
#1177=DIRECTION('',(-1.,-1.32680286575857E-44,-4.93038065763132E-32));
#1178=DIRECTION('',(-4.93038065763132E-32,0.,1.));
#1179=DIRECTION('',(-1.,0.,0.));
#1180=DIRECTION('',(4.93038065763132E-32,0.,-1.));
#1181=DIRECTION('',(-1.,0.,-4.93038065763132E-32));
#1182=DIRECTION('center_axis',(0.,1.,0.));
#1183=DIRECTION('ref_axis',(0.,0.,-1.));
#1184=DIRECTION('center_axis',(9.01138988943489E-24,1.,6.31088723951704E-30));
#1185=DIRECTION('ref_axis',(0.,-6.31088723951704E-30,1.));
#1186=DIRECTION('center_axis',(-1.,0.,0.));
#1187=DIRECTION('ref_axis',(0.,0.,1.));
#1188=DIRECTION('center_axis',(0.,1.,0.));
#1189=DIRECTION('ref_axis',(0.,0.,-1.));
#1190=DIRECTION('center_axis',(-1.,0.,0.));
#1191=DIRECTION('ref_axis',(0.,0.,1.));
#1192=DIRECTION('center_axis',(0.,0.,-1.));
#1193=DIRECTION('ref_axis',(-1.,9.01138988943489E-24,0.));
#1194=DIRECTION('',(0.,1.,0.));
#1195=DIRECTION('',(1.,-9.01138988943489E-24,0.));
#1196=DIRECTION('center_axis',(0.,0.,-1.));
#1197=DIRECTION('ref_axis',(1.,0.,0.));
#1198=DIRECTION('',(-1.,9.01138988943489E-24,0.));
#1199=DIRECTION('center_axis',(-9.01138988943489E-24,-1.,-6.31088723951704E-30));
#1200=DIRECTION('ref_axis',(0.,6.31088723951704E-30,-1.));
#1201=DIRECTION('',(0.,0.,1.));
#1202=DIRECTION('',(1.,0.,0.));
#1203=DIRECTION('',(2.52035320773767E-17,6.31088723928992E-30,-1.));
#1204=DIRECTION('',(0.,0.,1.));
#1205=DIRECTION('',(-1.,9.01138988943489E-24,0.));
#1206=DIRECTION('',(0.,0.,-1.));
#1207=DIRECTION('center_axis',(0.,0.,1.));
#1208=DIRECTION('ref_axis',(-1.83697019872103E-16,-1.,0.));
#1209=DIRECTION('center_axis',(0.,0.,1.));
#1210=DIRECTION('ref_axis',(1.,0.,0.));
#1211=DIRECTION('',(0.,0.,-1.));
#1212=DIRECTION('center_axis',(0.,0.,1.));
#1213=DIRECTION('ref_axis',(1.,0.,0.));
#1214=DIRECTION('center_axis',(0.,0.,1.));
#1215=DIRECTION('ref_axis',(1.,0.,0.));
#1216=DIRECTION('',(0.,-1.,0.));
#1217=DIRECTION('',(1.,-9.01138988943489E-24,0.));
#1218=DIRECTION('',(0.,1.,0.));
#1219=DIRECTION('center_axis',(-1.,0.,-4.93038065763132E-32));
#1220=DIRECTION('ref_axis',(4.93038065763132E-32,-2.92262247936545E-46,
-1.));
#1221=DIRECTION('',(0.,6.31088723951704E-30,-1.));
#1222=DIRECTION('',(-4.93038065763132E-32,-6.31088723951704E-30,1.));
#1223=DIRECTION('',(0.,1.,0.));
#1224=DIRECTION('center_axis',(1.,0.,4.93038065763132E-32));
#1225=DIRECTION('ref_axis',(-4.93038065763132E-32,0.,1.));
#1226=DIRECTION('',(0.,-1.,0.));
#1227=DIRECTION('',(-4.93038065763132E-32,-6.31088723951704E-30,1.));
#1228=DIRECTION('',(-4.93038065763132E-32,-6.31088723951704E-30,1.));
#1229=DIRECTION('center_axis',(0.,0.,1.));
#1230=DIRECTION('ref_axis',(1.,0.,0.));
#1231=DIRECTION('',(0.,-1.,0.));
#1232=DIRECTION('',(-1.,0.,0.));
#1233=DIRECTION('',(0.,1.,0.));
#1234=DIRECTION('center_axis',(-1.,0.,0.));
#1235=DIRECTION('ref_axis',(0.,5.89966380385225E-82,-1.));
#1236=DIRECTION('',(0.,6.31088723951704E-30,-1.));
#1237=DIRECTION('',(0.,1.,0.));
#1238=DIRECTION('center_axis',(-9.01138988943489E-24,-1.,-6.31088723951704E-30));
#1239=DIRECTION('ref_axis',(0.,6.31088723951704E-30,-1.));
#1240=DIRECTION('',(0.,6.31088723951704E-30,-1.));
#1241=DIRECTION('',(1.,-9.01138988943489E-24,-1.04971031249319E-15));
#1242=DIRECTION('center_axis',(-1.,0.,0.));
#1243=DIRECTION('ref_axis',(0.,0.,1.));
#1244=DIRECTION('',(0.,1.,0.));
#1245=DIRECTION('center_axis',(-1.,0.,-2.52035320773767E-17));
#1246=DIRECTION('ref_axis',(-2.52035320773767E-17,0.,1.));
#1247=DIRECTION('',(0.,1.,0.));
#1248=DIRECTION('',(-2.52035320773767E-17,-6.31088723928992E-30,1.));
#1249=DIRECTION('',(-2.52035320773767E-17,-6.31088723928992E-30,1.));
#1250=DIRECTION('center_axis',(-9.01138988943489E-24,-1.,-6.31088723951704E-30));
#1251=DIRECTION('ref_axis',(0.,6.31088723951704E-30,-1.));
#1252=DIRECTION('',(-1.,9.01138988943489E-24,-4.93038065763132E-32));
#1253=DIRECTION('',(4.93038065763132E-32,6.31088723951704E-30,-1.));
#1254=DIRECTION('',(1.,-9.01138988943489E-24,0.));
#1255=DIRECTION('center_axis',(0.,1.,0.));
#1256=DIRECTION('ref_axis',(-0.707106781186547,0.,0.707106781186548));
#1257=DIRECTION('center_axis',(-9.01138988943489E-24,-1.,-6.31088723951704E-30));
#1258=DIRECTION('ref_axis',(-0.707106781186547,0.,0.707106781186548));
#1259=DIRECTION('',(0.,1.,0.));
#1260=DIRECTION('center_axis',(-9.01138988943489E-24,-1.,-6.31088723951704E-30));
#1261=DIRECTION('ref_axis',(0.,6.31088723951704E-30,-1.));
#1262=DIRECTION('',(-1.,9.01138988943489E-24,0.));
#1263=DIRECTION('',(1.,-9.01138988943489E-24,4.93038065763132E-32));
#1264=DIRECTION('center_axis',(-9.01138988943489E-24,-1.,-6.31088723951704E-30));
#1265=DIRECTION('ref_axis',(0.707106781186547,0.,0.707106781186548));
#1266=DIRECTION('center_axis',(0.,-1.,0.));
#1267=DIRECTION('ref_axis',(0.707106781186547,0.,0.707106781186548));
#1268=DIRECTION('',(0.,-1.,0.));
#1269=DIRECTION('',(0.,1.,0.));
#1270=DIRECTION('center_axis',(0.,0.,1.));
#1271=DIRECTION('ref_axis',(1.,0.,0.));
#1272=DIRECTION('',(0.,-1.,0.));
#1273=DIRECTION('',(-1.,0.,0.));
#1274=DIRECTION('center_axis',(1.,0.,-9.72274738965752E-16));
#1275=DIRECTION('ref_axis',(-9.72274738965752E-16,0.,-1.));
#1276=DIRECTION('',(-9.72274738965752E-16,6.31088724827859E-30,-1.));
#1277=DIRECTION('',(0.,1.,0.));
#1278=DIRECTION('center_axis',(-1.04971031249319E-15,0.,-1.));
#1279=DIRECTION('ref_axis',(-1.,0.,1.04971031249319E-15));
#1280=DIRECTION('',(-1.,9.01138988943489E-24,1.04971031249319E-15));
#1281=DIRECTION('center_axis',(-9.01138988943489E-24,-1.,-6.31088723951704E-30));
#1282=DIRECTION('ref_axis',(0.,6.31088723951704E-30,-1.));
#1283=DIRECTION('',(-1.,9.01138988943489E-24,-4.93038065763132E-32));
#1284=DIRECTION('',(4.93038065763132E-32,6.31088723951704E-30,-1.));
#1285=DIRECTION('',(-1.,9.01138988943489E-24,0.));
#1286=DIRECTION('',(-4.93038065763132E-32,-6.31088723951704E-30,1.));
#1287=DIRECTION('',(-1.,9.01138988943489E-24,-4.93038065763132E-32));
#1288=DIRECTION('',(-1.,0.,0.));
#1289=DIRECTION('center_axis',(-1.04971031249319E-15,0.,-1.));
#1290=DIRECTION('ref_axis',(-1.,0.,1.04971031249319E-15));
#1291=DIRECTION('center_axis',(0.,0.,1.));
#1292=DIRECTION('ref_axis',(1.,0.,0.));
#1293=DIRECTION('',(0.,1.,0.));
#1294=DIRECTION('',(-1.,0.,0.));
#1295=DIRECTION('center_axis',(-1.,0.,0.));
#1296=DIRECTION('ref_axis',(0.,0.,1.));
#1297=DIRECTION('',(0.,0.,-1.));
#1298=DIRECTION('',(0.,1.,0.));
#1299=DIRECTION('center_axis',(1.,0.,4.93038065763132E-32));
#1300=DIRECTION('ref_axis',(-4.93038065763132E-32,0.,1.));
#1301=DIRECTION('',(0.,-1.,0.));
#1302=DIRECTION('',(0.,-1.,0.));
#1303=DIRECTION('center_axis',(-1.,0.,-4.93038065763132E-32));
#1304=DIRECTION('ref_axis',(4.93038065763132E-32,1.39937455517499E-45,-1.));
#1305=DIRECTION('',(0.,-1.,0.));
#1306=DIRECTION('',(0.,-1.,0.));
#1307=DIRECTION('center_axis',(-4.93038065763132E-32,0.,1.));
#1308=DIRECTION('ref_axis',(-1.,-1.32680286575857E-44,-4.93038065763132E-32));
#1309=DIRECTION('center_axis',(0.,0.,1.));
#1310=DIRECTION('ref_axis',(-1.,3.71686181131396E-82,0.));
#1311=DIRECTION('center_axis',(4.93038065763132E-32,0.,-1.));
#1312=DIRECTION('ref_axis',(1.,0.,4.93038065763132E-32));
#1313=DIRECTION('center_axis',(-4.93038065763132E-32,0.,1.));
#1314=DIRECTION('ref_axis',(-1.,0.,-4.93038065763132E-32));
#1315=DIRECTION('',(0.,-1.,0.));
#1316=DIRECTION('center_axis',(-1.,0.,-4.93038065763132E-32));
#1317=DIRECTION('ref_axis',(4.93038065763132E-32,0.,-1.));
#1318=DIRECTION('',(0.,-1.,0.));
#1319=DIRECTION('center_axis',(-4.93038065763132E-32,0.,1.));
#1320=DIRECTION('ref_axis',(-1.,0.,-4.93038065763132E-32));
#1321=DIRECTION('center_axis',(0.,0.,1.));
#1322=DIRECTION('ref_axis',(1.,0.,0.));
#1323=DIRECTION('center_axis',(0.,0.,1.));
#1324=DIRECTION('ref_axis',(0.,-1.,0.));
#1325=DIRECTION('center_axis',(0.,0.,1.));
#1326=DIRECTION('ref_axis',(2.77555756156289E-16,-1.,0.));
#1327=DIRECTION('',(0.,0.,1.));
#1328=DIRECTION('center_axis',(0.998463978221769,0.0554047307868041,2.65836561410231E-16));
#1329=DIRECTION('ref_axis',(0.0554047307868041,-0.998463978221769,0.));
#1330=DIRECTION('center_axis',(1.,0.,0.));
#1331=DIRECTION('ref_axis',(0.,-0.707106781186547,0.707106781186548));
#1332=DIRECTION('center_axis',(-0.998463978221769,0.0554047307868041,2.042519444119E-18));
#1333=DIRECTION('ref_axis',(-0.0554047307868041,-0.998463978221769,0.));
#1334=DIRECTION('',(1.,0.,0.));
#1335=DIRECTION('center_axis',(0.,0.,1.));
#1336=DIRECTION('ref_axis',(-1.,0.,0.));
#1337=DIRECTION('center_axis',(0.,-1.,0.));
#1338=DIRECTION('ref_axis',(1.,0.,0.));
#1339=DIRECTION('',(0.,0.,1.));
#1340=DIRECTION('center_axis',(0.,0.,1.));
#1341=DIRECTION('ref_axis',(-1.,-1.12757025938492E-16,0.));
#1342=DIRECTION('center_axis',(-1.,0.,0.));
#1343=DIRECTION('ref_axis',(0.,0.,1.));
#1344=DIRECTION('',(0.,0.,-1.));
#1345=DIRECTION('',(0.,-1.,0.));
#1346=DIRECTION('',(0.,0.,-1.));
#1347=DIRECTION('',(0.,1.,0.));
#1348=DIRECTION('center_axis',(0.,0.,1.));
#1349=DIRECTION('ref_axis',(1.,0.,0.));
#1350=DIRECTION('',(-1.,-1.88253074672756E-98,0.));
#1351=DIRECTION('center_axis',(0.,0.,-1.));
#1352=DIRECTION('ref_axis',(1.,0.,0.));
#1353=DIRECTION('',(-1.,9.01138988943489E-24,0.));
#1354=DIRECTION('center_axis',(0.,0.,1.));
#1355=DIRECTION('ref_axis',(-1.,-1.12757025938492E-16,0.));
#1356=DIRECTION('',(1.,0.,0.));
#1357=DIRECTION('center_axis',(0.,0.,1.));
#1358=DIRECTION('ref_axis',(0.,-1.,0.));
#1359=DIRECTION('',(-1.,9.01138988943489E-24,0.));
#1360=DIRECTION('center_axis',(0.,0.,-1.));
#1361=DIRECTION('ref_axis',(1.,0.,0.));
#1362=DIRECTION('',(0.,0.,1.));
#1363=DIRECTION('center_axis',(0.,0.,1.));
#1364=DIRECTION('ref_axis',(1.,0.,0.));
#1365=DIRECTION('',(0.,0.,-1.));
#1366=DIRECTION('center_axis',(9.01138988943489E-24,1.,0.));
#1367=DIRECTION('ref_axis',(1.,-9.01138988943489E-24,0.));
#1368=DIRECTION('',(1.,-9.01138988943489E-24,0.));
#1369=DIRECTION('',(0.,0.,-1.));
#1370=DIRECTION('center_axis',(0.,0.,-1.));
#1371=DIRECTION('ref_axis',(-1.,-1.12757025938492E-16,0.));
#1372=DIRECTION('center_axis',(0.,0.,-1.));
#1373=DIRECTION('ref_axis',(-1.,-1.12757025938492E-16,0.));
#1374=DIRECTION('',(0.,0.,-1.));
#1375=DIRECTION('center_axis',(0.,-1.,0.));
#1376=DIRECTION('ref_axis',(-1.,0.,0.));
#1377=DIRECTION('',(-1.,0.,0.));
#1378=DIRECTION('',(0.,0.,-1.));
#1379=DIRECTION('center_axis',(0.,0.,-1.));
#1380=DIRECTION('ref_axis',(0.,-1.,0.));
#1381=DIRECTION('center_axis',(0.,0.,-1.));
#1382=DIRECTION('ref_axis',(0.,-1.,0.));
#1383=DIRECTION('',(0.,0.,-1.));
#1384=DIRECTION('center_axis',(9.01138988943489E-24,1.,0.));
#1385=DIRECTION('ref_axis',(1.,-9.01138988943489E-24,0.));
#1386=DIRECTION('',(-1.,0.,0.));
#1387=DIRECTION('center_axis',(-1.88253074672756E-98,1.,0.));
#1388=DIRECTION('ref_axis',(1.,1.88253074672756E-98,0.));
#1389=DIRECTION('',(1.,1.88253074672756E-98,0.));
#1390=DIRECTION('center_axis',(0.,0.,1.));
#1391=DIRECTION('ref_axis',(1.,0.,0.));
#1392=CARTESIAN_POINT('',(0.,0.,0.));
#1393=CARTESIAN_POINT('Origin',(4.44089209850063E-15,4.44089209850063E-15,
4.));
#1394=CARTESIAN_POINT('',(14.6013336745177,-5.84999998509884,4.));
#1395=CARTESIAN_POINT('',(7.70740949871309,-5.84999998509884,3.99972891828074));
#1396=CARTESIAN_POINT('',(5.28743340748255,-5.84999998509884,4.));
#1397=CARTESIAN_POINT('',(14.6013336745177,-2.84999998509884,4.));
#1398=CARTESIAN_POINT('',(14.6013336745177,-1.42499999254942,4.));
#1399=CARTESIAN_POINT('',(13.1306576233654,-2.84999998509884,4.));
#1400=CARTESIAN_POINT('',(1.44328992944446E-14,-2.84999998509884,4.));
#1401=CARTESIAN_POINT('',(13.1306576233654,0.400000014901161,4.));
#1402=CARTESIAN_POINT('',(13.1306576233654,0.200000007450583,4.));
#1403=CARTESIAN_POINT('',(23.1470582624978,0.400000014901161,4.));
#1404=CARTESIAN_POINT('',(1.44328993090881E-14,0.400000014901161,4.));
#1405=CARTESIAN_POINT('',(23.1470582624978,-2.84999998509884,4.));
#1406=CARTESIAN_POINT('',(23.1470582624978,-1.42499999254942,4.));
#1407=CARTESIAN_POINT('',(15.5,-8.5,4.));
#1408=CARTESIAN_POINT('Origin',(15.5,-0.499999999999997,4.));
#1409=CARTESIAN_POINT('',(-15.5,-8.5,4.));
#1410=CARTESIAN_POINT('',(-7.75,-8.5,4.));
#1411=CARTESIAN_POINT('',(-23.1470582624978,-2.84999998509884,4.));
#1412=CARTESIAN_POINT('Origin',(-15.5,-0.499999999999996,4.));
#1413=CARTESIAN_POINT('',(-23.1470582624978,0.400000014901161,4.));
#1414=CARTESIAN_POINT('',(-23.1470582624978,-1.42499999254942,4.));
#1415=CARTESIAN_POINT('',(-20.41968412695,0.400000014901162,4.));
#1416=CARTESIAN_POINT('',(1.44328993090881E-14,0.400000014901161,4.));
#1417=CARTESIAN_POINT('',(-8.84046799845231,-5.84999998509884,4.));
#1418=CARTESIAN_POINT('Origin',(-13.3471439875952,-0.348144340965393,4.));
#1419=CARTESIAN_POINT('',(-0.06945313750083,-5.84999998509884,3.99972891828074));
#1420=CARTESIAN_POINT('',(5.28743340748255,-5.84999998509884,4.));
#1421=CARTESIAN_POINT('',(11.8434094987131,-5.84999998509884,3.99972891828074));
#1422=CARTESIAN_POINT('Origin',(23.1470582624978,-2.84999998509884,21.53));
#1423=CARTESIAN_POINT('',(23.1470582624978,0.400000014901161,21.53));
#1424=CARTESIAN_POINT('',(23.1470582624978,0.400000014901161,0.));
#1425=CARTESIAN_POINT('',(23.1470582624978,-2.84999998509884,21.53));
#1426=CARTESIAN_POINT('',(23.1470582624978,-2.84999998509884,21.53));
#1427=CARTESIAN_POINT('',(23.1470582624978,-2.84999998509884,0.));
#1428=CARTESIAN_POINT('Origin',(2.4424906516071E-14,0.400000014901161,15.0043691606391));
#1429=CARTESIAN_POINT('',(13.1306576233654,0.400000014901161,8.22665868558639));
#1430=CARTESIAN_POINT('',(13.1306576233654,0.400000014901161,7.50218458031956));
#1431=CARTESIAN_POINT('',(15.1013999554125,0.400000014901161,8.22665868558639));
#1432=CARTESIAN_POINT('',(7.55069997770627,0.400000014901161,8.22665868558639));
#1433=CARTESIAN_POINT('',(15.1013999554125,0.400000014901161,29.5167703162194));
#1434=CARTESIAN_POINT('',(15.1013999554125,0.400000014901161,22.4210044058363));
#1435=CARTESIAN_POINT('',(15.1864816992912,0.400000014901161,29.5167703162194));
#1436=CARTESIAN_POINT('',(-7.75,0.400000014901161,29.5167703162194));
#1437=CARTESIAN_POINT('Ctrl Pts',(15.1864816992912,0.40000001490116,29.5167703162194));
#1438=CARTESIAN_POINT('Ctrl Pts',(15.9682447542833,0.40000001490116,29.5167703162194));
#1439=CARTESIAN_POINT('Ctrl Pts',(16.7456945377239,0.400000014901177,29.4009645895333));
#1440=CARTESIAN_POINT('Ctrl Pts',(17.4936479681113,0.400000014901177,29.173461310178));
#1441=CARTESIAN_POINT('Ctrl Pts',(18.3756676895399,0.400000014901177,28.9051793945818));
#1442=CARTESIAN_POINT('Ctrl Pts',(19.2042840496589,0.400000014900435,28.4853477685699));
#1443=CARTESIAN_POINT('Ctrl Pts',(19.9426522986584,0.400000014900435,27.9332275086139));
#1444=CARTESIAN_POINT('Ctrl Pts',(20.784650112019,0.400000014900435,27.303617483772));
#1445=CARTESIAN_POINT('Ctrl Pts',(21.4938545527911,0.400000014901155,26.5135416648746));
#1446=CARTESIAN_POINT('Ctrl Pts',(22.0297840503153,0.400000014901155,25.6089518994764));
#1447=CARTESIAN_POINT('Ctrl Pts',(22.387343878881,0.400000014901155,25.0054304233637));
#1448=CARTESIAN_POINT('Ctrl Pts',(22.6639257473233,0.40000001490116,24.3574350451635));
#1449=CARTESIAN_POINT('Ctrl Pts',(22.8524782135835,0.40000001490116,23.6817533151077));
#1450=CARTESIAN_POINT('Ctrl Pts',(23.0479620827474,0.40000001490116,22.9812327569073));
#1451=CARTESIAN_POINT('Ctrl Pts',(23.1470582624978,0.400000014901162,22.2572876876424));
#1452=CARTESIAN_POINT('Ctrl Pts',(23.1470582624978,0.400000014901162,21.53));
#1453=CARTESIAN_POINT('',(19.0000002980232,0.400000014901161,22.1000002980232));
#1454=CARTESIAN_POINT('Origin',(19.0000002980232,0.400000014901161,20.0000002980232));
#1455=CARTESIAN_POINT('Origin',(13.1306576233654,0.400000014901161,0.));
#1456=CARTESIAN_POINT('',(13.1306576233654,-2.84999998509884,8.22665868558639));
#1457=CARTESIAN_POINT('',(13.1306576233654,-2.84999998509884,7.50218458031956));
#1458=CARTESIAN_POINT('',(13.1306576233654,-0.599999985098839,8.22665868558639));
#1459=CARTESIAN_POINT('Origin',(2.4424906516071E-14,-2.84999998509884,15.0043691606391));
#1460=CARTESIAN_POINT('',(14.6013336745177,-2.84999998509884,8.22665868558639));
#1461=CARTESIAN_POINT('',(14.6013336745177,-2.84999998509884,15.2215139231128));
#1462=CARTESIAN_POINT('',(7.55069997770627,-2.84999998509884,8.22665868558639));
#1463=CARTESIAN_POINT('Origin',(14.6013336745177,-2.84999998509884,15.4386586855864));
#1464=CARTESIAN_POINT('',(14.6013339336125,-5.84999998509884,27.3766586855864));
#1465=CARTESIAN_POINT('',(14.6013336745177,-5.84999998509884,17.1612467867798));
#1466=CARTESIAN_POINT('',(14.6013339336125,-2.84999998509884,27.3766586855864));
#1467=CARTESIAN_POINT('',(14.6013336745177,-2.84999998509884,27.3766586855864));
#1468=CARTESIAN_POINT('',(14.6013336745177,-2.84999998509884,15.2215139231128));
#1469=CARTESIAN_POINT('Origin',(10.5748668149651,-5.84999998509884,18.8838348879731));
#1470=CARTESIAN_POINT('',(7.70740949871309,-5.84999998509884,12.4386586855864));
#1471=CARTESIAN_POINT('',(7.70740949871309,-5.84999998509884,17.1612467867798));
#1472=CARTESIAN_POINT('',(4.70740949871308,-5.84999998509884,15.4386586855864));
#1473=CARTESIAN_POINT('Origin',(4.70740949871309,-5.84999998509884,12.4386586855864));
#1474=CARTESIAN_POINT('',(2.93054686249917,-5.84999998509884,15.4386586855864));
#1475=CARTESIAN_POINT('',(15.0013999554125,-5.84999998509884,15.4386586855864));
#1476=CARTESIAN_POINT('',(-0.06945313750083,-5.84999998509884,12.4386586855864));
#1477=CARTESIAN_POINT('Origin',(2.93054686249917,-5.84999998509884,12.4386586855864));
#1478=CARTESIAN_POINT('',(-0.06945313750083,-5.84999998509884,12.8582819031269));
#1479=CARTESIAN_POINT('',(-8.84046799845231,-5.84999998509884,24.9997289182807));
#1480=CARTESIAN_POINT('',(-8.84046799845231,-5.84999998509884,0.));
#1481=CARTESIAN_POINT('',(-2.9113924550416,-5.84999998509884,24.9997289182807));
#1482=CARTESIAN_POINT('',(11.2091381568391,-5.84999998509884,24.9997289182807));
#1483=CARTESIAN_POINT('',(-2.9113924550416,-5.84999998509884,27.6686628945151));
#1484=CARTESIAN_POINT('',(-2.9113924550416,-5.84999998509884,0.723101987460226));
#1485=CARTESIAN_POINT('',(-0.06945313750083,-5.84999998509884,27.6686628945151));
#1486=CARTESIAN_POINT('',(-2.9113924550416,-5.84999998509884,27.6686628945151));
#1487=CARTESIAN_POINT('',(-0.06945313750083,-5.84999998509884,26.4287713828336));
#1488=CARTESIAN_POINT('',(-0.06945313750083,-5.84999998509884,27.6686628945151));
#1489=CARTESIAN_POINT('',(12.5712251350582,-5.84999998509884,26.4287713828336));
#1490=CARTESIAN_POINT('',(6.11139995541252,-5.84999998509884,26.4287713828336));
#1491=CARTESIAN_POINT('',(12.5712251350582,-5.84999998509884,27.3766586855864));
#1492=CARTESIAN_POINT('',(12.5712251350582,-5.84999998509884,29.2816586855864));
#1493=CARTESIAN_POINT('',(15.0013999554125,-5.84999998509884,27.3766586855864));
#1494=CARTESIAN_POINT('Origin',(-4.49162136754561,0.400000014901161,13.824));
#1495=CARTESIAN_POINT('',(-4.49162136754561,0.400000014901161,15.174));
#1496=CARTESIAN_POINT('Origin',(-4.49162136754561,0.400000014901161,13.824));
#1497=CARTESIAN_POINT('',(-4.49162136754561,-0.949999985098839,13.824));
#1498=CARTESIAN_POINT('Origin',(-4.49162136754561,0.400000014901161,13.824));
#1499=CARTESIAN_POINT('Origin',(19.0000002980232,0.400000014901161,20.0000002980232));
#1500=CARTESIAN_POINT('',(19.0000002980232,-1.69999998509884,20.0000002980232));
#1501=CARTESIAN_POINT('Origin',(19.0000002980232,0.400000014901161,20.0000002980232));
#1502=CARTESIAN_POINT('Origin',(23.1470582624978,-2.84999998509884,11.824));
#1503=CARTESIAN_POINT('',(-2.8786000445875,-2.84999998509884,11.824));
#1504=CARTESIAN_POINT('',(-2.8786000445875,0.400000014901161,11.824));
#1505=CARTESIAN_POINT('',(-2.8786000445875,-2.22499998509884,11.824));
#1506=CARTESIAN_POINT('',(-6.68972238941488,-2.84999998509884,11.824));
#1507=CARTESIAN_POINT('',(11.5735291312489,-2.84999998509884,11.824));
#1508=CARTESIAN_POINT('',(-6.27460384824038,0.400000014901161,11.824));
#1509=CARTESIAN_POINT('Origin',(-13.3471439875952,-0.348144340965393,11.824));
#1510=CARTESIAN_POINT('',(11.5735291312489,0.400000014901161,11.824));
#1511=CARTESIAN_POINT('Origin',(2.4424906516071E-14,0.400000014901161,15.0043691606391));
#1512=CARTESIAN_POINT('',(-23.1470582624978,0.400000014901161,21.53));
#1513=CARTESIAN_POINT('',(-23.1470582624978,0.400000014901161,0.));
#1514=CARTESIAN_POINT('',(-15.1864816992912,0.400000014901161,29.5167703162194));
#1515=CARTESIAN_POINT('Ctrl Pts',(-23.1470582624978,0.400000014901161,21.53));
#1516=CARTESIAN_POINT('Ctrl Pts',(-23.1470582624978,0.400000014901161,22.564379179215));
#1517=CARTESIAN_POINT('Ctrl Pts',(-22.9466092219465,0.400000014901162,23.5891249480358));
#1518=CARTESIAN_POINT('Ctrl Pts',(-22.5567128473753,0.400000014901162,24.5471884044155));
#1519=CARTESIAN_POINT('Ctrl Pts',(-22.1819265160689,0.400000014901162,25.4681230716592));
#1520=CARTESIAN_POINT('Ctrl Pts',(-21.638688255002,0.400000014901165,26.3112246922902));
#1521=CARTESIAN_POINT('Ctrl Pts',(-20.9546913803544,0.400000014901165,27.0327862754248));
#1522=CARTESIAN_POINT('Ctrl Pts',(-20.3252536502922,0.400000014901164,27.696792357649));
#1523=CARTESIAN_POINT('Ctrl Pts',(-19.586282645072,0.400000014901151,28.2476656116704));
#1524=CARTESIAN_POINT('Ctrl Pts',(-18.7699938344246,0.400000014901151,28.6608100959923));
#1525=CARTESIAN_POINT('Ctrl Pts',(-17.9665605585341,0.400000014901151,29.0674480679027));
#1526=CARTESIAN_POINT('Ctrl Pts',(-17.0998978082903,0.400000014901167,29.3347429784448));
#1527=CARTESIAN_POINT('Ctrl Pts',(-16.2069695434803,0.400000014901167,29.4507453846335));
#1528=CARTESIAN_POINT('Ctrl Pts',(-15.8685825675908,0.400000014901167,29.4947060307156));
#1529=CARTESIAN_POINT('Ctrl Pts',(-15.5277113892959,0.400000014901162,29.5167703162194));
#1530=CARTESIAN_POINT('Ctrl Pts',(-15.1864816992912,0.400000014901162,29.5167703162194));
#1531=CARTESIAN_POINT('',(-2.8786000445875,0.400000014901161,29.5167703162194));
#1532=CARTESIAN_POINT('',(-7.75,0.400000014901161,29.5167703162194));
#1533=CARTESIAN_POINT('',(-2.8786000445875,0.400000014901161,11.6155139231128));
#1534=CARTESIAN_POINT('',(-6.27460384824038,0.400000014901161,25.));
#1535=CARTESIAN_POINT('',(-6.27460384824038,0.400000014901161,0.));
#1536=CARTESIAN_POINT('',(-20.41968412695,0.400000014901161,25.));
#1537=CARTESIAN_POINT('',(-6.67357199379758,0.400000014901161,25.));
#1538=CARTESIAN_POINT('',(-20.41968412695,0.400000014901161,0.));
#1539=CARTESIAN_POINT('Origin',(-13.3471439875952,-0.348144340965393,0.));
#1540=CARTESIAN_POINT('Origin',(-13.3471439875952,-0.348144340965393,25.));
#1541=CARTESIAN_POINT('',(-6.68972238941488,-2.84999998509884,24.9997289182807));
#1542=CARTESIAN_POINT('',(-6.68972238941488,-2.84999998509884,0.));
#1543=CARTESIAN_POINT('Origin',(-13.3471439875952,-0.348144340965393,24.9997289182807));
#1544=CARTESIAN_POINT('Origin',(11.8434094987131,-2.84999998509884,3.99972891828074));
#1545=CARTESIAN_POINT('',(-0.0694531375008295,-2.84999998509884,4.));
#1546=CARTESIAN_POINT('',(-0.06945313750083,-2.84999998509884,3.99972891828074));
#1547=CARTESIAN_POINT('',(7.70740949871309,-2.84999998509884,4.));
#1548=CARTESIAN_POINT('',(1.44328992944446E-14,-2.84999998509884,4.));
#1549=CARTESIAN_POINT('',(7.70740949871309,-2.84999998509884,3.99972891828074));
#1550=CARTESIAN_POINT('Origin',(7.70740949871309,-2.84999998509884,15.4386586855864));
#1551=CARTESIAN_POINT('',(7.70742050673123,-2.84999998509884,8.22665868558639));
#1552=CARTESIAN_POINT('',(7.70740949871309,-2.84999998509884,10.9185490394599));
#1553=CARTESIAN_POINT('',(7.70740949871309,-2.84999998509884,12.4386586855864));
#1554=CARTESIAN_POINT('',(7.70740949871309,-2.84999998509884,15.2215139231128));
#1555=CARTESIAN_POINT('',(7.70740949871309,-2.84999998509884,12.4386586855864));
#1556=CARTESIAN_POINT('Origin',(-0.06945313750083,-2.84999998509884,0.723101987460226));
#1557=CARTESIAN_POINT('',(-0.06945313750083,-2.84999998509884,12.4386586855864));
#1558=CARTESIAN_POINT('',(-0.06945313750083,-2.84999998509884,12.4386586855864));
#1559=CARTESIAN_POINT('',(-0.069516315384807,-2.84999998509884,8.2266586855864));
#1560=CARTESIAN_POINT('',(-0.06945313750083,-2.84999998509884,7.86373557404968));
#1561=CARTESIAN_POINT('',(-0.06945313750083,-2.84999998509884,7.86373557404968));
#1562=CARTESIAN_POINT('Origin',(23.1470582624978,-2.84999998509884,4.));
#1563=CARTESIAN_POINT('',(-0.0695794932687832,0.400000014901161,4.));
#1564=CARTESIAN_POINT('',(-0.0695794932687818,-1.22499998509884,4.));
#1565=CARTESIAN_POINT('',(7.70742050673123,0.400000014901161,4.));
#1566=CARTESIAN_POINT('',(-0.0625794932687829,0.400000014901161,4.));
#1567=CARTESIAN_POINT('',(7.70742050673123,-1.22499998509884,4.));
#1568=CARTESIAN_POINT('Origin',(7.70742050673123,0.400000014901161,8.22665868558639));
#1569=CARTESIAN_POINT('',(7.70742050673123,0.400000014901161,8.22665868558639));
#1570=CARTESIAN_POINT('',(7.70742050673123,0.400000014901161,11.6155139231128));
#1571=CARTESIAN_POINT('',(7.70742050673123,-0.599999985098839,8.22665868558639));
#1572=CARTESIAN_POINT('Origin',(2.4424906516071E-14,0.400000014901161,15.0043691606391));
#1573=CARTESIAN_POINT('',(-0.0695794932687829,0.400000014901161,8.2266586855864));
#1574=CARTESIAN_POINT('',(-0.0695794932687829,0.400000014901161,11.6155139231128));
#1575=CARTESIAN_POINT('',(7.55069997770627,0.400000014901161,8.22665868558639));
#1576=CARTESIAN_POINT('Origin',(-0.0695794932687829,0.400000014901161,8.2266586855864));
#1577=CARTESIAN_POINT('',(-0.069579493268784,-0.599999985098839,8.2266586855864));
#1578=CARTESIAN_POINT('Origin',(-2.8786000445875,-1.59999998509884,8.22665868558641));
#1579=CARTESIAN_POINT('',(-2.8786000445875,-2.84999998509884,29.5167703162194));
#1580=CARTESIAN_POINT('',(-2.8786000445875,-2.22499998509884,29.5167703162194));
#1581=CARTESIAN_POINT('',(-2.8786000445875,-2.84999998509884,27.6686628945151));
#1582=CARTESIAN_POINT('',(-2.8786000445875,-2.84999998509884,11.6155139231128));
#1583=CARTESIAN_POINT('',(-2.8786000445875,-2.84999998509884,11.6155139231128));
#1584=CARTESIAN_POINT('Origin',(2.4424906516071E-14,-2.84999998509884,15.0043691606391));
#1585=CARTESIAN_POINT('',(-2.9113924550416,-2.84999998509884,27.6686628945151));
#1586=CARTESIAN_POINT('',(-0.0347265687504028,-2.84999998509884,27.6686628945151));
#1587=CARTESIAN_POINT('',(-2.9113924550416,-2.84999998509884,24.9997289182807));
#1588=CARTESIAN_POINT('',(-2.9113924550416,-2.84999998509884,21.3365160275771));
#1589=CARTESIAN_POINT('',(5.92170474935655,-2.84999998509884,24.9997289182807));
#1590=CARTESIAN_POINT('Origin',(2.93054686249917,-2.84999998509884,12.4386586855864));
#1591=CARTESIAN_POINT('',(2.93054686249917,-2.84999998509884,15.4386586855864));
#1592=CARTESIAN_POINT('Origin',(2.93054686249917,-2.84999998509884,12.4386586855864));
#1593=CARTESIAN_POINT('',(2.93054686249917,-2.84999998509884,15.4386586855864));
#1594=CARTESIAN_POINT('Origin',(2.4424906516071E-14,-2.84999998509884,15.0043691606391));
#1595=CARTESIAN_POINT('',(-0.0312897466343798,-2.84999998509884,8.2266586855864));
#1596=CARTESIAN_POINT('',(4.70740949871309,-2.84999998509884,15.4386586855864));
#1597=CARTESIAN_POINT('',(3.05569997770627,-2.84999998509884,15.4386586855864));
#1598=CARTESIAN_POINT('Origin',(4.70740949871309,-2.84999998509884,12.4386586855864));
#1599=CARTESIAN_POINT('Origin',(4.70740949871309,-2.84999998509884,12.4386586855864));
#1600=CARTESIAN_POINT('',(4.70740949871309,-2.84999998509884,15.4386586855864));
#1601=CARTESIAN_POINT('Ctrl Pts',(15.1864816992912,-2.84999998509884,29.5167703162194));
#1602=CARTESIAN_POINT('Ctrl Pts',(15.1864816992912,0.40000001490116,29.5167703162194));
#1603=CARTESIAN_POINT('Ctrl Pts',(15.9682447542833,-2.84999998509884,29.5167703162194));
#1604=CARTESIAN_POINT('Ctrl Pts',(15.9682447542833,0.40000001490116,29.5167703162194));
#1605=CARTESIAN_POINT('Ctrl Pts',(16.7456945377239,-2.84999998509882,29.4009645895333));
#1606=CARTESIAN_POINT('Ctrl Pts',(16.7456945377239,0.400000014901177,29.4009645895333));
#1607=CARTESIAN_POINT('Ctrl Pts',(18.3756676895399,-2.84999998509882,28.9051793945818));
#1608=CARTESIAN_POINT('Ctrl Pts',(18.3756676895399,0.400000014901177,28.9051793945818));
#1609=CARTESIAN_POINT('Ctrl Pts',(19.2042840496589,-2.84999998509956,28.4853477685699));
#1610=CARTESIAN_POINT('Ctrl Pts',(19.2042840496589,0.400000014900435,28.4853477685699));
#1611=CARTESIAN_POINT('Ctrl Pts',(20.784650112019,-2.84999998509956,27.303617483772));
#1612=CARTESIAN_POINT('Ctrl Pts',(20.784650112019,0.400000014900435,27.303617483772));
#1613=CARTESIAN_POINT('Ctrl Pts',(21.4938545527911,-2.84999998509885,26.5135416648746));
#1614=CARTESIAN_POINT('Ctrl Pts',(21.4938545527911,0.400000014901155,26.5135416648746));
#1615=CARTESIAN_POINT('Ctrl Pts',(22.387343878881,-2.84999998509885,25.0054304233637));
#1616=CARTESIAN_POINT('Ctrl Pts',(22.387343878881,0.400000014901155,25.0054304233637));
#1617=CARTESIAN_POINT('Ctrl Pts',(22.6639257473233,-2.84999998509884,24.3574350451635));
#1618=CARTESIAN_POINT('Ctrl Pts',(22.6639257473233,0.40000001490116,24.3574350451635));
#1619=CARTESIAN_POINT('Ctrl Pts',(23.0479620827474,-2.84999998509884,22.9812327569073));
#1620=CARTESIAN_POINT('Ctrl Pts',(23.0479620827474,0.40000001490116,22.9812327569073));
#1621=CARTESIAN_POINT('Ctrl Pts',(23.1470582624978,-2.84999998509884,22.2572876876424));
#1622=CARTESIAN_POINT('Ctrl Pts',(23.1470582624978,0.400000014901162,22.2572876876424));
#1623=CARTESIAN_POINT('Ctrl Pts',(23.1470582624978,-2.84999998509884,21.53));
#1624=CARTESIAN_POINT('Ctrl Pts',(23.1470582624978,0.400000014901162,21.53));
#1625=CARTESIAN_POINT('',(15.1864816992912,-2.84999998509884,29.5167703162194));
#1626=CARTESIAN_POINT('Ctrl Pts',(23.1470582624978,-2.84999998509884,21.53));
#1627=CARTESIAN_POINT('Ctrl Pts',(23.1470582624978,-2.84999998509884,22.2572876876424));
#1628=CARTESIAN_POINT('Ctrl Pts',(23.0479620827474,-2.84999998509884,22.9812327569073));
#1629=CARTESIAN_POINT('Ctrl Pts',(22.8524782135835,-2.84999998509884,23.6817533151077));
#1630=CARTESIAN_POINT('Ctrl Pts',(22.6639257473233,-2.84999998509884,24.3574350451635));
#1631=CARTESIAN_POINT('Ctrl Pts',(22.387343878881,-2.84999998509885,25.0054304233637));
#1632=CARTESIAN_POINT('Ctrl Pts',(22.0297840503153,-2.84999998509885,25.6089518994764));
#1633=CARTESIAN_POINT('Ctrl Pts',(21.4938545527911,-2.84999998509885,26.5135416648746));
#1634=CARTESIAN_POINT('Ctrl Pts',(20.784650112019,-2.84999998509956,27.303617483772));
#1635=CARTESIAN_POINT('Ctrl Pts',(19.9426522986584,-2.84999998509956,27.9332275086139));
#1636=CARTESIAN_POINT('Ctrl Pts',(19.2042840496589,-2.84999998509956,28.4853477685699));
#1637=CARTESIAN_POINT('Ctrl Pts',(18.3756676895399,-2.84999998509882,28.9051793945818));
#1638=CARTESIAN_POINT('Ctrl Pts',(17.4936479681113,-2.84999998509882,29.173461310178));
#1639=CARTESIAN_POINT('Ctrl Pts',(16.7456945377239,-2.84999998509882,29.4009645895333));
#1640=CARTESIAN_POINT('Ctrl Pts',(15.9682447542833,-2.84999998509884,29.5167703162194));
#1641=CARTESIAN_POINT('Ctrl Pts',(15.1864816992912,-2.84999998509884,29.5167703162194));
#1642=CARTESIAN_POINT('',(15.1864816992912,-2.84999998509884,29.5167703162194));
#1643=CARTESIAN_POINT('Origin',(-15.1864816992912,-2.84999998509884,29.5167703162194));
#1644=CARTESIAN_POINT('',(15.1013999554125,-2.84999998509884,29.5167703162194));
#1645=CARTESIAN_POINT('',(15.1013999554125,-2.22499998509884,29.5167703162194));
#1646=CARTESIAN_POINT('',(-7.75,-2.84999998509884,29.5167703162194));
#1647=CARTESIAN_POINT('Origin',(15.1013999554125,-1.59999998509884,29.8376396510335));
#1648=CARTESIAN_POINT('',(15.1013999554125,-2.84999998509884,8.22665868558639));
#1649=CARTESIAN_POINT('',(15.1013999554125,-2.84999998509884,22.4210044058363));
#1650=CARTESIAN_POINT('',(15.1013999554125,-1.59999998509884,8.22665868558639));
#1651=CARTESIAN_POINT('Origin',(15.1013999554125,-1.59999998509884,8.22665868558639));
#1652=CARTESIAN_POINT('',(7.55069997770627,-2.84999998509884,8.22665868558639));
#1653=CARTESIAN_POINT('Origin',(2.4424906516071E-14,-2.84999998509884,15.0043691606391));
#1654=CARTESIAN_POINT('',(12.5712251350582,-2.84999998509884,27.3766586855864));
#1655=CARTESIAN_POINT('',(7.50069997770628,-2.84999998509884,27.3766586855864));
#1656=CARTESIAN_POINT('',(12.5712251350582,-2.84999998509884,26.4287713828336));
#1657=CARTESIAN_POINT('',(12.5712251350582,-2.84999998509884,21.1905139231128));
#1658=CARTESIAN_POINT('',(-0.06945313750083,-2.84999998509884,26.4287713828336));
#1659=CARTESIAN_POINT('',(3.05569997770627,-2.84999998509884,26.4287713828336));
#1660=CARTESIAN_POINT('',(-0.06945313750083,-2.84999998509884,27.6686628945151));
#1661=CARTESIAN_POINT('',(-0.06945313750083,-2.84999998509884,7.86373557404968));
#1662=CARTESIAN_POINT('',(-0.0347265687504028,-2.84999998509884,27.6686628945151));
#1663=CARTESIAN_POINT('',(-7.75,-2.84999998509884,29.5167703162194));
#1664=CARTESIAN_POINT('Origin',(15.1013999554125,-1.59999998509884,8.22665868558639));
#1665=CARTESIAN_POINT('Origin',(-15.1864816992912,-2.84999998509884,29.5167703162194));
#1666=CARTESIAN_POINT('',(-15.1864816992912,-2.84999998509884,29.5167703162194));
#1667=CARTESIAN_POINT('',(-15.1864816992912,-2.84999998509884,29.5167703162194));
#1668=CARTESIAN_POINT('',(-7.75,-2.84999998509884,29.5167703162194));
#1669=CARTESIAN_POINT('Origin',(-23.1470582624978,-2.84999998509884,0.));
#1670=CARTESIAN_POINT('',(-23.1470582624978,-2.84999998509884,21.53));
#1671=CARTESIAN_POINT('',(-23.1470582624978,-2.84999998509884,0.));
#1672=CARTESIAN_POINT('',(-23.1470582624978,-2.84999998509884,21.53));
#1673=CARTESIAN_POINT('Ctrl Pts',(-23.1470582624978,-2.84999998509884,21.53));
#1674=CARTESIAN_POINT('Ctrl Pts',(-23.1470582624978,0.400000014901161,21.53));
#1675=CARTESIAN_POINT('Ctrl Pts',(-23.1470582624978,-2.84999998509884,22.564379179215));
#1676=CARTESIAN_POINT('Ctrl Pts',(-23.1470582624978,0.400000014901161,22.564379179215));
#1677=CARTESIAN_POINT('Ctrl Pts',(-22.9466092219465,-2.84999998509884,23.5891249480358));
#1678=CARTESIAN_POINT('Ctrl Pts',(-22.9466092219465,0.400000014901162,23.5891249480358));
#1679=CARTESIAN_POINT('Ctrl Pts',(-22.1819265160689,-2.84999998509884,25.4681230716592));
#1680=CARTESIAN_POINT('Ctrl Pts',(-22.1819265160689,0.400000014901162,25.4681230716592));
#1681=CARTESIAN_POINT('Ctrl Pts',(-21.638688255002,-2.84999998509884,26.3112246922902));
#1682=CARTESIAN_POINT('Ctrl Pts',(-21.638688255002,0.400000014901164,26.3112246922902));
#1683=CARTESIAN_POINT('Ctrl Pts',(-20.3252536502922,-2.84999998509884,27.696792357649));
#1684=CARTESIAN_POINT('Ctrl Pts',(-20.3252536502922,0.400000014901164,27.696792357649));
#1685=CARTESIAN_POINT('Ctrl Pts',(-19.586282645072,-2.84999998509885,28.2476656116704));
#1686=CARTESIAN_POINT('Ctrl Pts',(-19.586282645072,0.400000014901151,28.2476656116704));
#1687=CARTESIAN_POINT('Ctrl Pts',(-17.9665605585341,-2.84999998509885,29.0674480679027));
#1688=CARTESIAN_POINT('Ctrl Pts',(-17.9665605585341,0.400000014901151,29.0674480679027));
#1689=CARTESIAN_POINT('Ctrl Pts',(-17.0998978082903,-2.84999998509883,29.3347429784448));
#1690=CARTESIAN_POINT('Ctrl Pts',(-17.0998978082903,0.400000014901167,29.3347429784448));
#1691=CARTESIAN_POINT('Ctrl Pts',(-15.8685825675908,-2.84999998509883,29.4947060307156));
#1692=CARTESIAN_POINT('Ctrl Pts',(-15.8685825675908,0.400000014901167,29.4947060307156));
#1693=CARTESIAN_POINT('Ctrl Pts',(-15.5277113892959,-2.84999998509884,29.5167703162194));
#1694=CARTESIAN_POINT('Ctrl Pts',(-15.5277113892959,0.400000014901162,29.5167703162194));
#1695=CARTESIAN_POINT('Ctrl Pts',(-15.1864816992912,-2.84999998509884,29.5167703162194));
#1696=CARTESIAN_POINT('Ctrl Pts',(-15.1864816992912,0.400000014901162,29.5167703162194));
#1697=CARTESIAN_POINT('Ctrl Pts',(-15.1864816992912,-2.84999998509884,29.5167703162194));
#1698=CARTESIAN_POINT('Ctrl Pts',(-15.5277113892959,-2.84999998509884,29.5167703162194));
#1699=CARTESIAN_POINT('Ctrl Pts',(-15.8685825675908,-2.84999998509883,29.4947060307156));
#1700=CARTESIAN_POINT('Ctrl Pts',(-16.2069695434803,-2.84999998509883,29.4507453846335));
#1701=CARTESIAN_POINT('Ctrl Pts',(-17.0998978082903,-2.84999998509883,29.3347429784448));
#1702=CARTESIAN_POINT('Ctrl Pts',(-17.9665605585341,-2.84999998509885,29.0674480679027));
#1703=CARTESIAN_POINT('Ctrl Pts',(-18.7699938344246,-2.84999998509885,28.6608100959923));
#1704=CARTESIAN_POINT('Ctrl Pts',(-19.586282645072,-2.84999998509885,28.2476656116704));
#1705=CARTESIAN_POINT('Ctrl Pts',(-20.3252536502922,-2.84999998509884,27.696792357649));
#1706=CARTESIAN_POINT('Ctrl Pts',(-20.9546913803544,-2.84999998509884,27.0327862754248));
#1707=CARTESIAN_POINT('Ctrl Pts',(-21.638688255002,-2.84999998509884,26.3112246922902));
#1708=CARTESIAN_POINT('Ctrl Pts',(-22.1819265160689,-2.84999998509884,25.4681230716592));
#1709=CARTESIAN_POINT('Ctrl Pts',(-22.5567128473753,-2.84999998509884,24.5471884044155));
#1710=CARTESIAN_POINT('Ctrl Pts',(-22.9466092219465,-2.84999998509884,23.5891249480358));
#1711=CARTESIAN_POINT('Ctrl Pts',(-23.1470582624978,-2.84999998509884,22.564379179215));
#1712=CARTESIAN_POINT('Ctrl Pts',(-23.1470582624978,-2.84999998509884,21.53));
#1713=CARTESIAN_POINT('Origin',(-0.06945313750083,-2.84999998509884,0.723101987460226));
#1714=CARTESIAN_POINT('',(-0.06945313750083,-4.34999998509884,26.4287713828336));
#1715=CARTESIAN_POINT('',(-0.06945313750083,-2.84999998509884,27.6686628945151));
#1716=CARTESIAN_POINT('Origin',(-2.9113924550416,-2.84999998509884,27.6686628945151));
#1717=CARTESIAN_POINT('',(-2.9113924550416,-2.84999998509884,24.9997289182807));
#1718=CARTESIAN_POINT('',(-2.9113924550416,-2.84999998509884,27.6686628945151));
#1719=CARTESIAN_POINT('Origin',(-0.06945313750083,-2.84999998509884,27.6686628945151));
#1720=CARTESIAN_POINT('Origin',(11.8434094987131,-2.84999998509884,24.9997289182807));
#1721=CARTESIAN_POINT('Origin',(6.11139995541252,-2.84999998509884,15.4386586855864));
#1722=CARTESIAN_POINT('Origin',(12.5712251350582,-2.84999998509884,26.4287713828336));
#1723=CARTESIAN_POINT('',(12.5712251350582,-2.84999998509884,26.4287713828336));
#1724=CARTESIAN_POINT('Origin',(12.5712251350582,-2.84999998509884,27.3766586855864));
#1725=CARTESIAN_POINT('',(12.5712251350582,-2.84999998509884,27.3766586855864));
#1726=CARTESIAN_POINT('Origin',(15.0013999554125,-2.84999998509884,27.3766586855864));
#1727=CARTESIAN_POINT('Origin',(-13.3471439875952,-0.348144340965393,25.));
#1728=CARTESIAN_POINT('Origin',(15.5,-0.499999999999997,0.));
#1729=CARTESIAN_POINT('',(15.5,-8.5,21.53));
#1730=CARTESIAN_POINT('Origin',(15.5,-0.499999999999996,21.53));
#1731=CARTESIAN_POINT('',(15.5,-8.5,0.));
#1732=CARTESIAN_POINT('Ctrl Pts',(23.1470582624978,-2.84999998509884,21.53));
#1733=CARTESIAN_POINT('Ctrl Pts',(23.1470582624978,-2.84999998509884,22.1437567981817));
#1734=CARTESIAN_POINT('Ctrl Pts',(23.022509137049,-2.78999126090622,23.3690790349726));
#1735=CARTESIAN_POINT('Ctrl Pts',(22.3198974187691,-2.46193690083395,25.6177315923911));
#1736=CARTESIAN_POINT('Ctrl Pts',(20.5110926187353,-1.7020255400889,28.2039799994286));
#1737=CARTESIAN_POINT('Ctrl Pts',(18.5696353046439,-1.06973165433229,29.2854042239718));
#1738=CARTESIAN_POINT('Ctrl Pts',(17.3729051183712,-0.710872782551718,29.6507220964571));
#1739=CARTESIAN_POINT('Ctrl Pts',(22.7198118938602,-4.24028845068581,21.53));
#1740=CARTESIAN_POINT('Ctrl Pts',(22.7198118938602,-4.24028845068581,22.2002615146275));
#1741=CARTESIAN_POINT('Ctrl Pts',(22.5817493512922,-4.14866945645265,23.5374841857751));
#1742=CARTESIAN_POINT('Ctrl Pts',(21.8135440419986,-3.64967384047734,25.9408637134471));
#1743=CARTESIAN_POINT('Ctrl Pts',(19.9296765080319,-2.49924355806206,28.5075590546794));
#1744=CARTESIAN_POINT('Ctrl Pts',(18.1370514069102,-1.5585601456583,29.4095504051295));
#1745=CARTESIAN_POINT('Ctrl Pts',(17.0761536847012,-1.0297724461051,29.7134500489123));
#1746=CARTESIAN_POINT('Ctrl Pts',(20.8178458665728,-7.21019593704687,21.53));
#1747=CARTESIAN_POINT('Ctrl Pts',(20.8178458665728,-7.21019593704687,22.262610360132));
#1748=CARTESIAN_POINT('Ctrl Pts',(20.6867502543194,-7.05904188173785,23.7236016063731));
#1749=CARTESIAN_POINT('Ctrl Pts',(19.9743929649169,-6.23307141672591,26.2942879962956));
#1750=CARTESIAN_POINT('Ctrl Pts',(18.3495477763269,-4.30450415209408,28.8286979439292));
#1751=CARTESIAN_POINT('Ctrl Pts',(17.0689365564032,-2.68501571063566,29.5384271966562));
#1752=CARTESIAN_POINT('Ctrl Pts',(16.3605272476694,-1.76831746237046,29.7783597756073));
#1753=CARTESIAN_POINT('Ctrl Pts',(17.439274309659,-8.5,21.53));
#1754=CARTESIAN_POINT('Ctrl Pts',(17.439274309659,-8.5,22.141173221204));
#1755=CARTESIAN_POINT('Ctrl Pts',(17.3884009076186,-8.37186832548845,23.3605338354724));
#1756=CARTESIAN_POINT('Ctrl Pts',(17.1080021968161,-7.64114179474954,25.6044191614041));
#1757=CARTESIAN_POINT('Ctrl Pts',(16.4596228231116,-5.74887042630291,28.1986335770759));
#1758=CARTESIAN_POINT('Ctrl Pts',(15.9206775381822,-3.71870178696605,29.2853440734893));
#1759=CARTESIAN_POINT('Ctrl Pts',(15.613417507234,-2.4703895422296,29.6508046506061));
#1760=CARTESIAN_POINT('Ctrl Pts',(15.5,-8.5,21.53));
#1761=CARTESIAN_POINT('Ctrl Pts',(15.5,-8.5,22.0266553120876));
#1762=CARTESIAN_POINT('Ctrl Pts',(15.4951309408162,-8.41225333768835,23.0199748029803));
#1763=CARTESIAN_POINT('Ctrl Pts',(15.4662821061159,-7.89236050808952,24.9447824542106));
#1764=CARTESIAN_POINT('Ctrl Pts',(15.3818055964893,-6.36998596226437,27.5615631835426));
#1765=CARTESIAN_POINT('Ctrl Pts',(15.2644429094879,-4.25496051779326,29.020701376661));
#1766=CARTESIAN_POINT('Ctrl Pts',(15.1864816992912,-2.84999998509884,29.5167703162194));
#1767=CARTESIAN_POINT('Origin',(15.03,-0.0299999999999956,21.53));
#1768=CARTESIAN_POINT('Origin',(-7.75,-0.0299999999999956,21.53));
#1769=CARTESIAN_POINT('',(-15.5,-8.5,21.53));
#1770=CARTESIAN_POINT('Origin',(-15.03,-0.0299999999999956,21.53));
#1771=CARTESIAN_POINT('',(-7.75,-8.5,21.53));
#1772=CARTESIAN_POINT('Ctrl Pts',(-15.5,-8.5,21.53));
#1773=CARTESIAN_POINT('Ctrl Pts',(-15.5,-8.5,22.0266553120876));
#1774=CARTESIAN_POINT('Ctrl Pts',(-15.4951447019987,-8.41250133176424,23.0200067789135));
#1775=CARTESIAN_POINT('Ctrl Pts',(-15.4734871639688,-8.02220484854414,24.4638359077212));
#1776=CARTESIAN_POINT('Ctrl Pts',(-15.4264042990584,-7.1737115170747,26.2687490760638));
#1777=CARTESIAN_POINT('Ctrl Pts',(-15.3358779039782,-5.54231031211734,28.1917616393412));
#1778=CARTESIAN_POINT('Ctrl Pts',(-15.2384558394224,-3.78664034022845,29.1860576898471));
#1779=CARTESIAN_POINT('Ctrl Pts',(-15.1864816992912,-2.84999998509883,29.5167703162194));
#1780=CARTESIAN_POINT('Ctrl Pts',(-16.9544557322443,-8.5,21.53));
#1781=CARTESIAN_POINT('Ctrl Pts',(-16.9544557322443,-8.5,22.1119039531348));
#1782=CARTESIAN_POINT('Ctrl Pts',(-16.9139185740061,-8.38094674675554,23.2755382155388));
#1783=CARTESIAN_POINT('Ctrl Pts',(-16.7529473339383,-7.87427083855543,24.8942720853787));
#1784=CARTESIAN_POINT('Ctrl Pts',(-16.4521649409963,-6.84623332251347,26.7793079464956));
#1785=CARTESIAN_POINT('Ctrl Pts',(-16.0126628664113,-5.08478067554652,28.5441778758566));
#1786=CARTESIAN_POINT('Ctrl Pts',(-15.6732904448521,-3.4235864033813,29.3518022135689));
#1787=CARTESIAN_POINT('Ctrl Pts',(-15.5066835552483,-2.5652921529469,29.6172960670094));
#1788=CARTESIAN_POINT('Ctrl Pts',(-20.3520401970212,-7.5543546905919,21.53));
#1789=CARTESIAN_POINT('Ctrl Pts',(-20.3520401970212,-7.5543546905919,22.2554701067675));
#1790=CARTESIAN_POINT('Ctrl Pts',(-20.2287422524441,-7.39698152804703,23.7058227252714));
#1791=CARTESIAN_POINT('Ctrl Pts',(-19.740580288577,-6.76492633602298,25.6103625511826));
#1792=CARTESIAN_POINT('Ctrl Pts',(-18.8455993303363,-5.58067695717557,27.6090568757527));
#1793=CARTESIAN_POINT('Ctrl Pts',(-17.5905552072202,-3.84488895605939,29.0939924678135));
#1794=CARTESIAN_POINT('Ctrl Pts',(-16.6879519484077,-2.51958770284519,29.607506681796));
#1795=CARTESIAN_POINT('Ctrl Pts',(-16.2538307600323,-1.87270591573633,29.7718229884785));
#1796=CARTESIAN_POINT('Ctrl Pts',(-22.5773964376476,-4.7037179392148,21.53));
#1797=CARTESIAN_POINT('Ctrl Pts',(-22.5773964376476,-4.7037179392148,22.2199396705609));
#1798=CARTESIAN_POINT('Ctrl Pts',(-22.4339191528162,-4.60083862140951,23.5980096929905));
#1799=CARTESIAN_POINT('Ctrl Pts',(-21.8433834209945,-4.18566843844144,25.4321589545483));
#1800=CARTESIAN_POINT('Ctrl Pts',(-20.7209443594134,-3.42041704337793,27.4037351901157));
#1801=CARTESIAN_POINT('Ctrl Pts',(-19.0192315760637,-2.32993416183456,28.959295746991));
#1802=CARTESIAN_POINT('Ctrl Pts',(-17.6543364216093,-1.52639112336682,29.5455217965594));
#1803=CARTESIAN_POINT('Ctrl Pts',(-16.9772365401445,-1.13607233395623,29.7343593663974));
#1804=CARTESIAN_POINT('Ctrl Pts',(-23.1470582624978,-2.84999998509884,21.53));
#1805=CARTESIAN_POINT('Ctrl Pts',(-23.1470582624978,-2.84999998509884,22.1437567981817));
#1806=CARTESIAN_POINT('Ctrl Pts',(-23.0215126714669,-2.78897998946142,23.3708954061372));
#1807=CARTESIAN_POINT('Ctrl Pts',(-22.4963530638721,-2.54492041099425,25.0525237016117));
#1808=CARTESIAN_POINT('Ctrl Pts',(-21.4528183064798,-2.09233578186248,26.961532444075));
#1809=CARTESIAN_POINT('Ctrl Pts',(-19.7298106110697,-1.44045701623135,28.6635539623928));
#1810=CARTESIAN_POINT('Ctrl Pts',(-18.170725242553,-0.950112030405435,29.4071768481336));
#1811=CARTESIAN_POINT('Ctrl Pts',(-17.3729051183712,-0.710872782551719,
29.6507220964571));
#1812=CARTESIAN_POINT('Origin',(-15.5,-0.499999999999996,21.53));
#1813=CARTESIAN_POINT('Origin',(-15.5,-8.5,0.));
#1814=CARTESIAN_POINT('',(-15.5,-8.5,0.));
#1815=CARTESIAN_POINT('Origin',(-15.5,-0.499999999999996,0.));
#1816=CARTESIAN_POINT('Origin',(14.6013336745177,-5.84999998509884,0.));
#1817=CARTESIAN_POINT('',(14.6013336745177,-2.84999998509884,4.));
#1818=CARTESIAN_POINT('',(14.6013336745177,-2.84999998509884,-10.483));
#1819=CARTESIAN_POINT('',(14.6013336745177,-2.84999998509884,0.));
#1820=CARTESIAN_POINT('',(14.6013336745177,-5.84999998509884,-10.483));
#1821=CARTESIAN_POINT('',(14.6013336745177,-1.42499999254942,-10.483));
#1822=CARTESIAN_POINT('',(14.6013336745177,-5.84999998509884,4.));
#1823=CARTESIAN_POINT('',(14.6013336745177,-5.84999998509884,0.));
#1824=CARTESIAN_POINT('',(14.6013336745177,-1.42499999254942,4.));
#1825=CARTESIAN_POINT('Origin',(4.44089209850063E-15,4.44089209850063E-15,
4.));
#1826=CARTESIAN_POINT('',(-8.84046799845231,-5.84999998509884,4.));
#1827=CARTESIAN_POINT('',(-3.34486119470744,-5.84999998509884,4.));
#1828=CARTESIAN_POINT('',(-20.0045655857755,-2.84999998509884,4.));
#1829=CARTESIAN_POINT('Origin',(-13.3471439875952,-0.348144340965393,4.));
#1830=CARTESIAN_POINT('',(-23.1470582624978,-2.84999998509884,4.));
#1831=CARTESIAN_POINT('',(1.44328992944446E-14,-2.84999998509884,4.));
#1832=CARTESIAN_POINT('',(-15.5,-8.5,4.));
#1833=CARTESIAN_POINT('Origin',(-15.5,-0.499999999999996,4.));
#1834=CARTESIAN_POINT('',(15.5,-8.5,4.));
#1835=CARTESIAN_POINT('',(15.5,-8.5,4.));
#1836=CARTESIAN_POINT('',(23.1470582624978,-2.84999998509884,4.));
#1837=CARTESIAN_POINT('Origin',(15.5,-0.499999999999997,4.));
#1838=CARTESIAN_POINT('',(1.44328992944446E-14,-2.84999998509884,4.));
#1839=CARTESIAN_POINT('Origin',(-13.3471439875952,-0.348144340965393,0.));
#1840=CARTESIAN_POINT('',(-8.84046799845231,-5.84999998509884,-10.483));
#1841=CARTESIAN_POINT('',(-8.84046799845231,-5.84999998509884,-3.49466124563523E-16));
#1842=CARTESIAN_POINT('',(-20.0045655857755,-2.84999998509884,-10.483));
#1843=CARTESIAN_POINT('Origin',(-13.3471439875952,-0.348144340965393,-10.483));
#1844=CARTESIAN_POINT('',(-20.0045655857755,-2.84999998509884,0.));
#1845=CARTESIAN_POINT('Origin',(-23.1470582624978,-2.84999998509884,0.));
#1846=CARTESIAN_POINT('',(-23.1470582624978,-2.84999998509884,-10.483));
#1847=CARTESIAN_POINT('',(1.44328992944446E-14,-2.84999998509884,-10.483));
#1848=CARTESIAN_POINT('',(-23.1470582624978,-2.84999998509884,0.));
#1849=CARTESIAN_POINT('Origin',(-15.5,-0.499999999999996,0.));
#1850=CARTESIAN_POINT('',(-15.5,-8.5,-10.483));
#1851=CARTESIAN_POINT('Origin',(-15.5,-0.499999999999996,-10.483));
#1852=CARTESIAN_POINT('',(-15.5,-8.5,0.));
#1853=CARTESIAN_POINT('Origin',(15.5,-8.5,0.));
#1854=CARTESIAN_POINT('',(15.5,-8.5,-10.483));
#1855=CARTESIAN_POINT('',(15.5,-8.5,-10.483));
#1856=CARTESIAN_POINT('',(15.5,-8.5,0.));
#1857=CARTESIAN_POINT('Origin',(15.5,-0.499999999999997,0.));
#1858=CARTESIAN_POINT('',(23.1470582624978,-2.84999998509884,-10.483));
#1859=CARTESIAN_POINT('Origin',(15.5,-0.499999999999997,-10.483));
#1860=CARTESIAN_POINT('',(23.1470582624978,-2.84999998509884,0.));
#1861=CARTESIAN_POINT('Origin',(15.0383336745177,-2.84999998509884,0.));
#1862=CARTESIAN_POINT('',(15.0383336745177,-2.84999998509884,-10.483));
#1863=CARTESIAN_POINT('Origin',(-8.84046799845231,-5.84999998509884,0.));
#1864=CARTESIAN_POINT('',(-3.34486119470744,-5.84999998509884,-10.483));
#1865=CARTESIAN_POINT('Origin',(4.44089209850063E-15,4.44089209850063E-15,
-10.483));
#1866=UNCERTAINTY_MEASURE_WITH_UNIT(LENGTH_MEASURE(0.01),#1870,
'DISTANCE_ACCURACY_VALUE',
'Maximum model space distance between geometric entities at asserted c
onnectivities');
#1867=UNCERTAINTY_MEASURE_WITH_UNIT(LENGTH_MEASURE(0.01),#1870,
'DISTANCE_ACCURACY_VALUE',
'Maximum model space distance between geometric entities at asserted c
onnectivities');
#1868=(
GEOMETRIC_REPRESENTATION_CONTEXT(3)
GLOBAL_UNCERTAINTY_ASSIGNED_CONTEXT((#1866))
GLOBAL_UNIT_ASSIGNED_CONTEXT((#1870,#1871,#1872))
REPRESENTATION_CONTEXT('','3D')
);
#1869=(
GEOMETRIC_REPRESENTATION_CONTEXT(3)
GLOBAL_UNCERTAINTY_ASSIGNED_CONTEXT((#1867))
GLOBAL_UNIT_ASSIGNED_CONTEXT((#1870,#1871,#1872))
REPRESENTATION_CONTEXT('','3D')
);
#1870=(
LENGTH_UNIT()
NAMED_UNIT(*)
SI_UNIT(.MILLI.,.METRE.)
);
#1871=(
NAMED_UNIT(*)
PLANE_ANGLE_UNIT()
SI_UNIT($,.RADIAN.)
);
#1872=(
NAMED_UNIT(*)
SI_UNIT($,.STERADIAN.)
SOLID_ANGLE_UNIT()
);
#1873=SHAPE_DEFINITION_REPRESENTATION(#1874,#1875);
#1874=PRODUCT_DEFINITION_SHAPE('',$,#1877);
#1875=SHAPE_REPRESENTATION('',(#1039),#1868);
#1876=PRODUCT_DEFINITION_CONTEXT('part definition',#1881,'design');
#1877=PRODUCT_DEFINITION('NexBar','NexBar v12',#1878,#1876);
#1878=PRODUCT_DEFINITION_FORMATION('',$,#1883);
#1879=PRODUCT_RELATED_PRODUCT_CATEGORY('NexBar v12','NexBar v12',(#1883));
#1880=APPLICATION_PROTOCOL_DEFINITION('international standard',
'automotive_design',2009,#1881);
#1881=APPLICATION_CONTEXT(
'Core Data for Automotive Mechanical Design Process');
#1882=PRODUCT_CONTEXT('part definition',#1881,'mechanical');
#1883=PRODUCT('NexBar','NexBar v12',$,(#1882));
#1884=PRESENTATION_STYLE_ASSIGNMENT((#1885));
#1885=SURFACE_STYLE_USAGE(.BOTH.,#1886);
#1886=SURFACE_SIDE_STYLE('',(#1887));
#1887=SURFACE_STYLE_FILL_AREA(#1888);
#1888=FILL_AREA_STYLE('Steel - Satin',(#1889));
#1889=FILL_AREA_STYLE_COLOUR('Steel - Satin',#1890);
#1890=COLOUR_RGB('Steel - Satin',0.627450980392157,0.627450980392157,0.627450980392157);
ENDSEC;
END-ISO-10303-21;
