ISO-10303-21;
HEADER;
/* Generated by software containing ST-Developer
 * from STEP Tools, Inc. (www.steptools.com) 
 */

FILE_DESCRIPTION(
/* description */ (''),
/* implementation_level */ '2;1');

FILE_NAME(
/* name */ 'Top.step',
/* time_stamp */ '2026-08-14T15:48:09-04:00',
/* author */ (''),
/* organization */ (''),
/* preprocessor_version */ 'ST-DEVELOPER v20.1',
/* originating_system */ 'Autodesk Translation Framework v15.8.0.0',
/* authorisation */ '');

FILE_SCHEMA (('AUTOMOTIVE_DESIGN { 1 0 10303 214 3 1 1 }'));
ENDSEC;

DATA;
#10=MECHANICAL_DESIGN_GEOMETRIC_PRESENTATION_REPRESENTATION('',(#15,#16,
#17),#1187);
#11=SHAPE_REPRESENTATION_RELATIONSHIP('SRR','None',#1193,#12);
#12=ADVANCED_BREP_SHAPE_REPRESENTATION('',(#18,#19,#20),#1186);
#13=SPHERICAL_SURFACE('',#473,2.);
#14=SPHERICAL_SURFACE('',#475,1.25);
#15=STYLED_ITEM('',(#1202),#18);
#16=STYLED_ITEM('',(#1202),#19);
#17=STYLED_ITEM('',(#1202),#20);
#18=MANIFOLD_SOLID_BREP('TOp',#439);
#19=MANIFOLD_SOLID_BREP('Registeration1',#440);
#20=MANIFOLD_SOLID_BREP('Registeration2',#441);
#21=B_SPLINE_SURFACE_WITH_KNOTS('',3,3,((#1066,#1067,#1068,#1069,#1070,
#1071,#1072),(#1073,#1074,#1075,#1076,#1077,#1078,#1079),(#1080,#1081,#1082,
#1083,#1084,#1085,#1086),(#1087,#1088,#1089,#1090,#1091,#1092,#1093),(#1094,
#1095,#1096,#1097,#1098,#1099,#1100),(#1101,#1102,#1103,#1104,#1105,#1106,
#1107),(#1108,#1109,#1110,#1111,#1112,#1113,#1114)),.UNSPECIFIED.,.F.,.F.,
 .F.,(4,1,1,1,4),(4,1,1,1,4),(0.,0.274483184602799,0.411724776904198,0.686207961506997,
0.960691146109796),(0.,0.285714285714286,0.571428571428571,0.857142857142857,
1.),.UNSPECIFIED.);
#22=B_SPLINE_SURFACE_WITH_KNOTS('',3,3,((#1115,#1116,#1117,#1118,#1119,
#1120,#1121),(#1122,#1123,#1124,#1125,#1126,#1127,#1128),(#1129,#1130,#1131,
#1132,#1133,#1134,#1135),(#1136,#1137,#1138,#1139,#1140,#1141,#1142),(#1143,
#1144,#1145,#1146,#1147,#1148,#1149),(#1150,#1151,#1152,#1153,#1154,#1155,
#1156),(#1157,#1158,#1159,#1160,#1161,#1162,#1163)),.UNSPECIFIED.,.F.,.F.,
 .F.,(4,1,1,1,4),(4,1,1,1,4),(0.,0.137241585907484,0.411724757722453,0.686207929537422,
0.960691101352391),(0.,0.285714285714286,0.571428571428571,0.857142857142857,
1.),.UNSPECIFIED.);
#23=B_SPLINE_CURVE_WITH_KNOTS('',3,(#661,#662,#663,#664,#665,#666,#667,
#668,#669,#670,#671,#672,#673,#674,#675,#676,#677,#678,#679,#680,#681,#682,
#683,#684,#685,#686,#687,#688,#689,#690,#691,#692,#693,#694,#695,#696,#697,
#698,#699,#700,#701,#702,#703,#704,#705,#706,#707,#708,#709,#710,#711,#712,
#713,#714,#715,#716,#717,#718),.UNSPECIFIED.,.F.,.F.,(4,3,3,3,3,3,3,3,3,
3,3,3,3,3,3,3,3,3,3,4),(0.0617713723715164,0.140609331812725,0.219446845246224,
0.298283936604143,0.377821854991541,0.456666390018348,0.535509524314708,
0.614351353682098,0.693191973905332,0.772031480753699,0.850869969982248,
0.929707537332953,1.00985542401665,1.08869869341433,1.16753942965512,1.24637801583208,
1.32750616957468,1.40634704239642,1.48861883659946,1.57089063080251),
 .UNSPECIFIED.);
#24=B_SPLINE_CURVE_WITH_KNOTS('',3,(#722,#723,#724,#725,#726,#727,#728,
#729,#730,#731,#732,#733,#734,#735,#736,#737,#738,#739,#740,#741,#742,#743,
#744,#745,#746,#747,#748,#749,#750,#751,#752,#753,#754,#755,#756,#757,#758,
#759,#760,#761,#762,#763,#764,#765,#766,#767,#768,#769,#770,#771,#772,#773,
#774,#775,#776,#777,#778,#779),.UNSPECIFIED.,.F.,.F.,(4,3,3,3,3,3,3,3,3,
3,3,3,3,3,3,3,3,3,3,4),(0.,0.0788379594412316,0.157675472874718,0.236512564232565,
0.316050482619966,0.394895017646766,0.473738151943112,0.552579981310528,
0.631420601533753,0.710260108382162,0.789098597610705,0.86793616496136,
0.948084051645064,1.02692732104275,1.10576805728352,1.18460664346052,1.26573479720314,
1.34457567002488,1.42684746422794,1.50911925843099),.UNSPECIFIED.);
#25=B_SPLINE_CURVE_WITH_KNOTS('',3,(#789,#790,#791,#792,#793,#794,#795,
#796,#797,#798,#799,#800,#801,#802,#803,#804,#805,#806,#807,#808,#809,#810,
#811,#812,#813,#814,#815,#816,#817,#818,#819,#820,#821,#822,#823,#824,#825,
#826,#827,#828,#829,#830,#831,#832,#833,#834,#835,#836,#837,#838,#839,#840,
#841,#842,#843,#844,#845,#846,#847,#848,#849,#850,#851,#852,#853,#854,#855,
#856,#857,#858,#859,#860,#861,#862,#863,#864,#865,#866,#867),
 .UNSPECIFIED.,.F.,.F.,(4,3,3,3,3,3,3,3,3,3,3,3,3,3,3,3,3,3,3,3,3,3,3,3,
3,3,4),(0.,0.0507716205127016,0.100660918051046,0.149309777768343,0.170480570300753,
0.218035267193611,0.264268664763231,0.289388895092914,0.339097259683152,
0.388037375865285,0.438129864659575,0.488222353453864,0.537152099659547,
0.562277315257155,0.612097519186718,0.662540929526104,0.712904459955552,
0.762513638331206,0.804282099338457,0.835202838919571,0.882089952456553,
0.929145697267885,0.976201442079218,1.01945824767468,1.06269236102892,1.10570336357575,
1.11631129113286),.UNSPECIFIED.);
#26=B_SPLINE_CURVE_WITH_KNOTS('',3,(#870,#871,#872,#873,#874,#875,#876,
#877,#878,#879,#880,#881,#882,#883,#884,#885,#886,#887,#888,#889,#890,#891,
#892,#893,#894,#895,#896,#897,#898,#899,#900,#901,#902,#903,#904,#905,#906,
#907,#908,#909,#910,#911,#912,#913,#914,#915,#916,#917,#918,#919,#920,#921,
#922,#923,#924,#925,#926,#927,#928,#929,#930,#931,#932,#933,#934,#935,#936),
 .UNSPECIFIED.,.F.,.F.,(4,3,3,3,3,3,3,3,3,3,3,3,3,3,3,3,3,3,3,3,3,3,4),
(0.,0.088611896004714,0.177223792009428,0.259987336922475,0.312507479786035,
0.381976720604981,0.452207269417246,0.522526378370636,0.535165881159958,
0.605161946070435,0.623793750948561,0.685042734770079,0.746629547589995,
0.807799938523995,0.867689663478361,0.894870475519162,0.933156380291377,
1.01881705637992,1.09163023204756,1.13875305112324,1.18605438452041,1.23326587064445,
1.25030461987805),.UNSPECIFIED.);
#27=B_SPLINE_CURVE_WITH_KNOTS('',3,(#945,#946,#947,#948,#949,#950,#951,
#952,#953,#954,#955,#956,#957,#958,#959,#960,#961,#962,#963,#964,#965,#966,
#967,#968,#969,#970,#971,#972,#973,#974,#975,#976,#977,#978,#979,#980,#981,
#982,#983,#984,#985,#986,#987,#988,#989,#990,#991,#992,#993,#994,#995,#996,
#997,#998,#999,#1000,#1001,#1002),.UNSPECIFIED.,.F.,.F.,(4,3,3,3,3,3,3,
3,3,3,3,3,3,3,3,3,3,3,3,4),(0.,0.0788363481640021,0.157672250329356,0.236507730427718,
0.31604402323222,0.394886946847392,0.473728469760732,0.552568687771791,
0.631407696663371,0.710245592202861,0.789082470143357,0.867918426224873,
0.948064674859233,1.02690633287115,1.1057454577779,1.18458243266486,1.26570892832358,
1.34454818980851,1.42681830255413,1.50908841529975),.UNSPECIFIED.);
#28=B_SPLINE_CURVE_WITH_KNOTS('',3,(#1006,#1007,#1008,#1009,#1010,#1011,
#1012,#1013,#1014,#1015,#1016,#1017,#1018,#1019,#1020,#1021,#1022,#1023,
#1024,#1025,#1026,#1027,#1028,#1029,#1030,#1031,#1032,#1033,#1034,#1035,
#1036,#1037,#1038,#1039,#1040,#1041,#1042,#1043,#1044,#1045,#1046,#1047,
#1048,#1049,#1050,#1051,#1052,#1053,#1054,#1055,#1056,#1057,#1058,#1059,
#1060,#1061,#1062,#1063),.UNSPECIFIED.,.F.,.F.,(4,3,3,3,3,3,3,3,3,3,3,3,
3,3,3,3,3,3,3,4),(0.0617701098983657,0.140606458062332,0.219442360227723,
0.298277840326155,0.377814133130652,0.456657056745829,0.535498579659166,
0.614338797670222,0.693177806561829,0.772015702101325,0.850852580041781,
0.929688536123255,1.00983478475761,1.08867644276953,1.16751556767628,1.24635254256323,
1.32747903822195,1.40631829970688,1.4885884124525,1.57085852519812),
 .UNSPECIFIED.);
#29=CYLINDRICAL_SURFACE('',#458,8.1);
#30=CYLINDRICAL_SURFACE('',#463,8.1);
#31=CYLINDRICAL_SURFACE('',#465,8.1);
#32=CYLINDRICAL_SURFACE('',#466,7.112);
#33=FACE_OUTER_BOUND('',#57,.T.);
#34=FACE_OUTER_BOUND('',#58,.T.);
#35=FACE_OUTER_BOUND('',#59,.T.);
#36=FACE_OUTER_BOUND('',#60,.T.);
#37=FACE_OUTER_BOUND('',#61,.T.);
#38=FACE_OUTER_BOUND('',#62,.T.);
#39=FACE_OUTER_BOUND('',#63,.T.);
#40=FACE_OUTER_BOUND('',#64,.T.);
#41=FACE_OUTER_BOUND('',#65,.T.);
#42=FACE_OUTER_BOUND('',#66,.T.);
#43=FACE_OUTER_BOUND('',#67,.T.);
#44=FACE_OUTER_BOUND('',#68,.T.);
#45=FACE_OUTER_BOUND('',#69,.T.);
#46=FACE_OUTER_BOUND('',#70,.T.);
#47=FACE_OUTER_BOUND('',#71,.T.);
#48=FACE_OUTER_BOUND('',#72,.T.);
#49=FACE_OUTER_BOUND('',#73,.T.);
#50=FACE_OUTER_BOUND('',#74,.T.);
#51=FACE_OUTER_BOUND('',#75,.T.);
#52=FACE_OUTER_BOUND('',#76,.T.);
#53=FACE_OUTER_BOUND('',#77,.T.);
#54=FACE_OUTER_BOUND('',#78,.T.);
#55=FACE_OUTER_BOUND('',#79,.T.);
#56=FACE_OUTER_BOUND('',#80,.T.);
#57=EDGE_LOOP('',(#279,#280,#281,#282,#283,#284,#285,#286,#287,#288,#289,
#290,#291,#292));
#58=EDGE_LOOP('',(#293,#294,#295,#296));
#59=EDGE_LOOP('',(#297,#298,#299,#300,#301,#302,#303,#304));
#60=EDGE_LOOP('',(#305,#306,#307,#308));
#61=EDGE_LOOP('',(#309,#310,#311,#312));
#62=EDGE_LOOP('',(#313,#314,#315,#316));
#63=EDGE_LOOP('',(#317,#318,#319,#320));
#64=EDGE_LOOP('',(#321,#322,#323,#324));
#65=EDGE_LOOP('',(#325,#326,#327,#328,#329,#330,#331,#332,#333,#334,#335,
#336,#337,#338,#339,#340));
#66=EDGE_LOOP('',(#341,#342,#343,#344,#345));
#67=EDGE_LOOP('',(#346,#347,#348,#349,#350,#351,#352,#353,#354));
#68=EDGE_LOOP('',(#355,#356,#357,#358));
#69=EDGE_LOOP('',(#359,#360,#361,#362));
#70=EDGE_LOOP('',(#363,#364,#365,#366));
#71=EDGE_LOOP('',(#367,#368,#369,#370));
#72=EDGE_LOOP('',(#371,#372,#373));
#73=EDGE_LOOP('',(#374,#375,#376));
#74=EDGE_LOOP('',(#377,#378,#379,#380));
#75=EDGE_LOOP('',(#381,#382,#383,#384));
#76=EDGE_LOOP('',(#385,#386,#387,#388));
#77=EDGE_LOOP('',(#389,#390));
#78=EDGE_LOOP('',(#391,#392,#393,#394));
#79=EDGE_LOOP('',(#395,#396));
#80=EDGE_LOOP('',(#397,#398));
#81=CIRCLE('',#444,7.112);
#82=CIRCLE('',#445,8.1);
#83=CIRCLE('',#446,8.1);
#84=CIRCLE('',#450,8.1);
#85=CIRCLE('',#453,8.1);
#86=CIRCLE('',#455,8.1);
#87=CIRCLE('',#457,8.1);
#88=CIRCLE('',#459,8.1);
#89=CIRCLE('',#460,8.1);
#90=CIRCLE('',#467,7.112);
#91=CIRCLE('',#474,2.);
#92=CIRCLE('',#476,1.25);
#93=LINE('',#593,#135);
#94=LINE('',#595,#136);
#95=LINE('',#597,#137);
#96=LINE('',#599,#138);
#97=LINE('',#601,#139);
#98=LINE('',#603,#140);
#99=LINE('',#605,#141);
#100=LINE('',#609,#142);
#101=LINE('',#613,#143);
#102=LINE('',#617,#144);
#103=LINE('',#618,#145);
#104=LINE('',#621,#146);
#105=LINE('',#623,#147);
#106=LINE('',#624,#148);
#107=LINE('',#627,#149);
#108=LINE('',#629,#150);
#109=LINE('',#631,#151);
#110=LINE('',#633,#152);
#111=LINE('',#635,#153);
#112=LINE('',#637,#154);
#113=LINE('',#638,#155);
#114=LINE('',#643,#156);
#115=LINE('',#645,#157);
#116=LINE('',#646,#158);
#117=LINE('',#651,#159);
#118=LINE('',#656,#160);
#119=LINE('',#659,#161);
#120=LINE('',#720,#162);
#121=LINE('',#780,#163);
#122=LINE('',#784,#164);
#123=LINE('',#788,#165);
#124=LINE('',#937,#166);
#125=LINE('',#939,#167);
#126=LINE('',#941,#168);
#127=LINE('',#942,#169);
#128=LINE('',#944,#170);
#129=LINE('',#1004,#171);
#130=LINE('',#1166,#172);
#131=LINE('',#1168,#173);
#132=LINE('',#1169,#174);
#133=LINE('',#1171,#175);
#134=LINE('',#1173,#176);
#135=VECTOR('',#481,10.);
#136=VECTOR('',#482,10.);
#137=VECTOR('',#483,10.);
#138=VECTOR('',#484,10.);
#139=VECTOR('',#485,10.);
#140=VECTOR('',#486,10.);
#141=VECTOR('',#487,10.);
#142=VECTOR('',#490,10.);
#143=VECTOR('',#493,10.);
#144=VECTOR('',#496,10.);
#145=VECTOR('',#497,10.);
#146=VECTOR('',#500,10.);
#147=VECTOR('',#501,10.);
#148=VECTOR('',#502,10.);
#149=VECTOR('',#505,10.);
#150=VECTOR('',#506,10.);
#151=VECTOR('',#507,10.);
#152=VECTOR('',#508,10.);
#153=VECTOR('',#509,10.);
#154=VECTOR('',#510,10.);
#155=VECTOR('',#511,10.);
#156=VECTOR('',#518,10.);
#157=VECTOR('',#519,10.);
#158=VECTOR('',#520,10.);
#159=VECTOR('',#527,10.);
#160=VECTOR('',#534,10.);
#161=VECTOR('',#537,10.);
#162=VECTOR('',#538,10.);
#163=VECTOR('',#539,10.);
#164=VECTOR('',#542,10.);
#165=VECTOR('',#547,10.);
#166=VECTOR('',#550,10.);
#167=VECTOR('',#551,10.);
#168=VECTOR('',#552,10.);
#169=VECTOR('',#553,10.);
#170=VECTOR('',#556,10.);
#171=VECTOR('',#559,10.);
#172=VECTOR('',#568,10.);
#173=VECTOR('',#569,10.);
#174=VECTOR('',#570,10.);
#175=VECTOR('',#573,10.);
#176=VECTOR('',#576,10.);
#177=VERTEX_POINT('',#591);
#178=VERTEX_POINT('',#592);
#179=VERTEX_POINT('',#594);
#180=VERTEX_POINT('',#596);
#181=VERTEX_POINT('',#598);
#182=VERTEX_POINT('',#600);
#183=VERTEX_POINT('',#602);
#184=VERTEX_POINT('',#604);
#185=VERTEX_POINT('',#606);
#186=VERTEX_POINT('',#608);
#187=VERTEX_POINT('',#610);
#188=VERTEX_POINT('',#612);
#189=VERTEX_POINT('',#614);
#190=VERTEX_POINT('',#616);
#191=VERTEX_POINT('',#620);
#192=VERTEX_POINT('',#622);
#193=VERTEX_POINT('',#626);
#194=VERTEX_POINT('',#628);
#195=VERTEX_POINT('',#630);
#196=VERTEX_POINT('',#632);
#197=VERTEX_POINT('',#634);
#198=VERTEX_POINT('',#636);
#199=VERTEX_POINT('',#642);
#200=VERTEX_POINT('',#644);
#201=VERTEX_POINT('',#650);
#202=VERTEX_POINT('',#654);
#203=VERTEX_POINT('',#658);
#204=VERTEX_POINT('',#660);
#205=VERTEX_POINT('',#719);
#206=VERTEX_POINT('',#721);
#207=VERTEX_POINT('',#781);
#208=VERTEX_POINT('',#783);
#209=VERTEX_POINT('',#787);
#210=VERTEX_POINT('',#869);
#211=VERTEX_POINT('',#938);
#212=VERTEX_POINT('',#940);
#213=VERTEX_POINT('',#1165);
#214=VERTEX_POINT('',#1167);
#215=VERTEX_POINT('',#1177);
#216=VERTEX_POINT('',#1178);
#217=VERTEX_POINT('',#1181);
#218=VERTEX_POINT('',#1182);
#219=EDGE_CURVE('',#177,#178,#93,.T.);
#220=EDGE_CURVE('',#179,#177,#94,.T.);
#221=EDGE_CURVE('',#180,#179,#95,.T.);
#222=EDGE_CURVE('',#181,#180,#96,.T.);
#223=EDGE_CURVE('',#182,#181,#97,.T.);
#224=EDGE_CURVE('',#183,#182,#98,.T.);
#225=EDGE_CURVE('',#184,#183,#99,.T.);
#226=EDGE_CURVE('',#185,#184,#81,.T.);
#227=EDGE_CURVE('',#186,#185,#100,.T.);
#228=EDGE_CURVE('',#187,#186,#82,.T.);
#229=EDGE_CURVE('',#188,#187,#101,.T.);
#230=EDGE_CURVE('',#189,#188,#83,.T.);
#231=EDGE_CURVE('',#190,#189,#102,.T.);
#232=EDGE_CURVE('',#178,#190,#103,.T.);
#233=EDGE_CURVE('',#178,#191,#104,.T.);
#234=EDGE_CURVE('',#192,#191,#105,.T.);
#235=EDGE_CURVE('',#177,#192,#106,.T.);
#236=EDGE_CURVE('',#193,#179,#107,.T.);
#237=EDGE_CURVE('',#194,#193,#108,.F.);
#238=EDGE_CURVE('',#194,#195,#109,.T.);
#239=EDGE_CURVE('',#195,#196,#110,.T.);
#240=EDGE_CURVE('',#196,#197,#111,.T.);
#241=EDGE_CURVE('',#198,#197,#112,.F.);
#242=EDGE_CURVE('',#198,#180,#113,.T.);
#243=EDGE_CURVE('',#193,#192,#84,.T.);
#244=EDGE_CURVE('',#199,#181,#114,.T.);
#245=EDGE_CURVE('',#200,#199,#115,.T.);
#246=EDGE_CURVE('',#182,#200,#116,.T.);
#247=EDGE_CURVE('',#199,#198,#85,.T.);
#248=EDGE_CURVE('',#201,#190,#117,.T.);
#249=EDGE_CURVE('',#191,#201,#86,.T.);
#250=EDGE_CURVE('',#202,#200,#87,.T.);
#251=EDGE_CURVE('',#183,#202,#118,.T.);
#252=EDGE_CURVE('',#201,#203,#119,.F.);
#253=EDGE_CURVE('',#203,#204,#23,.T.);
#254=EDGE_CURVE('',#204,#205,#120,.T.);
#255=EDGE_CURVE('',#205,#206,#24,.T.);
#256=EDGE_CURVE('',#206,#202,#121,.F.);
#257=EDGE_CURVE('',#197,#207,#88,.T.);
#258=EDGE_CURVE('',#207,#208,#122,.F.);
#259=EDGE_CURVE('',#208,#194,#89,.T.);
#260=EDGE_CURVE('',#209,#189,#123,.F.);
#261=EDGE_CURVE('',#209,#203,#25,.F.);
#262=EDGE_CURVE('',#206,#210,#26,.F.);
#263=EDGE_CURVE('',#186,#210,#124,.F.);
#264=EDGE_CURVE('',#185,#211,#125,.T.);
#265=EDGE_CURVE('',#211,#212,#126,.T.);
#266=EDGE_CURVE('',#212,#184,#127,.T.);
#267=EDGE_CURVE('',#188,#204,#128,.T.);
#268=EDGE_CURVE('',#204,#209,#27,.T.);
#269=EDGE_CURVE('',#205,#187,#129,.T.);
#270=EDGE_CURVE('',#210,#205,#28,.T.);
#271=EDGE_CURVE('',#212,#211,#90,.T.);
#272=EDGE_CURVE('',#195,#213,#130,.T.);
#273=EDGE_CURVE('',#213,#214,#131,.T.);
#274=EDGE_CURVE('',#196,#214,#132,.T.);
#275=EDGE_CURVE('',#208,#213,#133,.T.);
#276=EDGE_CURVE('',#214,#207,#134,.T.);
#277=EDGE_CURVE('',#215,#216,#91,.T.);
#278=EDGE_CURVE('',#217,#218,#92,.T.);
#279=ORIENTED_EDGE('',*,*,#219,.F.);
#280=ORIENTED_EDGE('',*,*,#220,.F.);
#281=ORIENTED_EDGE('',*,*,#221,.F.);
#282=ORIENTED_EDGE('',*,*,#222,.F.);
#283=ORIENTED_EDGE('',*,*,#223,.F.);
#284=ORIENTED_EDGE('',*,*,#224,.F.);
#285=ORIENTED_EDGE('',*,*,#225,.F.);
#286=ORIENTED_EDGE('',*,*,#226,.F.);
#287=ORIENTED_EDGE('',*,*,#227,.F.);
#288=ORIENTED_EDGE('',*,*,#228,.F.);
#289=ORIENTED_EDGE('',*,*,#229,.F.);
#290=ORIENTED_EDGE('',*,*,#230,.F.);
#291=ORIENTED_EDGE('',*,*,#231,.F.);
#292=ORIENTED_EDGE('',*,*,#232,.F.);
#293=ORIENTED_EDGE('',*,*,#219,.T.);
#294=ORIENTED_EDGE('',*,*,#233,.T.);
#295=ORIENTED_EDGE('',*,*,#234,.F.);
#296=ORIENTED_EDGE('',*,*,#235,.F.);
#297=ORIENTED_EDGE('',*,*,#221,.T.);
#298=ORIENTED_EDGE('',*,*,#236,.F.);
#299=ORIENTED_EDGE('',*,*,#237,.F.);
#300=ORIENTED_EDGE('',*,*,#238,.T.);
#301=ORIENTED_EDGE('',*,*,#239,.T.);
#302=ORIENTED_EDGE('',*,*,#240,.T.);
#303=ORIENTED_EDGE('',*,*,#241,.F.);
#304=ORIENTED_EDGE('',*,*,#242,.T.);
#305=ORIENTED_EDGE('',*,*,#220,.T.);
#306=ORIENTED_EDGE('',*,*,#235,.T.);
#307=ORIENTED_EDGE('',*,*,#243,.F.);
#308=ORIENTED_EDGE('',*,*,#236,.T.);
#309=ORIENTED_EDGE('',*,*,#223,.T.);
#310=ORIENTED_EDGE('',*,*,#244,.F.);
#311=ORIENTED_EDGE('',*,*,#245,.F.);
#312=ORIENTED_EDGE('',*,*,#246,.F.);
#313=ORIENTED_EDGE('',*,*,#222,.T.);
#314=ORIENTED_EDGE('',*,*,#242,.F.);
#315=ORIENTED_EDGE('',*,*,#247,.F.);
#316=ORIENTED_EDGE('',*,*,#244,.T.);
#317=ORIENTED_EDGE('',*,*,#232,.T.);
#318=ORIENTED_EDGE('',*,*,#248,.F.);
#319=ORIENTED_EDGE('',*,*,#249,.F.);
#320=ORIENTED_EDGE('',*,*,#233,.F.);
#321=ORIENTED_EDGE('',*,*,#224,.T.);
#322=ORIENTED_EDGE('',*,*,#246,.T.);
#323=ORIENTED_EDGE('',*,*,#250,.F.);
#324=ORIENTED_EDGE('',*,*,#251,.F.);
#325=ORIENTED_EDGE('',*,*,#243,.T.);
#326=ORIENTED_EDGE('',*,*,#234,.T.);
#327=ORIENTED_EDGE('',*,*,#249,.T.);
#328=ORIENTED_EDGE('',*,*,#252,.T.);
#329=ORIENTED_EDGE('',*,*,#253,.T.);
#330=ORIENTED_EDGE('',*,*,#254,.T.);
#331=ORIENTED_EDGE('',*,*,#255,.T.);
#332=ORIENTED_EDGE('',*,*,#256,.T.);
#333=ORIENTED_EDGE('',*,*,#250,.T.);
#334=ORIENTED_EDGE('',*,*,#245,.T.);
#335=ORIENTED_EDGE('',*,*,#247,.T.);
#336=ORIENTED_EDGE('',*,*,#241,.T.);
#337=ORIENTED_EDGE('',*,*,#257,.T.);
#338=ORIENTED_EDGE('',*,*,#258,.T.);
#339=ORIENTED_EDGE('',*,*,#259,.T.);
#340=ORIENTED_EDGE('',*,*,#237,.T.);
#341=ORIENTED_EDGE('',*,*,#231,.T.);
#342=ORIENTED_EDGE('',*,*,#260,.F.);
#343=ORIENTED_EDGE('',*,*,#261,.T.);
#344=ORIENTED_EDGE('',*,*,#252,.F.);
#345=ORIENTED_EDGE('',*,*,#248,.T.);
#346=ORIENTED_EDGE('',*,*,#225,.T.);
#347=ORIENTED_EDGE('',*,*,#251,.T.);
#348=ORIENTED_EDGE('',*,*,#256,.F.);
#349=ORIENTED_EDGE('',*,*,#262,.T.);
#350=ORIENTED_EDGE('',*,*,#263,.F.);
#351=ORIENTED_EDGE('',*,*,#227,.T.);
#352=ORIENTED_EDGE('',*,*,#264,.T.);
#353=ORIENTED_EDGE('',*,*,#265,.T.);
#354=ORIENTED_EDGE('',*,*,#266,.T.);
#355=ORIENTED_EDGE('',*,*,#230,.T.);
#356=ORIENTED_EDGE('',*,*,#267,.T.);
#357=ORIENTED_EDGE('',*,*,#268,.T.);
#358=ORIENTED_EDGE('',*,*,#260,.T.);
#359=ORIENTED_EDGE('',*,*,#229,.T.);
#360=ORIENTED_EDGE('',*,*,#269,.F.);
#361=ORIENTED_EDGE('',*,*,#254,.F.);
#362=ORIENTED_EDGE('',*,*,#267,.F.);
#363=ORIENTED_EDGE('',*,*,#228,.T.);
#364=ORIENTED_EDGE('',*,*,#263,.T.);
#365=ORIENTED_EDGE('',*,*,#270,.T.);
#366=ORIENTED_EDGE('',*,*,#269,.T.);
#367=ORIENTED_EDGE('',*,*,#226,.T.);
#368=ORIENTED_EDGE('',*,*,#266,.F.);
#369=ORIENTED_EDGE('',*,*,#271,.T.);
#370=ORIENTED_EDGE('',*,*,#264,.F.);
#371=ORIENTED_EDGE('',*,*,#268,.F.);
#372=ORIENTED_EDGE('',*,*,#253,.F.);
#373=ORIENTED_EDGE('',*,*,#261,.F.);
#374=ORIENTED_EDGE('',*,*,#255,.F.);
#375=ORIENTED_EDGE('',*,*,#270,.F.);
#376=ORIENTED_EDGE('',*,*,#262,.F.);
#377=ORIENTED_EDGE('',*,*,#239,.F.);
#378=ORIENTED_EDGE('',*,*,#272,.T.);
#379=ORIENTED_EDGE('',*,*,#273,.T.);
#380=ORIENTED_EDGE('',*,*,#274,.F.);
#381=ORIENTED_EDGE('',*,*,#259,.F.);
#382=ORIENTED_EDGE('',*,*,#275,.T.);
#383=ORIENTED_EDGE('',*,*,#272,.F.);
#384=ORIENTED_EDGE('',*,*,#238,.F.);
#385=ORIENTED_EDGE('',*,*,#258,.F.);
#386=ORIENTED_EDGE('',*,*,#276,.F.);
#387=ORIENTED_EDGE('',*,*,#273,.F.);
#388=ORIENTED_EDGE('',*,*,#275,.F.);
#389=ORIENTED_EDGE('',*,*,#265,.F.);
#390=ORIENTED_EDGE('',*,*,#271,.F.);
#391=ORIENTED_EDGE('',*,*,#257,.F.);
#392=ORIENTED_EDGE('',*,*,#240,.F.);
#393=ORIENTED_EDGE('',*,*,#274,.T.);
#394=ORIENTED_EDGE('',*,*,#276,.T.);
#395=ORIENTED_EDGE('',*,*,#277,.T.);
#396=ORIENTED_EDGE('',*,*,#277,.F.);
#397=ORIENTED_EDGE('',*,*,#278,.T.);
#398=ORIENTED_EDGE('',*,*,#278,.F.);
#399=PLANE('',#443);
#400=PLANE('',#447);
#401=PLANE('',#448);
#402=PLANE('',#449);
#403=PLANE('',#451);
#404=PLANE('',#452);
#405=PLANE('',#454);
#406=PLANE('',#456);
#407=PLANE('',#461);
#408=PLANE('',#462);
#409=PLANE('',#464);
#410=PLANE('',#468);
#411=PLANE('',#469);
#412=PLANE('',#470);
#413=PLANE('',#471);
#414=PLANE('',#472);
#415=ADVANCED_FACE('',(#33),#399,.F.);
#416=ADVANCED_FACE('',(#34),#400,.F.);
#417=ADVANCED_FACE('',(#35),#401,.F.);
#418=ADVANCED_FACE('',(#36),#402,.F.);
#419=ADVANCED_FACE('',(#37),#403,.F.);
#420=ADVANCED_FACE('',(#38),#404,.F.);
#421=ADVANCED_FACE('',(#39),#405,.F.);
#422=ADVANCED_FACE('',(#40),#406,.F.);
#423=ADVANCED_FACE('',(#41),#29,.T.);
#424=ADVANCED_FACE('',(#42),#407,.F.);
#425=ADVANCED_FACE('',(#43),#408,.F.);
#426=ADVANCED_FACE('',(#44),#30,.T.);
#427=ADVANCED_FACE('',(#45),#409,.T.);
#428=ADVANCED_FACE('',(#46),#31,.T.);
#429=ADVANCED_FACE('',(#47),#32,.F.);
#430=ADVANCED_FACE('',(#48),#21,.F.);
#431=ADVANCED_FACE('',(#49),#22,.F.);
#432=ADVANCED_FACE('',(#50),#410,.F.);
#433=ADVANCED_FACE('',(#51),#411,.F.);
#434=ADVANCED_FACE('',(#52),#412,.F.);
#435=ADVANCED_FACE('',(#53),#413,.F.);
#436=ADVANCED_FACE('',(#54),#414,.F.);
#437=ADVANCED_FACE('',(#55),#13,.T.);
#438=ADVANCED_FACE('',(#56),#14,.T.);
#439=CLOSED_SHELL('',(#415,#416,#417,#418,#419,#420,#421,#422,#423,#424,
#425,#426,#427,#428,#429,#430,#431,#432,#433,#434,#435,#436));
#440=CLOSED_SHELL('',(#437));
#441=CLOSED_SHELL('',(#438));
#442=AXIS2_PLACEMENT_3D('',#589,#477,#478);
#443=AXIS2_PLACEMENT_3D('',#590,#479,#480);
#444=AXIS2_PLACEMENT_3D('',#607,#488,#489);
#445=AXIS2_PLACEMENT_3D('',#611,#491,#492);
#446=AXIS2_PLACEMENT_3D('',#615,#494,#495);
#447=AXIS2_PLACEMENT_3D('',#619,#498,#499);
#448=AXIS2_PLACEMENT_3D('',#625,#503,#504);
#449=AXIS2_PLACEMENT_3D('',#639,#512,#513);
#450=AXIS2_PLACEMENT_3D('',#640,#514,#515);
#451=AXIS2_PLACEMENT_3D('',#641,#516,#517);
#452=AXIS2_PLACEMENT_3D('',#647,#521,#522);
#453=AXIS2_PLACEMENT_3D('',#648,#523,#524);
#454=AXIS2_PLACEMENT_3D('',#649,#525,#526);
#455=AXIS2_PLACEMENT_3D('',#652,#528,#529);
#456=AXIS2_PLACEMENT_3D('',#653,#530,#531);
#457=AXIS2_PLACEMENT_3D('',#655,#532,#533);
#458=AXIS2_PLACEMENT_3D('',#657,#535,#536);
#459=AXIS2_PLACEMENT_3D('',#782,#540,#541);
#460=AXIS2_PLACEMENT_3D('',#785,#543,#544);
#461=AXIS2_PLACEMENT_3D('',#786,#545,#546);
#462=AXIS2_PLACEMENT_3D('',#868,#548,#549);
#463=AXIS2_PLACEMENT_3D('',#943,#554,#555);
#464=AXIS2_PLACEMENT_3D('',#1003,#557,#558);
#465=AXIS2_PLACEMENT_3D('',#1005,#560,#561);
#466=AXIS2_PLACEMENT_3D('',#1064,#562,#563);
#467=AXIS2_PLACEMENT_3D('',#1065,#564,#565);
#468=AXIS2_PLACEMENT_3D('',#1164,#566,#567);
#469=AXIS2_PLACEMENT_3D('',#1170,#571,#572);
#470=AXIS2_PLACEMENT_3D('',#1172,#574,#575);
#471=AXIS2_PLACEMENT_3D('',#1174,#577,#578);
#472=AXIS2_PLACEMENT_3D('',#1175,#579,#580);
#473=AXIS2_PLACEMENT_3D('',#1176,#581,#582);
#474=AXIS2_PLACEMENT_3D('',#1179,#583,#584);
#475=AXIS2_PLACEMENT_3D('',#1180,#585,#586);
#476=AXIS2_PLACEMENT_3D('',#1183,#587,#588);
#477=DIRECTION('axis',(0.,0.,1.));
#478=DIRECTION('refdir',(1.,0.,0.));
#479=DIRECTION('center_axis',(0.,0.,1.));
#480=DIRECTION('ref_axis',(1.,0.,0.));
#481=DIRECTION('',(1.,0.,0.));
#482=DIRECTION('',(0.,1.,0.));
#483=DIRECTION('',(1.,-9.01138988943489E-24,0.));
#484=DIRECTION('',(0.,-1.,0.));
#485=DIRECTION('',(1.,0.,0.));
#486=DIRECTION('',(0.,1.,0.));
#487=DIRECTION('',(1.,-9.01138988943489E-24,0.));
#488=DIRECTION('center_axis',(0.,0.,-1.));
#489=DIRECTION('ref_axis',(1.,0.,0.));
#490=DIRECTION('',(1.,-9.01138988943489E-24,0.));
#491=DIRECTION('center_axis',(0.,0.,1.));
#492=DIRECTION('ref_axis',(-0.707106781186548,0.707106781186548,0.));
#493=DIRECTION('',(-1.,3.58136459556502E-17,0.));
#494=DIRECTION('center_axis',(0.,0.,1.));
#495=DIRECTION('ref_axis',(0.707106781186548,0.707106781186548,0.));
#496=DIRECTION('',(1.,-9.01138988943489E-24,0.));
#497=DIRECTION('',(0.,-1.,0.));
#498=DIRECTION('center_axis',(0.,1.,0.));
#499=DIRECTION('ref_axis',(0.,0.,1.));
#500=DIRECTION('',(-4.93038065763132E-32,0.,1.));
#501=DIRECTION('',(1.,-3.58136459556502E-17,0.));
#502=DIRECTION('',(-4.93038065763132E-32,0.,1.));
#503=DIRECTION('center_axis',(9.01138988943489E-24,1.,6.31088723951704E-30));
#504=DIRECTION('ref_axis',(0.,-6.31088723951704E-30,1.));
#505=DIRECTION('',(0.,0.,-1.));
#506=DIRECTION('',(-1.,3.58136459556502E-17,0.));
#507=DIRECTION('',(5.42341872339446E-31,6.31088723951704E-30,-1.));
#508=DIRECTION('',(-1.,9.01138988943489E-24,-5.42341872339446E-31));
#509=DIRECTION('',(-5.42341872339446E-31,-6.31088723951704E-30,1.));
#510=DIRECTION('',(-1.,3.58136459556502E-17,0.));
#511=DIRECTION('',(4.93038065763132E-32,6.31088723951704E-30,-1.));
#512=DIRECTION('center_axis',(-1.,0.,-4.93038065763132E-32));
#513=DIRECTION('ref_axis',(-4.93038065763132E-32,0.,1.));
#514=DIRECTION('center_axis',(-1.,0.,-4.93038065763132E-32));
#515=DIRECTION('ref_axis',(0.,0.707106781186547,0.707106781186548));
#516=DIRECTION('center_axis',(0.,1.,0.));
#517=DIRECTION('ref_axis',(0.,0.,1.));
#518=DIRECTION('',(4.93038065763132E-32,0.,-1.));
#519=DIRECTION('',(1.,-3.58136459556502E-17,0.));
#520=DIRECTION('',(-4.93038065763132E-32,0.,1.));
#521=DIRECTION('center_axis',(1.,0.,4.93038065763132E-32));
#522=DIRECTION('ref_axis',(4.93038065763132E-32,0.,-1.));
#523=DIRECTION('center_axis',(1.,0.,4.93038065763132E-32));
#524=DIRECTION('ref_axis',(0.,0.707106781186547,0.707106781186548));
#525=DIRECTION('center_axis',(1.,0.,4.93038065763132E-32));
#526=DIRECTION('ref_axis',(4.93038065763132E-32,0.,-1.));
#527=DIRECTION('',(0.,6.31088723951704E-30,-1.));
#528=DIRECTION('center_axis',(1.,0.,4.93038065763132E-32));
#529=DIRECTION('ref_axis',(0.,0.707106781186547,0.707106781186548));
#530=DIRECTION('center_axis',(-1.,0.,-4.93038065763132E-32));
#531=DIRECTION('ref_axis',(-4.93038065763132E-32,0.,1.));
#532=DIRECTION('center_axis',(-1.,0.,-4.93038065763132E-32));
#533=DIRECTION('ref_axis',(0.,0.707106781186547,0.707106781186548));
#534=DIRECTION('',(-4.93038065763132E-32,-6.31088723951704E-30,1.));
#535=DIRECTION('center_axis',(-1.,3.58136459556502E-17,0.));
#536=DIRECTION('ref_axis',(0.,0.707106781186547,0.707106781186548));
#537=DIRECTION('',(-1.,3.58136459556502E-17,0.));
#538=DIRECTION('',(-1.,3.58136459556502E-17,0.));
#539=DIRECTION('',(-1.,3.58136459556502E-17,0.));
#540=DIRECTION('center_axis',(-1.,0.,-5.42341872339446E-31));
#541=DIRECTION('ref_axis',(0.,0.707106781186547,0.707106781186548));
#542=DIRECTION('',(-1.,3.58136459556502E-17,0.));
#543=DIRECTION('center_axis',(1.,0.,5.42341872339446E-31));
#544=DIRECTION('ref_axis',(0.,0.707106781186547,0.707106781186548));
#545=DIRECTION('center_axis',(9.01138988943489E-24,1.,6.31088723951704E-30));
#546=DIRECTION('ref_axis',(0.,-6.31088723951704E-30,1.));
#547=DIRECTION('',(0.,0.,1.));
#548=DIRECTION('center_axis',(9.01138988943489E-24,1.,6.31088723951704E-30));
#549=DIRECTION('ref_axis',(0.,-6.31088723951704E-30,1.));
#550=DIRECTION('',(0.,0.,-1.));
#551=DIRECTION('',(0.,0.,1.));
#552=DIRECTION('',(1.,-9.01138988943489E-24,0.));
#553=DIRECTION('',(0.,0.,-1.));
#554=DIRECTION('center_axis',(0.,0.,1.));
#555=DIRECTION('ref_axis',(0.707106781186548,0.707106781186548,0.));
#556=DIRECTION('',(0.,0.,1.));
#557=DIRECTION('center_axis',(3.58136459556502E-17,1.,0.));
#558=DIRECTION('ref_axis',(-1.,3.58136459556502E-17,0.));
#559=DIRECTION('',(0.,0.,-1.));
#560=DIRECTION('center_axis',(0.,0.,1.));
#561=DIRECTION('ref_axis',(-0.707106781186548,0.707106781186548,0.));
#562=DIRECTION('center_axis',(0.,0.,1.));
#563=DIRECTION('ref_axis',(1.,0.,0.));
#564=DIRECTION('center_axis',(0.,0.,1.));
#565=DIRECTION('ref_axis',(1.,0.,0.));
#566=DIRECTION('center_axis',(5.42341872339446E-31,0.,-1.));
#567=DIRECTION('ref_axis',(-1.,0.,-5.42341872339446E-31));
#568=DIRECTION('',(0.,1.,0.));
#569=DIRECTION('',(-1.,0.,-5.42341872339446E-31));
#570=DIRECTION('',(0.,1.,0.));
#571=DIRECTION('center_axis',(1.,0.,5.42341872339446E-31));
#572=DIRECTION('ref_axis',(5.42341872339446E-31,0.,-1.));
#573=DIRECTION('',(5.42341872339446E-31,0.,-1.));
#574=DIRECTION('center_axis',(0.,1.,0.));
#575=DIRECTION('ref_axis',(0.,0.,1.));
#576=DIRECTION('',(-5.42341872339446E-31,0.,1.));
#577=DIRECTION('center_axis',(0.,0.,1.));
#578=DIRECTION('ref_axis',(1.,0.,0.));
#579=DIRECTION('center_axis',(-1.,0.,-5.42341872339446E-31));
#580=DIRECTION('ref_axis',(-5.42341872339446E-31,0.,1.));
#581=DIRECTION('center_axis',(0.,0.,1.));
#582=DIRECTION('ref_axis',(1.,0.,0.));
#583=DIRECTION('center_axis',(1.38777878078145E-16,-1.,0.));
#584=DIRECTION('ref_axis',(-1.,-1.38777878078145E-16,0.));
#585=DIRECTION('center_axis',(0.,0.,1.));
#586=DIRECTION('ref_axis',(1.,0.,0.));
#587=DIRECTION('center_axis',(1.11022302462516E-16,-1.,0.));
#588=DIRECTION('ref_axis',(-1.,-1.11022302462516E-16,0.));
#589=CARTESIAN_POINT('',(0.,0.,0.));
#590=CARTESIAN_POINT('Origin',(4.44089209850063E-15,4.44089209850063E-15,
11.824));
#591=CARTESIAN_POINT('',(12.3800681159994,2.15000001490116,11.824));
#592=CARTESIAN_POINT('',(15.0383994945177,2.15000001490116,11.824));
#593=CARTESIAN_POINT('',(6.85460044762926,2.15000001490116,11.824));
#594=CARTESIAN_POINT('',(12.3800681159994,0.400000014901161,11.824));
#595=CARTESIAN_POINT('',(12.3800681159994,-1.42499999254942,11.824));
#596=CARTESIAN_POINT('',(-0.06945313750083,0.400000014901161,11.824));
#597=CARTESIAN_POINT('',(1.44328993237316E-14,0.400000014901161,11.824));
#598=CARTESIAN_POINT('',(-0.06945313750083,2.15000001490116,11.824));
#599=CARTESIAN_POINT('',(-0.06945313750083,-1.42499999254942,11.824));
#600=CARTESIAN_POINT('',(-2.9113924550416,2.15000001490116,11.824));
#601=CARTESIAN_POINT('',(-0.745211398135606,2.15000001490116,11.824));
#602=CARTESIAN_POINT('',(-2.9113924550416,0.400000014901161,11.824));
#603=CARTESIAN_POINT('',(-2.9113924550416,-1.42499999254942,11.824));
#604=CARTESIAN_POINT('',(-6.27460384824037,0.400000014901161,11.824));
#605=CARTESIAN_POINT('',(1.44328993237316E-14,0.400000014901161,11.824));
#606=CARTESIAN_POINT('',(-20.41968412695,0.400000014901161,11.824));
#607=CARTESIAN_POINT('Origin',(-13.3471439875952,-0.348144340965393,11.824));
#608=CARTESIAN_POINT('',(-23.1316114341393,0.400000014901161,11.824));
#609=CARTESIAN_POINT('',(1.44328993237316E-14,0.400000014901161,11.824));
#610=CARTESIAN_POINT('',(-15.0470582624978,8.,11.824));
#611=CARTESIAN_POINT('Origin',(-15.0470582624978,-0.0999999999999979,11.824));
#612=CARTESIAN_POINT('',(15.0470582624978,8.,11.824));
#613=CARTESIAN_POINT('',(7.75,8.,11.824));
#614=CARTESIAN_POINT('',(23.1316114341393,0.400000014901161,11.824));
#615=CARTESIAN_POINT('Origin',(15.0470582624978,-0.099999999999999,11.824));
#616=CARTESIAN_POINT('',(15.0383994945177,0.400000014901161,11.824));
#617=CARTESIAN_POINT('',(1.44328993237316E-14,0.400000014901161,11.824));
#618=CARTESIAN_POINT('',(15.0383999554125,-1.42499999254942,11.824));
#619=CARTESIAN_POINT('Origin',(13.7092008952585,2.15000001490116,19.3858959909994));
#620=CARTESIAN_POINT('',(15.0383999554125,2.15000001490116,29.1979977215163));
#621=CARTESIAN_POINT('',(15.0383994945177,2.15000001490116,10.3910110903598));
#622=CARTESIAN_POINT('',(12.3800681159994,2.15000001490116,29.1979977215163));
#623=CARTESIAN_POINT('',(7.75000000000003,2.15000001490116,29.1979977215163));
#624=CARTESIAN_POINT('',(12.3800681159994,2.15000001490116,30.5260241129364));
#625=CARTESIAN_POINT('Origin',(2.4424906545358E-14,0.400000014901161,15.0043691606391));
#626=CARTESIAN_POINT('',(12.3800681159994,0.400000014901161,29.5013234878609));
#627=CARTESIAN_POINT('',(12.3800681159994,0.400000014901161,11.8236140990427));
#628=CARTESIAN_POINT('',(10.6856040044414,0.400000014901161,29.5013234878609));
#629=CARTESIAN_POINT('',(7.75000000000003,0.400000014901161,29.5013234878609));
#630=CARTESIAN_POINT('',(10.6856040044414,0.400000014901161,22.4940729844617));
#631=CARTESIAN_POINT('',(10.6856040044414,0.400000014901161,22.5021845654184));
#632=CARTESIAN_POINT('',(1.50000002235174,0.400000014901161,22.4940729844617));
#633=CARTESIAN_POINT('',(5.34280200222073,0.400000014901161,22.4940729844617));
#634=CARTESIAN_POINT('',(1.50000002235174,0.400000014901161,29.5013234878609));
#635=CARTESIAN_POINT('',(1.50000002235174,0.400000014901161,18.7492210725504));
#636=CARTESIAN_POINT('',(-0.06945313750083,0.400000014901161,29.5013234878609));
#637=CARTESIAN_POINT('',(7.75000000000003,0.400000014901161,29.5013234878609));
#638=CARTESIAN_POINT('',(-0.06945313750083,0.400000014901161,22.8268356460467));
#639=CARTESIAN_POINT('Origin',(12.3800681159994,-2.84999998509884,8.2457678690624));
#640=CARTESIAN_POINT('Origin',(12.3800681159994,-0.0999999999999989,21.4167703162193));
#641=CARTESIAN_POINT('Origin',(-1.49042279627122,2.15000001490116,19.4996037932636));
#642=CARTESIAN_POINT('',(-0.06945313750083,2.15000001490116,29.1979977215163));
#643=CARTESIAN_POINT('',(-0.06945313750083,2.15000001490116,27.6686628945151));
#644=CARTESIAN_POINT('',(-2.9113924550416,2.15000001490116,29.1979977215163));
#645=CARTESIAN_POINT('',(7.75000000000003,2.15000001490116,29.1979977215163));
#646=CARTESIAN_POINT('',(-2.9113924550416,2.15000001490116,27.6686628945151));
#647=CARTESIAN_POINT('Origin',(-0.06945313750083,-2.84999998509884,30.6493021314543));
#648=CARTESIAN_POINT('Origin',(-0.06945313750083,-0.0999999999999984,21.4167703162193));
#649=CARTESIAN_POINT('Origin',(15.0383999554125,-2.84999998509884,30.5260241129364));
#650=CARTESIAN_POINT('',(15.0383999554125,0.400000014901161,29.5013234878609));
#651=CARTESIAN_POINT('',(15.0383994945177,0.400000014901161,15.2215139231128));
#652=CARTESIAN_POINT('Origin',(15.0383999554125,-0.099999999999999,21.4167703162193));
#653=CARTESIAN_POINT('Origin',(-2.9113924550416,-2.84999998509884,8.32665868558642));
#654=CARTESIAN_POINT('',(-2.9113924550416,0.400000014901162,29.5013234878609));
#655=CARTESIAN_POINT('Origin',(-2.9113924550416,-0.0999999999999983,21.4167703162193));
#656=CARTESIAN_POINT('',(-2.9113924550416,0.400000014901161,11.6655139231128));
#657=CARTESIAN_POINT('Origin',(7.75000000000003,-0.0999999999999987,21.4167703162193));
#658=CARTESIAN_POINT('',(15.180999218931,0.400000014901019,29.5013234878609));
#659=CARTESIAN_POINT('',(7.75000000000003,0.400000014901161,29.5013234878609));
#660=CARTESIAN_POINT('',(15.0470582624978,8.,21.4167703162193));
#661=CARTESIAN_POINT('Ctrl Pts',(15.180999218931,0.400000014900876,29.5013234878609));
#662=CARTESIAN_POINT('Ctrl Pts',(15.1786668139798,0.61244381876794,29.4881846163804));
#663=CARTESIAN_POINT('Ctrl Pts',(15.1763344090286,0.824369328065513,29.4666676040782));
#664=CARTESIAN_POINT('Ctrl Pts',(15.1740020040775,1.03511863173799,29.4368392493322));
#665=CARTESIAN_POINT('Ctrl Pts',(15.1716696123213,1.24586674314451,29.4070110633332));
#666=CARTESIAN_POINT('Ctrl Pts',(15.1693372205652,1.45543839100648,29.368871667367));
#667=CARTESIAN_POINT('Ctrl Pts',(15.1670048288091,1.6631829790557,29.3225394617464));
#668=CARTESIAN_POINT('Ctrl Pts',(15.16467244954,1.87092645489432,29.2762075041765));
#669=CARTESIAN_POINT('Ctrl Pts',(15.1623400702709,2.07684262313177,29.2216828843499));
#670=CARTESIAN_POINT('Ctrl Pts',(15.1600076910018,2.2802922424448,29.1591348672178));
#671=CARTESIAN_POINT('Ctrl Pts',(15.157654577908,2.48555043929279,29.0960308257538));
#672=CARTESIAN_POINT('Ctrl Pts',(15.1553014648141,2.68829774595831,29.0247601116453));
#673=CARTESIAN_POINT('Ctrl Pts',(15.1529483517203,2.88789352912551,28.9455479234149));
#674=CARTESIAN_POINT('Ctrl Pts',(15.1506157522318,3.08574930705121,28.8670262789452));
#675=CARTESIAN_POINT('Ctrl Pts',(15.1482831527432,3.28050803986777,28.7807011924497));
#676=CARTESIAN_POINT('Ctrl Pts',(15.1459505532547,3.47156500906224,28.6868407000631));
#677=CARTESIAN_POINT('Ctrl Pts',(15.1436179952065,3.66261858399084,28.5929818751764));
#678=CARTESIAN_POINT('Ctrl Pts',(15.1412854371583,3.84997028093115,28.4915880331123));
#679=CARTESIAN_POINT('Ctrl Pts',(15.1389528791101,4.03303840058688,28.3829739867471));
#680=CARTESIAN_POINT('Ctrl Pts',(15.136620359668,4.21610349029086,28.2743617380478));
#681=CARTESIAN_POINT('Ctrl Pts',(15.1342878402258,4.39488490891528,28.1585296639892));
#682=CARTESIAN_POINT('Ctrl Pts',(15.1319553207837,4.56882758496715,28.0358373941277));
#683=CARTESIAN_POINT('Ctrl Pts',(15.1296228371138,4.74276759337708,27.9131470059151));
#684=CARTESIAN_POINT('Ctrl Pts',(15.127290353444,4.91186878380641,27.783596790358));
#685=CARTESIAN_POINT('Ctrl Pts',(15.1249578697741,5.07560615553286,27.647588956078));
#686=CARTESIAN_POINT('Ctrl Pts',(15.1226254190432,5.23934121498584,27.5115830424794));
#687=CARTESIAN_POINT('Ctrl Pts',(15.1202929683123,5.39771239655487,27.3691198676986));
#688=CARTESIAN_POINT('Ctrl Pts',(15.1179605175814,5.55022802635888,27.22064171815));
#689=CARTESIAN_POINT('Ctrl Pts',(15.1156280969566,5.70274168756955,27.0721654850811));
#690=CARTESIAN_POINT('Ctrl Pts',(15.1132956763318,5.8493997519551,26.9176746237018));
#691=CARTESIAN_POINT('Ctrl Pts',(15.110963255707,5.98974692152965,26.7576487488108));
#692=CARTESIAN_POINT('Ctrl Pts',(15.1086308623557,6.13009244999023,26.5976247451417));
#693=CARTESIAN_POINT('Ctrl Pts',(15.1062984690045,6.26412705067697,26.4320660634262));
#694=CARTESIAN_POINT('Ctrl Pts',(15.1039660756532,6.39143462469925,26.2614866663533));
#695=CARTESIAN_POINT('Ctrl Pts',(15.1015949167718,6.52085811352058,26.0880721553963));
#696=CARTESIAN_POINT('Ctrl Pts',(15.0992237578903,6.6433288102859,25.9094687913496));
#697=CARTESIAN_POINT('Ctrl Pts',(15.0968525990088,6.75845378427316,25.7262495990317));
#698=CARTESIAN_POINT('Ctrl Pts',(15.0945200369637,6.87170479704533,25.5460127801154));
#699=CARTESIAN_POINT('Ctrl Pts',(15.0921874749185,6.97784725572158,25.3613094943061));
#700=CARTESIAN_POINT('Ctrl Pts',(15.0898549128734,7.07655160254539,25.1727132199392));
#701=CARTESIAN_POINT('Ctrl Pts',(15.0875224257712,7.17525277809537,24.9841230049855));
#702=CARTESIAN_POINT('Ctrl Pts',(15.0851899386689,7.2665161929358,24.7916402945216));
#703=CARTESIAN_POINT('Ctrl Pts',(15.0828574515667,7.35005850488872,24.5958626825615));
#704=CARTESIAN_POINT('Ctrl Pts',(15.0805250280737,7.43359853856127,24.400090409648));
#705=CARTESIAN_POINT('Ctrl Pts',(15.0781926045807,7.50941778315626,24.2010236670215));
#706=CARTESIAN_POINT('Ctrl Pts',(15.0758601810877,7.57728085827155,23.9992804562221));
#707=CARTESIAN_POINT('Ctrl Pts',(15.0734600212052,7.64711475888262,23.7916783794228));
#708=CARTESIAN_POINT('Ctrl Pts',(15.0710598613227,7.70852331305773,23.5812423223677));
#709=CARTESIAN_POINT('Ctrl Pts',(15.0686597014402,7.76130465561519,23.3686640406836));
#710=CARTESIAN_POINT('Ctrl Pts',(15.0663272102973,7.81259791108771,23.1620790698966));
#711=CARTESIAN_POINT('Ctrl Pts',(15.0639947191543,7.85574373777381,22.9534713044031));
#712=CARTESIAN_POINT('Ctrl Pts',(15.0616622280114,7.89060818194361,22.743488403326));
#713=CARTESIAN_POINT('Ctrl Pts',(15.0592282337591,7.92698982350949,22.5243676680363));
#714=CARTESIAN_POINT('Ctrl Pts',(15.0567942395069,7.95435317054133,22.3037497549144));
#715=CARTESIAN_POINT('Ctrl Pts',(15.0543602452546,7.97260572162865,22.0823804597181));
#716=CARTESIAN_POINT('Ctrl Pts',(15.0519262510023,7.99085827271597,21.8610111645218));
#717=CARTESIAN_POINT('Ctrl Pts',(15.04949225675,8.,21.6388908251259));
#718=CARTESIAN_POINT('Ctrl Pts',(15.0470582624978,8.,21.4167703162193));
#719=CARTESIAN_POINT('',(-15.0470582624978,8.,21.4167703162193));
#720=CARTESIAN_POINT('',(7.75000000000003,8.,21.4167703162193));
#721=CARTESIAN_POINT('',(-15.1809992189309,0.400000014901019,29.5013234878609));
#722=CARTESIAN_POINT('Ctrl Pts',(-15.0470582624978,8.,21.4167703162193));
#723=CARTESIAN_POINT('Ctrl Pts',(-15.0493906674489,8.,21.6296200278595));
#724=CARTESIAN_POINT('Ctrl Pts',(-15.0517230724001,7.99160584293263,21.8424696025281));
#725=CARTESIAN_POINT('Ctrl Pts',(-15.0540554773513,7.97484358799556,22.0546582604596));
#726=CARTESIAN_POINT('Ctrl Pts',(-15.0563878691074,7.95808142788712,22.2668457179821));
#727=CARTESIAN_POINT('Ctrl Pts',(-15.0587202608635,7.93295128621189,22.4783719931623));
#728=CARTESIAN_POINT('Ctrl Pts',(-15.0610526526196,7.89953117722686,22.6885804217679));
#729=CARTESIAN_POINT('Ctrl Pts',(-15.0633850318887,7.86611124716445,22.898787724972));
#730=CARTESIAN_POINT('Ctrl Pts',(-15.0657174111578,7.82440148161335,23.1076769251868));
#731=CARTESIAN_POINT('Ctrl Pts',(-15.0680497904269,7.7745313633915,23.3145995516786));
#732=CARTESIAN_POINT('Ctrl Pts',(-15.0704029035208,7.72421792177687,23.5233616292101));
#733=CARTESIAN_POINT('Ctrl Pts',(-15.0727560166146,7.66559838826618,23.7301217204768));
#734=CARTESIAN_POINT('Ctrl Pts',(-15.0751091297084,7.59885798665717,23.9342265127171));
#735=CARTESIAN_POINT('Ctrl Pts',(-15.0774417291969,7.53269940419674,24.1365519917741));
#736=CARTESIAN_POINT('Ctrl Pts',(-15.0797743286855,7.45856108536848,24.3362680258026));
#737=CARTESIAN_POINT('Ctrl Pts',(-15.082106928174,7.37667322685352,24.5327545040566));
#738=CARTESIAN_POINT('Ctrl Pts',(-15.0844394862222,7.29478682313586,24.7292374915855));
#739=CARTESIAN_POINT('Ctrl Pts',(-15.0867720442704,7.20515126064427,24.9224907851971));
#740=CARTESIAN_POINT('Ctrl Pts',(-15.0891046023186,7.10804484453675,25.1119143620107));
#741=CARTESIAN_POINT('Ctrl Pts',(-15.0914371217607,7.01094003563287,25.3013348036837));
#742=CARTESIAN_POINT('Ctrl Pts',(-15.0937696412029,6.90636474554244,25.4869254115512));
#743=CARTESIAN_POINT('Ctrl Pts',(-15.096102160645,6.79464365432924,25.6681099732942));
#744=CARTESIAN_POINT('Ctrl Pts',(-15.0984346443149,6.68292427650739,25.8492917563313));
#745=CARTESIAN_POINT('Ctrl Pts',(-15.1007671279847,6.56405946066361,26.0260673952353));
#746=CARTESIAN_POINT('Ctrl Pts',(-15.1030996116546,6.43841824094847,26.1978880627753));
#747=CARTESIAN_POINT('Ctrl Pts',(-15.1054320623855,6.31277879551883,26.3697063038909));
#748=CARTESIAN_POINT('Ctrl Pts',(-15.1077645131164,6.18036329942344,26.5365694925038));
#749=CARTESIAN_POINT('Ctrl Pts',(-15.1100969638473,6.04158284538911,26.6979595907315));
#750=CARTESIAN_POINT('Ctrl Pts',(-15.1124293844721,5.90280418266161,26.8593476058187));
#751=CARTESIAN_POINT('Ctrl Pts',(-15.1147618050969,5.75766090501032,27.0152624641602));
#752=CARTESIAN_POINT('Ctrl Pts',(-15.1170942257217,5.6066036077861,27.1652201301781));
#753=CARTESIAN_POINT('Ctrl Pts',(-15.119426619073,5.45554807691209,27.315176042704));
#754=CARTESIAN_POINT('Ctrl Pts',(-15.1217590124242,5.29857885925601,27.4591747092986));
#755=CARTESIAN_POINT('Ctrl Pts',(-15.1240914057755,5.13618325225443,27.5967690984854));
#756=CARTESIAN_POINT('Ctrl Pts',(-15.126462564657,4.97108855000414,27.7366503744235));
#757=CARTESIAN_POINT('Ctrl Pts',(-15.1288337235384,4.80038570518161,27.8699124169731));
#758=CARTESIAN_POINT('Ctrl Pts',(-15.1312048824199,4.62462239485451,27.996127672834));
#759=CARTESIAN_POINT('Ctrl Pts',(-15.1335374444651,4.45172009387386,28.1202884440245));
#760=CARTESIAN_POINT('Ctrl Pts',(-15.1358700065102,4.27392104397486,28.2376299250854));
#761=CARTESIAN_POINT('Ctrl Pts',(-15.1382025685553,4.09177728678837,28.347787786834));
#762=CARTESIAN_POINT('Ctrl Pts',(-15.1405350556576,3.90963938170215,28.4579421093184));
#763=CARTESIAN_POINT('Ctrl Pts',(-15.1428675427598,3.72315728311125,28.5609131325287));
#764=CARTESIAN_POINT('Ctrl Pts',(-15.145200029862,3.53290995514995,28.6563811661043));
#765=CARTESIAN_POINT('Ctrl Pts',(-15.147532453355,3.34266781541883,28.7518465961736));
#766=CARTESIAN_POINT('Ctrl Pts',(-15.149864876848,3.14866089664807,28.8398093231664));
#767=CARTESIAN_POINT('Ctrl Pts',(-15.152197300341,2.95149149218425,28.9199962673105));
#768=CARTESIAN_POINT('Ctrl Pts',(-15.1545974602235,2.7485960505693,29.0025119369607));
#769=CARTESIAN_POINT('Ctrl Pts',(-15.156997620106,2.54235195001492,29.0767932645021));
#770=CARTESIAN_POINT('Ctrl Pts',(-15.1593977799885,2.333437166145,29.1425960687473));
#771=CARTESIAN_POINT('Ctrl Pts',(-15.1617302711315,2.13041240660314,29.2065436662394));
#772=CARTESIAN_POINT('Ctrl Pts',(-15.1640627622744,1.92486578213844,29.2624842360954));
#773=CARTESIAN_POINT('Ctrl Pts',(-15.1663952534173,1.71743544802865,29.3102441010779));
#774=CARTESIAN_POINT('Ctrl Pts',(-15.1688292476696,1.50097835986403,29.3600823339941));
#775=CARTESIAN_POINT('Ctrl Pts',(-15.1712632419219,1.28247026414457,29.4010118887942));
#776=CARTESIAN_POINT('Ctrl Pts',(-15.1736972361741,1.06264982442014,29.432894403693));
#777=CARTESIAN_POINT('Ctrl Pts',(-15.1761312304264,0.842829384695719,29.4647769185918));
#778=CARTESIAN_POINT('Ctrl Pts',(-15.1785652246787,0.621696936477075,29.4876123449272));
#779=CARTESIAN_POINT('Ctrl Pts',(-15.1809992189309,0.400000014900876,29.5013234878609));
#780=CARTESIAN_POINT('',(7.75000000000003,0.400000014901161,29.5013234878609));
#781=CARTESIAN_POINT('',(1.50000002235174,1.70000001490116,29.314238261476));
#782=CARTESIAN_POINT('Origin',(1.50000002235174,-0.0999999999999985,21.4167703162193));
#783=CARTESIAN_POINT('',(10.6856040044414,1.70000001490116,29.314238261476));
#784=CARTESIAN_POINT('',(7.75000000000003,1.70000001490116,29.314238261476));
#785=CARTESIAN_POINT('Origin',(10.6856040044414,-0.0999999999999988,21.4167703162193));
#786=CARTESIAN_POINT('Origin',(2.4424906545358E-14,0.400000014901161,15.0043691606391));
#787=CARTESIAN_POINT('',(23.1316114341393,0.400000014901019,21.5255475239185));
#788=CARTESIAN_POINT('',(23.1316114341393,0.400000014901161,10.765));
#789=CARTESIAN_POINT('Ctrl Pts',(15.1809992189309,0.400000014898874,29.5013234878322));
#790=CARTESIAN_POINT('Ctrl Pts',(15.3502379539733,0.399999958598563,29.5013234658638));
#791=CARTESIAN_POINT('Ctrl Pts',(15.5212191552756,0.399999913242501,29.495989280933));
#792=CARTESIAN_POINT('Ctrl Pts',(15.6937056098764,0.399999878339214,29.4849286066548));
#793=CARTESIAN_POINT('Ctrl Pts',(15.8631945481457,0.399999844042486,29.4740601477704));
#794=CARTESIAN_POINT('Ctrl Pts',(16.0341370714473,0.399999819842395,29.4576625317713));
#795=CARTESIAN_POINT('Ctrl Pts',(16.2062707444947,0.39999980447462,29.4353307014371));
#796=CARTESIAN_POINT('Ctrl Pts',(16.3741245192702,0.399999789488946,29.4135541254025));
#797=CARTESIAN_POINT('Ctrl Pts',(16.5431110788699,0.39999978290735,29.3861347457137));
#798=CARTESIAN_POINT('Ctrl Pts',(16.7129489245654,0.399999782723813,29.3526654463584));
#799=CARTESIAN_POINT('Ctrl Pts',(16.7868581963606,0.399999782643942,29.3381004268087));
#800=CARTESIAN_POINT('Ctrl Pts',(16.8609281750176,0.399999783764392,29.3223892785396));
#801=CARTESIAN_POINT('Ctrl Pts',(16.9351332168224,0.399999785863599,29.3054965219851));
#802=CARTESIAN_POINT('Ctrl Pts',(17.1018156055684,0.399999790578925,29.2675513238353));
#803=CARTESIAN_POINT('Ctrl Pts',(17.2691830384151,0.399999800387318,29.2236441410638));
#804=CARTESIAN_POINT('Ctrl Pts',(17.4368412800042,0.399999812906942,29.1735737842695));
#805=CARTESIAN_POINT('Ctrl Pts',(17.5998411653085,0.399999825078711,29.1248946239893));
#806=CARTESIAN_POINT('Ctrl Pts',(17.7631160267893,0.39999983980943,29.0703899204257));
#807=CARTESIAN_POINT('Ctrl Pts',(17.9262547344927,0.399999853012223,29.0098706936691));
#808=CARTESIAN_POINT('Ctrl Pts',(18.0148937298645,0.399999860185765,28.9769884700945));
#809=CARTESIAN_POINT('Ctrl Pts',(18.1034916670917,0.399999866875329,28.9423306170113));
#810=CARTESIAN_POINT('Ctrl Pts',(18.1919761035526,0.399999872185521,28.9058664466708));
#811=CARTESIAN_POINT('Ctrl Pts',(18.3670707014297,0.399999882693424,28.833710489103));
#812=CARTESIAN_POINT('Ctrl Pts',(18.5392256194666,0.399999884922929,28.7555141090503));
#813=CARTESIAN_POINT('Ctrl Pts',(18.7081723979172,0.399999886483752,28.6715002287114));
#814=CARTESIAN_POINT('Ctrl Pts',(18.8745080847604,0.399999888020453,28.5887847924143));
#815=CARTESIAN_POINT('Ctrl Pts',(19.0377346433458,0.399999888900642,28.5004298490532));
#816=CARTESIAN_POINT('Ctrl Pts',(19.1975871574918,0.399999892989374,28.4065947861432));
#817=CARTESIAN_POINT('Ctrl Pts',(19.361203652471,0.399999897174381,28.3105502279358));
#818=CARTESIAN_POINT('Ctrl Pts',(19.5212860801799,0.399999904736721,28.2087643457924));
#819=CARTESIAN_POINT('Ctrl Pts',(19.6775308187145,0.399999916145532,28.1013552237772));
#820=CARTESIAN_POINT('Ctrl Pts',(19.833775557249,0.399999927554343,27.9939461017621));
#821=CARTESIAN_POINT('Ctrl Pts',(19.9861833007677,0.399999942812766,27.8809134573977));
#822=CARTESIAN_POINT('Ctrl Pts',(20.1344203450511,0.399999958634259,27.7623262842647));
#823=CARTESIAN_POINT('Ctrl Pts',(20.279216523673,0.399999974088505,27.6464917465065));
#824=CARTESIAN_POINT('Ctrl Pts',(20.420033657192,0.399999990067671,27.5253568380793));
#825=CARTESIAN_POINT('Ctrl Pts',(20.5566875785197,0.399999999997562,27.3991671627119));
#826=CARTESIAN_POINT('Ctrl Pts',(20.6268587831931,0.400000005096519,27.334369303625));
#827=CARTESIAN_POINT('Ctrl Pts',(20.6959316272769,0.400000008544423,27.2682380313764));
#828=CARTESIAN_POINT('Ctrl Pts',(20.7638769828934,0.400000009088755,27.2008032922114));
#829=CARTESIAN_POINT('Ctrl Pts',(20.89860424363,0.4000000101681,27.0670885209258));
#830=CARTESIAN_POINT('Ctrl Pts',(21.0283189796378,0.40000000070149,26.9288283529173));
#831=CARTESIAN_POINT('Ctrl Pts',(21.1528744893884,0.399999988791774,26.7863666297394));
#832=CARTESIAN_POINT('Ctrl Pts',(21.2789880777081,0.399999976733077,26.6421228371994));
#833=CARTESIAN_POINT('Ctrl Pts',(21.399813024747,0.399999962185083,26.4935712277225));
#834=CARTESIAN_POINT('Ctrl Pts',(21.5151621444351,0.399999950038465,26.3410284868456));
#835=CARTESIAN_POINT('Ctrl Pts',(21.6303286024587,0.399999937911082,26.1887273057745));
#836=CARTESIAN_POINT('Ctrl Pts',(21.740036960975,0.399999928185845,26.0324470508229));
#837=CARTESIAN_POINT('Ctrl Pts',(21.8440599438448,0.399999922077297,25.8724711919307));
#838=CARTESIAN_POINT('Ctrl Pts',(21.9465248558229,0.399999916060244,25.7148914739896));
#839=CARTESIAN_POINT('Ctrl Pts',(22.0434737181684,0.399999913553378,25.5537254461823));
#840=CARTESIAN_POINT('Ctrl Pts',(22.1346445791138,0.399999912113493,25.3892218936466));
#841=CARTESIAN_POINT('Ctrl Pts',(22.2114059098813,0.399999910901181,25.2507180835731));
#842=CARTESIAN_POINT('Ctrl Pts',(22.2840706944002,0.399999910387384,25.1098478320593));
#843=CARTESIAN_POINT('Ctrl Pts',(22.3524550151219,0.399999907064005,24.9667516125507));
#844=CARTESIAN_POINT('Ctrl Pts',(22.403079187559,0.399999904603743,24.8608190301245));
#845=CARTESIAN_POINT('Ctrl Pts',(22.451356924353,0.399999900558741,24.7536663710232));
#846=CARTESIAN_POINT('Ctrl Pts',(22.4972680116184,0.399999892922323,24.6453602567766));
#847=CARTESIAN_POINT('Ctrl Pts',(22.5668859570616,0.399999881342728,24.4811287039669));
#848=CARTESIAN_POINT('Ctrl Pts',(22.6308438606714,0.39999986689597,24.314767642156));
#849=CARTESIAN_POINT('Ctrl Pts',(22.6891603603468,0.399999854515467,24.1464956333598));
#850=CARTESIAN_POINT('Ctrl Pts',(22.7476865975155,0.399999842090437,23.9776184279298));
#851=CARTESIAN_POINT('Ctrl Pts',(22.8005308875504,0.39999983174298,23.8068159152319));
#852=CARTESIAN_POINT('Ctrl Pts',(22.8476609590678,0.399999825005982,23.6342969946793));
#853=CARTESIAN_POINT('Ctrl Pts',(22.8947910305853,0.399999818268985,23.4617780741266));
#854=CARTESIAN_POINT('Ctrl Pts',(22.936206982075,0.399999815136202,23.2875421408313));
#855=CARTESIAN_POINT('Ctrl Pts',(22.9718240126397,0.399999813769096,23.111795064122));
#856=CARTESIAN_POINT('Ctrl Pts',(23.0045655827328,0.39999981251236,22.9502365304793));
#857=CARTESIAN_POINT('Ctrl Pts',(23.0323618519425,0.399999818265533,22.7875822435139));
#858=CARTESIAN_POINT('Ctrl Pts',(23.0551128458803,0.39999982899171,22.6243629574575));
#859=CARTESIAN_POINT('Ctrl Pts',(23.0778519047936,0.39999983971226,22.4612292951859));
#860=CARTESIAN_POINT('Ctrl Pts',(23.095550918845,0.399999855391664,22.2975317839881));
#861=CARTESIAN_POINT('Ctrl Pts',(23.1081616661218,0.399999878693615,22.1338068400789));
#862=CARTESIAN_POINT('Ctrl Pts',(23.1207073352974,0.399999901875316,21.9709268031563));
#863=CARTESIAN_POINT('Ctrl Pts',(23.1282171200674,0.399999932599685,21.8080201603012));
#864=CARTESIAN_POINT('Ctrl Pts',(23.1306950059801,0.399999978211512,21.6456132529199));
#865=CARTESIAN_POINT('Ctrl Pts',(23.1313061341264,0.399999989460888,21.60555836914));
#866=CARTESIAN_POINT('Ctrl Pts',(23.1316114289708,0.400000001638449,21.5655338525772));
#867=CARTESIAN_POINT('Ctrl Pts',(23.1316114341106,0.400000014898874,21.5255475239185));
#868=CARTESIAN_POINT('Origin',(2.4424906545358E-14,0.400000014901161,15.0043691606391));
#869=CARTESIAN_POINT('',(-23.1316114341393,0.400000014901019,21.5255475239185));
#870=CARTESIAN_POINT('Ctrl Pts',(-23.1316114341107,0.400000014896253,21.5255475239185));
#871=CARTESIAN_POINT('Ctrl Pts',(-23.1316113653811,0.399999937739083,21.8209205106009));
#872=CARTESIAN_POINT('Ctrl Pts',(-23.1155251574471,0.39999989831345,22.1154622047977));
#873=CARTESIAN_POINT('Ctrl Pts',(-23.0832539015793,0.399999877342232,22.4080006360697));
#874=CARTESIAN_POINT('Ctrl Pts',(-23.0509826457115,0.399999856371013,22.7005390673418));
#875=CARTESIAN_POINT('Ctrl Pts',(-23.0025264941268,0.399999854174164,22.9910750322477));
#876=CARTESIAN_POINT('Ctrl Pts',(-22.9377348384597,0.399999859297108,23.2784625418738));
#877=CARTESIAN_POINT('Ctrl Pts',(-22.8772194071737,0.39999986408194,23.5468825862787));
#878=CARTESIAN_POINT('Ctrl Pts',(-22.8024541594866,0.399999875947558,23.8125561777861));
#879=CARTESIAN_POINT('Ctrl Pts',(-22.7140695409758,0.399999889688032,24.0740365698472));
#880=CARTESIAN_POINT('Ctrl Pts',(-22.6579823736608,0.399999898407471,24.2399669630112));
#881=CARTESIAN_POINT('Ctrl Pts',(-22.5964096993835,0.399999907800582,24.4042091455174));
#882=CARTESIAN_POINT('Ctrl Pts',(-22.5295019997234,0.399999915747336,24.5663952631066));
#883=CARTESIAN_POINT('Ctrl Pts',(-22.4410021052658,0.399999926258637,24.7809214590762));
#884=CARTESIAN_POINT('Ctrl Pts',(-22.3433074769963,0.399999931369493,24.9915206643272));
#885=CARTESIAN_POINT('Ctrl Pts',(-22.2367865082997,0.39999993667687,25.1974489306191));
#886=CARTESIAN_POINT('Ctrl Pts',(-22.129098184613,0.399999942042409,25.4056339487242));
#887=CARTESIAN_POINT('Ctrl Pts',(-22.0123887969101,0.399999947600502,25.6090458833162));
#888=CARTESIAN_POINT('Ctrl Pts',(-21.8869857928995,0.399999955261245,25.8069116847823));
#889=CARTESIAN_POINT('Ctrl Pts',(-21.7614246567382,0.399999962931649,26.0050269933875));
#890=CARTESIAN_POINT('Ctrl Pts',(-21.6271476780151,0.399999972696454,26.1975829708739));
#891=CARTESIAN_POINT('Ctrl Pts',(-21.4844343819903,0.399999982785521,26.3837872899882));
#892=CARTESIAN_POINT('Ctrl Pts',(-21.4587823916561,0.39999998459898,26.4172565708972));
#893=CARTESIAN_POINT('Ctrl Pts',(-21.4328577173578,0.39999998641362,26.4505205801444));
#894=CARTESIAN_POINT('Ctrl Pts',(-21.4066618252407,0.399999988207073,26.4835746296523));
#895=CARTESIAN_POINT('Ctrl Pts',(-21.2615920866933,0.399999998139,26.6666240291004));
#896=CARTESIAN_POINT('Ctrl Pts',(-21.1082078560912,0.400000007686395,26.8432370978322));
#897=CARTESIAN_POINT('Ctrl Pts',(-20.9472281066968,0.400000011077944,27.0129057337803));
#898=CARTESIAN_POINT('Ctrl Pts',(-20.9043779367067,0.400000011980718,27.0580687429147));
#899=CARTESIAN_POINT('Ctrl Pts',(-20.8609893834211,0.400000012429215,27.1027395206146));
#900=CARTESIAN_POINT('Ctrl Pts',(-20.8170755710532,0.400000012275059,27.1469080443453));
#901=CARTESIAN_POINT('Ctrl Pts',(-20.6727161597748,0.400000011768294,27.2921047771953));
#902=CARTESIAN_POINT('Ctrl Pts',(-20.5229253881737,0.400000002390972,27.4316334073319));
#903=CARTESIAN_POINT('Ctrl Pts',(-20.368153617965,0.399999991485584,27.5652220324994));
#904=CARTESIAN_POINT('Ctrl Pts',(-20.2125281782118,0.399999980520046,27.6995474880373));
#905=CARTESIAN_POINT('Ctrl Pts',(-20.0518660581366,0.399999968010774,27.8278677215643));
#906=CARTESIAN_POINT('Ctrl Pts',(-19.8865890013854,0.39999995786645,27.949868573982));
#907=CARTESIAN_POINT('Ctrl Pts',(-19.7224294725678,0.399999947790717,28.0710445123844));
#908=CARTESIAN_POINT('Ctrl Pts',(-19.5537165758695,0.399999940043108,28.185986648393));
#909=CARTESIAN_POINT('Ctrl Pts',(-19.3808371952537,0.399999934994041,28.2943434232685));
#910=CARTESIAN_POINT('Ctrl Pts',(-19.2115772249107,0.399999930050681,28.4004316359666));
#911=CARTESIAN_POINT('Ctrl Pts',(-19.0383227969715,0.399999927682679,28.5002076144923));
#912=CARTESIAN_POINT('Ctrl Pts',(-18.8614208050234,0.399999925042857,28.5932945294269));
#913=CARTESIAN_POINT('Ctrl Pts',(-18.7811342484155,0.39999992384478,28.6355418087427));
#914=CARTESIAN_POINT('Ctrl Pts',(-18.7000962060273,0.399999922547634,28.6764106182627));
#915=CARTESIAN_POINT('Ctrl Pts',(-18.6183384753394,0.399999920670118,28.7158622081186));
#916=CARTESIAN_POINT('Ctrl Pts',(-18.5031775049161,0.399999918025517,28.7714322849093));
#917=CARTESIAN_POINT('Ctrl Pts',(-18.3865886119089,0.399999914243733,28.8241907933514));
#918=CARTESIAN_POINT('Ctrl Pts',(-18.2686684274365,0.399999907645576,28.8741085006122));
#919=CARTESIAN_POINT('Ctrl Pts',(-18.004834445022,0.399999892882896,28.9857941086236));
#920=CARTESIAN_POINT('Ctrl Pts',(-17.7348681583055,0.399999877604533,29.0830321206958));
#921=CARTESIAN_POINT('Ctrl Pts',(-17.4602893917481,0.39999986636793,29.1654624508392));
#922=CARTESIAN_POINT('Ctrl Pts',(-17.2268923083152,0.399999856816607,29.2355297720785));
#923=CARTESIAN_POINT('Ctrl Pts',(-16.9901628615407,0.399999850157867,29.2948975198381));
#924=CARTESIAN_POINT('Ctrl Pts',(-16.7510560032319,0.399999850015319,29.3433240311208));
#925=CARTESIAN_POINT('Ctrl Pts',(-16.5963121794592,0.399999849923065,29.3746644267115));
#926=CARTESIAN_POINT('Ctrl Pts',(-16.4412889958691,0.399999849804322,29.4012811241585));
#927=CARTESIAN_POINT('Ctrl Pts',(-16.2860599521819,0.399999855260458,29.4232497621158));
#928=CARTESIAN_POINT('Ctrl Pts',(-16.1302428577805,0.399999860737264,29.4453016233728));
#929=CARTESIAN_POINT('Ctrl Pts',(-15.9742178244568,0.399999871820853,29.4626702014692));
#930=CARTESIAN_POINT('Ctrl Pts',(-15.8180473848855,0.399999891156324,29.4753807560256));
#931=CARTESIAN_POINT('Ctrl Pts',(-15.6621735857497,0.399999910455067,29.4880671673162));
#932=CARTESIAN_POINT('Ctrl Pts',(-15.5061544169268,0.399999937961622,29.4961132676048));
#933=CARTESIAN_POINT('Ctrl Pts',(-15.3500480613978,0.39999997348074,29.49949259725));
#934=CARTESIAN_POINT('Ctrl Pts',(-15.2937088680362,0.399999986299683,29.5007122061869));
#935=CARTESIAN_POINT('Ctrl Pts',(-15.2373583185018,0.40000000013649,29.5013234746324));
#936=CARTESIAN_POINT('Ctrl Pts',(-15.1809992189309,0.400000014896252,29.5013234878323));
#937=CARTESIAN_POINT('',(-23.1316114341393,0.400000014901161,0.));
#938=CARTESIAN_POINT('',(-20.41968412695,0.400000014901161,25.));
#939=CARTESIAN_POINT('',(-20.41968412695,0.400000014901161,0.));
#940=CARTESIAN_POINT('',(-6.27460384824038,0.400000014901161,25.));
#941=CARTESIAN_POINT('',(-6.67357199379758,0.400000014901161,25.));
#942=CARTESIAN_POINT('',(-6.27460384824038,0.400000014901161,0.));
#943=CARTESIAN_POINT('Origin',(15.0470582624978,-0.099999999999999,10.765));
#944=CARTESIAN_POINT('',(15.0470582624978,8.,10.765));
#945=CARTESIAN_POINT('Ctrl Pts',(15.0470582624978,8.,21.4167703162193));
#946=CARTESIAN_POINT('Ctrl Pts',(15.259907974138,8.,21.418664527703));
#947=CARTESIAN_POINT('Ctrl Pts',(15.4727575488067,7.99160584293263,21.4205587391867));
#948=CARTESIAN_POINT('Ctrl Pts',(15.6849462067382,7.97484358799555,21.4224529506704));
#949=CARTESIAN_POINT('Ctrl Pts',(15.8971336642607,7.9580814278871,21.424347151438));
#950=CARTESIAN_POINT('Ctrl Pts',(16.108659939441,7.93295128621186,21.4262413522056));
#951=CARTESIAN_POINT('Ctrl Pts',(16.3188683680465,7.89953117722683,21.4281355529733));
#952=CARTESIAN_POINT('Ctrl Pts',(16.5290756712506,7.8661112471644,21.4300297435998));
#953=CARTESIAN_POINT('Ctrl Pts',(16.7379648714656,7.82440148161328,21.4319239342264));
#954=CARTESIAN_POINT('Ctrl Pts',(16.9448874979574,7.7745313633914,21.4338181248529));
#955=CARTESIAN_POINT('Ctrl Pts',(17.1536495754889,7.72421792177677,21.4357291540001));
#956=CARTESIAN_POINT('Ctrl Pts',(17.3604096667556,7.66559838826607,21.4376401831473));
#957=CARTESIAN_POINT('Ctrl Pts',(17.5645144589959,7.59885798665706,21.4395512122945));
#958=CARTESIAN_POINT('Ctrl Pts',(17.7668399380529,7.53269940419661,21.4414455817675));
#959=CARTESIAN_POINT('Ctrl Pts',(17.9665559720815,7.45856108536833,21.4433399512404));
#960=CARTESIAN_POINT('Ctrl Pts',(18.1630424503355,7.37667322685334,21.4452343207133));
#961=CARTESIAN_POINT('Ctrl Pts',(18.3595254378644,7.29478682313566,21.4471286565314));
#962=CARTESIAN_POINT('Ctrl Pts',(18.552778731476,7.20515126064404,21.4490229923495));
#963=CARTESIAN_POINT('Ctrl Pts',(18.7422023082896,7.10804484453651,21.4509173281676));
#964=CARTESIAN_POINT('Ctrl Pts',(18.9316227499626,7.01094003563263,21.4528116326326));
#965=CARTESIAN_POINT('Ctrl Pts',(19.11721335783,6.9063647455422,21.4547059370976));
#966=CARTESIAN_POINT('Ctrl Pts',(19.298397919573,6.79464365432901,21.4566002415626));
#967=CARTESIAN_POINT('Ctrl Pts',(19.4795797026101,6.68292427650717,21.458494516976));
#968=CARTESIAN_POINT('Ctrl Pts',(19.6563553415141,6.5640594606634,21.4603887923893));
#969=CARTESIAN_POINT('Ctrl Pts',(19.828176009054,6.43841824094828,21.4622830678027));
#970=CARTESIAN_POINT('Ctrl Pts',(19.9999942501695,6.31277879551871,21.4641773164653));
#971=CARTESIAN_POINT('Ctrl Pts',(20.1668574387823,6.18036329942339,21.466071565128));
#972=CARTESIAN_POINT('Ctrl Pts',(20.3282475370099,6.04158284538913,21.4679658137907));
#973=CARTESIAN_POINT('Ctrl Pts',(20.4896355520972,5.90280418266158,21.4698600380034));
#974=CARTESIAN_POINT('Ctrl Pts',(20.6455504104388,5.75766090501022,21.4717542622161));
#975=CARTESIAN_POINT('Ctrl Pts',(20.7955080764567,5.60660360778594,21.4736484864288));
#976=CARTESIAN_POINT('Ctrl Pts',(20.9454639889828,5.45554807691174,21.4755426884919));
#977=CARTESIAN_POINT('Ctrl Pts',(21.0894626555775,5.29857885925544,21.4774368905549));
#978=CARTESIAN_POINT('Ctrl Pts',(21.2270570447645,5.13618325225365,21.479331092618));
#979=CARTESIAN_POINT('Ctrl Pts',(21.3669383207025,4.97108855000337,21.4812567772555));
#980=CARTESIAN_POINT('Ctrl Pts',(21.5002003632521,4.80038570518086,21.483182461893));
#981=CARTESIAN_POINT('Ctrl Pts',(21.6264156191129,4.62462239485378,21.4851081465306));
#982=CARTESIAN_POINT('Ctrl Pts',(21.7505763903034,4.45172009387311,21.4870024855947));
#983=CARTESIAN_POINT('Ctrl Pts',(21.8679178713644,4.2739210439741,21.4888968246588));
#984=CARTESIAN_POINT('Ctrl Pts',(21.9780757331129,4.09177728678759,21.4907911637229));
#985=CARTESIAN_POINT('Ctrl Pts',(22.0882300555973,3.90963938170139,21.4926854419238));
#986=CARTESIAN_POINT('Ctrl Pts',(22.1912010788075,3.72315728311051,21.4945797201246));
#987=CARTESIAN_POINT('Ctrl Pts',(22.2866691123831,3.53290995514923,21.4964739983255));
#988=CARTESIAN_POINT('Ctrl Pts',(22.3821345424524,3.34266781541806,21.4983682248675));
#989=CARTESIAN_POINT('Ctrl Pts',(22.4700972694452,3.14866089664726,21.5002624514096));
#990=CARTESIAN_POINT('Ctrl Pts',(22.5502842135892,2.95149149218339,21.5021566779516));
#991=CARTESIAN_POINT('Ctrl Pts',(22.6327998832394,2.7485960505685,21.5041059151155));
#992=CARTESIAN_POINT('Ctrl Pts',(22.7070812107808,2.54235195001419,21.5060551522794));
#993=CARTESIAN_POINT('Ctrl Pts',(22.7728840150259,2.33343716614434,21.5080043894433));
#994=CARTESIAN_POINT('Ctrl Pts',(22.836831612518,2.13041240660252,21.5098986709258));
#995=CARTESIAN_POINT('Ctrl Pts',(22.892772182374,1.92486578213788,21.5117929524082));
#996=CARTESIAN_POINT('Ctrl Pts',(22.9405320473564,1.71743544802814,21.5136872338906));
#997=CARTESIAN_POINT('Ctrl Pts',(22.9903702802726,1.5009783598636,21.5156639488953));
#998=CARTESIAN_POINT('Ctrl Pts',(23.0312998350727,1.28247026414422,21.5176406638999));
#999=CARTESIAN_POINT('Ctrl Pts',(23.0631823499715,1.06264982441988,21.5196173789046));
#1000=CARTESIAN_POINT('Ctrl Pts',(23.0950648648703,0.842829384695544,21.5215940939092));
#1001=CARTESIAN_POINT('Ctrl Pts',(23.1179002912056,0.621696936476988,21.5235708089138));
#1002=CARTESIAN_POINT('Ctrl Pts',(23.1316114341393,0.400000014900875,21.5255475239185));
#1003=CARTESIAN_POINT('Origin',(15.5,8.,0.));
#1004=CARTESIAN_POINT('',(-15.0470582624978,8.,0.));
#1005=CARTESIAN_POINT('Origin',(-15.0470582624978,-0.0999999999999979,0.));
#1006=CARTESIAN_POINT('Ctrl Pts',(-23.1316114341393,0.400000014900877,21.5255475239185));
#1007=CARTESIAN_POINT('Ctrl Pts',(-23.1184725626588,0.612443818767964,21.5236533124348));
#1008=CARTESIAN_POINT('Ctrl Pts',(-23.0969555503566,0.824369328065562,21.5217591009511));
#1009=CARTESIAN_POINT('Ctrl Pts',(-23.0671271956106,1.03511863173806,21.5198648894674));
#1010=CARTESIAN_POINT('Ctrl Pts',(-23.0372990096116,1.24586674314466,21.5179706886998));
#1011=CARTESIAN_POINT('Ctrl Pts',(-22.9991596136454,1.4554383910067,21.5160764879322));
#1012=CARTESIAN_POINT('Ctrl Pts',(-22.9528274080248,1.66318297905599,21.5141822871646));
#1013=CARTESIAN_POINT('Ctrl Pts',(-22.9064954504548,1.87092645489467,21.512288096538));
#1014=CARTESIAN_POINT('Ctrl Pts',(-22.8519708306282,2.07684262313216,21.5103939059115));
#1015=CARTESIAN_POINT('Ctrl Pts',(-22.7894228134961,2.28029224244524,21.5084997152849));
#1016=CARTESIAN_POINT('Ctrl Pts',(-22.7263187720321,2.48555043929322,21.5065886861377));
#1017=CARTESIAN_POINT('Ctrl Pts',(-22.6550480579236,2.68829774595873,21.5046776569905));
#1018=CARTESIAN_POINT('Ctrl Pts',(-22.5758358696932,2.88789352912592,21.5027666278433));
#1019=CARTESIAN_POINT('Ctrl Pts',(-22.4973142252234,3.08574930705164,21.5008722583704));
#1020=CARTESIAN_POINT('Ctrl Pts',(-22.4109891387279,3.28050803986822,21.4989778888974));
#1021=CARTESIAN_POINT('Ctrl Pts',(-22.3171286463413,3.47156500906271,21.4970835194245));
#1022=CARTESIAN_POINT('Ctrl Pts',(-22.2232698214546,3.66261858399129,21.4951891836064));
#1023=CARTESIAN_POINT('Ctrl Pts',(-22.1218759793905,3.84997028093156,21.4932948477883));
#1024=CARTESIAN_POINT('Ctrl Pts',(-22.0132619330253,4.03303840058727,21.4914005119703));
#1025=CARTESIAN_POINT('Ctrl Pts',(-21.904649684326,4.21610349029126,21.4895062075052));
#1026=CARTESIAN_POINT('Ctrl Pts',(-21.7888176102673,4.39488490891569,21.4876119030402));
#1027=CARTESIAN_POINT('Ctrl Pts',(-21.6661253404058,4.56882758496757,21.4857175985752));
#1028=CARTESIAN_POINT('Ctrl Pts',(-21.5434349521932,4.74276759337751,21.4838233231619));
#1029=CARTESIAN_POINT('Ctrl Pts',(-21.413884736636,4.91186878380684,21.4819290477485));
#1030=CARTESIAN_POINT('Ctrl Pts',(-21.2778769023561,5.07560615553329,21.4800347723352));
#1031=CARTESIAN_POINT('Ctrl Pts',(-21.1418709887574,5.23934121498628,21.4781405236725));
#1032=CARTESIAN_POINT('Ctrl Pts',(-20.9994078139766,5.39771239655531,21.4762462750098));
#1033=CARTESIAN_POINT('Ctrl Pts',(-20.850929664428,5.55022802635931,21.4743520263471));
#1034=CARTESIAN_POINT('Ctrl Pts',(-20.7024534313591,5.70274168756995,21.4724578021344));
#1035=CARTESIAN_POINT('Ctrl Pts',(-20.5479625699798,5.84939975195546,21.4705635779217));
#1036=CARTESIAN_POINT('Ctrl Pts',(-20.3879366950888,5.98974692152997,21.468669353709));
#1037=CARTESIAN_POINT('Ctrl Pts',(-20.2279126914197,6.13009244999055,21.466775151646));
#1038=CARTESIAN_POINT('Ctrl Pts',(-20.0623540097042,6.26412705067729,21.4648809495829));
#1039=CARTESIAN_POINT('Ctrl Pts',(-19.8917746126313,6.39143462469958,21.4629867475198));
#1040=CARTESIAN_POINT('Ctrl Pts',(-19.7183601016743,6.52085811352087,21.4610610628823));
#1041=CARTESIAN_POINT('Ctrl Pts',(-19.5397567376276,6.64332881028618,21.4591353782448));
#1042=CARTESIAN_POINT('Ctrl Pts',(-19.3565375453098,6.75845378427341,21.4572096936073));
#1043=CARTESIAN_POINT('Ctrl Pts',(-19.1763007263934,6.87170479704559,21.4553153545432));
#1044=CARTESIAN_POINT('Ctrl Pts',(-18.9915974405841,6.97784725572182,21.453421015479));
#1045=CARTESIAN_POINT('Ctrl Pts',(-18.8030011662171,7.07655160254563,21.4515266764149));
#1046=CARTESIAN_POINT('Ctrl Pts',(-18.6144109512635,7.17525277809556,21.4496323982141));
#1047=CARTESIAN_POINT('Ctrl Pts',(-18.4219282407997,7.26651619293594,21.4477381200132));
#1048=CARTESIAN_POINT('Ctrl Pts',(-18.2261506288397,7.35005850488883,21.4458438418124));
#1049=CARTESIAN_POINT('Ctrl Pts',(-18.0303783559261,7.43359853856142,21.4439496152703));
#1050=CARTESIAN_POINT('Ctrl Pts',(-17.8313116132994,7.50941778315645,21.4420553887283));
#1051=CARTESIAN_POINT('Ctrl Pts',(-17.6295684024999,7.57728085827176,21.4401611621862));
#1052=CARTESIAN_POINT('Ctrl Pts',(-17.4219663257007,7.6471147588828,21.4382119250223));
#1053=CARTESIAN_POINT('Ctrl Pts',(-17.2115302686456,7.70852331305787,21.4362626878584));
#1054=CARTESIAN_POINT('Ctrl Pts',(-16.9989519869616,7.76130465561531,21.4343134506945));
#1055=CARTESIAN_POINT('Ctrl Pts',(-16.7923670161746,7.81259791108781,21.4324191692121));
#1056=CARTESIAN_POINT('Ctrl Pts',(-16.5837592506811,7.8557437377739,21.4305248877296));
#1057=CARTESIAN_POINT('Ctrl Pts',(-16.3737763496039,7.89060818194369,21.4286306062472));
#1058=CARTESIAN_POINT('Ctrl Pts',(-16.1546556143144,7.92698982350954,21.4266538912426));
#1059=CARTESIAN_POINT('Ctrl Pts',(-15.9340377011925,7.95435317054136,21.4246771762379));
#1060=CARTESIAN_POINT('Ctrl Pts',(-15.7126684059963,7.97260572162867,21.4227004612333));
#1061=CARTESIAN_POINT('Ctrl Pts',(-15.4912991108,7.99085827271598,21.4207237462286));
#1062=CARTESIAN_POINT('Ctrl Pts',(-15.2691787714042,8.,21.418747031224));
#1063=CARTESIAN_POINT('Ctrl Pts',(-15.0470582624978,8.,21.4167703162193));
#1064=CARTESIAN_POINT('Origin',(-13.3471439875952,-0.348144340965393,0.));
#1065=CARTESIAN_POINT('Origin',(-13.3471439875952,-0.348144340965393,25.));
#1066=CARTESIAN_POINT('Ctrl Pts',(15.0470582624978,8.,21.4167703162193));
#1067=CARTESIAN_POINT('Ctrl Pts',(15.0470582624978,8.,21.4167703162193));
#1068=CARTESIAN_POINT('Ctrl Pts',(15.0470582624978,8.,21.4167703162194));
#1069=CARTESIAN_POINT('Ctrl Pts',(15.0470582624978,8.,21.4167703162193));
#1070=CARTESIAN_POINT('Ctrl Pts',(15.0470582624978,8.,21.4167703162193));
#1071=CARTESIAN_POINT('Ctrl Pts',(15.0470582624978,8.,21.4167703162193));
#1072=CARTESIAN_POINT('Ctrl Pts',(15.0470582624978,8.,21.4167703162193));
#1073=CARTESIAN_POINT('Ctrl Pts',(16.2111826421152,8.,21.4271301976179));
#1074=CARTESIAN_POINT('Ctrl Pts',(16.1222432139527,8.00184123764435,21.5140498879044));
#1075=CARTESIAN_POINT('Ctrl Pts',(15.9338377659234,8.00267064395726,21.7018247900844));
#1076=CARTESIAN_POINT('Ctrl Pts',(15.5277895498481,8.00369020017028,22.1075043090675));
#1077=CARTESIAN_POINT('Ctrl Pts',(15.2324349006595,8.00217898399991,22.4053121437868));
#1078=CARTESIAN_POINT('Ctrl Pts',(15.1031840576419,8.00092409920303,22.5363325313867));
#1079=CARTESIAN_POINT('Ctrl Pts',(15.0598147254776,8.,22.5808946958368));
#1080=CARTESIAN_POINT('Ctrl Pts',(17.9558242304687,7.61655034622686,21.4426700197157));
#1081=CARTESIAN_POINT('Ctrl Pts',(17.8218479605923,7.66759484573048,21.7075235796839));
#1082=CARTESIAN_POINT('Ctrl Pts',(17.4649485697255,7.74082416059214,22.3002548054825));
#1083=CARTESIAN_POINT('Ctrl Pts',(16.4761053820385,7.76277034169048,23.3797468709621));
#1084=CARTESIAN_POINT('Ctrl Pts',(15.6179926714284,7.7080048537327,24.0355921978907));
#1085=CARTESIAN_POINT('Ctrl Pts',(15.2112172299578,7.64211873163394,24.2584485887123));
#1086=CARTESIAN_POINT('Ctrl Pts',(15.0789494199472,7.61655034622686,24.3255362841902));
#1087=CARTESIAN_POINT('Ctrl Pts',(20.4686593974853,6.11395110702747,21.4685697232122));
#1088=CARTESIAN_POINT('Ctrl Pts',(20.3946886969874,6.18863818071775,22.0700054087767));
#1089=CARTESIAN_POINT('Ctrl Pts',(19.9535335473172,6.29519904803104,23.4263177885209));
#1090=CARTESIAN_POINT('Ctrl Pts',(18.172335498514,6.32725936564028,25.5444948663235));
#1091=CARTESIAN_POINT('Ctrl Pts',(16.3502870047234,6.24727338287873,26.5950827525017));
#1092=CARTESIAN_POINT('Ctrl Pts',(15.4113843508654,6.15130950010525,26.8013881956775));
#1093=CARTESIAN_POINT('Ctrl Pts',(15.1108405773967,6.11395110702747,26.8383714512069));
#1094=CARTESIAN_POINT('Ctrl Pts',(22.4074426635566,3.85395686496298,21.4944694267085));
#1095=CARTESIAN_POINT('Ctrl Pts',(22.4097571716716,3.87534245805118,22.4330828342452));
#1096=CARTESIAN_POINT('Ctrl Pts',(21.9612039861929,3.90554454989747,24.4878099286904));
#1097=CARTESIAN_POINT('Ctrl Pts',(19.6704554654479,3.91460211105267,27.3580309932286));
#1098=CARTESIAN_POINT('Ctrl Pts',(17.0657178816269,3.89177259887164,28.6244010294351));
#1099=CARTESIAN_POINT('Ctrl Pts',(15.6119136228451,3.86458535179209,28.778348825706));
#1100=CARTESIAN_POINT('Ctrl Pts',(15.1427317348461,3.85395686496298,28.7771547172781));
#1101=CARTESIAN_POINT('Ctrl Pts',(23.0597875663433,1.56173243168552,21.5151891895057));
#1102=CARTESIAN_POINT('Ctrl Pts',(23.0587292584344,1.55969963607225,22.6400625739511));
#1103=CARTESIAN_POINT('Ctrl Pts',(22.5670730131063,1.55933763299673,24.9720228163903));
#1104=CARTESIAN_POINT('Ctrl Pts',(20.2302879431863,1.55811529698046,27.9401718461139));
#1105=CARTESIAN_POINT('Ctrl Pts',(17.4364853935348,1.55964085852743,29.2533045661483));
#1106=CARTESIAN_POINT('Ctrl Pts',(15.7305906786018,1.56070021235713,29.4289666145211));
#1107=CARTESIAN_POINT('Ctrl Pts',(15.1682446608056,1.56173243168552,29.4294996200648));
#1108=CARTESIAN_POINT('Ctrl Pts',(23.1316221626776,0.399826513812142,21.5255490709042));
#1109=CARTESIAN_POINT('Ctrl Pts',(23.1316179718264,0.399894299739897,22.7016525177696));
#1110=CARTESIAN_POINT('Ctrl Pts',(22.6034257642325,0.399988593041806,25.0762849908574));
#1111=CARTESIAN_POINT('Ctrl Pts',(20.3053212543617,0.400012738371254,27.9810466939283));
#1112=CARTESIAN_POINT('Ctrl Pts',(17.5357314158745,0.399940564830286,29.3080807270068));
#1113=CARTESIAN_POINT('Ctrl Pts',(15.7689594519474,0.399858181004276,29.5013322585815));
#1114=CARTESIAN_POINT('Ctrl Pts',(15.1810011237854,0.399826513812142,29.5013342163991));
#1115=CARTESIAN_POINT('Ctrl Pts',(-15.0470582624978,8.,21.4167703162193));
#1116=CARTESIAN_POINT('Ctrl Pts',(-15.0470582624978,8.,21.4167703162193));
#1117=CARTESIAN_POINT('Ctrl Pts',(-15.0470582624978,8.00000000000001,21.4167703162194));
#1118=CARTESIAN_POINT('Ctrl Pts',(-15.0470582624978,8.,21.4167703162193));
#1119=CARTESIAN_POINT('Ctrl Pts',(-15.0470582624978,8.00000000000001,21.4167703162194));
#1120=CARTESIAN_POINT('Ctrl Pts',(-15.0470582624978,8.,21.4167703162193));
#1121=CARTESIAN_POINT('Ctrl Pts',(-15.0470582624978,8.,21.4167703162193));
#1122=CARTESIAN_POINT('Ctrl Pts',(-15.0534364936905,8.,21.9988324789105));
#1123=CARTESIAN_POINT('Ctrl Pts',(-15.0968058238343,7.99836003753589,21.9567116996004));
#1124=CARTESIAN_POINT('Ctrl Pts',(-15.1910191963315,7.99762774979959,21.8628584503401));
#1125=CARTESIAN_POINT('Ctrl Pts',(-15.3958137700696,7.99673250789597,21.6583918181746));
#1126=CARTESIAN_POINT('Ctrl Pts',(-15.5443581894321,7.99807745179918,21.5084554375902));
#1127=CARTESIAN_POINT('Ctrl Pts',(-15.6081042482198,7.99918349572178,21.4436801782366));
#1128=CARTESIAN_POINT('Ctrl Pts',(-15.6291204251889,8.,21.4219502566773));
#1129=CARTESIAN_POINT('Ctrl Pts',(-15.0725711872687,7.81258959434387,23.7453867809283));
#1130=CARTESIAN_POINT('Ctrl Pts',(-15.2699076015941,7.84459302769597,23.6061871997728));
#1131=CARTESIAN_POINT('Ctrl Pts',(-15.7031666201146,7.8895887044559,23.2803298367428));
#1132=CARTESIAN_POINT('Ctrl Pts',(-16.5401641447257,7.90330893338968,22.4822521747182));
#1133=CARTESIAN_POINT('Ctrl Pts',(-17.0906752363836,7.86920160468326,21.8355049789183));
#1134=CARTESIAN_POINT('Ctrl Pts',(-17.3061988334545,7.8285548208808,21.5363056334607));
#1135=CARTESIAN_POINT('Ctrl Pts',(-17.3756747272067,7.81258959434388,21.4374900780512));
#1136=CARTESIAN_POINT('Ctrl Pts',(-15.1044623432324,6.56821664895877,26.4512282863636));
#1137=CARTESIAN_POINT('Ctrl Pts',(-15.6381916287078,6.65527221179282,26.3595014201114));
#1138=CARTESIAN_POINT('Ctrl Pts',(-16.851886551434,6.7809541173147,25.9158551432044));
#1139=CARTESIAN_POINT('Ctrl Pts',(-18.8140172061223,6.81801781288456,24.2299271485384));
#1140=CARTESIAN_POINT('Ctrl Pts',(-19.815990196766,6.72440365759545,22.5646004917946));
#1141=CARTESIAN_POINT('Ctrl Pts',(-20.035660519137,6.61170950423681,21.7304382006052));
#1142=CARTESIAN_POINT('Ctrl Pts',(-20.081516232642,6.56821664895877,21.4633897803409));
#1143=CARTESIAN_POINT('Ctrl Pts',(-15.1427317303888,3.85324321050948,28.7771372417265));
#1144=CARTESIAN_POINT('Ctrl Pts',(-16.0813360693096,3.87347212319156,28.7810777872152));
#1145=CARTESIAN_POINT('Ctrl Pts',(-18.1348351442236,3.90184662346627,28.3322657303871));
#1146=CARTESIAN_POINT('Ctrl Pts',(-21.00273863913,3.91073852297591,26.0247495095076));
#1147=CARTESIAN_POINT('Ctrl Pts',(-22.2575206526897,3.8892048080418,23.4149913505986));
#1148=CARTESIAN_POINT('Ctrl Pts',(-22.4093567923158,3.86342466907994,21.9638960549188));
#1149=CARTESIAN_POINT('Ctrl Pts',(-22.407425188005,3.85324321050948,21.4944694230886));
#1150=CARTESIAN_POINT('Ctrl Pts',(-15.1682446551597,1.56173294088684,29.4294995065838));
#1151=CARTESIAN_POINT('Ctrl Pts',(-16.2932707053387,1.56021846738663,29.4276045817562));
#1152=CARTESIAN_POINT('Ctrl Pts',(-18.621570292692,1.56010090558256,28.9325805308495));
#1153=CARTESIAN_POINT('Ctrl Pts',(-21.5844387367939,1.55923135182336,26.5780532539656));
#1154=CARTESIAN_POINT('Ctrl Pts',(-22.883399961045,1.56033131022648,23.7801228229288));
#1155=CARTESIAN_POINT('Ctrl Pts',(-23.0588448047864,1.56099010401838,22.0777923937816));
#1156=CARTESIAN_POINT('Ctrl Pts',(-23.0597874528622,1.56173294088684,21.5151891849205));
#1157=CARTESIAN_POINT('Ctrl Pts',(-15.1810011175452,0.399827082195529,29.5013341812589));
#1158=CARTESIAN_POINT('Ctrl Pts',(-16.3572899264895,0.399890409185587,29.5013302660762));
#1159=CARTESIAN_POINT('Ctrl Pts',(-18.727630070113,0.399983420930499,28.9687188689862));
#1160=CARTESIAN_POINT('Ctrl Pts',(-21.6274058521179,0.400015468540224,26.6526710547282));
#1161=CARTESIAN_POINT('Ctrl Pts',(-22.9401663901574,0.399947163797781,23.8771501879369));
#1162=CARTESIAN_POINT('Ctrl Pts',(-23.1316200322906,0.399860972228416,22.1137863189164));
#1163=CARTESIAN_POINT('Ctrl Pts',(-23.1316221275374,0.399827082195526,21.5255490658364));
#1164=CARTESIAN_POINT('Origin',(10.6856040044414,-1.59999998509884,22.4940729844617));
#1165=CARTESIAN_POINT('',(10.6856040044414,1.70000001490116,22.4940729844617));
#1166=CARTESIAN_POINT('',(10.6856040044414,-1.59999998509884,22.4940729844617));
#1167=CARTESIAN_POINT('',(1.50000002235174,1.70000001490116,22.4940729844617));
#1168=CARTESIAN_POINT('',(10.6856040044414,1.70000001490116,22.4940729844617));
#1169=CARTESIAN_POINT('',(1.50000002235174,-1.59999998509884,22.4940729844617));
#1170=CARTESIAN_POINT('Origin',(10.6856040044414,-1.59999998509884,29.9999999701977));
#1171=CARTESIAN_POINT('',(10.6856040044414,1.70000001490116,29.9999999701977));
#1172=CARTESIAN_POINT('Origin',(6.09280201339659,1.70000001490116,26.2470364773297));
#1173=CARTESIAN_POINT('',(1.50000002235174,1.70000001490116,22.4940729844617));
#1174=CARTESIAN_POINT('Origin',(-13.3471439875952,-0.348144340965393,25.));
#1175=CARTESIAN_POINT('Origin',(1.50000002235174,-1.59999998509884,22.4940729844617));
#1176=CARTESIAN_POINT('Origin',(19.0000002980232,0.400000014901161,20.0000002980232));
#1177=CARTESIAN_POINT('',(19.0000002980232,0.400000014901161,22.0000002980232));
#1178=CARTESIAN_POINT('',(19.0000002980232,0.400000014901161,18.0000002980232));
#1179=CARTESIAN_POINT('Origin',(19.0000002980232,0.400000014901161,20.0000002980232));
#1180=CARTESIAN_POINT('Origin',(-4.49162136754561,0.400000014901161,13.824));
#1181=CARTESIAN_POINT('',(-4.49162136754561,0.400000014901161,15.074));
#1182=CARTESIAN_POINT('',(-4.49162136754561,0.400000014901161,12.574));
#1183=CARTESIAN_POINT('Origin',(-4.49162136754561,0.400000014901161,13.824));
#1184=UNCERTAINTY_MEASURE_WITH_UNIT(LENGTH_MEASURE(0.01),#1188,
'DISTANCE_ACCURACY_VALUE',
'Maximum model space distance between geometric entities at asserted c
onnectivities');
#1185=UNCERTAINTY_MEASURE_WITH_UNIT(LENGTH_MEASURE(0.01),#1188,
'DISTANCE_ACCURACY_VALUE',
'Maximum model space distance between geometric entities at asserted c
onnectivities');
#1186=(
GEOMETRIC_REPRESENTATION_CONTEXT(3)
GLOBAL_UNCERTAINTY_ASSIGNED_CONTEXT((#1184))
GLOBAL_UNIT_ASSIGNED_CONTEXT((#1188,#1189,#1190))
REPRESENTATION_CONTEXT('','3D')
);
#1187=(
GEOMETRIC_REPRESENTATION_CONTEXT(3)
GLOBAL_UNCERTAINTY_ASSIGNED_CONTEXT((#1185))
GLOBAL_UNIT_ASSIGNED_CONTEXT((#1188,#1189,#1190))
REPRESENTATION_CONTEXT('','3D')
);
#1188=(
LENGTH_UNIT()
NAMED_UNIT(*)
SI_UNIT(.MILLI.,.METRE.)
);
#1189=(
NAMED_UNIT(*)
PLANE_ANGLE_UNIT()
SI_UNIT($,.RADIAN.)
);
#1190=(
NAMED_UNIT(*)
SI_UNIT($,.STERADIAN.)
SOLID_ANGLE_UNIT()
);
#1191=SHAPE_DEFINITION_REPRESENTATION(#1192,#1193);
#1192=PRODUCT_DEFINITION_SHAPE('',$,#1195);
#1193=SHAPE_REPRESENTATION('',(#442),#1186);
#1194=PRODUCT_DEFINITION_CONTEXT('part definition',#1199,'design');
#1195=PRODUCT_DEFINITION('NexBar','NexBar v12',#1196,#1194);
#1196=PRODUCT_DEFINITION_FORMATION('',$,#1201);
#1197=PRODUCT_RELATED_PRODUCT_CATEGORY('NexBar v12','NexBar v12',(#1201));
#1198=APPLICATION_PROTOCOL_DEFINITION('international standard',
'automotive_design',2009,#1199);
#1199=APPLICATION_CONTEXT(
'Core Data for Automotive Mechanical Design Process');
#1200=PRODUCT_CONTEXT('part definition',#1199,'mechanical');
#1201=PRODUCT('NexBar','NexBar v12',$,(#1200));
#1202=PRESENTATION_STYLE_ASSIGNMENT((#1203));
#1203=SURFACE_STYLE_USAGE(.BOTH.,#1204);
#1204=SURFACE_SIDE_STYLE('',(#1205));
#1205=SURFACE_STYLE_FILL_AREA(#1206);
#1206=FILL_AREA_STYLE('Steel - Satin',(#1207));
#1207=FILL_AREA_STYLE_COLOUR('Steel - Satin',#1208);
#1208=COLOUR_RGB('Steel - Satin',0.627450980392157,0.627450980392157,0.627450980392157);
ENDSEC;
END-ISO-10303-21;
