ISO-10303-21;
HEADER;
/* Generated by software containing ST-Developer
 * from STEP Tools, Inc. (www.steptools.com) 
 */

FILE_DESCRIPTION(
/* description */ (''),
/* implementation_level */ '2;1');

FILE_NAME(
/* name */ 'Topt.step',
/* time_stamp */ '2026-08-14T00:46:17-04:00',
/* author */ (''),
/* organization */ (''),
/* preprocessor_version */ 'ST-DEVELOPER v20.1',
/* originating_system */ 'Autodesk Translation Framework v15.8.0.0',
/* authorisation */ '');

FILE_SCHEMA (('AUTOMOTIVE_DESIGN { 1 0 10303 214 3 1 1 }'));
ENDSEC;

DATA;
#10=MECHANICAL_DESIGN_GEOMETRIC_PRESENTATION_REPRESENTATION('',(#13),#1005);
#11=SHAPE_REPRESENTATION_RELATIONSHIP('SRR','None',#1011,#12);
#12=ADVANCED_BREP_SHAPE_REPRESENTATION('',(#14),#1004);
#13=STYLED_ITEM('',(#1020),#14);
#14=MANIFOLD_SOLID_BREP('TOp',#335);
#15=B_SPLINE_SURFACE_WITH_KNOTS('',3,3,((#891,#892,#893,#894,#895,#896,
#897),(#898,#899,#900,#901,#902,#903,#904),(#905,#906,#907,#908,#909,#910,
#911),(#912,#913,#914,#915,#916,#917,#918),(#919,#920,#921,#922,#923,#924,
#925),(#926,#927,#928,#929,#930,#931,#932),(#933,#934,#935,#936,#937,#938,
#939)),.UNSPECIFIED.,.F.,.F.,.F.,(4,1,1,1,4),(4,1,1,1,4),(0.,0.274483184602799,
0.411724776904198,0.686207961506997,0.960691146109796),(0.,0.285714285714286,
0.571428571428571,0.857142857142857,1.),.UNSPECIFIED.);
#16=B_SPLINE_SURFACE_WITH_KNOTS('',3,3,((#940,#941,#942,#943,#944,#945,
#946),(#947,#948,#949,#950,#951,#952,#953),(#954,#955,#956,#957,#958,#959,
#960),(#961,#962,#963,#964,#965,#966,#967),(#968,#969,#970,#971,#972,#973,
#974),(#975,#976,#977,#978,#979,#980,#981),(#982,#983,#984,#985,#986,#987,
#988)),.UNSPECIFIED.,.F.,.F.,.F.,(4,1,1,1,4),(4,1,1,1,4),(0.,0.137241585907484,
0.411724757722453,0.686207929537422,0.960691101352391),(0.,0.285714285714286,
0.571428571428571,0.857142857142857,1.),.UNSPECIFIED.);
#17=B_SPLINE_CURVE_WITH_KNOTS('',3,(#465,#466,#467,#468,#469,#470,#471,
#472,#473,#474,#475,#476,#477,#478,#479,#480,#481,#482,#483,#484,#485,#486,
#487,#488,#489,#490,#491,#492,#493,#494,#495,#496,#497,#498,#499,#500,#501,
#502,#503,#504,#505,#506,#507,#508,#509,#510,#511,#512,#513,#514,#515,#516,
#517,#518,#519,#520,#521,#522),.UNSPECIFIED.,.F.,.F.,(4,3,3,3,3,3,3,3,3,
3,3,3,3,3,3,3,3,3,3,4),(0.0617701098983657,0.140606458062332,0.219442360227723,
0.298277840326155,0.377814133130652,0.456657056745829,0.535498579659166,
0.614338797670222,0.693177806561829,0.772015702101325,0.850852580041781,
0.929688536123255,1.00983478475761,1.08867644276953,1.16751556767628,1.24635254256323,
1.32747903822195,1.40631829970688,1.4885884124525,1.57085852519812),
 .UNSPECIFIED.);
#18=B_SPLINE_CURVE_WITH_KNOTS('',3,(#540,#541,#542,#543,#544,#545,#546,
#547,#548,#549,#550,#551,#552,#553,#554,#555,#556,#557,#558,#559,#560,#561,
#562,#563,#564,#565,#566,#567,#568,#569,#570,#571,#572,#573,#574,#575,#576,
#577,#578,#579,#580,#581,#582,#583,#584,#585,#586,#587,#588,#589,#590,#591,
#592,#593,#594,#595,#596,#597,#598,#599,#600,#601,#602,#603,#604,#605,#606,
#607,#608,#609,#610,#611,#612,#613,#614,#615,#616,#617,#618),
 .UNSPECIFIED.,.F.,.F.,(4,3,3,3,3,3,3,3,3,3,3,3,3,3,3,3,3,3,3,3,3,3,3,3,
3,3,4),(0.,0.0507716205127016,0.100660918051046,0.149309777768343,0.170480570300753,
0.218035267193611,0.264268664763231,0.289388895092914,0.339097259683152,
0.388037375865285,0.438129864659575,0.488222353453864,0.537152099659547,
0.562277315257155,0.612097519186718,0.662540929526104,0.712904459955552,
0.762513638331206,0.804282099338457,0.835202838919571,0.882089952456553,
0.929145697267885,0.976201442079218,1.01945824767468,1.06269236102892,1.10570336357575,
1.11631129113286),.UNSPECIFIED.);
#19=B_SPLINE_CURVE_WITH_KNOTS('',3,(#629,#630,#631,#632,#633,#634,#635,
#636,#637,#638,#639,#640,#641,#642,#643,#644,#645,#646,#647,#648,#649,#650,
#651,#652,#653,#654,#655,#656,#657,#658,#659,#660,#661,#662,#663,#664,#665,
#666,#667,#668,#669,#670,#671,#672,#673,#674,#675,#676,#677,#678,#679,#680,
#681,#682,#683,#684,#685,#686,#687,#688,#689,#690,#691,#692,#693,#694,#695),
 .UNSPECIFIED.,.F.,.F.,(4,3,3,3,3,3,3,3,3,3,3,3,3,3,3,3,3,3,3,3,3,3,4),
(0.,0.088611896004714,0.177223792009428,0.259987336922475,0.312507479786035,
0.381976720604981,0.452207269417246,0.522526378370636,0.535165881159958,
0.605161946070435,0.623793750948561,0.685042734770079,0.746629547589995,
0.807799938523995,0.867689663478361,0.894870475519162,0.933156380291377,
1.01881705637992,1.09163023204756,1.13875305112324,1.18605438452041,1.23326587064445,
1.25030461987805),.UNSPECIFIED.);
#20=B_SPLINE_CURVE_WITH_KNOTS('',3,(#711,#712,#713,#714,#715,#716,#717,
#718,#719,#720,#721,#722,#723,#724,#725,#726,#727,#728,#729,#730,#731,#732,
#733,#734,#735,#736,#737,#738,#739,#740,#741,#742,#743,#744,#745,#746,#747,
#748,#749,#750,#751,#752,#753,#754,#755,#756,#757,#758,#759,#760,#761,#762,
#763,#764,#765,#766,#767,#768),.UNSPECIFIED.,.F.,.F.,(4,3,3,3,3,3,3,3,3,
3,3,3,3,3,3,3,3,3,3,4),(0.0617713723715164,0.140609331812725,0.219446845246224,
0.298283936604143,0.377821854991541,0.456666390018348,0.535509524314708,
0.614351353682098,0.693191973905332,0.772031480753699,0.850869969982248,
0.929707537332953,1.00985542401665,1.08869869341433,1.16753942965512,1.24637801583208,
1.32750616957468,1.40634704239642,1.48861883659946,1.57089063080251),
 .UNSPECIFIED.);
#21=B_SPLINE_CURVE_WITH_KNOTS('',3,(#770,#771,#772,#773,#774,#775,#776,
#777,#778,#779,#780,#781,#782,#783,#784,#785,#786,#787,#788,#789,#790,#791,
#792,#793,#794,#795,#796,#797,#798,#799,#800,#801,#802,#803,#804,#805,#806,
#807,#808,#809,#810,#811,#812,#813,#814,#815,#816,#817,#818,#819,#820,#821,
#822,#823,#824,#825,#826,#827),.UNSPECIFIED.,.F.,.F.,(4,3,3,3,3,3,3,3,3,
3,3,3,3,3,3,3,3,3,3,4),(0.,0.0788379594412316,0.157675472874718,0.236512564232565,
0.316050482619966,0.394895017646766,0.473738151943112,0.552579981310528,
0.631420601533753,0.710260108382162,0.789098597610705,0.86793616496136,
0.948084051645064,1.02692732104275,1.10576805728352,1.18460664346052,1.26573479720314,
1.34457567002488,1.42684746422794,1.50911925843099),.UNSPECIFIED.);
#22=B_SPLINE_CURVE_WITH_KNOTS('',3,(#833,#834,#835,#836,#837,#838,#839,
#840,#841,#842,#843,#844,#845,#846,#847,#848,#849,#850,#851,#852,#853,#854,
#855,#856,#857,#858,#859,#860,#861,#862,#863,#864,#865,#866,#867,#868,#869,
#870,#871,#872,#873,#874,#875,#876,#877,#878,#879,#880,#881,#882,#883,#884,
#885,#886,#887,#888,#889,#890),.UNSPECIFIED.,.F.,.F.,(4,3,3,3,3,3,3,3,3,
3,3,3,3,3,3,3,3,3,3,4),(0.,0.0788363481640021,0.157672250329356,0.236507730427718,
0.31604402323222,0.394886946847392,0.473728469760732,0.552568687771791,
0.631407696663371,0.710245592202861,0.789082470143357,0.867918426224873,
0.948064674859233,1.02690633287115,1.1057454577779,1.18458243266486,1.26570892832358,
1.34454818980851,1.42681830255413,1.50908841529975),.UNSPECIFIED.);
#23=CYLINDRICAL_SURFACE('',#341,8.1);
#24=CYLINDRICAL_SURFACE('',#342,7.112);
#25=CYLINDRICAL_SURFACE('',#349,8.1);
#26=CYLINDRICAL_SURFACE('',#352,8.1);
#27=FACE_OUTER_BOUND('',#45,.T.);
#28=FACE_OUTER_BOUND('',#46,.T.);
#29=FACE_OUTER_BOUND('',#47,.T.);
#30=FACE_OUTER_BOUND('',#48,.T.);
#31=FACE_OUTER_BOUND('',#49,.T.);
#32=FACE_OUTER_BOUND('',#50,.T.);
#33=FACE_OUTER_BOUND('',#51,.T.);
#34=FACE_OUTER_BOUND('',#52,.T.);
#35=FACE_OUTER_BOUND('',#53,.T.);
#36=FACE_OUTER_BOUND('',#54,.T.);
#37=FACE_OUTER_BOUND('',#55,.T.);
#38=FACE_OUTER_BOUND('',#56,.T.);
#39=FACE_OUTER_BOUND('',#57,.T.);
#40=FACE_OUTER_BOUND('',#58,.T.);
#41=FACE_OUTER_BOUND('',#59,.T.);
#42=FACE_OUTER_BOUND('',#60,.T.);
#43=FACE_OUTER_BOUND('',#61,.T.);
#44=FACE_OUTER_BOUND('',#62,.T.);
#45=EDGE_LOOP('',(#213,#214,#215,#216,#217,#218,#219,#220,#221,#222));
#46=EDGE_LOOP('',(#223,#224,#225,#226));
#47=EDGE_LOOP('',(#227,#228,#229,#230));
#48=EDGE_LOOP('',(#231,#232,#233,#234,#235,#236,#237,#238,#239,#240,#241,
#242,#243,#244,#245,#246,#247,#248));
#49=EDGE_LOOP('',(#249,#250,#251,#252));
#50=EDGE_LOOP('',(#253,#254,#255,#256));
#51=EDGE_LOOP('',(#257,#258,#259,#260));
#52=EDGE_LOOP('',(#261,#262,#263,#264));
#53=EDGE_LOOP('',(#265,#266,#267,#268,#269,#270,#271,#272));
#54=EDGE_LOOP('',(#273,#274,#275,#276));
#55=EDGE_LOOP('',(#277,#278,#279));
#56=EDGE_LOOP('',(#280,#281,#282));
#57=EDGE_LOOP('',(#283,#284,#285,#286));
#58=EDGE_LOOP('',(#287,#288,#289,#290));
#59=EDGE_LOOP('',(#291,#292,#293,#294));
#60=EDGE_LOOP('',(#295,#296,#297,#298));
#61=EDGE_LOOP('',(#299,#300));
#62=EDGE_LOOP('',(#301,#302,#303,#304));
#63=CIRCLE('',#338,7.112);
#64=CIRCLE('',#339,8.1);
#65=CIRCLE('',#340,8.1);
#66=CIRCLE('',#343,7.112);
#67=CIRCLE('',#350,8.1);
#68=CIRCLE('',#351,8.1);
#69=LINE('',#443,#103);
#70=LINE('',#445,#104);
#71=LINE('',#449,#105);
#72=LINE('',#453,#106);
#73=LINE('',#457,#107);
#74=LINE('',#459,#108);
#75=LINE('',#460,#109);
#76=LINE('',#463,#110);
#77=LINE('',#523,#111);
#78=LINE('',#526,#112);
#79=LINE('',#529,#113);
#80=LINE('',#531,#114);
#81=LINE('',#533,#115);
#82=LINE('',#535,#116);
#83=LINE('',#536,#117);
#84=LINE('',#538,#118);
#85=LINE('',#620,#119);
#86=LINE('',#622,#120);
#87=LINE('',#624,#121);
#88=LINE('',#626,#122);
#89=LINE('',#628,#123);
#90=LINE('',#698,#124);
#91=LINE('',#699,#125);
#92=LINE('',#702,#126);
#93=LINE('',#703,#127);
#94=LINE('',#705,#128);
#95=LINE('',#769,#129);
#96=LINE('',#830,#130);
#97=LINE('',#832,#131);
#98=LINE('',#992,#132);
#99=LINE('',#994,#133);
#100=LINE('',#995,#134);
#101=LINE('',#997,#135);
#102=LINE('',#999,#136);
#103=VECTOR('',#363,10.);
#104=VECTOR('',#364,10.);
#105=VECTOR('',#367,10.);
#106=VECTOR('',#370,10.);
#107=VECTOR('',#373,10.);
#108=VECTOR('',#374,10.);
#109=VECTOR('',#375,10.);
#110=VECTOR('',#378,10.);
#111=VECTOR('',#379,10.);
#112=VECTOR('',#382,10.);
#113=VECTOR('',#385,10.);
#114=VECTOR('',#388,10.);
#115=VECTOR('',#389,10.);
#116=VECTOR('',#390,10.);
#117=VECTOR('',#391,10.);
#118=VECTOR('',#392,10.);
#119=VECTOR('',#393,10.);
#120=VECTOR('',#394,10.);
#121=VECTOR('',#395,10.);
#122=VECTOR('',#396,10.);
#123=VECTOR('',#397,10.);
#124=VECTOR('',#400,10.);
#125=VECTOR('',#401,10.);
#126=VECTOR('',#404,10.);
#127=VECTOR('',#405,10.);
#128=VECTOR('',#408,10.);
#129=VECTOR('',#415,10.);
#130=VECTOR('',#418,10.);
#131=VECTOR('',#421,10.);
#132=VECTOR('',#426,10.);
#133=VECTOR('',#427,10.);
#134=VECTOR('',#428,10.);
#135=VECTOR('',#431,10.);
#136=VECTOR('',#434,10.);
#137=VERTEX_POINT('',#441);
#138=VERTEX_POINT('',#442);
#139=VERTEX_POINT('',#444);
#140=VERTEX_POINT('',#446);
#141=VERTEX_POINT('',#448);
#142=VERTEX_POINT('',#450);
#143=VERTEX_POINT('',#452);
#144=VERTEX_POINT('',#454);
#145=VERTEX_POINT('',#456);
#146=VERTEX_POINT('',#458);
#147=VERTEX_POINT('',#462);
#148=VERTEX_POINT('',#464);
#149=VERTEX_POINT('',#525);
#150=VERTEX_POINT('',#527);
#151=VERTEX_POINT('',#532);
#152=VERTEX_POINT('',#534);
#153=VERTEX_POINT('',#537);
#154=VERTEX_POINT('',#539);
#155=VERTEX_POINT('',#619);
#156=VERTEX_POINT('',#621);
#157=VERTEX_POINT('',#623);
#158=VERTEX_POINT('',#625);
#159=VERTEX_POINT('',#627);
#160=VERTEX_POINT('',#697);
#161=VERTEX_POINT('',#701);
#162=VERTEX_POINT('',#708);
#163=VERTEX_POINT('',#710);
#164=VERTEX_POINT('',#828);
#165=VERTEX_POINT('',#991);
#166=VERTEX_POINT('',#993);
#167=EDGE_CURVE('',#137,#138,#69,.T.);
#168=EDGE_CURVE('',#139,#137,#70,.T.);
#169=EDGE_CURVE('',#140,#139,#63,.T.);
#170=EDGE_CURVE('',#141,#140,#71,.T.);
#171=EDGE_CURVE('',#142,#141,#64,.T.);
#172=EDGE_CURVE('',#143,#142,#72,.T.);
#173=EDGE_CURVE('',#144,#143,#65,.T.);
#174=EDGE_CURVE('',#145,#144,#73,.T.);
#175=EDGE_CURVE('',#146,#145,#74,.T.);
#176=EDGE_CURVE('',#138,#146,#75,.T.);
#177=EDGE_CURVE('',#141,#147,#76,.F.);
#178=EDGE_CURVE('',#147,#148,#17,.T.);
#179=EDGE_CURVE('',#148,#142,#77,.T.);
#180=EDGE_CURVE('',#149,#139,#78,.T.);
#181=EDGE_CURVE('',#149,#150,#66,.T.);
#182=EDGE_CURVE('',#140,#150,#79,.T.);
#183=EDGE_CURVE('',#150,#149,#80,.T.);
#184=EDGE_CURVE('',#137,#151,#81,.T.);
#185=EDGE_CURVE('',#151,#152,#82,.T.);
#186=EDGE_CURVE('',#152,#145,#83,.T.);
#187=EDGE_CURVE('',#153,#144,#84,.F.);
#188=EDGE_CURVE('',#153,#154,#18,.F.);
#189=EDGE_CURVE('',#155,#154,#85,.F.);
#190=EDGE_CURVE('',#155,#156,#86,.T.);
#191=EDGE_CURVE('',#156,#157,#87,.T.);
#192=EDGE_CURVE('',#157,#158,#88,.T.);
#193=EDGE_CURVE('',#159,#158,#89,.F.);
#194=EDGE_CURVE('',#159,#147,#19,.F.);
#195=EDGE_CURVE('',#138,#160,#90,.T.);
#196=EDGE_CURVE('',#151,#160,#91,.T.);
#197=EDGE_CURVE('',#152,#161,#92,.T.);
#198=EDGE_CURVE('',#161,#146,#93,.T.);
#199=EDGE_CURVE('',#160,#161,#94,.T.);
#200=EDGE_CURVE('',#162,#155,#67,.T.);
#201=EDGE_CURVE('',#154,#163,#20,.T.);
#202=EDGE_CURVE('',#163,#148,#95,.T.);
#203=EDGE_CURVE('',#148,#159,#21,.T.);
#204=EDGE_CURVE('',#158,#164,#68,.T.);
#205=EDGE_CURVE('',#164,#162,#96,.F.);
#206=EDGE_CURVE('',#143,#163,#97,.T.);
#207=EDGE_CURVE('',#163,#153,#22,.T.);
#208=EDGE_CURVE('',#156,#165,#98,.T.);
#209=EDGE_CURVE('',#165,#166,#99,.T.);
#210=EDGE_CURVE('',#157,#166,#100,.T.);
#211=EDGE_CURVE('',#162,#165,#101,.T.);
#212=EDGE_CURVE('',#166,#164,#102,.T.);
#213=ORIENTED_EDGE('',*,*,#167,.F.);
#214=ORIENTED_EDGE('',*,*,#168,.F.);
#215=ORIENTED_EDGE('',*,*,#169,.F.);
#216=ORIENTED_EDGE('',*,*,#170,.F.);
#217=ORIENTED_EDGE('',*,*,#171,.F.);
#218=ORIENTED_EDGE('',*,*,#172,.F.);
#219=ORIENTED_EDGE('',*,*,#173,.F.);
#220=ORIENTED_EDGE('',*,*,#174,.F.);
#221=ORIENTED_EDGE('',*,*,#175,.F.);
#222=ORIENTED_EDGE('',*,*,#176,.F.);
#223=ORIENTED_EDGE('',*,*,#171,.T.);
#224=ORIENTED_EDGE('',*,*,#177,.T.);
#225=ORIENTED_EDGE('',*,*,#178,.T.);
#226=ORIENTED_EDGE('',*,*,#179,.T.);
#227=ORIENTED_EDGE('',*,*,#169,.T.);
#228=ORIENTED_EDGE('',*,*,#180,.F.);
#229=ORIENTED_EDGE('',*,*,#181,.T.);
#230=ORIENTED_EDGE('',*,*,#182,.F.);
#231=ORIENTED_EDGE('',*,*,#170,.T.);
#232=ORIENTED_EDGE('',*,*,#182,.T.);
#233=ORIENTED_EDGE('',*,*,#183,.T.);
#234=ORIENTED_EDGE('',*,*,#180,.T.);
#235=ORIENTED_EDGE('',*,*,#168,.T.);
#236=ORIENTED_EDGE('',*,*,#184,.T.);
#237=ORIENTED_EDGE('',*,*,#185,.T.);
#238=ORIENTED_EDGE('',*,*,#186,.T.);
#239=ORIENTED_EDGE('',*,*,#174,.T.);
#240=ORIENTED_EDGE('',*,*,#187,.F.);
#241=ORIENTED_EDGE('',*,*,#188,.T.);
#242=ORIENTED_EDGE('',*,*,#189,.F.);
#243=ORIENTED_EDGE('',*,*,#190,.T.);
#244=ORIENTED_EDGE('',*,*,#191,.T.);
#245=ORIENTED_EDGE('',*,*,#192,.T.);
#246=ORIENTED_EDGE('',*,*,#193,.F.);
#247=ORIENTED_EDGE('',*,*,#194,.T.);
#248=ORIENTED_EDGE('',*,*,#177,.F.);
#249=ORIENTED_EDGE('',*,*,#167,.T.);
#250=ORIENTED_EDGE('',*,*,#195,.T.);
#251=ORIENTED_EDGE('',*,*,#196,.F.);
#252=ORIENTED_EDGE('',*,*,#184,.F.);
#253=ORIENTED_EDGE('',*,*,#175,.T.);
#254=ORIENTED_EDGE('',*,*,#186,.F.);
#255=ORIENTED_EDGE('',*,*,#197,.T.);
#256=ORIENTED_EDGE('',*,*,#198,.T.);
#257=ORIENTED_EDGE('',*,*,#185,.F.);
#258=ORIENTED_EDGE('',*,*,#196,.T.);
#259=ORIENTED_EDGE('',*,*,#199,.T.);
#260=ORIENTED_EDGE('',*,*,#197,.F.);
#261=ORIENTED_EDGE('',*,*,#176,.T.);
#262=ORIENTED_EDGE('',*,*,#198,.F.);
#263=ORIENTED_EDGE('',*,*,#199,.F.);
#264=ORIENTED_EDGE('',*,*,#195,.F.);
#265=ORIENTED_EDGE('',*,*,#200,.T.);
#266=ORIENTED_EDGE('',*,*,#189,.T.);
#267=ORIENTED_EDGE('',*,*,#201,.T.);
#268=ORIENTED_EDGE('',*,*,#202,.T.);
#269=ORIENTED_EDGE('',*,*,#203,.T.);
#270=ORIENTED_EDGE('',*,*,#193,.T.);
#271=ORIENTED_EDGE('',*,*,#204,.T.);
#272=ORIENTED_EDGE('',*,*,#205,.T.);
#273=ORIENTED_EDGE('',*,*,#173,.T.);
#274=ORIENTED_EDGE('',*,*,#206,.T.);
#275=ORIENTED_EDGE('',*,*,#207,.T.);
#276=ORIENTED_EDGE('',*,*,#187,.T.);
#277=ORIENTED_EDGE('',*,*,#207,.F.);
#278=ORIENTED_EDGE('',*,*,#201,.F.);
#279=ORIENTED_EDGE('',*,*,#188,.F.);
#280=ORIENTED_EDGE('',*,*,#203,.F.);
#281=ORIENTED_EDGE('',*,*,#178,.F.);
#282=ORIENTED_EDGE('',*,*,#194,.F.);
#283=ORIENTED_EDGE('',*,*,#172,.T.);
#284=ORIENTED_EDGE('',*,*,#179,.F.);
#285=ORIENTED_EDGE('',*,*,#202,.F.);
#286=ORIENTED_EDGE('',*,*,#206,.F.);
#287=ORIENTED_EDGE('',*,*,#191,.F.);
#288=ORIENTED_EDGE('',*,*,#208,.T.);
#289=ORIENTED_EDGE('',*,*,#209,.T.);
#290=ORIENTED_EDGE('',*,*,#210,.F.);
#291=ORIENTED_EDGE('',*,*,#200,.F.);
#292=ORIENTED_EDGE('',*,*,#211,.T.);
#293=ORIENTED_EDGE('',*,*,#208,.F.);
#294=ORIENTED_EDGE('',*,*,#190,.F.);
#295=ORIENTED_EDGE('',*,*,#205,.F.);
#296=ORIENTED_EDGE('',*,*,#212,.F.);
#297=ORIENTED_EDGE('',*,*,#209,.F.);
#298=ORIENTED_EDGE('',*,*,#211,.F.);
#299=ORIENTED_EDGE('',*,*,#183,.F.);
#300=ORIENTED_EDGE('',*,*,#181,.F.);
#301=ORIENTED_EDGE('',*,*,#204,.F.);
#302=ORIENTED_EDGE('',*,*,#192,.F.);
#303=ORIENTED_EDGE('',*,*,#210,.T.);
#304=ORIENTED_EDGE('',*,*,#212,.T.);
#305=PLANE('',#337);
#306=PLANE('',#344);
#307=PLANE('',#345);
#308=PLANE('',#346);
#309=PLANE('',#347);
#310=PLANE('',#348);
#311=PLANE('',#353);
#312=PLANE('',#354);
#313=PLANE('',#355);
#314=PLANE('',#356);
#315=PLANE('',#357);
#316=PLANE('',#358);
#317=ADVANCED_FACE('',(#27),#305,.F.);
#318=ADVANCED_FACE('',(#28),#23,.T.);
#319=ADVANCED_FACE('',(#29),#24,.F.);
#320=ADVANCED_FACE('',(#30),#306,.F.);
#321=ADVANCED_FACE('',(#31),#307,.F.);
#322=ADVANCED_FACE('',(#32),#308,.F.);
#323=ADVANCED_FACE('',(#33),#309,.F.);
#324=ADVANCED_FACE('',(#34),#310,.F.);
#325=ADVANCED_FACE('',(#35),#25,.T.);
#326=ADVANCED_FACE('',(#36),#26,.T.);
#327=ADVANCED_FACE('',(#37),#15,.F.);
#328=ADVANCED_FACE('',(#38),#16,.F.);
#329=ADVANCED_FACE('',(#39),#311,.T.);
#330=ADVANCED_FACE('',(#40),#312,.F.);
#331=ADVANCED_FACE('',(#41),#313,.F.);
#332=ADVANCED_FACE('',(#42),#314,.F.);
#333=ADVANCED_FACE('',(#43),#315,.F.);
#334=ADVANCED_FACE('',(#44),#316,.F.);
#335=CLOSED_SHELL('',(#317,#318,#319,#320,#321,#322,#323,#324,#325,#326,
#327,#328,#329,#330,#331,#332,#333,#334));
#336=AXIS2_PLACEMENT_3D('',#439,#359,#360);
#337=AXIS2_PLACEMENT_3D('',#440,#361,#362);
#338=AXIS2_PLACEMENT_3D('',#447,#365,#366);
#339=AXIS2_PLACEMENT_3D('',#451,#368,#369);
#340=AXIS2_PLACEMENT_3D('',#455,#371,#372);
#341=AXIS2_PLACEMENT_3D('',#461,#376,#377);
#342=AXIS2_PLACEMENT_3D('',#524,#380,#381);
#343=AXIS2_PLACEMENT_3D('',#528,#383,#384);
#344=AXIS2_PLACEMENT_3D('',#530,#386,#387);
#345=AXIS2_PLACEMENT_3D('',#696,#398,#399);
#346=AXIS2_PLACEMENT_3D('',#700,#402,#403);
#347=AXIS2_PLACEMENT_3D('',#704,#406,#407);
#348=AXIS2_PLACEMENT_3D('',#706,#409,#410);
#349=AXIS2_PLACEMENT_3D('',#707,#411,#412);
#350=AXIS2_PLACEMENT_3D('',#709,#413,#414);
#351=AXIS2_PLACEMENT_3D('',#829,#416,#417);
#352=AXIS2_PLACEMENT_3D('',#831,#419,#420);
#353=AXIS2_PLACEMENT_3D('',#989,#422,#423);
#354=AXIS2_PLACEMENT_3D('',#990,#424,#425);
#355=AXIS2_PLACEMENT_3D('',#996,#429,#430);
#356=AXIS2_PLACEMENT_3D('',#998,#432,#433);
#357=AXIS2_PLACEMENT_3D('',#1000,#435,#436);
#358=AXIS2_PLACEMENT_3D('',#1001,#437,#438);
#359=DIRECTION('axis',(0.,0.,1.));
#360=DIRECTION('refdir',(1.,0.,0.));
#361=DIRECTION('center_axis',(0.,0.,1.));
#362=DIRECTION('ref_axis',(1.,0.,0.));
#363=DIRECTION('',(0.,1.,0.));
#364=DIRECTION('',(1.,-9.01138988943489E-24,0.));
#365=DIRECTION('center_axis',(0.,0.,-1.));
#366=DIRECTION('ref_axis',(1.,0.,0.));
#367=DIRECTION('',(1.,-9.01138988943489E-24,0.));
#368=DIRECTION('center_axis',(0.,0.,1.));
#369=DIRECTION('ref_axis',(-0.707106781186548,0.707106781186548,0.));
#370=DIRECTION('',(-1.,3.58136459556502E-17,0.));
#371=DIRECTION('center_axis',(0.,0.,1.));
#372=DIRECTION('ref_axis',(0.707106781186548,0.707106781186548,0.));
#373=DIRECTION('',(1.,-9.01138988943489E-24,0.));
#374=DIRECTION('',(0.,-1.,0.));
#375=DIRECTION('',(1.,0.,0.));
#376=DIRECTION('center_axis',(0.,0.,1.));
#377=DIRECTION('ref_axis',(-0.707106781186548,0.707106781186548,0.));
#378=DIRECTION('',(0.,0.,-1.));
#379=DIRECTION('',(0.,0.,-1.));
#380=DIRECTION('center_axis',(0.,0.,1.));
#381=DIRECTION('ref_axis',(1.,0.,0.));
#382=DIRECTION('',(0.,0.,-1.));
#383=DIRECTION('center_axis',(0.,0.,1.));
#384=DIRECTION('ref_axis',(1.,0.,0.));
#385=DIRECTION('',(0.,0.,1.));
#386=DIRECTION('center_axis',(9.01138988943489E-24,1.,6.31088723951704E-30));
#387=DIRECTION('ref_axis',(0.,-6.31088723951704E-30,1.));
#388=DIRECTION('',(1.,-9.01138988943489E-24,0.));
#389=DIRECTION('',(0.,-6.31088723951704E-30,1.));
#390=DIRECTION('',(1.,-9.01138988943489E-24,0.));
#391=DIRECTION('',(0.,6.31088723951704E-30,-1.));
#392=DIRECTION('',(0.,0.,1.));
#393=DIRECTION('',(-1.,3.58136459556502E-17,0.));
#394=DIRECTION('',(5.42341872339446E-31,6.31088723951704E-30,-1.));
#395=DIRECTION('',(-1.,9.01138988943489E-24,-5.42341872339446E-31));
#396=DIRECTION('',(-5.42341872339446E-31,-6.31088723951704E-30,1.));
#397=DIRECTION('',(-1.,3.58136459556502E-17,0.));
#398=DIRECTION('center_axis',(-1.,0.,0.));
#399=DIRECTION('ref_axis',(0.,-5.89966380385225E-82,1.));
#400=DIRECTION('',(0.,-5.89966380385225E-82,1.));
#401=DIRECTION('',(0.,1.,0.));
#402=DIRECTION('center_axis',(1.,0.,0.));
#403=DIRECTION('ref_axis',(0.,-1.65571095181678E-44,-1.));
#404=DIRECTION('',(0.,1.,0.));
#405=DIRECTION('',(0.,-1.65571095181678E-44,-1.));
#406=DIRECTION('center_axis',(0.,0.,1.));
#407=DIRECTION('ref_axis',(1.,3.91294483358467E-82,0.));
#408=DIRECTION('',(1.,3.91294483358467E-82,0.));
#409=DIRECTION('center_axis',(0.,1.,0.));
#410=DIRECTION('ref_axis',(0.,0.,1.));
#411=DIRECTION('center_axis',(-1.,3.58136459556502E-17,0.));
#412=DIRECTION('ref_axis',(0.,0.707106781186547,0.707106781186548));
#413=DIRECTION('center_axis',(1.,0.,5.42341872339446E-31));
#414=DIRECTION('ref_axis',(0.,0.707106781186547,0.707106781186548));
#415=DIRECTION('',(-1.,3.58136459556502E-17,0.));
#416=DIRECTION('center_axis',(-1.,0.,-5.42341872339446E-31));
#417=DIRECTION('ref_axis',(0.,0.707106781186547,0.707106781186548));
#418=DIRECTION('',(-1.,3.58136459556502E-17,0.));
#419=DIRECTION('center_axis',(0.,0.,1.));
#420=DIRECTION('ref_axis',(0.707106781186548,0.707106781186548,0.));
#421=DIRECTION('',(0.,0.,1.));
#422=DIRECTION('center_axis',(3.58136459556502E-17,1.,0.));
#423=DIRECTION('ref_axis',(-1.,3.58136459556502E-17,0.));
#424=DIRECTION('center_axis',(5.42341872339446E-31,0.,-1.));
#425=DIRECTION('ref_axis',(-1.,0.,-5.42341872339446E-31));
#426=DIRECTION('',(0.,1.,0.));
#427=DIRECTION('',(-1.,0.,-5.42341872339446E-31));
#428=DIRECTION('',(0.,1.,0.));
#429=DIRECTION('center_axis',(1.,0.,5.42341872339446E-31));
#430=DIRECTION('ref_axis',(5.42341872339446E-31,0.,-1.));
#431=DIRECTION('',(5.42341872339446E-31,0.,-1.));
#432=DIRECTION('center_axis',(0.,1.,0.));
#433=DIRECTION('ref_axis',(0.,0.,1.));
#434=DIRECTION('',(-5.42341872339446E-31,0.,1.));
#435=DIRECTION('center_axis',(0.,0.,1.));
#436=DIRECTION('ref_axis',(1.,0.,0.));
#437=DIRECTION('center_axis',(-1.,0.,-5.42341872339446E-31));
#438=DIRECTION('ref_axis',(-5.42341872339446E-31,0.,1.));
#439=CARTESIAN_POINT('',(0.,0.,0.));
#440=CARTESIAN_POINT('Origin',(4.44089209850063E-15,4.44089209850063E-15,
8.));
#441=CARTESIAN_POINT('',(7.70742050673123,0.400000014901161,8.));
#442=CARTESIAN_POINT('',(7.70742050673123,3.40000001490116,8.));
#443=CARTESIAN_POINT('',(7.70742050673123,0.200000007450583,8.));
#444=CARTESIAN_POINT('',(-3.89925771306841,0.400000014901161,8.));
#445=CARTESIAN_POINT('',(1.44328993237316E-14,0.400000014901161,8.));
#446=CARTESIAN_POINT('',(-18.1007427041641,0.400000014901161,8.));
#447=CARTESIAN_POINT('Origin',(-11.0000002086163,0.,8.));
#448=CARTESIAN_POINT('',(-23.1316114341393,0.400000014901161,8.));
#449=CARTESIAN_POINT('',(1.44328993237316E-14,0.400000014901161,8.));
#450=CARTESIAN_POINT('',(-15.0470582624978,8.,8.));
#451=CARTESIAN_POINT('Origin',(-15.0470582624978,-0.0999999999999979,8.));
#452=CARTESIAN_POINT('',(15.0470582624978,8.,8.));
#453=CARTESIAN_POINT('',(7.75,8.,8.));
#454=CARTESIAN_POINT('',(23.1316114341393,0.400000014901161,8.));
#455=CARTESIAN_POINT('Origin',(15.0470582624978,-0.099999999999999,8.));
#456=CARTESIAN_POINT('',(13.1306576233654,0.400000014901161,8.));
#457=CARTESIAN_POINT('',(1.44328993237316E-14,0.400000014901161,8.));
#458=CARTESIAN_POINT('',(13.1306576233654,3.40000001490116,8.));
#459=CARTESIAN_POINT('',(13.1306576233654,0.200000007450583,8.));
#460=CARTESIAN_POINT('',(5.20951953252416,3.40000001490116,8.));
#461=CARTESIAN_POINT('Origin',(-15.0470582624978,-0.0999999999999979,0.));
#462=CARTESIAN_POINT('',(-23.1316114341393,0.400000014901019,21.5255475239185));
#463=CARTESIAN_POINT('',(-23.1316114341393,0.400000014901161,0.));
#464=CARTESIAN_POINT('',(-15.0470582624978,8.,21.4167703162193));
#465=CARTESIAN_POINT('Ctrl Pts',(-23.1316114341393,0.400000014900877,21.5255475239185));
#466=CARTESIAN_POINT('Ctrl Pts',(-23.1184725626588,0.612443818767964,21.5236533124348));
#467=CARTESIAN_POINT('Ctrl Pts',(-23.0969555503566,0.824369328065562,21.5217591009511));
#468=CARTESIAN_POINT('Ctrl Pts',(-23.0671271956106,1.03511863173806,21.5198648894674));
#469=CARTESIAN_POINT('Ctrl Pts',(-23.0372990096116,1.24586674314466,21.5179706886998));
#470=CARTESIAN_POINT('Ctrl Pts',(-22.9991596136454,1.4554383910067,21.5160764879322));
#471=CARTESIAN_POINT('Ctrl Pts',(-22.9528274080248,1.66318297905599,21.5141822871646));
#472=CARTESIAN_POINT('Ctrl Pts',(-22.9064954504548,1.87092645489467,21.512288096538));
#473=CARTESIAN_POINT('Ctrl Pts',(-22.8519708306282,2.07684262313216,21.5103939059115));
#474=CARTESIAN_POINT('Ctrl Pts',(-22.7894228134961,2.28029224244524,21.5084997152849));
#475=CARTESIAN_POINT('Ctrl Pts',(-22.7263187720321,2.48555043929322,21.5065886861377));
#476=CARTESIAN_POINT('Ctrl Pts',(-22.6550480579236,2.68829774595873,21.5046776569905));
#477=CARTESIAN_POINT('Ctrl Pts',(-22.5758358696932,2.88789352912592,21.5027666278433));
#478=CARTESIAN_POINT('Ctrl Pts',(-22.4973142252234,3.08574930705164,21.5008722583704));
#479=CARTESIAN_POINT('Ctrl Pts',(-22.4109891387279,3.28050803986822,21.4989778888974));
#480=CARTESIAN_POINT('Ctrl Pts',(-22.3171286463413,3.47156500906271,21.4970835194245));
#481=CARTESIAN_POINT('Ctrl Pts',(-22.2232698214546,3.66261858399129,21.4951891836064));
#482=CARTESIAN_POINT('Ctrl Pts',(-22.1218759793905,3.84997028093156,21.4932948477883));
#483=CARTESIAN_POINT('Ctrl Pts',(-22.0132619330253,4.03303840058727,21.4914005119703));
#484=CARTESIAN_POINT('Ctrl Pts',(-21.904649684326,4.21610349029126,21.4895062075052));
#485=CARTESIAN_POINT('Ctrl Pts',(-21.7888176102673,4.39488490891569,21.4876119030402));
#486=CARTESIAN_POINT('Ctrl Pts',(-21.6661253404058,4.56882758496757,21.4857175985752));
#487=CARTESIAN_POINT('Ctrl Pts',(-21.5434349521932,4.74276759337751,21.4838233231619));
#488=CARTESIAN_POINT('Ctrl Pts',(-21.413884736636,4.91186878380684,21.4819290477485));
#489=CARTESIAN_POINT('Ctrl Pts',(-21.2778769023561,5.07560615553329,21.4800347723352));
#490=CARTESIAN_POINT('Ctrl Pts',(-21.1418709887574,5.23934121498628,21.4781405236725));
#491=CARTESIAN_POINT('Ctrl Pts',(-20.9994078139766,5.39771239655531,21.4762462750098));
#492=CARTESIAN_POINT('Ctrl Pts',(-20.850929664428,5.55022802635931,21.4743520263471));
#493=CARTESIAN_POINT('Ctrl Pts',(-20.7024534313591,5.70274168756995,21.4724578021344));
#494=CARTESIAN_POINT('Ctrl Pts',(-20.5479625699798,5.84939975195546,21.4705635779217));
#495=CARTESIAN_POINT('Ctrl Pts',(-20.3879366950888,5.98974692152997,21.468669353709));
#496=CARTESIAN_POINT('Ctrl Pts',(-20.2279126914197,6.13009244999055,21.466775151646));
#497=CARTESIAN_POINT('Ctrl Pts',(-20.0623540097042,6.26412705067729,21.4648809495829));
#498=CARTESIAN_POINT('Ctrl Pts',(-19.8917746126313,6.39143462469958,21.4629867475198));
#499=CARTESIAN_POINT('Ctrl Pts',(-19.7183601016743,6.52085811352087,21.4610610628823));
#500=CARTESIAN_POINT('Ctrl Pts',(-19.5397567376276,6.64332881028618,21.4591353782448));
#501=CARTESIAN_POINT('Ctrl Pts',(-19.3565375453098,6.75845378427341,21.4572096936073));
#502=CARTESIAN_POINT('Ctrl Pts',(-19.1763007263934,6.87170479704559,21.4553153545432));
#503=CARTESIAN_POINT('Ctrl Pts',(-18.9915974405841,6.97784725572182,21.453421015479));
#504=CARTESIAN_POINT('Ctrl Pts',(-18.8030011662171,7.07655160254563,21.4515266764149));
#505=CARTESIAN_POINT('Ctrl Pts',(-18.6144109512635,7.17525277809556,21.4496323982141));
#506=CARTESIAN_POINT('Ctrl Pts',(-18.4219282407997,7.26651619293594,21.4477381200132));
#507=CARTESIAN_POINT('Ctrl Pts',(-18.2261506288397,7.35005850488883,21.4458438418124));
#508=CARTESIAN_POINT('Ctrl Pts',(-18.0303783559261,7.43359853856142,21.4439496152703));
#509=CARTESIAN_POINT('Ctrl Pts',(-17.8313116132994,7.50941778315645,21.4420553887283));
#510=CARTESIAN_POINT('Ctrl Pts',(-17.6295684024999,7.57728085827176,21.4401611621862));
#511=CARTESIAN_POINT('Ctrl Pts',(-17.4219663257007,7.6471147588828,21.4382119250223));
#512=CARTESIAN_POINT('Ctrl Pts',(-17.2115302686456,7.70852331305787,21.4362626878584));
#513=CARTESIAN_POINT('Ctrl Pts',(-16.9989519869616,7.76130465561531,21.4343134506945));
#514=CARTESIAN_POINT('Ctrl Pts',(-16.7923670161746,7.81259791108781,21.4324191692121));
#515=CARTESIAN_POINT('Ctrl Pts',(-16.5837592506811,7.8557437377739,21.4305248877296));
#516=CARTESIAN_POINT('Ctrl Pts',(-16.3737763496039,7.89060818194369,21.4286306062472));
#517=CARTESIAN_POINT('Ctrl Pts',(-16.1546556143144,7.92698982350954,21.4266538912426));
#518=CARTESIAN_POINT('Ctrl Pts',(-15.9340377011925,7.95435317054136,21.4246771762379));
#519=CARTESIAN_POINT('Ctrl Pts',(-15.7126684059963,7.97260572162867,21.4227004612333));
#520=CARTESIAN_POINT('Ctrl Pts',(-15.4912991108,7.99085827271598,21.4207237462286));
#521=CARTESIAN_POINT('Ctrl Pts',(-15.2691787714042,8.,21.418747031224));
#522=CARTESIAN_POINT('Ctrl Pts',(-15.0470582624978,8.,21.4167703162193));
#523=CARTESIAN_POINT('',(-15.0470582624978,8.,0.));
#524=CARTESIAN_POINT('Origin',(-11.0000002086163,0.,0.));
#525=CARTESIAN_POINT('',(-3.89925771306841,0.400000014901161,25.));
#526=CARTESIAN_POINT('',(-3.89925771306841,0.400000014901161,0.));
#527=CARTESIAN_POINT('',(-18.1007427041641,0.400000014901161,25.));
#528=CARTESIAN_POINT('Origin',(-11.0000002086163,0.,25.));
#529=CARTESIAN_POINT('',(-18.1007427041641,0.400000014901161,0.));
#530=CARTESIAN_POINT('Origin',(2.4424906545358E-14,0.400000014901161,15.0043691606391));
#531=CARTESIAN_POINT('',(-5.50000010430812,0.400000014901161,25.));
#532=CARTESIAN_POINT('',(7.70742050673123,0.400000014901161,11.8236140990427));
#533=CARTESIAN_POINT('',(7.70742050673123,0.400000014901161,7.50218458031956));
#534=CARTESIAN_POINT('',(13.1306576233654,0.400000014901161,11.8236140990427));
#535=CARTESIAN_POINT('',(3.85371025336563,0.400000014901161,11.8236140990427));
#536=CARTESIAN_POINT('',(13.1306576233654,0.400000014901161,13.4139916298409));
#537=CARTESIAN_POINT('',(23.1316114341393,0.400000014901019,21.5255475239185));
#538=CARTESIAN_POINT('',(23.1316114341393,0.400000014901161,10.765));
#539=CARTESIAN_POINT('',(15.180999218931,0.400000014901019,29.5013234878609));
#540=CARTESIAN_POINT('Ctrl Pts',(15.1809992189309,0.400000014898874,29.5013234878322));
#541=CARTESIAN_POINT('Ctrl Pts',(15.3502379539733,0.399999958598563,29.5013234658638));
#542=CARTESIAN_POINT('Ctrl Pts',(15.5212191552756,0.399999913242501,29.495989280933));
#543=CARTESIAN_POINT('Ctrl Pts',(15.6937056098764,0.399999878339214,29.4849286066548));
#544=CARTESIAN_POINT('Ctrl Pts',(15.8631945481457,0.399999844042486,29.4740601477704));
#545=CARTESIAN_POINT('Ctrl Pts',(16.0341370714473,0.399999819842395,29.4576625317713));
#546=CARTESIAN_POINT('Ctrl Pts',(16.2062707444947,0.39999980447462,29.4353307014371));
#547=CARTESIAN_POINT('Ctrl Pts',(16.3741245192702,0.399999789488946,29.4135541254025));
#548=CARTESIAN_POINT('Ctrl Pts',(16.5431110788699,0.39999978290735,29.3861347457137));
#549=CARTESIAN_POINT('Ctrl Pts',(16.7129489245654,0.399999782723813,29.3526654463584));
#550=CARTESIAN_POINT('Ctrl Pts',(16.7868581963606,0.399999782643942,29.3381004268087));
#551=CARTESIAN_POINT('Ctrl Pts',(16.8609281750176,0.399999783764392,29.3223892785396));
#552=CARTESIAN_POINT('Ctrl Pts',(16.9351332168224,0.399999785863599,29.3054965219851));
#553=CARTESIAN_POINT('Ctrl Pts',(17.1018156055684,0.399999790578925,29.2675513238353));
#554=CARTESIAN_POINT('Ctrl Pts',(17.2691830384151,0.399999800387318,29.2236441410638));
#555=CARTESIAN_POINT('Ctrl Pts',(17.4368412800042,0.399999812906942,29.1735737842695));
#556=CARTESIAN_POINT('Ctrl Pts',(17.5998411653085,0.399999825078711,29.1248946239893));
#557=CARTESIAN_POINT('Ctrl Pts',(17.7631160267893,0.39999983980943,29.0703899204257));
#558=CARTESIAN_POINT('Ctrl Pts',(17.9262547344927,0.399999853012223,29.0098706936691));
#559=CARTESIAN_POINT('Ctrl Pts',(18.0148937298645,0.399999860185765,28.9769884700945));
#560=CARTESIAN_POINT('Ctrl Pts',(18.1034916670917,0.399999866875329,28.9423306170113));
#561=CARTESIAN_POINT('Ctrl Pts',(18.1919761035526,0.399999872185521,28.9058664466708));
#562=CARTESIAN_POINT('Ctrl Pts',(18.3670707014297,0.399999882693424,28.833710489103));
#563=CARTESIAN_POINT('Ctrl Pts',(18.5392256194666,0.399999884922929,28.7555141090503));
#564=CARTESIAN_POINT('Ctrl Pts',(18.7081723979172,0.399999886483752,28.6715002287114));
#565=CARTESIAN_POINT('Ctrl Pts',(18.8745080847604,0.399999888020453,28.5887847924143));
#566=CARTESIAN_POINT('Ctrl Pts',(19.0377346433458,0.399999888900642,28.5004298490532));
#567=CARTESIAN_POINT('Ctrl Pts',(19.1975871574918,0.399999892989374,28.4065947861432));
#568=CARTESIAN_POINT('Ctrl Pts',(19.361203652471,0.399999897174381,28.3105502279358));
#569=CARTESIAN_POINT('Ctrl Pts',(19.5212860801799,0.399999904736721,28.2087643457924));
#570=CARTESIAN_POINT('Ctrl Pts',(19.6775308187145,0.399999916145532,28.1013552237772));
#571=CARTESIAN_POINT('Ctrl Pts',(19.833775557249,0.399999927554343,27.9939461017621));
#572=CARTESIAN_POINT('Ctrl Pts',(19.9861833007677,0.399999942812766,27.8809134573977));
#573=CARTESIAN_POINT('Ctrl Pts',(20.1344203450511,0.399999958634259,27.7623262842647));
#574=CARTESIAN_POINT('Ctrl Pts',(20.279216523673,0.399999974088505,27.6464917465065));
#575=CARTESIAN_POINT('Ctrl Pts',(20.420033657192,0.399999990067671,27.5253568380793));
#576=CARTESIAN_POINT('Ctrl Pts',(20.5566875785197,0.399999999997562,27.3991671627119));
#577=CARTESIAN_POINT('Ctrl Pts',(20.6268587831931,0.400000005096519,27.334369303625));
#578=CARTESIAN_POINT('Ctrl Pts',(20.6959316272769,0.400000008544423,27.2682380313764));
#579=CARTESIAN_POINT('Ctrl Pts',(20.7638769828934,0.400000009088755,27.2008032922114));
#580=CARTESIAN_POINT('Ctrl Pts',(20.89860424363,0.4000000101681,27.0670885209258));
#581=CARTESIAN_POINT('Ctrl Pts',(21.0283189796378,0.40000000070149,26.9288283529173));
#582=CARTESIAN_POINT('Ctrl Pts',(21.1528744893884,0.399999988791774,26.7863666297394));
#583=CARTESIAN_POINT('Ctrl Pts',(21.2789880777081,0.399999976733077,26.6421228371994));
#584=CARTESIAN_POINT('Ctrl Pts',(21.399813024747,0.399999962185083,26.4935712277225));
#585=CARTESIAN_POINT('Ctrl Pts',(21.5151621444351,0.399999950038465,26.3410284868456));
#586=CARTESIAN_POINT('Ctrl Pts',(21.6303286024587,0.399999937911082,26.1887273057745));
#587=CARTESIAN_POINT('Ctrl Pts',(21.740036960975,0.399999928185845,26.0324470508229));
#588=CARTESIAN_POINT('Ctrl Pts',(21.8440599438448,0.399999922077297,25.8724711919307));
#589=CARTESIAN_POINT('Ctrl Pts',(21.9465248558229,0.399999916060244,25.7148914739896));
#590=CARTESIAN_POINT('Ctrl Pts',(22.0434737181684,0.399999913553378,25.5537254461823));
#591=CARTESIAN_POINT('Ctrl Pts',(22.1346445791138,0.399999912113493,25.3892218936466));
#592=CARTESIAN_POINT('Ctrl Pts',(22.2114059098813,0.399999910901181,25.2507180835731));
#593=CARTESIAN_POINT('Ctrl Pts',(22.2840706944002,0.399999910387384,25.1098478320593));
#594=CARTESIAN_POINT('Ctrl Pts',(22.3524550151219,0.399999907064005,24.9667516125507));
#595=CARTESIAN_POINT('Ctrl Pts',(22.403079187559,0.399999904603743,24.8608190301245));
#596=CARTESIAN_POINT('Ctrl Pts',(22.451356924353,0.399999900558741,24.7536663710232));
#597=CARTESIAN_POINT('Ctrl Pts',(22.4972680116184,0.399999892922323,24.6453602567766));
#598=CARTESIAN_POINT('Ctrl Pts',(22.5668859570616,0.399999881342728,24.4811287039669));
#599=CARTESIAN_POINT('Ctrl Pts',(22.6308438606714,0.39999986689597,24.314767642156));
#600=CARTESIAN_POINT('Ctrl Pts',(22.6891603603468,0.399999854515467,24.1464956333598));
#601=CARTESIAN_POINT('Ctrl Pts',(22.7476865975155,0.399999842090437,23.9776184279298));
#602=CARTESIAN_POINT('Ctrl Pts',(22.8005308875504,0.39999983174298,23.8068159152319));
#603=CARTESIAN_POINT('Ctrl Pts',(22.8476609590678,0.399999825005982,23.6342969946793));
#604=CARTESIAN_POINT('Ctrl Pts',(22.8947910305853,0.399999818268985,23.4617780741266));
#605=CARTESIAN_POINT('Ctrl Pts',(22.936206982075,0.399999815136202,23.2875421408313));
#606=CARTESIAN_POINT('Ctrl Pts',(22.9718240126397,0.399999813769096,23.111795064122));
#607=CARTESIAN_POINT('Ctrl Pts',(23.0045655827328,0.39999981251236,22.9502365304793));
#608=CARTESIAN_POINT('Ctrl Pts',(23.0323618519425,0.399999818265533,22.7875822435139));
#609=CARTESIAN_POINT('Ctrl Pts',(23.0551128458803,0.39999982899171,22.6243629574575));
#610=CARTESIAN_POINT('Ctrl Pts',(23.0778519047936,0.39999983971226,22.4612292951859));
#611=CARTESIAN_POINT('Ctrl Pts',(23.095550918845,0.399999855391664,22.2975317839881));
#612=CARTESIAN_POINT('Ctrl Pts',(23.1081616661218,0.399999878693615,22.1338068400789));
#613=CARTESIAN_POINT('Ctrl Pts',(23.1207073352974,0.399999901875316,21.9709268031563));
#614=CARTESIAN_POINT('Ctrl Pts',(23.1282171200674,0.399999932599685,21.8080201603012));
#615=CARTESIAN_POINT('Ctrl Pts',(23.1306950059801,0.399999978211512,21.6456132529199));
#616=CARTESIAN_POINT('Ctrl Pts',(23.1313061341264,0.399999989460888,21.60555836914));
#617=CARTESIAN_POINT('Ctrl Pts',(23.1316114289708,0.400000001638449,21.5655338525772));
#618=CARTESIAN_POINT('Ctrl Pts',(23.1316114341106,0.400000014898874,21.5255475239185));
#619=CARTESIAN_POINT('',(10.6856040044414,0.400000014901161,29.5013234878609));
#620=CARTESIAN_POINT('',(7.75000000000003,0.400000014901161,29.5013234878609));
#621=CARTESIAN_POINT('',(10.6856040044414,0.400000014901161,22.4940729844617));
#622=CARTESIAN_POINT('',(10.6856040044414,0.400000014901161,22.5021845654184));
#623=CARTESIAN_POINT('',(1.50000002235174,0.400000014901161,22.4940729844617));
#624=CARTESIAN_POINT('',(5.34280200222073,0.400000014901161,22.4940729844617));
#625=CARTESIAN_POINT('',(1.50000002235174,0.400000014901161,29.5013234878609));
#626=CARTESIAN_POINT('',(1.50000002235174,0.400000014901161,18.7492210725504));
#627=CARTESIAN_POINT('',(-15.1809992189309,0.400000014901019,29.5013234878609));
#628=CARTESIAN_POINT('',(7.75000000000003,0.400000014901161,29.5013234878609));
#629=CARTESIAN_POINT('Ctrl Pts',(-23.1316114341107,0.400000014896253,21.5255475239185));
#630=CARTESIAN_POINT('Ctrl Pts',(-23.1316113653811,0.399999937739083,21.8209205106009));
#631=CARTESIAN_POINT('Ctrl Pts',(-23.1155251574471,0.39999989831345,22.1154622047977));
#632=CARTESIAN_POINT('Ctrl Pts',(-23.0832539015793,0.399999877342232,22.4080006360697));
#633=CARTESIAN_POINT('Ctrl Pts',(-23.0509826457115,0.399999856371013,22.7005390673418));
#634=CARTESIAN_POINT('Ctrl Pts',(-23.0025264941268,0.399999854174164,22.9910750322477));
#635=CARTESIAN_POINT('Ctrl Pts',(-22.9377348384597,0.399999859297108,23.2784625418738));
#636=CARTESIAN_POINT('Ctrl Pts',(-22.8772194071737,0.39999986408194,23.5468825862787));
#637=CARTESIAN_POINT('Ctrl Pts',(-22.8024541594866,0.399999875947558,23.8125561777861));
#638=CARTESIAN_POINT('Ctrl Pts',(-22.7140695409758,0.399999889688032,24.0740365698472));
#639=CARTESIAN_POINT('Ctrl Pts',(-22.6579823736608,0.399999898407471,24.2399669630112));
#640=CARTESIAN_POINT('Ctrl Pts',(-22.5964096993835,0.399999907800582,24.4042091455174));
#641=CARTESIAN_POINT('Ctrl Pts',(-22.5295019997234,0.399999915747336,24.5663952631066));
#642=CARTESIAN_POINT('Ctrl Pts',(-22.4410021052658,0.399999926258637,24.7809214590762));
#643=CARTESIAN_POINT('Ctrl Pts',(-22.3433074769963,0.399999931369493,24.9915206643272));
#644=CARTESIAN_POINT('Ctrl Pts',(-22.2367865082997,0.39999993667687,25.1974489306191));
#645=CARTESIAN_POINT('Ctrl Pts',(-22.129098184613,0.399999942042409,25.4056339487242));
#646=CARTESIAN_POINT('Ctrl Pts',(-22.0123887969101,0.399999947600502,25.6090458833162));
#647=CARTESIAN_POINT('Ctrl Pts',(-21.8869857928995,0.399999955261245,25.8069116847823));
#648=CARTESIAN_POINT('Ctrl Pts',(-21.7614246567382,0.399999962931649,26.0050269933875));
#649=CARTESIAN_POINT('Ctrl Pts',(-21.6271476780151,0.399999972696454,26.1975829708739));
#650=CARTESIAN_POINT('Ctrl Pts',(-21.4844343819903,0.399999982785521,26.3837872899882));
#651=CARTESIAN_POINT('Ctrl Pts',(-21.4587823916561,0.39999998459898,26.4172565708972));
#652=CARTESIAN_POINT('Ctrl Pts',(-21.4328577173578,0.39999998641362,26.4505205801444));
#653=CARTESIAN_POINT('Ctrl Pts',(-21.4066618252407,0.399999988207073,26.4835746296523));
#654=CARTESIAN_POINT('Ctrl Pts',(-21.2615920866933,0.399999998139,26.6666240291004));
#655=CARTESIAN_POINT('Ctrl Pts',(-21.1082078560912,0.400000007686395,26.8432370978322));
#656=CARTESIAN_POINT('Ctrl Pts',(-20.9472281066968,0.400000011077944,27.0129057337803));
#657=CARTESIAN_POINT('Ctrl Pts',(-20.9043779367067,0.400000011980718,27.0580687429147));
#658=CARTESIAN_POINT('Ctrl Pts',(-20.8609893834211,0.400000012429215,27.1027395206146));
#659=CARTESIAN_POINT('Ctrl Pts',(-20.8170755710532,0.400000012275059,27.1469080443453));
#660=CARTESIAN_POINT('Ctrl Pts',(-20.6727161597748,0.400000011768294,27.2921047771953));
#661=CARTESIAN_POINT('Ctrl Pts',(-20.5229253881737,0.400000002390972,27.4316334073319));
#662=CARTESIAN_POINT('Ctrl Pts',(-20.368153617965,0.399999991485584,27.5652220324994));
#663=CARTESIAN_POINT('Ctrl Pts',(-20.2125281782118,0.399999980520046,27.6995474880373));
#664=CARTESIAN_POINT('Ctrl Pts',(-20.0518660581366,0.399999968010774,27.8278677215643));
#665=CARTESIAN_POINT('Ctrl Pts',(-19.8865890013854,0.39999995786645,27.949868573982));
#666=CARTESIAN_POINT('Ctrl Pts',(-19.7224294725678,0.399999947790717,28.0710445123844));
#667=CARTESIAN_POINT('Ctrl Pts',(-19.5537165758695,0.399999940043108,28.185986648393));
#668=CARTESIAN_POINT('Ctrl Pts',(-19.3808371952537,0.399999934994041,28.2943434232685));
#669=CARTESIAN_POINT('Ctrl Pts',(-19.2115772249107,0.399999930050681,28.4004316359666));
#670=CARTESIAN_POINT('Ctrl Pts',(-19.0383227969715,0.399999927682679,28.5002076144923));
#671=CARTESIAN_POINT('Ctrl Pts',(-18.8614208050234,0.399999925042857,28.5932945294269));
#672=CARTESIAN_POINT('Ctrl Pts',(-18.7811342484155,0.39999992384478,28.6355418087427));
#673=CARTESIAN_POINT('Ctrl Pts',(-18.7000962060273,0.399999922547634,28.6764106182627));
#674=CARTESIAN_POINT('Ctrl Pts',(-18.6183384753394,0.399999920670118,28.7158622081186));
#675=CARTESIAN_POINT('Ctrl Pts',(-18.5031775049161,0.399999918025517,28.7714322849093));
#676=CARTESIAN_POINT('Ctrl Pts',(-18.3865886119089,0.399999914243733,28.8241907933514));
#677=CARTESIAN_POINT('Ctrl Pts',(-18.2686684274365,0.399999907645576,28.8741085006122));
#678=CARTESIAN_POINT('Ctrl Pts',(-18.004834445022,0.399999892882896,28.9857941086236));
#679=CARTESIAN_POINT('Ctrl Pts',(-17.7348681583055,0.399999877604533,29.0830321206958));
#680=CARTESIAN_POINT('Ctrl Pts',(-17.4602893917481,0.39999986636793,29.1654624508392));
#681=CARTESIAN_POINT('Ctrl Pts',(-17.2268923083152,0.399999856816607,29.2355297720785));
#682=CARTESIAN_POINT('Ctrl Pts',(-16.9901628615407,0.399999850157867,29.2948975198381));
#683=CARTESIAN_POINT('Ctrl Pts',(-16.7510560032319,0.399999850015319,29.3433240311208));
#684=CARTESIAN_POINT('Ctrl Pts',(-16.5963121794592,0.399999849923065,29.3746644267115));
#685=CARTESIAN_POINT('Ctrl Pts',(-16.4412889958691,0.399999849804322,29.4012811241585));
#686=CARTESIAN_POINT('Ctrl Pts',(-16.2860599521819,0.399999855260458,29.4232497621158));
#687=CARTESIAN_POINT('Ctrl Pts',(-16.1302428577805,0.399999860737264,29.4453016233728));
#688=CARTESIAN_POINT('Ctrl Pts',(-15.9742178244568,0.399999871820853,29.4626702014692));
#689=CARTESIAN_POINT('Ctrl Pts',(-15.8180473848855,0.399999891156324,29.4753807560256));
#690=CARTESIAN_POINT('Ctrl Pts',(-15.6621735857497,0.399999910455067,29.4880671673162));
#691=CARTESIAN_POINT('Ctrl Pts',(-15.5061544169268,0.399999937961622,29.4961132676048));
#692=CARTESIAN_POINT('Ctrl Pts',(-15.3500480613978,0.39999997348074,29.49949259725));
#693=CARTESIAN_POINT('Ctrl Pts',(-15.2937088680362,0.399999986299683,29.5007122061869));
#694=CARTESIAN_POINT('Ctrl Pts',(-15.2373583185018,0.40000000013649,29.5013234746324));
#695=CARTESIAN_POINT('Ctrl Pts',(-15.1809992189309,0.400000014896252,29.5013234878323));
#696=CARTESIAN_POINT('Origin',(7.70742050673123,0.400000014901161,0.));
#697=CARTESIAN_POINT('',(7.70742050673123,3.40000001490116,11.8236140990427));
#698=CARTESIAN_POINT('',(7.70742050673123,3.40000001490116,8.22665868558639));
#699=CARTESIAN_POINT('',(7.70742050673123,0.400000014901161,11.8236140990427));
#700=CARTESIAN_POINT('Origin',(13.1306576233654,0.400000014901161,11.8236140990427));
#701=CARTESIAN_POINT('',(13.1306576233654,3.40000001490116,11.8236140990427));
#702=CARTESIAN_POINT('',(13.1306576233654,0.400000014901161,11.8236140990427));
#703=CARTESIAN_POINT('',(13.1306576233654,3.40000001490116,11.8236140990427));
#704=CARTESIAN_POINT('Origin',(7.70742050673123,0.400000014901161,11.8236140990427));
#705=CARTESIAN_POINT('',(7.70742050673123,3.40000001490116,11.8236140990427));
#706=CARTESIAN_POINT('Origin',(10.4190390650483,3.40000001490116,5.91180704952133));
#707=CARTESIAN_POINT('Origin',(7.75000000000003,-0.0999999999999987,21.4167703162193));
#708=CARTESIAN_POINT('',(10.6856040044414,1.70000001490116,29.314238261476));
#709=CARTESIAN_POINT('Origin',(10.6856040044414,-0.0999999999999988,21.4167703162193));
#710=CARTESIAN_POINT('',(15.0470582624978,8.,21.4167703162193));
#711=CARTESIAN_POINT('Ctrl Pts',(15.180999218931,0.400000014900876,29.5013234878609));
#712=CARTESIAN_POINT('Ctrl Pts',(15.1786668139798,0.61244381876794,29.4881846163804));
#713=CARTESIAN_POINT('Ctrl Pts',(15.1763344090286,0.824369328065513,29.4666676040782));
#714=CARTESIAN_POINT('Ctrl Pts',(15.1740020040775,1.03511863173799,29.4368392493322));
#715=CARTESIAN_POINT('Ctrl Pts',(15.1716696123213,1.24586674314451,29.4070110633332));
#716=CARTESIAN_POINT('Ctrl Pts',(15.1693372205652,1.45543839100648,29.368871667367));
#717=CARTESIAN_POINT('Ctrl Pts',(15.1670048288091,1.6631829790557,29.3225394617464));
#718=CARTESIAN_POINT('Ctrl Pts',(15.16467244954,1.87092645489432,29.2762075041765));
#719=CARTESIAN_POINT('Ctrl Pts',(15.1623400702709,2.07684262313177,29.2216828843499));
#720=CARTESIAN_POINT('Ctrl Pts',(15.1600076910018,2.2802922424448,29.1591348672178));
#721=CARTESIAN_POINT('Ctrl Pts',(15.157654577908,2.48555043929279,29.0960308257538));
#722=CARTESIAN_POINT('Ctrl Pts',(15.1553014648141,2.68829774595831,29.0247601116453));
#723=CARTESIAN_POINT('Ctrl Pts',(15.1529483517203,2.88789352912551,28.9455479234149));
#724=CARTESIAN_POINT('Ctrl Pts',(15.1506157522318,3.08574930705121,28.8670262789452));
#725=CARTESIAN_POINT('Ctrl Pts',(15.1482831527432,3.28050803986777,28.7807011924497));
#726=CARTESIAN_POINT('Ctrl Pts',(15.1459505532547,3.47156500906224,28.6868407000631));
#727=CARTESIAN_POINT('Ctrl Pts',(15.1436179952065,3.66261858399084,28.5929818751764));
#728=CARTESIAN_POINT('Ctrl Pts',(15.1412854371583,3.84997028093115,28.4915880331123));
#729=CARTESIAN_POINT('Ctrl Pts',(15.1389528791101,4.03303840058688,28.3829739867471));
#730=CARTESIAN_POINT('Ctrl Pts',(15.136620359668,4.21610349029086,28.2743617380478));
#731=CARTESIAN_POINT('Ctrl Pts',(15.1342878402258,4.39488490891528,28.1585296639892));
#732=CARTESIAN_POINT('Ctrl Pts',(15.1319553207837,4.56882758496715,28.0358373941277));
#733=CARTESIAN_POINT('Ctrl Pts',(15.1296228371138,4.74276759337708,27.9131470059151));
#734=CARTESIAN_POINT('Ctrl Pts',(15.127290353444,4.91186878380641,27.783596790358));
#735=CARTESIAN_POINT('Ctrl Pts',(15.1249578697741,5.07560615553286,27.647588956078));
#736=CARTESIAN_POINT('Ctrl Pts',(15.1226254190432,5.23934121498584,27.5115830424794));
#737=CARTESIAN_POINT('Ctrl Pts',(15.1202929683123,5.39771239655487,27.3691198676986));
#738=CARTESIAN_POINT('Ctrl Pts',(15.1179605175814,5.55022802635888,27.22064171815));
#739=CARTESIAN_POINT('Ctrl Pts',(15.1156280969566,5.70274168756955,27.0721654850811));
#740=CARTESIAN_POINT('Ctrl Pts',(15.1132956763318,5.8493997519551,26.9176746237018));
#741=CARTESIAN_POINT('Ctrl Pts',(15.110963255707,5.98974692152965,26.7576487488108));
#742=CARTESIAN_POINT('Ctrl Pts',(15.1086308623557,6.13009244999023,26.5976247451417));
#743=CARTESIAN_POINT('Ctrl Pts',(15.1062984690045,6.26412705067697,26.4320660634262));
#744=CARTESIAN_POINT('Ctrl Pts',(15.1039660756532,6.39143462469925,26.2614866663533));
#745=CARTESIAN_POINT('Ctrl Pts',(15.1015949167718,6.52085811352058,26.0880721553963));
#746=CARTESIAN_POINT('Ctrl Pts',(15.0992237578903,6.6433288102859,25.9094687913496));
#747=CARTESIAN_POINT('Ctrl Pts',(15.0968525990088,6.75845378427316,25.7262495990317));
#748=CARTESIAN_POINT('Ctrl Pts',(15.0945200369637,6.87170479704533,25.5460127801154));
#749=CARTESIAN_POINT('Ctrl Pts',(15.0921874749185,6.97784725572158,25.3613094943061));
#750=CARTESIAN_POINT('Ctrl Pts',(15.0898549128734,7.07655160254539,25.1727132199392));
#751=CARTESIAN_POINT('Ctrl Pts',(15.0875224257712,7.17525277809537,24.9841230049855));
#752=CARTESIAN_POINT('Ctrl Pts',(15.0851899386689,7.2665161929358,24.7916402945216));
#753=CARTESIAN_POINT('Ctrl Pts',(15.0828574515667,7.35005850488872,24.5958626825615));
#754=CARTESIAN_POINT('Ctrl Pts',(15.0805250280737,7.43359853856127,24.400090409648));
#755=CARTESIAN_POINT('Ctrl Pts',(15.0781926045807,7.50941778315626,24.2010236670215));
#756=CARTESIAN_POINT('Ctrl Pts',(15.0758601810877,7.57728085827155,23.9992804562221));
#757=CARTESIAN_POINT('Ctrl Pts',(15.0734600212052,7.64711475888262,23.7916783794228));
#758=CARTESIAN_POINT('Ctrl Pts',(15.0710598613227,7.70852331305773,23.5812423223677));
#759=CARTESIAN_POINT('Ctrl Pts',(15.0686597014402,7.76130465561519,23.3686640406836));
#760=CARTESIAN_POINT('Ctrl Pts',(15.0663272102973,7.81259791108771,23.1620790698966));
#761=CARTESIAN_POINT('Ctrl Pts',(15.0639947191543,7.85574373777381,22.9534713044031));
#762=CARTESIAN_POINT('Ctrl Pts',(15.0616622280114,7.89060818194361,22.743488403326));
#763=CARTESIAN_POINT('Ctrl Pts',(15.0592282337591,7.92698982350949,22.5243676680363));
#764=CARTESIAN_POINT('Ctrl Pts',(15.0567942395069,7.95435317054133,22.3037497549144));
#765=CARTESIAN_POINT('Ctrl Pts',(15.0543602452546,7.97260572162865,22.0823804597181));
#766=CARTESIAN_POINT('Ctrl Pts',(15.0519262510023,7.99085827271597,21.8610111645218));
#767=CARTESIAN_POINT('Ctrl Pts',(15.04949225675,8.,21.6388908251259));
#768=CARTESIAN_POINT('Ctrl Pts',(15.0470582624978,8.,21.4167703162193));
#769=CARTESIAN_POINT('',(7.75000000000003,8.,21.4167703162193));
#770=CARTESIAN_POINT('Ctrl Pts',(-15.0470582624978,8.,21.4167703162193));
#771=CARTESIAN_POINT('Ctrl Pts',(-15.0493906674489,8.,21.6296200278595));
#772=CARTESIAN_POINT('Ctrl Pts',(-15.0517230724001,7.99160584293263,21.8424696025281));
#773=CARTESIAN_POINT('Ctrl Pts',(-15.0540554773513,7.97484358799556,22.0546582604596));
#774=CARTESIAN_POINT('Ctrl Pts',(-15.0563878691074,7.95808142788712,22.2668457179821));
#775=CARTESIAN_POINT('Ctrl Pts',(-15.0587202608635,7.93295128621189,22.4783719931623));
#776=CARTESIAN_POINT('Ctrl Pts',(-15.0610526526196,7.89953117722686,22.6885804217679));
#777=CARTESIAN_POINT('Ctrl Pts',(-15.0633850318887,7.86611124716445,22.898787724972));
#778=CARTESIAN_POINT('Ctrl Pts',(-15.0657174111578,7.82440148161335,23.1076769251868));
#779=CARTESIAN_POINT('Ctrl Pts',(-15.0680497904269,7.7745313633915,23.3145995516786));
#780=CARTESIAN_POINT('Ctrl Pts',(-15.0704029035208,7.72421792177687,23.5233616292101));
#781=CARTESIAN_POINT('Ctrl Pts',(-15.0727560166146,7.66559838826618,23.7301217204768));
#782=CARTESIAN_POINT('Ctrl Pts',(-15.0751091297084,7.59885798665717,23.9342265127171));
#783=CARTESIAN_POINT('Ctrl Pts',(-15.0774417291969,7.53269940419674,24.1365519917741));
#784=CARTESIAN_POINT('Ctrl Pts',(-15.0797743286855,7.45856108536848,24.3362680258026));
#785=CARTESIAN_POINT('Ctrl Pts',(-15.082106928174,7.37667322685352,24.5327545040566));
#786=CARTESIAN_POINT('Ctrl Pts',(-15.0844394862222,7.29478682313586,24.7292374915855));
#787=CARTESIAN_POINT('Ctrl Pts',(-15.0867720442704,7.20515126064427,24.9224907851971));
#788=CARTESIAN_POINT('Ctrl Pts',(-15.0891046023186,7.10804484453675,25.1119143620107));
#789=CARTESIAN_POINT('Ctrl Pts',(-15.0914371217607,7.01094003563287,25.3013348036837));
#790=CARTESIAN_POINT('Ctrl Pts',(-15.0937696412029,6.90636474554244,25.4869254115512));
#791=CARTESIAN_POINT('Ctrl Pts',(-15.096102160645,6.79464365432924,25.6681099732942));
#792=CARTESIAN_POINT('Ctrl Pts',(-15.0984346443149,6.68292427650739,25.8492917563313));
#793=CARTESIAN_POINT('Ctrl Pts',(-15.1007671279847,6.56405946066361,26.0260673952353));
#794=CARTESIAN_POINT('Ctrl Pts',(-15.1030996116546,6.43841824094847,26.1978880627753));
#795=CARTESIAN_POINT('Ctrl Pts',(-15.1054320623855,6.31277879551883,26.3697063038909));
#796=CARTESIAN_POINT('Ctrl Pts',(-15.1077645131164,6.18036329942344,26.5365694925038));
#797=CARTESIAN_POINT('Ctrl Pts',(-15.1100969638473,6.04158284538911,26.6979595907315));
#798=CARTESIAN_POINT('Ctrl Pts',(-15.1124293844721,5.90280418266161,26.8593476058187));
#799=CARTESIAN_POINT('Ctrl Pts',(-15.1147618050969,5.75766090501032,27.0152624641602));
#800=CARTESIAN_POINT('Ctrl Pts',(-15.1170942257217,5.6066036077861,27.1652201301781));
#801=CARTESIAN_POINT('Ctrl Pts',(-15.119426619073,5.45554807691209,27.315176042704));
#802=CARTESIAN_POINT('Ctrl Pts',(-15.1217590124242,5.29857885925601,27.4591747092986));
#803=CARTESIAN_POINT('Ctrl Pts',(-15.1240914057755,5.13618325225443,27.5967690984854));
#804=CARTESIAN_POINT('Ctrl Pts',(-15.126462564657,4.97108855000414,27.7366503744235));
#805=CARTESIAN_POINT('Ctrl Pts',(-15.1288337235384,4.80038570518161,27.8699124169731));
#806=CARTESIAN_POINT('Ctrl Pts',(-15.1312048824199,4.62462239485451,27.996127672834));
#807=CARTESIAN_POINT('Ctrl Pts',(-15.1335374444651,4.45172009387386,28.1202884440245));
#808=CARTESIAN_POINT('Ctrl Pts',(-15.1358700065102,4.27392104397486,28.2376299250854));
#809=CARTESIAN_POINT('Ctrl Pts',(-15.1382025685553,4.09177728678837,28.347787786834));
#810=CARTESIAN_POINT('Ctrl Pts',(-15.1405350556576,3.90963938170215,28.4579421093184));
#811=CARTESIAN_POINT('Ctrl Pts',(-15.1428675427598,3.72315728311125,28.5609131325287));
#812=CARTESIAN_POINT('Ctrl Pts',(-15.145200029862,3.53290995514995,28.6563811661043));
#813=CARTESIAN_POINT('Ctrl Pts',(-15.147532453355,3.34266781541883,28.7518465961736));
#814=CARTESIAN_POINT('Ctrl Pts',(-15.149864876848,3.14866089664807,28.8398093231664));
#815=CARTESIAN_POINT('Ctrl Pts',(-15.152197300341,2.95149149218425,28.9199962673105));
#816=CARTESIAN_POINT('Ctrl Pts',(-15.1545974602235,2.7485960505693,29.0025119369607));
#817=CARTESIAN_POINT('Ctrl Pts',(-15.156997620106,2.54235195001492,29.0767932645021));
#818=CARTESIAN_POINT('Ctrl Pts',(-15.1593977799885,2.333437166145,29.1425960687473));
#819=CARTESIAN_POINT('Ctrl Pts',(-15.1617302711315,2.13041240660314,29.2065436662394));
#820=CARTESIAN_POINT('Ctrl Pts',(-15.1640627622744,1.92486578213844,29.2624842360954));
#821=CARTESIAN_POINT('Ctrl Pts',(-15.1663952534173,1.71743544802865,29.3102441010779));
#822=CARTESIAN_POINT('Ctrl Pts',(-15.1688292476696,1.50097835986403,29.3600823339941));
#823=CARTESIAN_POINT('Ctrl Pts',(-15.1712632419219,1.28247026414457,29.4010118887942));
#824=CARTESIAN_POINT('Ctrl Pts',(-15.1736972361741,1.06264982442014,29.432894403693));
#825=CARTESIAN_POINT('Ctrl Pts',(-15.1761312304264,0.842829384695719,29.4647769185918));
#826=CARTESIAN_POINT('Ctrl Pts',(-15.1785652246787,0.621696936477075,29.4876123449272));
#827=CARTESIAN_POINT('Ctrl Pts',(-15.1809992189309,0.400000014900876,29.5013234878609));
#828=CARTESIAN_POINT('',(1.50000002235174,1.70000001490116,29.314238261476));
#829=CARTESIAN_POINT('Origin',(1.50000002235174,-0.0999999999999985,21.4167703162193));
#830=CARTESIAN_POINT('',(7.75000000000003,1.70000001490116,29.314238261476));
#831=CARTESIAN_POINT('Origin',(15.0470582624978,-0.099999999999999,10.765));
#832=CARTESIAN_POINT('',(15.0470582624978,8.,10.765));
#833=CARTESIAN_POINT('Ctrl Pts',(15.0470582624978,8.,21.4167703162193));
#834=CARTESIAN_POINT('Ctrl Pts',(15.259907974138,8.,21.418664527703));
#835=CARTESIAN_POINT('Ctrl Pts',(15.4727575488067,7.99160584293263,21.4205587391867));
#836=CARTESIAN_POINT('Ctrl Pts',(15.6849462067382,7.97484358799555,21.4224529506704));
#837=CARTESIAN_POINT('Ctrl Pts',(15.8971336642607,7.9580814278871,21.424347151438));
#838=CARTESIAN_POINT('Ctrl Pts',(16.108659939441,7.93295128621186,21.4262413522056));
#839=CARTESIAN_POINT('Ctrl Pts',(16.3188683680465,7.89953117722683,21.4281355529733));
#840=CARTESIAN_POINT('Ctrl Pts',(16.5290756712506,7.8661112471644,21.4300297435998));
#841=CARTESIAN_POINT('Ctrl Pts',(16.7379648714656,7.82440148161328,21.4319239342264));
#842=CARTESIAN_POINT('Ctrl Pts',(16.9448874979574,7.7745313633914,21.4338181248529));
#843=CARTESIAN_POINT('Ctrl Pts',(17.1536495754889,7.72421792177677,21.4357291540001));
#844=CARTESIAN_POINT('Ctrl Pts',(17.3604096667556,7.66559838826607,21.4376401831473));
#845=CARTESIAN_POINT('Ctrl Pts',(17.5645144589959,7.59885798665706,21.4395512122945));
#846=CARTESIAN_POINT('Ctrl Pts',(17.7668399380529,7.53269940419661,21.4414455817675));
#847=CARTESIAN_POINT('Ctrl Pts',(17.9665559720815,7.45856108536833,21.4433399512404));
#848=CARTESIAN_POINT('Ctrl Pts',(18.1630424503355,7.37667322685334,21.4452343207133));
#849=CARTESIAN_POINT('Ctrl Pts',(18.3595254378644,7.29478682313566,21.4471286565314));
#850=CARTESIAN_POINT('Ctrl Pts',(18.552778731476,7.20515126064404,21.4490229923495));
#851=CARTESIAN_POINT('Ctrl Pts',(18.7422023082896,7.10804484453651,21.4509173281676));
#852=CARTESIAN_POINT('Ctrl Pts',(18.9316227499626,7.01094003563263,21.4528116326326));
#853=CARTESIAN_POINT('Ctrl Pts',(19.11721335783,6.9063647455422,21.4547059370976));
#854=CARTESIAN_POINT('Ctrl Pts',(19.298397919573,6.79464365432901,21.4566002415626));
#855=CARTESIAN_POINT('Ctrl Pts',(19.4795797026101,6.68292427650717,21.458494516976));
#856=CARTESIAN_POINT('Ctrl Pts',(19.6563553415141,6.5640594606634,21.4603887923893));
#857=CARTESIAN_POINT('Ctrl Pts',(19.828176009054,6.43841824094828,21.4622830678027));
#858=CARTESIAN_POINT('Ctrl Pts',(19.9999942501695,6.31277879551871,21.4641773164653));
#859=CARTESIAN_POINT('Ctrl Pts',(20.1668574387823,6.18036329942339,21.466071565128));
#860=CARTESIAN_POINT('Ctrl Pts',(20.3282475370099,6.04158284538913,21.4679658137907));
#861=CARTESIAN_POINT('Ctrl Pts',(20.4896355520972,5.90280418266158,21.4698600380034));
#862=CARTESIAN_POINT('Ctrl Pts',(20.6455504104388,5.75766090501022,21.4717542622161));
#863=CARTESIAN_POINT('Ctrl Pts',(20.7955080764567,5.60660360778594,21.4736484864288));
#864=CARTESIAN_POINT('Ctrl Pts',(20.9454639889828,5.45554807691174,21.4755426884919));
#865=CARTESIAN_POINT('Ctrl Pts',(21.0894626555775,5.29857885925544,21.4774368905549));
#866=CARTESIAN_POINT('Ctrl Pts',(21.2270570447645,5.13618325225365,21.479331092618));
#867=CARTESIAN_POINT('Ctrl Pts',(21.3669383207025,4.97108855000337,21.4812567772555));
#868=CARTESIAN_POINT('Ctrl Pts',(21.5002003632521,4.80038570518086,21.483182461893));
#869=CARTESIAN_POINT('Ctrl Pts',(21.6264156191129,4.62462239485378,21.4851081465306));
#870=CARTESIAN_POINT('Ctrl Pts',(21.7505763903034,4.45172009387311,21.4870024855947));
#871=CARTESIAN_POINT('Ctrl Pts',(21.8679178713644,4.2739210439741,21.4888968246588));
#872=CARTESIAN_POINT('Ctrl Pts',(21.9780757331129,4.09177728678759,21.4907911637229));
#873=CARTESIAN_POINT('Ctrl Pts',(22.0882300555973,3.90963938170139,21.4926854419238));
#874=CARTESIAN_POINT('Ctrl Pts',(22.1912010788075,3.72315728311051,21.4945797201246));
#875=CARTESIAN_POINT('Ctrl Pts',(22.2866691123831,3.53290995514923,21.4964739983255));
#876=CARTESIAN_POINT('Ctrl Pts',(22.3821345424524,3.34266781541806,21.4983682248675));
#877=CARTESIAN_POINT('Ctrl Pts',(22.4700972694452,3.14866089664726,21.5002624514096));
#878=CARTESIAN_POINT('Ctrl Pts',(22.5502842135892,2.95149149218339,21.5021566779516));
#879=CARTESIAN_POINT('Ctrl Pts',(22.6327998832394,2.7485960505685,21.5041059151155));
#880=CARTESIAN_POINT('Ctrl Pts',(22.7070812107808,2.54235195001419,21.5060551522794));
#881=CARTESIAN_POINT('Ctrl Pts',(22.7728840150259,2.33343716614434,21.5080043894433));
#882=CARTESIAN_POINT('Ctrl Pts',(22.836831612518,2.13041240660252,21.5098986709258));
#883=CARTESIAN_POINT('Ctrl Pts',(22.892772182374,1.92486578213788,21.5117929524082));
#884=CARTESIAN_POINT('Ctrl Pts',(22.9405320473564,1.71743544802814,21.5136872338906));
#885=CARTESIAN_POINT('Ctrl Pts',(22.9903702802726,1.5009783598636,21.5156639488953));
#886=CARTESIAN_POINT('Ctrl Pts',(23.0312998350727,1.28247026414422,21.5176406638999));
#887=CARTESIAN_POINT('Ctrl Pts',(23.0631823499715,1.06264982441988,21.5196173789046));
#888=CARTESIAN_POINT('Ctrl Pts',(23.0950648648703,0.842829384695544,21.5215940939092));
#889=CARTESIAN_POINT('Ctrl Pts',(23.1179002912056,0.621696936476988,21.5235708089138));
#890=CARTESIAN_POINT('Ctrl Pts',(23.1316114341393,0.400000014900875,21.5255475239185));
#891=CARTESIAN_POINT('Ctrl Pts',(15.0470582624978,8.,21.4167703162193));
#892=CARTESIAN_POINT('Ctrl Pts',(15.0470582624978,8.,21.4167703162193));
#893=CARTESIAN_POINT('Ctrl Pts',(15.0470582624978,8.,21.4167703162194));
#894=CARTESIAN_POINT('Ctrl Pts',(15.0470582624978,8.,21.4167703162193));
#895=CARTESIAN_POINT('Ctrl Pts',(15.0470582624978,8.,21.4167703162193));
#896=CARTESIAN_POINT('Ctrl Pts',(15.0470582624978,8.,21.4167703162193));
#897=CARTESIAN_POINT('Ctrl Pts',(15.0470582624978,8.,21.4167703162193));
#898=CARTESIAN_POINT('Ctrl Pts',(16.2111826421152,8.,21.4271301976179));
#899=CARTESIAN_POINT('Ctrl Pts',(16.1222432139527,8.00184123764435,21.5140498879044));
#900=CARTESIAN_POINT('Ctrl Pts',(15.9338377659234,8.00267064395726,21.7018247900844));
#901=CARTESIAN_POINT('Ctrl Pts',(15.5277895498481,8.00369020017028,22.1075043090675));
#902=CARTESIAN_POINT('Ctrl Pts',(15.2324349006595,8.00217898399991,22.4053121437868));
#903=CARTESIAN_POINT('Ctrl Pts',(15.1031840576419,8.00092409920303,22.5363325313867));
#904=CARTESIAN_POINT('Ctrl Pts',(15.0598147254776,8.,22.5808946958368));
#905=CARTESIAN_POINT('Ctrl Pts',(17.9558242304687,7.61655034622686,21.4426700197157));
#906=CARTESIAN_POINT('Ctrl Pts',(17.8218479605923,7.66759484573048,21.7075235796839));
#907=CARTESIAN_POINT('Ctrl Pts',(17.4649485697255,7.74082416059214,22.3002548054825));
#908=CARTESIAN_POINT('Ctrl Pts',(16.4761053820385,7.76277034169048,23.3797468709621));
#909=CARTESIAN_POINT('Ctrl Pts',(15.6179926714284,7.7080048537327,24.0355921978907));
#910=CARTESIAN_POINT('Ctrl Pts',(15.2112172299578,7.64211873163394,24.2584485887123));
#911=CARTESIAN_POINT('Ctrl Pts',(15.0789494199472,7.61655034622686,24.3255362841902));
#912=CARTESIAN_POINT('Ctrl Pts',(20.4686593974853,6.11395110702747,21.4685697232122));
#913=CARTESIAN_POINT('Ctrl Pts',(20.3946886969874,6.18863818071775,22.0700054087767));
#914=CARTESIAN_POINT('Ctrl Pts',(19.9535335473172,6.29519904803104,23.4263177885209));
#915=CARTESIAN_POINT('Ctrl Pts',(18.172335498514,6.32725936564028,25.5444948663235));
#916=CARTESIAN_POINT('Ctrl Pts',(16.3502870047234,6.24727338287873,26.5950827525017));
#917=CARTESIAN_POINT('Ctrl Pts',(15.4113843508654,6.15130950010525,26.8013881956775));
#918=CARTESIAN_POINT('Ctrl Pts',(15.1108405773967,6.11395110702747,26.8383714512069));
#919=CARTESIAN_POINT('Ctrl Pts',(22.4074426635566,3.85395686496298,21.4944694267085));
#920=CARTESIAN_POINT('Ctrl Pts',(22.4097571716716,3.87534245805118,22.4330828342452));
#921=CARTESIAN_POINT('Ctrl Pts',(21.9612039861929,3.90554454989747,24.4878099286904));
#922=CARTESIAN_POINT('Ctrl Pts',(19.6704554654479,3.91460211105267,27.3580309932286));
#923=CARTESIAN_POINT('Ctrl Pts',(17.0657178816269,3.89177259887164,28.6244010294351));
#924=CARTESIAN_POINT('Ctrl Pts',(15.6119136228451,3.86458535179209,28.778348825706));
#925=CARTESIAN_POINT('Ctrl Pts',(15.1427317348461,3.85395686496298,28.7771547172781));
#926=CARTESIAN_POINT('Ctrl Pts',(23.0597875663433,1.56173243168552,21.5151891895057));
#927=CARTESIAN_POINT('Ctrl Pts',(23.0587292584344,1.55969963607225,22.6400625739511));
#928=CARTESIAN_POINT('Ctrl Pts',(22.5670730131063,1.55933763299673,24.9720228163903));
#929=CARTESIAN_POINT('Ctrl Pts',(20.2302879431863,1.55811529698046,27.9401718461139));
#930=CARTESIAN_POINT('Ctrl Pts',(17.4364853935348,1.55964085852743,29.2533045661483));
#931=CARTESIAN_POINT('Ctrl Pts',(15.7305906786018,1.56070021235713,29.4289666145211));
#932=CARTESIAN_POINT('Ctrl Pts',(15.1682446608056,1.56173243168552,29.4294996200648));
#933=CARTESIAN_POINT('Ctrl Pts',(23.1316221626776,0.399826513812142,21.5255490709042));
#934=CARTESIAN_POINT('Ctrl Pts',(23.1316179718264,0.399894299739897,22.7016525177696));
#935=CARTESIAN_POINT('Ctrl Pts',(22.6034257642325,0.399988593041806,25.0762849908574));
#936=CARTESIAN_POINT('Ctrl Pts',(20.3053212543617,0.400012738371254,27.9810466939283));
#937=CARTESIAN_POINT('Ctrl Pts',(17.5357314158745,0.399940564830286,29.3080807270068));
#938=CARTESIAN_POINT('Ctrl Pts',(15.7689594519474,0.399858181004276,29.5013322585815));
#939=CARTESIAN_POINT('Ctrl Pts',(15.1810011237854,0.399826513812142,29.5013342163991));
#940=CARTESIAN_POINT('Ctrl Pts',(-15.0470582624978,8.,21.4167703162193));
#941=CARTESIAN_POINT('Ctrl Pts',(-15.0470582624978,8.,21.4167703162193));
#942=CARTESIAN_POINT('Ctrl Pts',(-15.0470582624978,8.00000000000001,21.4167703162194));
#943=CARTESIAN_POINT('Ctrl Pts',(-15.0470582624978,8.,21.4167703162193));
#944=CARTESIAN_POINT('Ctrl Pts',(-15.0470582624978,8.00000000000001,21.4167703162194));
#945=CARTESIAN_POINT('Ctrl Pts',(-15.0470582624978,8.,21.4167703162193));
#946=CARTESIAN_POINT('Ctrl Pts',(-15.0470582624978,8.,21.4167703162193));
#947=CARTESIAN_POINT('Ctrl Pts',(-15.0534364936905,8.,21.9988324789105));
#948=CARTESIAN_POINT('Ctrl Pts',(-15.0968058238343,7.99836003753589,21.9567116996004));
#949=CARTESIAN_POINT('Ctrl Pts',(-15.1910191963315,7.99762774979959,21.8628584503401));
#950=CARTESIAN_POINT('Ctrl Pts',(-15.3958137700696,7.99673250789597,21.6583918181746));
#951=CARTESIAN_POINT('Ctrl Pts',(-15.5443581894321,7.99807745179918,21.5084554375902));
#952=CARTESIAN_POINT('Ctrl Pts',(-15.6081042482198,7.99918349572178,21.4436801782366));
#953=CARTESIAN_POINT('Ctrl Pts',(-15.6291204251889,8.,21.4219502566773));
#954=CARTESIAN_POINT('Ctrl Pts',(-15.0725711872687,7.81258959434387,23.7453867809283));
#955=CARTESIAN_POINT('Ctrl Pts',(-15.2699076015941,7.84459302769597,23.6061871997728));
#956=CARTESIAN_POINT('Ctrl Pts',(-15.7031666201146,7.8895887044559,23.2803298367428));
#957=CARTESIAN_POINT('Ctrl Pts',(-16.5401641447257,7.90330893338968,22.4822521747182));
#958=CARTESIAN_POINT('Ctrl Pts',(-17.0906752363836,7.86920160468326,21.8355049789183));
#959=CARTESIAN_POINT('Ctrl Pts',(-17.3061988334545,7.8285548208808,21.5363056334607));
#960=CARTESIAN_POINT('Ctrl Pts',(-17.3756747272067,7.81258959434388,21.4374900780512));
#961=CARTESIAN_POINT('Ctrl Pts',(-15.1044623432324,6.56821664895877,26.4512282863636));
#962=CARTESIAN_POINT('Ctrl Pts',(-15.6381916287078,6.65527221179282,26.3595014201114));
#963=CARTESIAN_POINT('Ctrl Pts',(-16.851886551434,6.7809541173147,25.9158551432044));
#964=CARTESIAN_POINT('Ctrl Pts',(-18.8140172061223,6.81801781288456,24.2299271485384));
#965=CARTESIAN_POINT('Ctrl Pts',(-19.815990196766,6.72440365759545,22.5646004917946));
#966=CARTESIAN_POINT('Ctrl Pts',(-20.035660519137,6.61170950423681,21.7304382006052));
#967=CARTESIAN_POINT('Ctrl Pts',(-20.081516232642,6.56821664895877,21.4633897803409));
#968=CARTESIAN_POINT('Ctrl Pts',(-15.1427317303888,3.85324321050948,28.7771372417265));
#969=CARTESIAN_POINT('Ctrl Pts',(-16.0813360693096,3.87347212319156,28.7810777872152));
#970=CARTESIAN_POINT('Ctrl Pts',(-18.1348351442236,3.90184662346627,28.3322657303871));
#971=CARTESIAN_POINT('Ctrl Pts',(-21.00273863913,3.91073852297591,26.0247495095076));
#972=CARTESIAN_POINT('Ctrl Pts',(-22.2575206526897,3.8892048080418,23.4149913505986));
#973=CARTESIAN_POINT('Ctrl Pts',(-22.4093567923158,3.86342466907994,21.9638960549188));
#974=CARTESIAN_POINT('Ctrl Pts',(-22.407425188005,3.85324321050948,21.4944694230886));
#975=CARTESIAN_POINT('Ctrl Pts',(-15.1682446551597,1.56173294088684,29.4294995065838));
#976=CARTESIAN_POINT('Ctrl Pts',(-16.2932707053387,1.56021846738663,29.4276045817562));
#977=CARTESIAN_POINT('Ctrl Pts',(-18.621570292692,1.56010090558256,28.9325805308495));
#978=CARTESIAN_POINT('Ctrl Pts',(-21.5844387367939,1.55923135182336,26.5780532539656));
#979=CARTESIAN_POINT('Ctrl Pts',(-22.883399961045,1.56033131022648,23.7801228229288));
#980=CARTESIAN_POINT('Ctrl Pts',(-23.0588448047864,1.56099010401838,22.0777923937816));
#981=CARTESIAN_POINT('Ctrl Pts',(-23.0597874528622,1.56173294088684,21.5151891849205));
#982=CARTESIAN_POINT('Ctrl Pts',(-15.1810011175452,0.399827082195529,29.5013341812589));
#983=CARTESIAN_POINT('Ctrl Pts',(-16.3572899264895,0.399890409185587,29.5013302660762));
#984=CARTESIAN_POINT('Ctrl Pts',(-18.727630070113,0.399983420930499,28.9687188689862));
#985=CARTESIAN_POINT('Ctrl Pts',(-21.6274058521179,0.400015468540224,26.6526710547282));
#986=CARTESIAN_POINT('Ctrl Pts',(-22.9401663901574,0.399947163797781,23.8771501879369));
#987=CARTESIAN_POINT('Ctrl Pts',(-23.1316200322906,0.399860972228416,22.1137863189164));
#988=CARTESIAN_POINT('Ctrl Pts',(-23.1316221275374,0.399827082195526,21.5255490658364));
#989=CARTESIAN_POINT('Origin',(15.5,8.,0.));
#990=CARTESIAN_POINT('Origin',(10.6856040044414,-1.59999998509884,22.4940729844617));
#991=CARTESIAN_POINT('',(10.6856040044414,1.70000001490116,22.4940729844617));
#992=CARTESIAN_POINT('',(10.6856040044414,-1.59999998509884,22.4940729844617));
#993=CARTESIAN_POINT('',(1.50000002235174,1.70000001490116,22.4940729844617));
#994=CARTESIAN_POINT('',(10.6856040044414,1.70000001490116,22.4940729844617));
#995=CARTESIAN_POINT('',(1.50000002235174,-1.59999998509884,22.4940729844617));
#996=CARTESIAN_POINT('Origin',(10.6856040044414,-1.59999998509884,29.9999999701977));
#997=CARTESIAN_POINT('',(10.6856040044414,1.70000001490116,29.9999999701977));
#998=CARTESIAN_POINT('Origin',(6.09280201339659,1.70000001490116,26.2470364773297));
#999=CARTESIAN_POINT('',(1.50000002235174,1.70000001490116,22.4940729844617));
#1000=CARTESIAN_POINT('Origin',(-11.0000002086163,0.,25.));
#1001=CARTESIAN_POINT('Origin',(1.50000002235174,-1.59999998509884,22.4940729844617));
#1002=UNCERTAINTY_MEASURE_WITH_UNIT(LENGTH_MEASURE(0.01),#1006,
'DISTANCE_ACCURACY_VALUE',
'Maximum model space distance between geometric entities at asserted c
onnectivities');
#1003=UNCERTAINTY_MEASURE_WITH_UNIT(LENGTH_MEASURE(0.01),#1006,
'DISTANCE_ACCURACY_VALUE',
'Maximum model space distance between geometric entities at asserted c
onnectivities');
#1004=(
GEOMETRIC_REPRESENTATION_CONTEXT(3)
GLOBAL_UNCERTAINTY_ASSIGNED_CONTEXT((#1002))
GLOBAL_UNIT_ASSIGNED_CONTEXT((#1006,#1007,#1008))
REPRESENTATION_CONTEXT('','3D')
);
#1005=(
GEOMETRIC_REPRESENTATION_CONTEXT(3)
GLOBAL_UNCERTAINTY_ASSIGNED_CONTEXT((#1003))
GLOBAL_UNIT_ASSIGNED_CONTEXT((#1006,#1007,#1008))
REPRESENTATION_CONTEXT('','3D')
);
#1006=(
LENGTH_UNIT()
NAMED_UNIT(*)
SI_UNIT(.MILLI.,.METRE.)
);
#1007=(
NAMED_UNIT(*)
PLANE_ANGLE_UNIT()
SI_UNIT($,.RADIAN.)
);
#1008=(
NAMED_UNIT(*)
SI_UNIT($,.STERADIAN.)
SOLID_ANGLE_UNIT()
);
#1009=SHAPE_DEFINITION_REPRESENTATION(#1010,#1011);
#1010=PRODUCT_DEFINITION_SHAPE('',$,#1013);
#1011=SHAPE_REPRESENTATION('',(#336),#1004);
#1012=PRODUCT_DEFINITION_CONTEXT('part definition',#1017,'design');
#1013=PRODUCT_DEFINITION('NexBar','NexBar v12',#1014,#1012);
#1014=PRODUCT_DEFINITION_FORMATION('',$,#1019);
#1015=PRODUCT_RELATED_PRODUCT_CATEGORY('NexBar v12','NexBar v12',(#1019));
#1016=APPLICATION_PROTOCOL_DEFINITION('international standard',
'automotive_design',2009,#1017);
#1017=APPLICATION_CONTEXT(
'Core Data for Automotive Mechanical Design Process');
#1018=PRODUCT_CONTEXT('part definition',#1017,'mechanical');
#1019=PRODUCT('NexBar','NexBar v12',$,(#1018));
#1020=PRESENTATION_STYLE_ASSIGNMENT((#1021));
#1021=SURFACE_STYLE_USAGE(.BOTH.,#1022);
#1022=SURFACE_SIDE_STYLE('',(#1023));
#1023=SURFACE_STYLE_FILL_AREA(#1024);
#1024=FILL_AREA_STYLE('Steel - Satin',(#1025));
#1025=FILL_AREA_STYLE_COLOUR('Steel - Satin',#1026);
#1026=COLOUR_RGB('Steel - Satin',0.627450980392157,0.627450980392157,0.627450980392157);
ENDSEC;
END-ISO-10303-21;
