ISO-10303-21;
HEADER;
/* Generated by software containing ST-Developer
 * from STEP Tools, Inc. (www.steptools.com) 
 */

FILE_DESCRIPTION(
/* description */ (''),
/* implementation_level */ '2;1');

FILE_NAME(
/* name */ 'VapeSynthTopJig.step',
/* time_stamp */ '2026-08-30T23:29:55-04:00',
/* author */ (''),
/* organization */ (''),
/* preprocessor_version */ 'ST-DEVELOPER v20.1',
/* originating_system */ 'Autodesk Translation Framework v15.8.0.0',
/* authorisation */ '');

FILE_SCHEMA (('AUTOMOTIVE_DESIGN { 1 0 10303 214 3 1 1 }'));
ENDSEC;

DATA;
#10=MECHANICAL_DESIGN_GEOMETRIC_PRESENTATION_REPRESENTATION('',(#15,#16,
#17),#1451);
#11=SHAPE_REPRESENTATION_RELATIONSHIP('SRR','None',#1457,#12);
#12=ADVANCED_BREP_SHAPE_REPRESENTATION('',(#18,#19,#20),#1450);
#13=SPHERICAL_SURFACE('',#649,2.);
#14=SPHERICAL_SURFACE('',#651,1.25);
#15=STYLED_ITEM('',(#1466),#18);
#16=STYLED_ITEM('',(#1466),#19);
#17=STYLED_ITEM('',(#1466),#20);
#18=MANIFOLD_SOLID_BREP('TOp',#607);
#19=MANIFOLD_SOLID_BREP('Registeration1',#608);
#20=MANIFOLD_SOLID_BREP('Registeration2',#609);
#21=B_SPLINE_SURFACE_WITH_KNOTS('',3,3,((#1330,#1331,#1332,#1333,#1334,
#1335,#1336),(#1337,#1338,#1339,#1340,#1341,#1342,#1343),(#1344,#1345,#1346,
#1347,#1348,#1349,#1350),(#1351,#1352,#1353,#1354,#1355,#1356,#1357),(#1358,
#1359,#1360,#1361,#1362,#1363,#1364),(#1365,#1366,#1367,#1368,#1369,#1370,
#1371),(#1372,#1373,#1374,#1375,#1376,#1377,#1378)),.UNSPECIFIED.,.F.,.F.,
 .F.,(4,1,1,1,4),(4,1,1,1,4),(0.,0.274483184602799,0.411724776904198,0.686207961506997,
0.960691146109796),(0.,0.285714285714286,0.571428571428571,0.857142857142857,
1.),.UNSPECIFIED.);
#22=B_SPLINE_SURFACE_WITH_KNOTS('',3,3,((#1379,#1380,#1381,#1382,#1383,
#1384,#1385),(#1386,#1387,#1388,#1389,#1390,#1391,#1392),(#1393,#1394,#1395,
#1396,#1397,#1398,#1399),(#1400,#1401,#1402,#1403,#1404,#1405,#1406),(#1407,
#1408,#1409,#1410,#1411,#1412,#1413),(#1414,#1415,#1416,#1417,#1418,#1419,
#1420),(#1421,#1422,#1423,#1424,#1425,#1426,#1427)),.UNSPECIFIED.,.F.,.F.,
 .F.,(4,1,1,1,4),(4,1,1,1,4),(0.,0.137241585907484,0.411724757722453,0.686207929537422,
0.960691101352391),(0.,0.285714285714286,0.571428571428571,0.857142857142857,
1.),.UNSPECIFIED.);
#23=B_SPLINE_CURVE_WITH_KNOTS('',3,(#925,#926,#927,#928,#929,#930,#931,
#932,#933,#934,#935,#936,#937,#938,#939,#940,#941,#942,#943,#944,#945,#946,
#947,#948,#949,#950,#951,#952,#953,#954,#955,#956,#957,#958,#959,#960,#961,
#962,#963,#964,#965,#966,#967,#968,#969,#970,#971,#972,#973,#974,#975,#976,
#977,#978,#979,#980,#981,#982),.UNSPECIFIED.,.F.,.F.,(4,3,3,3,3,3,3,3,3,
3,3,3,3,3,3,3,3,3,3,4),(0.0617713723715164,0.140609331812725,0.219446845246224,
0.298283936604143,0.377821854991541,0.456666390018348,0.535509524314708,
0.614351353682098,0.693191973905332,0.772031480753699,0.850869969982248,
0.929707537332953,1.00985542401665,1.08869869341433,1.16753942965512,1.24637801583208,
1.32750616957468,1.40634704239642,1.48861883659946,1.57089063080251),
 .UNSPECIFIED.);
#24=B_SPLINE_CURVE_WITH_KNOTS('',3,(#986,#987,#988,#989,#990,#991,#992,
#993,#994,#995,#996,#997,#998,#999,#1000,#1001,#1002,#1003,#1004,#1005,
#1006,#1007,#1008,#1009,#1010,#1011,#1012,#1013,#1014,#1015,#1016,#1017,
#1018,#1019,#1020,#1021,#1022,#1023,#1024,#1025,#1026,#1027,#1028,#1029,
#1030,#1031,#1032,#1033,#1034,#1035,#1036,#1037,#1038,#1039,#1040,#1041,
#1042,#1043),.UNSPECIFIED.,.F.,.F.,(4,3,3,3,3,3,3,3,3,3,3,3,3,3,3,3,3,3,
3,4),(0.,0.0788379594412316,0.157675472874718,0.236512564232565,0.316050482619966,
0.394895017646766,0.473738151943112,0.552579981310528,0.631420601533753,
0.710260108382162,0.789098597610705,0.86793616496136,0.948084051645064,
1.02692732104275,1.10576805728352,1.18460664346052,1.26573479720314,1.34457567002488,
1.42684746422794,1.50911925843099),.UNSPECIFIED.);
#25=B_SPLINE_CURVE_WITH_KNOTS('',3,(#1053,#1054,#1055,#1056,#1057,#1058,
#1059,#1060,#1061,#1062,#1063,#1064,#1065,#1066,#1067,#1068,#1069,#1070,
#1071,#1072,#1073,#1074,#1075,#1076,#1077,#1078,#1079,#1080,#1081,#1082,
#1083,#1084,#1085,#1086,#1087,#1088,#1089,#1090,#1091,#1092,#1093,#1094,
#1095,#1096,#1097,#1098,#1099,#1100,#1101,#1102,#1103,#1104,#1105,#1106,
#1107,#1108,#1109,#1110,#1111,#1112,#1113,#1114,#1115,#1116,#1117,#1118,
#1119,#1120,#1121,#1122,#1123,#1124,#1125,#1126,#1127,#1128,#1129,#1130,
#1131),.UNSPECIFIED.,.F.,.F.,(4,3,3,3,3,3,3,3,3,3,3,3,3,3,3,3,3,3,3,3,3,
3,3,3,3,3,4),(0.,0.0507716205127016,0.100660918051046,0.149309777768343,
0.170480570300753,0.218035267193611,0.264268664763231,0.289388895092914,
0.339097259683152,0.388037375865285,0.438129864659575,0.488222353453864,
0.537152099659547,0.562277315257155,0.612097519186718,0.662540929526104,
0.712904459955552,0.762513638331206,0.804282099338457,0.835202838919571,
0.882089952456553,0.929145697267885,0.976201442079218,1.01945824767468,
1.06269236102892,1.10570336357575,1.11631129113286),.UNSPECIFIED.);
#26=B_SPLINE_CURVE_WITH_KNOTS('',3,(#1134,#1135,#1136,#1137,#1138,#1139,
#1140,#1141,#1142,#1143,#1144,#1145,#1146,#1147,#1148,#1149,#1150,#1151,
#1152,#1153,#1154,#1155,#1156,#1157,#1158,#1159,#1160,#1161,#1162,#1163,
#1164,#1165,#1166,#1167,#1168,#1169,#1170,#1171,#1172,#1173,#1174,#1175,
#1176,#1177,#1178,#1179,#1180,#1181,#1182,#1183,#1184,#1185,#1186,#1187,
#1188,#1189,#1190,#1191,#1192,#1193,#1194,#1195,#1196,#1197,#1198,#1199,
#1200),.UNSPECIFIED.,.F.,.F.,(4,3,3,3,3,3,3,3,3,3,3,3,3,3,3,3,3,3,3,3,3,
3,4),(0.,0.088611896004714,0.177223792009428,0.259987336922475,0.312507479786035,
0.381976720604981,0.452207269417246,0.522526378370636,0.535165881159958,
0.605161946070435,0.623793750948561,0.685042734770079,0.746629547589995,
0.807799938523995,0.867689663478361,0.894870475519162,0.933156380291377,
1.01881705637992,1.09163023204756,1.13875305112324,1.18605438452041,1.23326587064445,
1.25030461987805),.UNSPECIFIED.);
#27=B_SPLINE_CURVE_WITH_KNOTS('',3,(#1209,#1210,#1211,#1212,#1213,#1214,
#1215,#1216,#1217,#1218,#1219,#1220,#1221,#1222,#1223,#1224,#1225,#1226,
#1227,#1228,#1229,#1230,#1231,#1232,#1233,#1234,#1235,#1236,#1237,#1238,
#1239,#1240,#1241,#1242,#1243,#1244,#1245,#1246,#1247,#1248,#1249,#1250,
#1251,#1252,#1253,#1254,#1255,#1256,#1257,#1258,#1259,#1260,#1261,#1262,
#1263,#1264,#1265,#1266),.UNSPECIFIED.,.F.,.F.,(4,3,3,3,3,3,3,3,3,3,3,3,
3,3,3,3,3,3,3,4),(0.,0.0788363481640021,0.157672250329356,0.236507730427718,
0.31604402323222,0.394886946847392,0.473728469760732,0.552568687771791,
0.631407696663371,0.710245592202861,0.789082470143357,0.867918426224873,
0.948064674859233,1.02690633287115,1.1057454577779,1.18458243266486,1.26570892832358,
1.34454818980851,1.42681830255413,1.50908841529975),.UNSPECIFIED.);
#28=B_SPLINE_CURVE_WITH_KNOTS('',3,(#1270,#1271,#1272,#1273,#1274,#1275,
#1276,#1277,#1278,#1279,#1280,#1281,#1282,#1283,#1284,#1285,#1286,#1287,
#1288,#1289,#1290,#1291,#1292,#1293,#1294,#1295,#1296,#1297,#1298,#1299,
#1300,#1301,#1302,#1303,#1304,#1305,#1306,#1307,#1308,#1309,#1310,#1311,
#1312,#1313,#1314,#1315,#1316,#1317,#1318,#1319,#1320,#1321,#1322,#1323,
#1324,#1325,#1326,#1327),.UNSPECIFIED.,.F.,.F.,(4,3,3,3,3,3,3,3,3,3,3,3,
3,3,3,3,3,3,3,4),(0.0617701098983657,0.140606458062332,0.219442360227723,
0.298277840326155,0.377814133130652,0.456657056745829,0.535498579659166,
0.614338797670222,0.693177806561829,0.772015702101325,0.850852580041781,
0.929688536123255,1.00983478475761,1.08867644276953,1.16751556767628,1.24635254256323,
1.32747903822195,1.40631829970688,1.4885884124525,1.57085852519812),
 .UNSPECIFIED.);
#29=CYLINDRICAL_SURFACE('',#634,8.1);
#30=CYLINDRICAL_SURFACE('',#639,8.1);
#31=CYLINDRICAL_SURFACE('',#641,8.1);
#32=CYLINDRICAL_SURFACE('',#642,7.112);
#33=CIRCLE('',#621,7.112);
#34=CIRCLE('',#622,8.1);
#35=CIRCLE('',#623,8.1);
#36=CIRCLE('',#626,8.1);
#37=CIRCLE('',#629,8.1);
#38=CIRCLE('',#631,8.1);
#39=CIRCLE('',#633,8.1);
#40=CIRCLE('',#635,8.1);
#41=CIRCLE('',#636,8.1);
#42=CIRCLE('',#643,7.112);
#43=CIRCLE('',#650,2.);
#44=CIRCLE('',#652,1.25);
#45=FACE_OUTER_BOUND('',#77,.T.);
#46=FACE_OUTER_BOUND('',#78,.T.);
#47=FACE_OUTER_BOUND('',#79,.T.);
#48=FACE_OUTER_BOUND('',#80,.T.);
#49=FACE_OUTER_BOUND('',#81,.T.);
#50=FACE_OUTER_BOUND('',#82,.T.);
#51=FACE_OUTER_BOUND('',#83,.T.);
#52=FACE_OUTER_BOUND('',#84,.T.);
#53=FACE_OUTER_BOUND('',#85,.T.);
#54=FACE_OUTER_BOUND('',#86,.T.);
#55=FACE_OUTER_BOUND('',#87,.T.);
#56=FACE_OUTER_BOUND('',#88,.T.);
#57=FACE_OUTER_BOUND('',#89,.T.);
#58=FACE_OUTER_BOUND('',#90,.T.);
#59=FACE_OUTER_BOUND('',#91,.T.);
#60=FACE_OUTER_BOUND('',#92,.T.);
#61=FACE_OUTER_BOUND('',#93,.T.);
#62=FACE_OUTER_BOUND('',#94,.T.);
#63=FACE_OUTER_BOUND('',#95,.T.);
#64=FACE_OUTER_BOUND('',#96,.T.);
#65=FACE_OUTER_BOUND('',#97,.T.);
#66=FACE_OUTER_BOUND('',#98,.T.);
#67=FACE_OUTER_BOUND('',#99,.T.);
#68=FACE_OUTER_BOUND('',#100,.T.);
#69=FACE_OUTER_BOUND('',#101,.T.);
#70=FACE_OUTER_BOUND('',#102,.T.);
#71=FACE_OUTER_BOUND('',#103,.T.);
#72=FACE_OUTER_BOUND('',#104,.T.);
#73=FACE_OUTER_BOUND('',#105,.T.);
#74=FACE_OUTER_BOUND('',#106,.T.);
#75=FACE_OUTER_BOUND('',#107,.T.);
#76=FACE_OUTER_BOUND('',#108,.T.);
#77=EDGE_LOOP('',(#383,#384,#385,#386));
#78=EDGE_LOOP('',(#387,#388,#389,#390,#391,#392,#393,#394));
#79=EDGE_LOOP('',(#395,#396,#397,#398));
#80=EDGE_LOOP('',(#399,#400,#401,#402));
#81=EDGE_LOOP('',(#403,#404,#405,#406));
#82=EDGE_LOOP('',(#407,#408,#409,#410));
#83=EDGE_LOOP('',(#411,#412,#413,#414));
#84=EDGE_LOOP('',(#415,#416,#417,#418));
#85=EDGE_LOOP('',(#419,#420,#421,#422));
#86=EDGE_LOOP('',(#423,#424,#425,#426,#427,#428,#429,#430,#431,#432,#433,
#434,#435,#436));
#87=EDGE_LOOP('',(#437,#438,#439,#440));
#88=EDGE_LOOP('',(#441,#442,#443,#444,#445,#446,#447,#448));
#89=EDGE_LOOP('',(#449,#450,#451,#452));
#90=EDGE_LOOP('',(#453,#454,#455,#456,#457,#458,#459,#460));
#91=EDGE_LOOP('',(#461,#462,#463,#464));
#92=EDGE_LOOP('',(#465,#466,#467,#468));
#93=EDGE_LOOP('',(#469,#470,#471,#472,#473,#474,#475,#476,#477,#478,#479,
#480,#481,#482,#483,#484));
#94=EDGE_LOOP('',(#485,#486,#487,#488,#489));
#95=EDGE_LOOP('',(#490,#491,#492,#493,#494,#495,#496,#497,#498));
#96=EDGE_LOOP('',(#499,#500,#501,#502));
#97=EDGE_LOOP('',(#503,#504,#505,#506));
#98=EDGE_LOOP('',(#507,#508,#509,#510));
#99=EDGE_LOOP('',(#511,#512,#513,#514));
#100=EDGE_LOOP('',(#515,#516,#517));
#101=EDGE_LOOP('',(#518,#519,#520));
#102=EDGE_LOOP('',(#521,#522,#523,#524));
#103=EDGE_LOOP('',(#525,#526,#527,#528,#529,#530,#531,#532));
#104=EDGE_LOOP('',(#533,#534,#535,#536));
#105=EDGE_LOOP('',(#537,#538));
#106=EDGE_LOOP('',(#539,#540,#541,#542,#543,#544,#545,#546));
#107=EDGE_LOOP('',(#547,#548));
#108=EDGE_LOOP('',(#549,#550));
#109=LINE('',#809,#175);
#110=LINE('',#811,#176);
#111=LINE('',#813,#177);
#112=LINE('',#814,#178);
#113=LINE('',#817,#179);
#114=LINE('',#819,#180);
#115=LINE('',#821,#181);
#116=LINE('',#823,#182);
#117=LINE('',#825,#183);
#118=LINE('',#827,#184);
#119=LINE('',#828,#185);
#120=LINE('',#831,#186);
#121=LINE('',#833,#187);
#122=LINE('',#834,#188);
#123=LINE('',#838,#189);
#124=LINE('',#840,#190);
#125=LINE('',#842,#191);
#126=LINE('',#843,#192);
#127=LINE('',#845,#193);
#128=LINE('',#846,#194);
#129=LINE('',#849,#195);
#130=LINE('',#851,#196);
#131=LINE('',#852,#197);
#132=LINE('',#856,#198);
#133=LINE('',#858,#199);
#134=LINE('',#860,#200);
#135=LINE('',#861,#201);
#136=LINE('',#863,#202);
#137=LINE('',#864,#203);
#138=LINE('',#867,#204);
#139=LINE('',#869,#205);
#140=LINE('',#870,#206);
#141=LINE('',#874,#207);
#142=LINE('',#875,#208);
#143=LINE('',#877,#209);
#144=LINE('',#879,#210);
#145=LINE('',#881,#211);
#146=LINE('',#883,#212);
#147=LINE('',#887,#213);
#148=LINE('',#891,#214);
#149=LINE('',#895,#215);
#150=LINE('',#896,#216);
#151=LINE('',#899,#217);
#152=LINE('',#901,#218);
#153=LINE('',#902,#219);
#154=LINE('',#907,#220);
#155=LINE('',#909,#221);
#156=LINE('',#910,#222);
#157=LINE('',#915,#223);
#158=LINE('',#920,#224);
#159=LINE('',#923,#225);
#160=LINE('',#984,#226);
#161=LINE('',#1044,#227);
#162=LINE('',#1048,#228);
#163=LINE('',#1052,#229);
#164=LINE('',#1201,#230);
#165=LINE('',#1203,#231);
#166=LINE('',#1205,#232);
#167=LINE('',#1206,#233);
#168=LINE('',#1208,#234);
#169=LINE('',#1268,#235);
#170=LINE('',#1430,#236);
#171=LINE('',#1432,#237);
#172=LINE('',#1433,#238);
#173=LINE('',#1435,#239);
#174=LINE('',#1437,#240);
#175=VECTOR('',#657,10.);
#176=VECTOR('',#658,10.);
#177=VECTOR('',#659,10.);
#178=VECTOR('',#660,10.);
#179=VECTOR('',#663,10.);
#180=VECTOR('',#664,10.);
#181=VECTOR('',#665,10.);
#182=VECTOR('',#666,10.);
#183=VECTOR('',#667,10.);
#184=VECTOR('',#668,10.);
#185=VECTOR('',#669,10.);
#186=VECTOR('',#672,10.);
#187=VECTOR('',#673,10.);
#188=VECTOR('',#674,10.);
#189=VECTOR('',#677,10.);
#190=VECTOR('',#678,10.);
#191=VECTOR('',#679,10.);
#192=VECTOR('',#680,10.);
#193=VECTOR('',#683,10.);
#194=VECTOR('',#684,10.);
#195=VECTOR('',#687,10.);
#196=VECTOR('',#688,10.);
#197=VECTOR('',#689,10.);
#198=VECTOR('',#692,10.);
#199=VECTOR('',#693,10.);
#200=VECTOR('',#694,10.);
#201=VECTOR('',#695,10.);
#202=VECTOR('',#698,10.);
#203=VECTOR('',#699,10.);
#204=VECTOR('',#702,10.);
#205=VECTOR('',#703,10.);
#206=VECTOR('',#704,10.);
#207=VECTOR('',#707,10.);
#208=VECTOR('',#708,10.);
#209=VECTOR('',#709,10.);
#210=VECTOR('',#710,10.);
#211=VECTOR('',#711,10.);
#212=VECTOR('',#712,10.);
#213=VECTOR('',#715,10.);
#214=VECTOR('',#718,10.);
#215=VECTOR('',#721,10.);
#216=VECTOR('',#722,10.);
#217=VECTOR('',#725,10.);
#218=VECTOR('',#726,10.);
#219=VECTOR('',#727,10.);
#220=VECTOR('',#734,10.);
#221=VECTOR('',#735,10.);
#222=VECTOR('',#736,10.);
#223=VECTOR('',#743,10.);
#224=VECTOR('',#750,10.);
#225=VECTOR('',#753,10.);
#226=VECTOR('',#754,10.);
#227=VECTOR('',#755,10.);
#228=VECTOR('',#758,10.);
#229=VECTOR('',#763,10.);
#230=VECTOR('',#766,10.);
#231=VECTOR('',#767,10.);
#232=VECTOR('',#768,10.);
#233=VECTOR('',#769,10.);
#234=VECTOR('',#772,10.);
#235=VECTOR('',#775,10.);
#236=VECTOR('',#784,10.);
#237=VECTOR('',#785,10.);
#238=VECTOR('',#786,10.);
#239=VECTOR('',#789,10.);
#240=VECTOR('',#792,10.);
#241=VERTEX_POINT('',#807);
#242=VERTEX_POINT('',#808);
#243=VERTEX_POINT('',#810);
#244=VERTEX_POINT('',#812);
#245=VERTEX_POINT('',#816);
#246=VERTEX_POINT('',#818);
#247=VERTEX_POINT('',#820);
#248=VERTEX_POINT('',#822);
#249=VERTEX_POINT('',#824);
#250=VERTEX_POINT('',#826);
#251=VERTEX_POINT('',#830);
#252=VERTEX_POINT('',#832);
#253=VERTEX_POINT('',#836);
#254=VERTEX_POINT('',#837);
#255=VERTEX_POINT('',#839);
#256=VERTEX_POINT('',#841);
#257=VERTEX_POINT('',#848);
#258=VERTEX_POINT('',#850);
#259=VERTEX_POINT('',#854);
#260=VERTEX_POINT('',#855);
#261=VERTEX_POINT('',#857);
#262=VERTEX_POINT('',#859);
#263=VERTEX_POINT('',#866);
#264=VERTEX_POINT('',#868);
#265=VERTEX_POINT('',#872);
#266=VERTEX_POINT('',#873);
#267=VERTEX_POINT('',#876);
#268=VERTEX_POINT('',#878);
#269=VERTEX_POINT('',#880);
#270=VERTEX_POINT('',#882);
#271=VERTEX_POINT('',#884);
#272=VERTEX_POINT('',#886);
#273=VERTEX_POINT('',#888);
#274=VERTEX_POINT('',#890);
#275=VERTEX_POINT('',#892);
#276=VERTEX_POINT('',#894);
#277=VERTEX_POINT('',#898);
#278=VERTEX_POINT('',#900);
#279=VERTEX_POINT('',#906);
#280=VERTEX_POINT('',#908);
#281=VERTEX_POINT('',#914);
#282=VERTEX_POINT('',#918);
#283=VERTEX_POINT('',#922);
#284=VERTEX_POINT('',#924);
#285=VERTEX_POINT('',#983);
#286=VERTEX_POINT('',#985);
#287=VERTEX_POINT('',#1045);
#288=VERTEX_POINT('',#1047);
#289=VERTEX_POINT('',#1051);
#290=VERTEX_POINT('',#1133);
#291=VERTEX_POINT('',#1202);
#292=VERTEX_POINT('',#1204);
#293=VERTEX_POINT('',#1429);
#294=VERTEX_POINT('',#1431);
#295=VERTEX_POINT('',#1441);
#296=VERTEX_POINT('',#1442);
#297=VERTEX_POINT('',#1445);
#298=VERTEX_POINT('',#1446);
#299=EDGE_CURVE('',#241,#242,#109,.T.);
#300=EDGE_CURVE('',#241,#243,#110,.T.);
#301=EDGE_CURVE('',#243,#244,#111,.T.);
#302=EDGE_CURVE('',#244,#242,#112,.T.);
#303=EDGE_CURVE('',#242,#245,#113,.T.);
#304=EDGE_CURVE('',#245,#246,#114,.T.);
#305=EDGE_CURVE('',#247,#246,#115,.T.);
#306=EDGE_CURVE('',#247,#248,#116,.T.);
#307=EDGE_CURVE('',#248,#249,#117,.T.);
#308=EDGE_CURVE('',#249,#250,#118,.T.);
#309=EDGE_CURVE('',#250,#241,#119,.T.);
#310=EDGE_CURVE('',#247,#251,#120,.T.);
#311=EDGE_CURVE('',#251,#252,#121,.T.);
#312=EDGE_CURVE('',#252,#248,#122,.T.);
#313=EDGE_CURVE('',#253,#254,#123,.T.);
#314=EDGE_CURVE('',#253,#255,#124,.T.);
#315=EDGE_CURVE('',#256,#255,#125,.T.);
#316=EDGE_CURVE('',#254,#256,#126,.T.);
#317=EDGE_CURVE('',#256,#243,#127,.T.);
#318=EDGE_CURVE('',#255,#244,#128,.T.);
#319=EDGE_CURVE('',#254,#257,#129,.T.);
#320=EDGE_CURVE('',#258,#257,#130,.F.);
#321=EDGE_CURVE('',#258,#253,#131,.T.);
#322=EDGE_CURVE('',#259,#260,#132,.T.);
#323=EDGE_CURVE('',#259,#261,#133,.T.);
#324=EDGE_CURVE('',#262,#261,#134,.T.);
#325=EDGE_CURVE('',#260,#262,#135,.T.);
#326=EDGE_CURVE('',#261,#252,#136,.T.);
#327=EDGE_CURVE('',#262,#251,#137,.T.);
#328=EDGE_CURVE('',#263,#260,#138,.T.);
#329=EDGE_CURVE('',#264,#263,#139,.F.);
#330=EDGE_CURVE('',#264,#259,#140,.T.);
#331=EDGE_CURVE('',#265,#266,#141,.T.);
#332=EDGE_CURVE('',#246,#265,#142,.T.);
#333=EDGE_CURVE('',#267,#245,#143,.T.);
#334=EDGE_CURVE('',#268,#267,#144,.T.);
#335=EDGE_CURVE('',#269,#268,#145,.T.);
#336=EDGE_CURVE('',#270,#269,#146,.T.);
#337=EDGE_CURVE('',#271,#270,#33,.T.);
#338=EDGE_CURVE('',#272,#271,#147,.T.);
#339=EDGE_CURVE('',#273,#272,#34,.T.);
#340=EDGE_CURVE('',#274,#273,#148,.T.);
#341=EDGE_CURVE('',#275,#274,#35,.T.);
#342=EDGE_CURVE('',#276,#275,#149,.T.);
#343=EDGE_CURVE('',#266,#276,#150,.T.);
#344=EDGE_CURVE('',#266,#277,#151,.T.);
#345=EDGE_CURVE('',#278,#277,#152,.T.);
#346=EDGE_CURVE('',#265,#278,#153,.T.);
#347=EDGE_CURVE('',#263,#278,#36,.T.);
#348=EDGE_CURVE('',#279,#267,#154,.T.);
#349=EDGE_CURVE('',#280,#279,#155,.T.);
#350=EDGE_CURVE('',#268,#280,#156,.T.);
#351=EDGE_CURVE('',#279,#258,#37,.T.);
#352=EDGE_CURVE('',#281,#276,#157,.T.);
#353=EDGE_CURVE('',#277,#281,#38,.T.);
#354=EDGE_CURVE('',#282,#280,#39,.T.);
#355=EDGE_CURVE('',#269,#282,#158,.T.);
#356=EDGE_CURVE('',#281,#283,#159,.F.);
#357=EDGE_CURVE('',#283,#284,#23,.T.);
#358=EDGE_CURVE('',#284,#285,#160,.T.);
#359=EDGE_CURVE('',#285,#286,#24,.T.);
#360=EDGE_CURVE('',#286,#282,#161,.F.);
#361=EDGE_CURVE('',#257,#287,#40,.T.);
#362=EDGE_CURVE('',#287,#288,#162,.F.);
#363=EDGE_CURVE('',#288,#264,#41,.T.);
#364=EDGE_CURVE('',#289,#275,#163,.F.);
#365=EDGE_CURVE('',#289,#283,#25,.F.);
#366=EDGE_CURVE('',#286,#290,#26,.F.);
#367=EDGE_CURVE('',#272,#290,#164,.F.);
#368=EDGE_CURVE('',#271,#291,#165,.T.);
#369=EDGE_CURVE('',#291,#292,#166,.T.);
#370=EDGE_CURVE('',#292,#270,#167,.T.);
#371=EDGE_CURVE('',#274,#284,#168,.T.);
#372=EDGE_CURVE('',#284,#289,#27,.T.);
#373=EDGE_CURVE('',#285,#273,#169,.T.);
#374=EDGE_CURVE('',#290,#285,#28,.T.);
#375=EDGE_CURVE('',#292,#291,#42,.T.);
#376=EDGE_CURVE('',#249,#293,#170,.T.);
#377=EDGE_CURVE('',#293,#294,#171,.T.);
#378=EDGE_CURVE('',#250,#294,#172,.T.);
#379=EDGE_CURVE('',#288,#293,#173,.T.);
#380=EDGE_CURVE('',#294,#287,#174,.T.);
#381=EDGE_CURVE('',#295,#296,#43,.T.);
#382=EDGE_CURVE('',#297,#298,#44,.T.);
#383=ORIENTED_EDGE('',*,*,#299,.F.);
#384=ORIENTED_EDGE('',*,*,#300,.T.);
#385=ORIENTED_EDGE('',*,*,#301,.T.);
#386=ORIENTED_EDGE('',*,*,#302,.T.);
#387=ORIENTED_EDGE('',*,*,#299,.T.);
#388=ORIENTED_EDGE('',*,*,#303,.T.);
#389=ORIENTED_EDGE('',*,*,#304,.T.);
#390=ORIENTED_EDGE('',*,*,#305,.F.);
#391=ORIENTED_EDGE('',*,*,#306,.T.);
#392=ORIENTED_EDGE('',*,*,#307,.T.);
#393=ORIENTED_EDGE('',*,*,#308,.T.);
#394=ORIENTED_EDGE('',*,*,#309,.T.);
#395=ORIENTED_EDGE('',*,*,#306,.F.);
#396=ORIENTED_EDGE('',*,*,#310,.T.);
#397=ORIENTED_EDGE('',*,*,#311,.T.);
#398=ORIENTED_EDGE('',*,*,#312,.T.);
#399=ORIENTED_EDGE('',*,*,#313,.F.);
#400=ORIENTED_EDGE('',*,*,#314,.T.);
#401=ORIENTED_EDGE('',*,*,#315,.F.);
#402=ORIENTED_EDGE('',*,*,#316,.F.);
#403=ORIENTED_EDGE('',*,*,#317,.F.);
#404=ORIENTED_EDGE('',*,*,#315,.T.);
#405=ORIENTED_EDGE('',*,*,#318,.T.);
#406=ORIENTED_EDGE('',*,*,#301,.F.);
#407=ORIENTED_EDGE('',*,*,#313,.T.);
#408=ORIENTED_EDGE('',*,*,#319,.T.);
#409=ORIENTED_EDGE('',*,*,#320,.F.);
#410=ORIENTED_EDGE('',*,*,#321,.T.);
#411=ORIENTED_EDGE('',*,*,#322,.F.);
#412=ORIENTED_EDGE('',*,*,#323,.T.);
#413=ORIENTED_EDGE('',*,*,#324,.F.);
#414=ORIENTED_EDGE('',*,*,#325,.F.);
#415=ORIENTED_EDGE('',*,*,#326,.T.);
#416=ORIENTED_EDGE('',*,*,#311,.F.);
#417=ORIENTED_EDGE('',*,*,#327,.F.);
#418=ORIENTED_EDGE('',*,*,#324,.T.);
#419=ORIENTED_EDGE('',*,*,#322,.T.);
#420=ORIENTED_EDGE('',*,*,#328,.F.);
#421=ORIENTED_EDGE('',*,*,#329,.F.);
#422=ORIENTED_EDGE('',*,*,#330,.T.);
#423=ORIENTED_EDGE('',*,*,#331,.F.);
#424=ORIENTED_EDGE('',*,*,#332,.F.);
#425=ORIENTED_EDGE('',*,*,#304,.F.);
#426=ORIENTED_EDGE('',*,*,#333,.F.);
#427=ORIENTED_EDGE('',*,*,#334,.F.);
#428=ORIENTED_EDGE('',*,*,#335,.F.);
#429=ORIENTED_EDGE('',*,*,#336,.F.);
#430=ORIENTED_EDGE('',*,*,#337,.F.);
#431=ORIENTED_EDGE('',*,*,#338,.F.);
#432=ORIENTED_EDGE('',*,*,#339,.F.);
#433=ORIENTED_EDGE('',*,*,#340,.F.);
#434=ORIENTED_EDGE('',*,*,#341,.F.);
#435=ORIENTED_EDGE('',*,*,#342,.F.);
#436=ORIENTED_EDGE('',*,*,#343,.F.);
#437=ORIENTED_EDGE('',*,*,#331,.T.);
#438=ORIENTED_EDGE('',*,*,#344,.T.);
#439=ORIENTED_EDGE('',*,*,#345,.F.);
#440=ORIENTED_EDGE('',*,*,#346,.F.);
#441=ORIENTED_EDGE('',*,*,#332,.T.);
#442=ORIENTED_EDGE('',*,*,#346,.T.);
#443=ORIENTED_EDGE('',*,*,#347,.F.);
#444=ORIENTED_EDGE('',*,*,#328,.T.);
#445=ORIENTED_EDGE('',*,*,#325,.T.);
#446=ORIENTED_EDGE('',*,*,#327,.T.);
#447=ORIENTED_EDGE('',*,*,#310,.F.);
#448=ORIENTED_EDGE('',*,*,#305,.T.);
#449=ORIENTED_EDGE('',*,*,#334,.T.);
#450=ORIENTED_EDGE('',*,*,#348,.F.);
#451=ORIENTED_EDGE('',*,*,#349,.F.);
#452=ORIENTED_EDGE('',*,*,#350,.F.);
#453=ORIENTED_EDGE('',*,*,#333,.T.);
#454=ORIENTED_EDGE('',*,*,#303,.F.);
#455=ORIENTED_EDGE('',*,*,#302,.F.);
#456=ORIENTED_EDGE('',*,*,#318,.F.);
#457=ORIENTED_EDGE('',*,*,#314,.F.);
#458=ORIENTED_EDGE('',*,*,#321,.F.);
#459=ORIENTED_EDGE('',*,*,#351,.F.);
#460=ORIENTED_EDGE('',*,*,#348,.T.);
#461=ORIENTED_EDGE('',*,*,#343,.T.);
#462=ORIENTED_EDGE('',*,*,#352,.F.);
#463=ORIENTED_EDGE('',*,*,#353,.F.);
#464=ORIENTED_EDGE('',*,*,#344,.F.);
#465=ORIENTED_EDGE('',*,*,#335,.T.);
#466=ORIENTED_EDGE('',*,*,#350,.T.);
#467=ORIENTED_EDGE('',*,*,#354,.F.);
#468=ORIENTED_EDGE('',*,*,#355,.F.);
#469=ORIENTED_EDGE('',*,*,#347,.T.);
#470=ORIENTED_EDGE('',*,*,#345,.T.);
#471=ORIENTED_EDGE('',*,*,#353,.T.);
#472=ORIENTED_EDGE('',*,*,#356,.T.);
#473=ORIENTED_EDGE('',*,*,#357,.T.);
#474=ORIENTED_EDGE('',*,*,#358,.T.);
#475=ORIENTED_EDGE('',*,*,#359,.T.);
#476=ORIENTED_EDGE('',*,*,#360,.T.);
#477=ORIENTED_EDGE('',*,*,#354,.T.);
#478=ORIENTED_EDGE('',*,*,#349,.T.);
#479=ORIENTED_EDGE('',*,*,#351,.T.);
#480=ORIENTED_EDGE('',*,*,#320,.T.);
#481=ORIENTED_EDGE('',*,*,#361,.T.);
#482=ORIENTED_EDGE('',*,*,#362,.T.);
#483=ORIENTED_EDGE('',*,*,#363,.T.);
#484=ORIENTED_EDGE('',*,*,#329,.T.);
#485=ORIENTED_EDGE('',*,*,#342,.T.);
#486=ORIENTED_EDGE('',*,*,#364,.F.);
#487=ORIENTED_EDGE('',*,*,#365,.T.);
#488=ORIENTED_EDGE('',*,*,#356,.F.);
#489=ORIENTED_EDGE('',*,*,#352,.T.);
#490=ORIENTED_EDGE('',*,*,#336,.T.);
#491=ORIENTED_EDGE('',*,*,#355,.T.);
#492=ORIENTED_EDGE('',*,*,#360,.F.);
#493=ORIENTED_EDGE('',*,*,#366,.T.);
#494=ORIENTED_EDGE('',*,*,#367,.F.);
#495=ORIENTED_EDGE('',*,*,#338,.T.);
#496=ORIENTED_EDGE('',*,*,#368,.T.);
#497=ORIENTED_EDGE('',*,*,#369,.T.);
#498=ORIENTED_EDGE('',*,*,#370,.T.);
#499=ORIENTED_EDGE('',*,*,#341,.T.);
#500=ORIENTED_EDGE('',*,*,#371,.T.);
#501=ORIENTED_EDGE('',*,*,#372,.T.);
#502=ORIENTED_EDGE('',*,*,#364,.T.);
#503=ORIENTED_EDGE('',*,*,#340,.T.);
#504=ORIENTED_EDGE('',*,*,#373,.F.);
#505=ORIENTED_EDGE('',*,*,#358,.F.);
#506=ORIENTED_EDGE('',*,*,#371,.F.);
#507=ORIENTED_EDGE('',*,*,#339,.T.);
#508=ORIENTED_EDGE('',*,*,#367,.T.);
#509=ORIENTED_EDGE('',*,*,#374,.T.);
#510=ORIENTED_EDGE('',*,*,#373,.T.);
#511=ORIENTED_EDGE('',*,*,#337,.T.);
#512=ORIENTED_EDGE('',*,*,#370,.F.);
#513=ORIENTED_EDGE('',*,*,#375,.T.);
#514=ORIENTED_EDGE('',*,*,#368,.F.);
#515=ORIENTED_EDGE('',*,*,#372,.F.);
#516=ORIENTED_EDGE('',*,*,#357,.F.);
#517=ORIENTED_EDGE('',*,*,#365,.F.);
#518=ORIENTED_EDGE('',*,*,#359,.F.);
#519=ORIENTED_EDGE('',*,*,#374,.F.);
#520=ORIENTED_EDGE('',*,*,#366,.F.);
#521=ORIENTED_EDGE('',*,*,#308,.F.);
#522=ORIENTED_EDGE('',*,*,#376,.T.);
#523=ORIENTED_EDGE('',*,*,#377,.T.);
#524=ORIENTED_EDGE('',*,*,#378,.F.);
#525=ORIENTED_EDGE('',*,*,#363,.F.);
#526=ORIENTED_EDGE('',*,*,#379,.T.);
#527=ORIENTED_EDGE('',*,*,#376,.F.);
#528=ORIENTED_EDGE('',*,*,#307,.F.);
#529=ORIENTED_EDGE('',*,*,#312,.F.);
#530=ORIENTED_EDGE('',*,*,#326,.F.);
#531=ORIENTED_EDGE('',*,*,#323,.F.);
#532=ORIENTED_EDGE('',*,*,#330,.F.);
#533=ORIENTED_EDGE('',*,*,#362,.F.);
#534=ORIENTED_EDGE('',*,*,#380,.F.);
#535=ORIENTED_EDGE('',*,*,#377,.F.);
#536=ORIENTED_EDGE('',*,*,#379,.F.);
#537=ORIENTED_EDGE('',*,*,#369,.F.);
#538=ORIENTED_EDGE('',*,*,#375,.F.);
#539=ORIENTED_EDGE('',*,*,#361,.F.);
#540=ORIENTED_EDGE('',*,*,#319,.F.);
#541=ORIENTED_EDGE('',*,*,#316,.T.);
#542=ORIENTED_EDGE('',*,*,#317,.T.);
#543=ORIENTED_EDGE('',*,*,#300,.F.);
#544=ORIENTED_EDGE('',*,*,#309,.F.);
#545=ORIENTED_EDGE('',*,*,#378,.T.);
#546=ORIENTED_EDGE('',*,*,#380,.T.);
#547=ORIENTED_EDGE('',*,*,#381,.T.);
#548=ORIENTED_EDGE('',*,*,#381,.F.);
#549=ORIENTED_EDGE('',*,*,#382,.T.);
#550=ORIENTED_EDGE('',*,*,#382,.F.);
#551=PLANE('',#611);
#552=PLANE('',#612);
#553=PLANE('',#613);
#554=PLANE('',#614);
#555=PLANE('',#615);
#556=PLANE('',#616);
#557=PLANE('',#617);
#558=PLANE('',#618);
#559=PLANE('',#619);
#560=PLANE('',#620);
#561=PLANE('',#624);
#562=PLANE('',#625);
#563=PLANE('',#627);
#564=PLANE('',#628);
#565=PLANE('',#630);
#566=PLANE('',#632);
#567=PLANE('',#637);
#568=PLANE('',#638);
#569=PLANE('',#640);
#570=PLANE('',#644);
#571=PLANE('',#645);
#572=PLANE('',#646);
#573=PLANE('',#647);
#574=PLANE('',#648);
#575=ADVANCED_FACE('',(#45),#551,.T.);
#576=ADVANCED_FACE('',(#46),#552,.F.);
#577=ADVANCED_FACE('',(#47),#553,.T.);
#578=ADVANCED_FACE('',(#48),#554,.T.);
#579=ADVANCED_FACE('',(#49),#555,.T.);
#580=ADVANCED_FACE('',(#50),#556,.F.);
#581=ADVANCED_FACE('',(#51),#557,.T.);
#582=ADVANCED_FACE('',(#52),#558,.T.);
#583=ADVANCED_FACE('',(#53),#559,.F.);
#584=ADVANCED_FACE('',(#54),#560,.F.);
#585=ADVANCED_FACE('',(#55),#561,.F.);
#586=ADVANCED_FACE('',(#56),#562,.F.);
#587=ADVANCED_FACE('',(#57),#563,.F.);
#588=ADVANCED_FACE('',(#58),#564,.F.);
#589=ADVANCED_FACE('',(#59),#565,.F.);
#590=ADVANCED_FACE('',(#60),#566,.F.);
#591=ADVANCED_FACE('',(#61),#29,.T.);
#592=ADVANCED_FACE('',(#62),#567,.F.);
#593=ADVANCED_FACE('',(#63),#568,.F.);
#594=ADVANCED_FACE('',(#64),#30,.T.);
#595=ADVANCED_FACE('',(#65),#569,.T.);
#596=ADVANCED_FACE('',(#66),#31,.T.);
#597=ADVANCED_FACE('',(#67),#32,.F.);
#598=ADVANCED_FACE('',(#68),#21,.F.);
#599=ADVANCED_FACE('',(#69),#22,.F.);
#600=ADVANCED_FACE('',(#70),#570,.F.);
#601=ADVANCED_FACE('',(#71),#571,.F.);
#602=ADVANCED_FACE('',(#72),#572,.F.);
#603=ADVANCED_FACE('',(#73),#573,.F.);
#604=ADVANCED_FACE('',(#74),#574,.F.);
#605=ADVANCED_FACE('',(#75),#13,.T.);
#606=ADVANCED_FACE('',(#76),#14,.T.);
#607=CLOSED_SHELL('',(#575,#576,#577,#578,#579,#580,#581,#582,#583,#584,
#585,#586,#587,#588,#589,#590,#591,#592,#593,#594,#595,#596,#597,#598,#599,
#600,#601,#602,#603,#604));
#608=CLOSED_SHELL('',(#605));
#609=CLOSED_SHELL('',(#606));
#610=AXIS2_PLACEMENT_3D('',#805,#653,#654);
#611=AXIS2_PLACEMENT_3D('',#806,#655,#656);
#612=AXIS2_PLACEMENT_3D('',#815,#661,#662);
#613=AXIS2_PLACEMENT_3D('',#829,#670,#671);
#614=AXIS2_PLACEMENT_3D('',#835,#675,#676);
#615=AXIS2_PLACEMENT_3D('',#844,#681,#682);
#616=AXIS2_PLACEMENT_3D('',#847,#685,#686);
#617=AXIS2_PLACEMENT_3D('',#853,#690,#691);
#618=AXIS2_PLACEMENT_3D('',#862,#696,#697);
#619=AXIS2_PLACEMENT_3D('',#865,#700,#701);
#620=AXIS2_PLACEMENT_3D('',#871,#705,#706);
#621=AXIS2_PLACEMENT_3D('',#885,#713,#714);
#622=AXIS2_PLACEMENT_3D('',#889,#716,#717);
#623=AXIS2_PLACEMENT_3D('',#893,#719,#720);
#624=AXIS2_PLACEMENT_3D('',#897,#723,#724);
#625=AXIS2_PLACEMENT_3D('',#903,#728,#729);
#626=AXIS2_PLACEMENT_3D('',#904,#730,#731);
#627=AXIS2_PLACEMENT_3D('',#905,#732,#733);
#628=AXIS2_PLACEMENT_3D('',#911,#737,#738);
#629=AXIS2_PLACEMENT_3D('',#912,#739,#740);
#630=AXIS2_PLACEMENT_3D('',#913,#741,#742);
#631=AXIS2_PLACEMENT_3D('',#916,#744,#745);
#632=AXIS2_PLACEMENT_3D('',#917,#746,#747);
#633=AXIS2_PLACEMENT_3D('',#919,#748,#749);
#634=AXIS2_PLACEMENT_3D('',#921,#751,#752);
#635=AXIS2_PLACEMENT_3D('',#1046,#756,#757);
#636=AXIS2_PLACEMENT_3D('',#1049,#759,#760);
#637=AXIS2_PLACEMENT_3D('',#1050,#761,#762);
#638=AXIS2_PLACEMENT_3D('',#1132,#764,#765);
#639=AXIS2_PLACEMENT_3D('',#1207,#770,#771);
#640=AXIS2_PLACEMENT_3D('',#1267,#773,#774);
#641=AXIS2_PLACEMENT_3D('',#1269,#776,#777);
#642=AXIS2_PLACEMENT_3D('',#1328,#778,#779);
#643=AXIS2_PLACEMENT_3D('',#1329,#780,#781);
#644=AXIS2_PLACEMENT_3D('',#1428,#782,#783);
#645=AXIS2_PLACEMENT_3D('',#1434,#787,#788);
#646=AXIS2_PLACEMENT_3D('',#1436,#790,#791);
#647=AXIS2_PLACEMENT_3D('',#1438,#793,#794);
#648=AXIS2_PLACEMENT_3D('',#1439,#795,#796);
#649=AXIS2_PLACEMENT_3D('',#1440,#797,#798);
#650=AXIS2_PLACEMENT_3D('',#1443,#799,#800);
#651=AXIS2_PLACEMENT_3D('',#1444,#801,#802);
#652=AXIS2_PLACEMENT_3D('',#1447,#803,#804);
#653=DIRECTION('axis',(0.,0.,1.));
#654=DIRECTION('refdir',(1.,0.,0.));
#655=DIRECTION('center_axis',(0.,0.,-1.));
#656=DIRECTION('ref_axis',(-1.,0.,0.));
#657=DIRECTION('',(-1.,9.01138988943489E-24,0.));
#658=DIRECTION('',(0.,-1.,0.));
#659=DIRECTION('',(-1.,0.,0.));
#660=DIRECTION('',(0.,1.,0.));
#661=DIRECTION('center_axis',(9.01138988943489E-24,1.,6.31088723951704E-30));
#662=DIRECTION('ref_axis',(0.,-6.31088723951704E-30,1.));
#663=DIRECTION('',(4.93038065763132E-32,6.31088723951704E-30,-1.));
#664=DIRECTION('',(1.,-9.01138988943489E-24,0.));
#665=DIRECTION('',(0.,0.,-1.));
#666=DIRECTION('',(-1.,9.01138988943489E-24,0.));
#667=DIRECTION('',(5.42341872339446E-31,6.31088723951704E-30,-1.));
#668=DIRECTION('',(-1.,9.01138988943489E-24,-5.42341872339446E-31));
#669=DIRECTION('',(-5.42341872339446E-31,-6.31088723951704E-30,1.));
#670=DIRECTION('center_axis',(0.,0.,-1.));
#671=DIRECTION('ref_axis',(-1.,0.,0.));
#672=DIRECTION('',(0.,-1.,0.));
#673=DIRECTION('',(-1.,0.,0.));
#674=DIRECTION('',(0.,1.,0.));
#675=DIRECTION('center_axis',(0.,0.,1.));
#676=DIRECTION('ref_axis',(-1.,1.31044018724576E-34,0.));
#677=DIRECTION('',(1.,-9.01138988943489E-24,0.));
#678=DIRECTION('',(0.,-1.,0.));
#679=DIRECTION('',(-1.,1.31044018724576E-34,0.));
#680=DIRECTION('',(0.,-1.,0.));
#681=DIRECTION('center_axis',(0.,-1.,0.));
#682=DIRECTION('ref_axis',(0.,0.,-1.));
#683=DIRECTION('',(0.,0.,-1.));
#684=DIRECTION('',(0.,-4.69963153818769E-34,-1.));
#685=DIRECTION('center_axis',(9.01138988943489E-24,1.,6.31088723951704E-30));
#686=DIRECTION('ref_axis',(0.,-6.31088723951704E-30,1.));
#687=DIRECTION('',(-5.42341872339446E-31,-6.31088723951704E-30,1.));
#688=DIRECTION('',(-1.,3.58136459556502E-17,0.));
#689=DIRECTION('',(4.93038065763132E-32,6.31088723951704E-30,-1.));
#690=DIRECTION('center_axis',(0.,0.,1.));
#691=DIRECTION('ref_axis',(-1.,1.31044018724576E-34,0.));
#692=DIRECTION('',(1.,-9.01138988943489E-24,0.));
#693=DIRECTION('',(0.,-1.,0.));
#694=DIRECTION('',(-1.,1.31044018724576E-34,0.));
#695=DIRECTION('',(0.,-1.,0.));
#696=DIRECTION('center_axis',(0.,-1.,0.));
#697=DIRECTION('ref_axis',(0.,0.,-1.));
#698=DIRECTION('',(0.,-7.17087830462087E-34,-1.));
#699=DIRECTION('',(0.,0.,-1.));
#700=DIRECTION('center_axis',(9.01138988943489E-24,1.,6.31088723951704E-30));
#701=DIRECTION('ref_axis',(0.,-6.31088723951704E-30,1.));
#702=DIRECTION('',(0.,0.,-1.));
#703=DIRECTION('',(-1.,3.58136459556502E-17,0.));
#704=DIRECTION('',(5.42341872339446E-31,6.31088723951704E-30,-1.));
#705=DIRECTION('center_axis',(0.,0.,1.));
#706=DIRECTION('ref_axis',(1.,0.,0.));
#707=DIRECTION('',(1.,0.,0.));
#708=DIRECTION('',(0.,1.,0.));
#709=DIRECTION('',(0.,-1.,0.));
#710=DIRECTION('',(1.,0.,0.));
#711=DIRECTION('',(0.,1.,0.));
#712=DIRECTION('',(1.,-9.01138988943489E-24,0.));
#713=DIRECTION('center_axis',(0.,0.,-1.));
#714=DIRECTION('ref_axis',(1.,0.,0.));
#715=DIRECTION('',(1.,-9.01138988943489E-24,0.));
#716=DIRECTION('center_axis',(0.,0.,1.));
#717=DIRECTION('ref_axis',(-0.707106781186548,0.707106781186548,0.));
#718=DIRECTION('',(-1.,3.58136459556502E-17,0.));
#719=DIRECTION('center_axis',(0.,0.,1.));
#720=DIRECTION('ref_axis',(0.707106781186548,0.707106781186548,0.));
#721=DIRECTION('',(1.,-9.01138988943489E-24,0.));
#722=DIRECTION('',(0.,-1.,0.));
#723=DIRECTION('center_axis',(0.,1.,0.));
#724=DIRECTION('ref_axis',(0.,0.,1.));
#725=DIRECTION('',(-4.93038065763132E-32,0.,1.));
#726=DIRECTION('',(1.,-3.58136459556502E-17,0.));
#727=DIRECTION('',(-4.93038065763132E-32,0.,1.));
#728=DIRECTION('center_axis',(-1.,0.,-4.93038065763132E-32));
#729=DIRECTION('ref_axis',(-4.93038065763132E-32,0.,1.));
#730=DIRECTION('center_axis',(-1.,0.,-4.93038065763132E-32));
#731=DIRECTION('ref_axis',(0.,0.707106781186547,0.707106781186548));
#732=DIRECTION('center_axis',(0.,1.,0.));
#733=DIRECTION('ref_axis',(0.,0.,1.));
#734=DIRECTION('',(4.93038065763132E-32,0.,-1.));
#735=DIRECTION('',(1.,-3.58136459556502E-17,0.));
#736=DIRECTION('',(-4.93038065763132E-32,0.,1.));
#737=DIRECTION('center_axis',(1.,0.,4.93038065763132E-32));
#738=DIRECTION('ref_axis',(4.93038065763132E-32,0.,-1.));
#739=DIRECTION('center_axis',(1.,0.,4.93038065763132E-32));
#740=DIRECTION('ref_axis',(0.,0.707106781186547,0.707106781186548));
#741=DIRECTION('center_axis',(1.,0.,4.93038065763132E-32));
#742=DIRECTION('ref_axis',(4.93038065763132E-32,0.,-1.));
#743=DIRECTION('',(0.,6.31088723951704E-30,-1.));
#744=DIRECTION('center_axis',(1.,0.,4.93038065763132E-32));
#745=DIRECTION('ref_axis',(0.,0.707106781186547,0.707106781186548));
#746=DIRECTION('center_axis',(-1.,0.,-4.93038065763132E-32));
#747=DIRECTION('ref_axis',(-4.93038065763132E-32,0.,1.));
#748=DIRECTION('center_axis',(-1.,0.,-4.93038065763132E-32));
#749=DIRECTION('ref_axis',(0.,0.707106781186547,0.707106781186548));
#750=DIRECTION('',(-4.93038065763132E-32,-6.31088723951704E-30,1.));
#751=DIRECTION('center_axis',(-1.,3.58136459556502E-17,0.));
#752=DIRECTION('ref_axis',(0.,0.707106781186547,0.707106781186548));
#753=DIRECTION('',(-1.,3.58136459556502E-17,0.));
#754=DIRECTION('',(-1.,3.58136459556502E-17,0.));
#755=DIRECTION('',(-1.,3.58136459556502E-17,0.));
#756=DIRECTION('center_axis',(-1.,0.,-5.42341872339446E-31));
#757=DIRECTION('ref_axis',(0.,0.707106781186547,0.707106781186548));
#758=DIRECTION('',(-1.,3.58136459556502E-17,0.));
#759=DIRECTION('center_axis',(1.,0.,5.42341872339446E-31));
#760=DIRECTION('ref_axis',(0.,0.707106781186547,0.707106781186548));
#761=DIRECTION('center_axis',(9.01138988943489E-24,1.,6.31088723951704E-30));
#762=DIRECTION('ref_axis',(0.,-6.31088723951704E-30,1.));
#763=DIRECTION('',(0.,0.,1.));
#764=DIRECTION('center_axis',(9.01138988943489E-24,1.,6.31088723951704E-30));
#765=DIRECTION('ref_axis',(0.,-6.31088723951704E-30,1.));
#766=DIRECTION('',(0.,0.,-1.));
#767=DIRECTION('',(0.,0.,1.));
#768=DIRECTION('',(1.,-9.01138988943489E-24,0.));
#769=DIRECTION('',(0.,0.,-1.));
#770=DIRECTION('center_axis',(0.,0.,1.));
#771=DIRECTION('ref_axis',(0.707106781186548,0.707106781186548,0.));
#772=DIRECTION('',(0.,0.,1.));
#773=DIRECTION('center_axis',(3.58136459556502E-17,1.,0.));
#774=DIRECTION('ref_axis',(-1.,3.58136459556502E-17,0.));
#775=DIRECTION('',(0.,0.,-1.));
#776=DIRECTION('center_axis',(0.,0.,1.));
#777=DIRECTION('ref_axis',(-0.707106781186548,0.707106781186548,0.));
#778=DIRECTION('center_axis',(0.,0.,1.));
#779=DIRECTION('ref_axis',(1.,0.,0.));
#780=DIRECTION('center_axis',(0.,0.,1.));
#781=DIRECTION('ref_axis',(1.,0.,0.));
#782=DIRECTION('center_axis',(5.42341872339446E-31,0.,-1.));
#783=DIRECTION('ref_axis',(-1.,0.,-5.42341872339446E-31));
#784=DIRECTION('',(0.,1.,0.));
#785=DIRECTION('',(-1.,0.,-5.42341872339446E-31));
#786=DIRECTION('',(0.,1.,0.));
#787=DIRECTION('center_axis',(1.,0.,5.42341872339446E-31));
#788=DIRECTION('ref_axis',(5.42341872339446E-31,0.,-1.));
#789=DIRECTION('',(5.42341872339446E-31,0.,-1.));
#790=DIRECTION('center_axis',(0.,1.,0.));
#791=DIRECTION('ref_axis',(0.,0.,1.));
#792=DIRECTION('',(-5.42341872339446E-31,0.,1.));
#793=DIRECTION('center_axis',(0.,0.,1.));
#794=DIRECTION('ref_axis',(1.,0.,0.));
#795=DIRECTION('center_axis',(-1.,0.,-5.42341872339446E-31));
#796=DIRECTION('ref_axis',(-5.42341872339446E-31,0.,1.));
#797=DIRECTION('center_axis',(0.,0.,1.));
#798=DIRECTION('ref_axis',(1.,0.,0.));
#799=DIRECTION('center_axis',(1.38777878078145E-16,-1.,0.));
#800=DIRECTION('ref_axis',(-1.,-1.38777878078145E-16,0.));
#801=DIRECTION('center_axis',(0.,0.,1.));
#802=DIRECTION('ref_axis',(1.,0.,0.));
#803=DIRECTION('center_axis',(1.11022302462516E-16,-1.,0.));
#804=DIRECTION('ref_axis',(-1.,-1.11022302462516E-16,0.));
#805=CARTESIAN_POINT('',(0.,0.,0.));
#806=CARTESIAN_POINT('Origin',(-0.06945313750083,0.400000014901161,22.7714062325889));
#807=CARTESIAN_POINT('',(1.50000002235174,0.400000014901161,22.7714062325889));
#808=CARTESIAN_POINT('',(-0.06945313750083,0.400000014901161,22.7714062325889));
#809=CARTESIAN_POINT('',(-0.0347265687504028,0.400000014901161,22.7714062325889));
#810=CARTESIAN_POINT('',(1.50000002235174,-0.599999985098839,22.7714062325889));
#811=CARTESIAN_POINT('',(1.50000002235174,0.400000014901161,22.7714062325889));
#812=CARTESIAN_POINT('',(-0.06945313750083,-0.599999985098839,22.7714062325889));
#813=CARTESIAN_POINT('',(12.3800681159994,-0.599999985098839,22.7714062325889));
#814=CARTESIAN_POINT('',(-0.06945313750083,0.400000014901161,22.7714062325889));
#815=CARTESIAN_POINT('Origin',(2.4424906545358E-14,0.400000014901161,15.0043691606391));
#816=CARTESIAN_POINT('',(-0.06945313750083,0.400000014901161,11.824));
#817=CARTESIAN_POINT('',(-0.06945313750083,0.400000014901161,22.8268356460467));
#818=CARTESIAN_POINT('',(12.3800681159994,0.400000014901161,11.824));
#819=CARTESIAN_POINT('',(1.44328993237316E-14,0.400000014901161,11.824));
#820=CARTESIAN_POINT('',(12.3800681159994,0.400000014901161,22.7714062325889));
#821=CARTESIAN_POINT('',(12.3800681159994,0.400000014901161,11.8236140990427));
#822=CARTESIAN_POINT('',(10.6856040044414,0.400000014901161,22.7714062325889));
#823=CARTESIAN_POINT('',(5.34280200222073,0.400000014901161,22.7714062325889));
#824=CARTESIAN_POINT('',(10.6856040044414,0.400000014901161,22.4940729844617));
#825=CARTESIAN_POINT('',(10.6856040044414,0.400000014901161,22.5021845654184));
#826=CARTESIAN_POINT('',(1.50000002235174,0.400000014901161,22.4940729844617));
#827=CARTESIAN_POINT('',(5.34280200222073,0.400000014901161,22.4940729844617));
#828=CARTESIAN_POINT('',(1.50000002235174,0.400000014901161,18.7492210725504));
#829=CARTESIAN_POINT('Origin',(10.6856040044414,0.400000014901161,22.7714062325889));
#830=CARTESIAN_POINT('',(12.3800681159994,-0.599999985098839,22.7714062325889));
#831=CARTESIAN_POINT('',(12.3800681159994,0.400000014901161,22.7714062325889));
#832=CARTESIAN_POINT('',(10.6856040044414,-0.599999985098839,22.7714062325889));
#833=CARTESIAN_POINT('',(12.3800681159994,-0.599999985098839,22.7714062325889));
#834=CARTESIAN_POINT('',(10.6856040044414,0.400000014901161,22.7714062325889));
#835=CARTESIAN_POINT('Origin',(1.50000002235174,0.400000014901161,26.5658173059873));
#836=CARTESIAN_POINT('',(-0.06945313750083,0.400000014901161,26.5658173059873));
#837=CARTESIAN_POINT('',(1.50000002235174,0.400000014901161,26.5658173059873));
#838=CARTESIAN_POINT('',(0.750000011175883,0.400000014901161,26.5658173059873));
#839=CARTESIAN_POINT('',(-0.06945313750083,-0.599999985098839,26.5658173059873));
#840=CARTESIAN_POINT('',(-0.06945313750083,0.400000014901161,26.5658173059873));
#841=CARTESIAN_POINT('',(1.50000002235174,-0.599999985098839,26.5658173059873));
#842=CARTESIAN_POINT('',(-0.06945313750083,-0.599999985098839,26.5658173059873));
#843=CARTESIAN_POINT('',(1.50000002235174,0.400000014901161,26.5658173059873));
#844=CARTESIAN_POINT('Origin',(0.715273442425456,-0.599999985098839,24.8301117692881));
#845=CARTESIAN_POINT('',(1.50000002235174,-0.599999985098839,23.0944062325889));
#846=CARTESIAN_POINT('',(-0.06945313750083,-0.599999985098839,23.0944062325889));
#847=CARTESIAN_POINT('Origin',(2.4424906545358E-14,0.400000014901161,15.0043691606391));
#848=CARTESIAN_POINT('',(1.50000002235174,0.400000014901161,29.5013234878609));
#849=CARTESIAN_POINT('',(1.50000002235174,0.400000014901161,18.7492210725504));
#850=CARTESIAN_POINT('',(-0.06945313750083,0.400000014901161,29.5013234878609));
#851=CARTESIAN_POINT('',(7.75000000000003,0.400000014901161,29.5013234878609));
#852=CARTESIAN_POINT('',(-0.06945313750083,0.400000014901161,22.8268356460467));
#853=CARTESIAN_POINT('Origin',(12.3800681159994,0.400000014901161,26.5658173059873));
#854=CARTESIAN_POINT('',(10.6856040044414,0.400000014901161,26.5658173059873));
#855=CARTESIAN_POINT('',(12.3800681159994,0.400000014901161,26.5658173059873));
#856=CARTESIAN_POINT('',(6.19003405799969,0.400000014901161,26.5658173059873));
#857=CARTESIAN_POINT('',(10.6856040044414,-0.599999985098839,26.5658173059873));
#858=CARTESIAN_POINT('',(10.6856040044414,0.400000014901161,26.5658173059873));
#859=CARTESIAN_POINT('',(12.3800681159994,-0.599999985098839,26.5658173059873));
#860=CARTESIAN_POINT('',(-0.06945313750083,-0.599999985098839,26.5658173059873));
#861=CARTESIAN_POINT('',(12.3800681159994,0.400000014901161,26.5658173059873));
#862=CARTESIAN_POINT('Origin',(11.5328360602204,-0.599999985098839,24.8301117692881));
#863=CARTESIAN_POINT('',(10.6856040044414,-0.599999985098839,29.5013234878609));
#864=CARTESIAN_POINT('',(12.3800681159994,-0.599999985098839,23.0944062325889));
#865=CARTESIAN_POINT('Origin',(2.4424906545358E-14,0.400000014901161,15.0043691606391));
#866=CARTESIAN_POINT('',(12.3800681159994,0.400000014901161,29.5013234878609));
#867=CARTESIAN_POINT('',(12.3800681159994,0.400000014901161,11.8236140990427));
#868=CARTESIAN_POINT('',(10.6856040044414,0.400000014901161,29.5013234878609));
#869=CARTESIAN_POINT('',(7.75000000000003,0.400000014901161,29.5013234878609));
#870=CARTESIAN_POINT('',(10.6856040044414,0.400000014901161,22.5021845654184));
#871=CARTESIAN_POINT('Origin',(4.44089209850063E-15,4.44089209850063E-15,
11.824));
#872=CARTESIAN_POINT('',(12.3800681159994,2.15000001490116,11.824));
#873=CARTESIAN_POINT('',(15.0383994945177,2.15000001490116,11.824));
#874=CARTESIAN_POINT('',(6.85460044762926,2.15000001490116,11.824));
#875=CARTESIAN_POINT('',(12.3800681159994,-1.42499999254942,11.824));
#876=CARTESIAN_POINT('',(-0.06945313750083,2.15000001490116,11.824));
#877=CARTESIAN_POINT('',(-0.06945313750083,-1.42499999254942,11.824));
#878=CARTESIAN_POINT('',(-2.9113924550416,2.15000001490116,11.824));
#879=CARTESIAN_POINT('',(-0.745211398135606,2.15000001490116,11.824));
#880=CARTESIAN_POINT('',(-2.9113924550416,0.400000014901161,11.824));
#881=CARTESIAN_POINT('',(-2.9113924550416,-1.42499999254942,11.824));
#882=CARTESIAN_POINT('',(-6.27460384824037,0.400000014901161,11.824));
#883=CARTESIAN_POINT('',(1.44328993237316E-14,0.400000014901161,11.824));
#884=CARTESIAN_POINT('',(-20.41968412695,0.400000014901161,11.824));
#885=CARTESIAN_POINT('Origin',(-13.3471439875952,-0.348144340965393,11.824));
#886=CARTESIAN_POINT('',(-23.1316114341393,0.400000014901161,11.824));
#887=CARTESIAN_POINT('',(1.44328993237316E-14,0.400000014901161,11.824));
#888=CARTESIAN_POINT('',(-15.0470582624978,8.,11.824));
#889=CARTESIAN_POINT('Origin',(-15.0470582624978,-0.0999999999999979,11.824));
#890=CARTESIAN_POINT('',(15.0470582624978,8.,11.824));
#891=CARTESIAN_POINT('',(7.75,8.,11.824));
#892=CARTESIAN_POINT('',(23.1316114341393,0.400000014901161,11.824));
#893=CARTESIAN_POINT('Origin',(15.0470582624978,-0.099999999999999,11.824));
#894=CARTESIAN_POINT('',(15.0383994945177,0.400000014901161,11.824));
#895=CARTESIAN_POINT('',(1.44328993237316E-14,0.400000014901161,11.824));
#896=CARTESIAN_POINT('',(15.0383999554125,-1.42499999254942,11.824));
#897=CARTESIAN_POINT('Origin',(13.7092008952585,2.15000001490116,19.3858959909994));
#898=CARTESIAN_POINT('',(15.0383999554125,2.15000001490116,29.1979977215163));
#899=CARTESIAN_POINT('',(15.0383994945177,2.15000001490116,10.3910110903598));
#900=CARTESIAN_POINT('',(12.3800681159994,2.15000001490116,29.1979977215163));
#901=CARTESIAN_POINT('',(7.75000000000003,2.15000001490116,29.1979977215163));
#902=CARTESIAN_POINT('',(12.3800681159994,2.15000001490116,30.5260241129364));
#903=CARTESIAN_POINT('Origin',(12.3800681159994,-2.84999998509884,8.2457678690624));
#904=CARTESIAN_POINT('Origin',(12.3800681159994,-0.0999999999999989,21.4167703162193));
#905=CARTESIAN_POINT('Origin',(-1.49042279627122,2.15000001490116,19.4996037932636));
#906=CARTESIAN_POINT('',(-0.06945313750083,2.15000001490116,29.1979977215163));
#907=CARTESIAN_POINT('',(-0.06945313750083,2.15000001490116,27.6686628945151));
#908=CARTESIAN_POINT('',(-2.9113924550416,2.15000001490116,29.1979977215163));
#909=CARTESIAN_POINT('',(7.75000000000003,2.15000001490116,29.1979977215163));
#910=CARTESIAN_POINT('',(-2.9113924550416,2.15000001490116,27.6686628945151));
#911=CARTESIAN_POINT('Origin',(-0.06945313750083,-2.84999998509884,30.6493021314543));
#912=CARTESIAN_POINT('Origin',(-0.06945313750083,-0.0999999999999984,21.4167703162193));
#913=CARTESIAN_POINT('Origin',(15.0383999554125,-2.84999998509884,30.5260241129364));
#914=CARTESIAN_POINT('',(15.0383999554125,0.400000014901161,29.5013234878609));
#915=CARTESIAN_POINT('',(15.0383994945177,0.400000014901161,15.2215139231128));
#916=CARTESIAN_POINT('Origin',(15.0383999554125,-0.099999999999999,21.4167703162193));
#917=CARTESIAN_POINT('Origin',(-2.9113924550416,-2.84999998509884,8.32665868558642));
#918=CARTESIAN_POINT('',(-2.9113924550416,0.400000014901162,29.5013234878609));
#919=CARTESIAN_POINT('Origin',(-2.9113924550416,-0.0999999999999983,21.4167703162193));
#920=CARTESIAN_POINT('',(-2.9113924550416,0.400000014901161,11.6655139231128));
#921=CARTESIAN_POINT('Origin',(7.75000000000003,-0.0999999999999987,21.4167703162193));
#922=CARTESIAN_POINT('',(15.180999218931,0.400000014901019,29.5013234878609));
#923=CARTESIAN_POINT('',(7.75000000000003,0.400000014901161,29.5013234878609));
#924=CARTESIAN_POINT('',(15.0470582624978,8.,21.4167703162193));
#925=CARTESIAN_POINT('Ctrl Pts',(15.180999218931,0.400000014900876,29.5013234878609));
#926=CARTESIAN_POINT('Ctrl Pts',(15.1786668139798,0.61244381876794,29.4881846163804));
#927=CARTESIAN_POINT('Ctrl Pts',(15.1763344090286,0.824369328065513,29.4666676040782));
#928=CARTESIAN_POINT('Ctrl Pts',(15.1740020040775,1.03511863173799,29.4368392493322));
#929=CARTESIAN_POINT('Ctrl Pts',(15.1716696123213,1.24586674314451,29.4070110633332));
#930=CARTESIAN_POINT('Ctrl Pts',(15.1693372205652,1.45543839100648,29.368871667367));
#931=CARTESIAN_POINT('Ctrl Pts',(15.1670048288091,1.6631829790557,29.3225394617464));
#932=CARTESIAN_POINT('Ctrl Pts',(15.16467244954,1.87092645489432,29.2762075041765));
#933=CARTESIAN_POINT('Ctrl Pts',(15.1623400702709,2.07684262313177,29.2216828843499));
#934=CARTESIAN_POINT('Ctrl Pts',(15.1600076910018,2.2802922424448,29.1591348672178));
#935=CARTESIAN_POINT('Ctrl Pts',(15.157654577908,2.48555043929279,29.0960308257538));
#936=CARTESIAN_POINT('Ctrl Pts',(15.1553014648141,2.68829774595831,29.0247601116453));
#937=CARTESIAN_POINT('Ctrl Pts',(15.1529483517203,2.88789352912551,28.9455479234149));
#938=CARTESIAN_POINT('Ctrl Pts',(15.1506157522318,3.08574930705121,28.8670262789452));
#939=CARTESIAN_POINT('Ctrl Pts',(15.1482831527432,3.28050803986777,28.7807011924497));
#940=CARTESIAN_POINT('Ctrl Pts',(15.1459505532547,3.47156500906224,28.6868407000631));
#941=CARTESIAN_POINT('Ctrl Pts',(15.1436179952065,3.66261858399084,28.5929818751764));
#942=CARTESIAN_POINT('Ctrl Pts',(15.1412854371583,3.84997028093115,28.4915880331123));
#943=CARTESIAN_POINT('Ctrl Pts',(15.1389528791101,4.03303840058688,28.3829739867471));
#944=CARTESIAN_POINT('Ctrl Pts',(15.136620359668,4.21610349029086,28.2743617380478));
#945=CARTESIAN_POINT('Ctrl Pts',(15.1342878402258,4.39488490891528,28.1585296639892));
#946=CARTESIAN_POINT('Ctrl Pts',(15.1319553207837,4.56882758496715,28.0358373941277));
#947=CARTESIAN_POINT('Ctrl Pts',(15.1296228371138,4.74276759337708,27.9131470059151));
#948=CARTESIAN_POINT('Ctrl Pts',(15.127290353444,4.91186878380641,27.783596790358));
#949=CARTESIAN_POINT('Ctrl Pts',(15.1249578697741,5.07560615553286,27.647588956078));
#950=CARTESIAN_POINT('Ctrl Pts',(15.1226254190432,5.23934121498584,27.5115830424794));
#951=CARTESIAN_POINT('Ctrl Pts',(15.1202929683123,5.39771239655487,27.3691198676986));
#952=CARTESIAN_POINT('Ctrl Pts',(15.1179605175814,5.55022802635888,27.22064171815));
#953=CARTESIAN_POINT('Ctrl Pts',(15.1156280969566,5.70274168756955,27.0721654850811));
#954=CARTESIAN_POINT('Ctrl Pts',(15.1132956763318,5.8493997519551,26.9176746237018));
#955=CARTESIAN_POINT('Ctrl Pts',(15.110963255707,5.98974692152965,26.7576487488108));
#956=CARTESIAN_POINT('Ctrl Pts',(15.1086308623557,6.13009244999023,26.5976247451417));
#957=CARTESIAN_POINT('Ctrl Pts',(15.1062984690045,6.26412705067697,26.4320660634262));
#958=CARTESIAN_POINT('Ctrl Pts',(15.1039660756532,6.39143462469925,26.2614866663533));
#959=CARTESIAN_POINT('Ctrl Pts',(15.1015949167718,6.52085811352058,26.0880721553963));
#960=CARTESIAN_POINT('Ctrl Pts',(15.0992237578903,6.6433288102859,25.9094687913496));
#961=CARTESIAN_POINT('Ctrl Pts',(15.0968525990088,6.75845378427316,25.7262495990317));
#962=CARTESIAN_POINT('Ctrl Pts',(15.0945200369637,6.87170479704533,25.5460127801154));
#963=CARTESIAN_POINT('Ctrl Pts',(15.0921874749185,6.97784725572158,25.3613094943061));
#964=CARTESIAN_POINT('Ctrl Pts',(15.0898549128734,7.07655160254539,25.1727132199392));
#965=CARTESIAN_POINT('Ctrl Pts',(15.0875224257712,7.17525277809537,24.9841230049855));
#966=CARTESIAN_POINT('Ctrl Pts',(15.0851899386689,7.2665161929358,24.7916402945216));
#967=CARTESIAN_POINT('Ctrl Pts',(15.0828574515667,7.35005850488872,24.5958626825615));
#968=CARTESIAN_POINT('Ctrl Pts',(15.0805250280737,7.43359853856127,24.400090409648));
#969=CARTESIAN_POINT('Ctrl Pts',(15.0781926045807,7.50941778315626,24.2010236670215));
#970=CARTESIAN_POINT('Ctrl Pts',(15.0758601810877,7.57728085827155,23.9992804562221));
#971=CARTESIAN_POINT('Ctrl Pts',(15.0734600212052,7.64711475888262,23.7916783794228));
#972=CARTESIAN_POINT('Ctrl Pts',(15.0710598613227,7.70852331305773,23.5812423223677));
#973=CARTESIAN_POINT('Ctrl Pts',(15.0686597014402,7.76130465561519,23.3686640406836));
#974=CARTESIAN_POINT('Ctrl Pts',(15.0663272102973,7.81259791108771,23.1620790698966));
#975=CARTESIAN_POINT('Ctrl Pts',(15.0639947191543,7.85574373777381,22.9534713044031));
#976=CARTESIAN_POINT('Ctrl Pts',(15.0616622280114,7.89060818194361,22.743488403326));
#977=CARTESIAN_POINT('Ctrl Pts',(15.0592282337591,7.92698982350949,22.5243676680363));
#978=CARTESIAN_POINT('Ctrl Pts',(15.0567942395069,7.95435317054133,22.3037497549144));
#979=CARTESIAN_POINT('Ctrl Pts',(15.0543602452546,7.97260572162865,22.0823804597181));
#980=CARTESIAN_POINT('Ctrl Pts',(15.0519262510023,7.99085827271597,21.8610111645218));
#981=CARTESIAN_POINT('Ctrl Pts',(15.04949225675,8.,21.6388908251259));
#982=CARTESIAN_POINT('Ctrl Pts',(15.0470582624978,8.,21.4167703162193));
#983=CARTESIAN_POINT('',(-15.0470582624978,8.,21.4167703162193));
#984=CARTESIAN_POINT('',(7.75000000000003,8.,21.4167703162193));
#985=CARTESIAN_POINT('',(-15.1809992189309,0.400000014901019,29.5013234878609));
#986=CARTESIAN_POINT('Ctrl Pts',(-15.0470582624978,8.,21.4167703162193));
#987=CARTESIAN_POINT('Ctrl Pts',(-15.0493906674489,8.,21.6296200278595));
#988=CARTESIAN_POINT('Ctrl Pts',(-15.0517230724001,7.99160584293263,21.8424696025281));
#989=CARTESIAN_POINT('Ctrl Pts',(-15.0540554773513,7.97484358799556,22.0546582604596));
#990=CARTESIAN_POINT('Ctrl Pts',(-15.0563878691074,7.95808142788712,22.2668457179821));
#991=CARTESIAN_POINT('Ctrl Pts',(-15.0587202608635,7.93295128621189,22.4783719931623));
#992=CARTESIAN_POINT('Ctrl Pts',(-15.0610526526196,7.89953117722686,22.6885804217679));
#993=CARTESIAN_POINT('Ctrl Pts',(-15.0633850318887,7.86611124716445,22.898787724972));
#994=CARTESIAN_POINT('Ctrl Pts',(-15.0657174111578,7.82440148161335,23.1076769251868));
#995=CARTESIAN_POINT('Ctrl Pts',(-15.0680497904269,7.7745313633915,23.3145995516786));
#996=CARTESIAN_POINT('Ctrl Pts',(-15.0704029035208,7.72421792177687,23.5233616292101));
#997=CARTESIAN_POINT('Ctrl Pts',(-15.0727560166146,7.66559838826618,23.7301217204768));
#998=CARTESIAN_POINT('Ctrl Pts',(-15.0751091297084,7.59885798665717,23.9342265127171));
#999=CARTESIAN_POINT('Ctrl Pts',(-15.0774417291969,7.53269940419674,24.1365519917741));
#1000=CARTESIAN_POINT('Ctrl Pts',(-15.0797743286855,7.45856108536848,24.3362680258026));
#1001=CARTESIAN_POINT('Ctrl Pts',(-15.082106928174,7.37667322685352,24.5327545040566));
#1002=CARTESIAN_POINT('Ctrl Pts',(-15.0844394862222,7.29478682313586,24.7292374915855));
#1003=CARTESIAN_POINT('Ctrl Pts',(-15.0867720442704,7.20515126064427,24.9224907851971));
#1004=CARTESIAN_POINT('Ctrl Pts',(-15.0891046023186,7.10804484453675,25.1119143620107));
#1005=CARTESIAN_POINT('Ctrl Pts',(-15.0914371217607,7.01094003563287,25.3013348036837));
#1006=CARTESIAN_POINT('Ctrl Pts',(-15.0937696412029,6.90636474554244,25.4869254115512));
#1007=CARTESIAN_POINT('Ctrl Pts',(-15.096102160645,6.79464365432924,25.6681099732942));
#1008=CARTESIAN_POINT('Ctrl Pts',(-15.0984346443149,6.68292427650739,25.8492917563313));
#1009=CARTESIAN_POINT('Ctrl Pts',(-15.1007671279847,6.56405946066361,26.0260673952353));
#1010=CARTESIAN_POINT('Ctrl Pts',(-15.1030996116546,6.43841824094847,26.1978880627753));
#1011=CARTESIAN_POINT('Ctrl Pts',(-15.1054320623855,6.31277879551883,26.3697063038909));
#1012=CARTESIAN_POINT('Ctrl Pts',(-15.1077645131164,6.18036329942344,26.5365694925038));
#1013=CARTESIAN_POINT('Ctrl Pts',(-15.1100969638473,6.04158284538911,26.6979595907315));
#1014=CARTESIAN_POINT('Ctrl Pts',(-15.1124293844721,5.90280418266161,26.8593476058187));
#1015=CARTESIAN_POINT('Ctrl Pts',(-15.1147618050969,5.75766090501032,27.0152624641602));
#1016=CARTESIAN_POINT('Ctrl Pts',(-15.1170942257217,5.6066036077861,27.1652201301781));
#1017=CARTESIAN_POINT('Ctrl Pts',(-15.119426619073,5.45554807691209,27.315176042704));
#1018=CARTESIAN_POINT('Ctrl Pts',(-15.1217590124242,5.29857885925601,27.4591747092986));
#1019=CARTESIAN_POINT('Ctrl Pts',(-15.1240914057755,5.13618325225443,27.5967690984854));
#1020=CARTESIAN_POINT('Ctrl Pts',(-15.126462564657,4.97108855000414,27.7366503744235));
#1021=CARTESIAN_POINT('Ctrl Pts',(-15.1288337235384,4.80038570518161,27.8699124169731));
#1022=CARTESIAN_POINT('Ctrl Pts',(-15.1312048824199,4.62462239485451,27.996127672834));
#1023=CARTESIAN_POINT('Ctrl Pts',(-15.1335374444651,4.45172009387386,28.1202884440245));
#1024=CARTESIAN_POINT('Ctrl Pts',(-15.1358700065102,4.27392104397486,28.2376299250854));
#1025=CARTESIAN_POINT('Ctrl Pts',(-15.1382025685553,4.09177728678837,28.347787786834));
#1026=CARTESIAN_POINT('Ctrl Pts',(-15.1405350556576,3.90963938170215,28.4579421093184));
#1027=CARTESIAN_POINT('Ctrl Pts',(-15.1428675427598,3.72315728311125,28.5609131325287));
#1028=CARTESIAN_POINT('Ctrl Pts',(-15.145200029862,3.53290995514995,28.6563811661043));
#1029=CARTESIAN_POINT('Ctrl Pts',(-15.147532453355,3.34266781541883,28.7518465961736));
#1030=CARTESIAN_POINT('Ctrl Pts',(-15.149864876848,3.14866089664807,28.8398093231664));
#1031=CARTESIAN_POINT('Ctrl Pts',(-15.152197300341,2.95149149218425,28.9199962673105));
#1032=CARTESIAN_POINT('Ctrl Pts',(-15.1545974602235,2.7485960505693,29.0025119369607));
#1033=CARTESIAN_POINT('Ctrl Pts',(-15.156997620106,2.54235195001492,29.0767932645021));
#1034=CARTESIAN_POINT('Ctrl Pts',(-15.1593977799885,2.333437166145,29.1425960687473));
#1035=CARTESIAN_POINT('Ctrl Pts',(-15.1617302711315,2.13041240660314,29.2065436662394));
#1036=CARTESIAN_POINT('Ctrl Pts',(-15.1640627622744,1.92486578213844,29.2624842360954));
#1037=CARTESIAN_POINT('Ctrl Pts',(-15.1663952534173,1.71743544802865,29.3102441010779));
#1038=CARTESIAN_POINT('Ctrl Pts',(-15.1688292476696,1.50097835986403,29.3600823339941));
#1039=CARTESIAN_POINT('Ctrl Pts',(-15.1712632419219,1.28247026414457,29.4010118887942));
#1040=CARTESIAN_POINT('Ctrl Pts',(-15.1736972361741,1.06264982442014,29.432894403693));
#1041=CARTESIAN_POINT('Ctrl Pts',(-15.1761312304264,0.842829384695719,29.4647769185918));
#1042=CARTESIAN_POINT('Ctrl Pts',(-15.1785652246787,0.621696936477075,29.4876123449272));
#1043=CARTESIAN_POINT('Ctrl Pts',(-15.1809992189309,0.400000014900876,29.5013234878609));
#1044=CARTESIAN_POINT('',(7.75000000000003,0.400000014901161,29.5013234878609));
#1045=CARTESIAN_POINT('',(1.50000002235174,1.70000001490116,29.314238261476));
#1046=CARTESIAN_POINT('Origin',(1.50000002235174,-0.0999999999999985,21.4167703162193));
#1047=CARTESIAN_POINT('',(10.6856040044414,1.70000001490116,29.314238261476));
#1048=CARTESIAN_POINT('',(7.75000000000003,1.70000001490116,29.314238261476));
#1049=CARTESIAN_POINT('Origin',(10.6856040044414,-0.0999999999999988,21.4167703162193));
#1050=CARTESIAN_POINT('Origin',(2.4424906545358E-14,0.400000014901161,15.0043691606391));
#1051=CARTESIAN_POINT('',(23.1316114341393,0.400000014901019,21.5255475239185));
#1052=CARTESIAN_POINT('',(23.1316114341393,0.400000014901161,10.765));
#1053=CARTESIAN_POINT('Ctrl Pts',(15.1809992189309,0.400000014898874,29.5013234878322));
#1054=CARTESIAN_POINT('Ctrl Pts',(15.3502379539733,0.399999958598563,29.5013234658638));
#1055=CARTESIAN_POINT('Ctrl Pts',(15.5212191552756,0.399999913242501,29.495989280933));
#1056=CARTESIAN_POINT('Ctrl Pts',(15.6937056098764,0.399999878339214,29.4849286066548));
#1057=CARTESIAN_POINT('Ctrl Pts',(15.8631945481457,0.399999844042486,29.4740601477704));
#1058=CARTESIAN_POINT('Ctrl Pts',(16.0341370714473,0.399999819842395,29.4576625317713));
#1059=CARTESIAN_POINT('Ctrl Pts',(16.2062707444947,0.39999980447462,29.4353307014371));
#1060=CARTESIAN_POINT('Ctrl Pts',(16.3741245192702,0.399999789488946,29.4135541254025));
#1061=CARTESIAN_POINT('Ctrl Pts',(16.5431110788699,0.39999978290735,29.3861347457137));
#1062=CARTESIAN_POINT('Ctrl Pts',(16.7129489245654,0.399999782723813,29.3526654463584));
#1063=CARTESIAN_POINT('Ctrl Pts',(16.7868581963606,0.399999782643942,29.3381004268087));
#1064=CARTESIAN_POINT('Ctrl Pts',(16.8609281750176,0.399999783764392,29.3223892785396));
#1065=CARTESIAN_POINT('Ctrl Pts',(16.9351332168224,0.399999785863599,29.3054965219851));
#1066=CARTESIAN_POINT('Ctrl Pts',(17.1018156055684,0.399999790578925,29.2675513238353));
#1067=CARTESIAN_POINT('Ctrl Pts',(17.2691830384151,0.399999800387318,29.2236441410638));
#1068=CARTESIAN_POINT('Ctrl Pts',(17.4368412800042,0.399999812906942,29.1735737842695));
#1069=CARTESIAN_POINT('Ctrl Pts',(17.5998411653085,0.399999825078711,29.1248946239893));
#1070=CARTESIAN_POINT('Ctrl Pts',(17.7631160267893,0.39999983980943,29.0703899204257));
#1071=CARTESIAN_POINT('Ctrl Pts',(17.9262547344927,0.399999853012223,29.0098706936691));
#1072=CARTESIAN_POINT('Ctrl Pts',(18.0148937298645,0.399999860185765,28.9769884700945));
#1073=CARTESIAN_POINT('Ctrl Pts',(18.1034916670917,0.399999866875329,28.9423306170113));
#1074=CARTESIAN_POINT('Ctrl Pts',(18.1919761035526,0.399999872185521,28.9058664466708));
#1075=CARTESIAN_POINT('Ctrl Pts',(18.3670707014297,0.399999882693424,28.833710489103));
#1076=CARTESIAN_POINT('Ctrl Pts',(18.5392256194666,0.399999884922929,28.7555141090503));
#1077=CARTESIAN_POINT('Ctrl Pts',(18.7081723979172,0.399999886483752,28.6715002287114));
#1078=CARTESIAN_POINT('Ctrl Pts',(18.8745080847604,0.399999888020453,28.5887847924143));
#1079=CARTESIAN_POINT('Ctrl Pts',(19.0377346433458,0.399999888900642,28.5004298490532));
#1080=CARTESIAN_POINT('Ctrl Pts',(19.1975871574918,0.399999892989374,28.4065947861432));
#1081=CARTESIAN_POINT('Ctrl Pts',(19.361203652471,0.399999897174381,28.3105502279358));
#1082=CARTESIAN_POINT('Ctrl Pts',(19.5212860801799,0.399999904736721,28.2087643457924));
#1083=CARTESIAN_POINT('Ctrl Pts',(19.6775308187145,0.399999916145532,28.1013552237772));
#1084=CARTESIAN_POINT('Ctrl Pts',(19.833775557249,0.399999927554343,27.9939461017621));
#1085=CARTESIAN_POINT('Ctrl Pts',(19.9861833007677,0.399999942812766,27.8809134573977));
#1086=CARTESIAN_POINT('Ctrl Pts',(20.1344203450511,0.399999958634259,27.7623262842647));
#1087=CARTESIAN_POINT('Ctrl Pts',(20.279216523673,0.399999974088505,27.6464917465065));
#1088=CARTESIAN_POINT('Ctrl Pts',(20.420033657192,0.399999990067671,27.5253568380793));
#1089=CARTESIAN_POINT('Ctrl Pts',(20.5566875785197,0.399999999997562,27.3991671627119));
#1090=CARTESIAN_POINT('Ctrl Pts',(20.6268587831931,0.400000005096519,27.334369303625));
#1091=CARTESIAN_POINT('Ctrl Pts',(20.6959316272769,0.400000008544423,27.2682380313764));
#1092=CARTESIAN_POINT('Ctrl Pts',(20.7638769828934,0.400000009088755,27.2008032922114));
#1093=CARTESIAN_POINT('Ctrl Pts',(20.89860424363,0.4000000101681,27.0670885209258));
#1094=CARTESIAN_POINT('Ctrl Pts',(21.0283189796378,0.40000000070149,26.9288283529173));
#1095=CARTESIAN_POINT('Ctrl Pts',(21.1528744893884,0.399999988791774,26.7863666297394));
#1096=CARTESIAN_POINT('Ctrl Pts',(21.2789880777081,0.399999976733077,26.6421228371994));
#1097=CARTESIAN_POINT('Ctrl Pts',(21.399813024747,0.399999962185083,26.4935712277225));
#1098=CARTESIAN_POINT('Ctrl Pts',(21.5151621444351,0.399999950038465,26.3410284868456));
#1099=CARTESIAN_POINT('Ctrl Pts',(21.6303286024587,0.399999937911082,26.1887273057745));
#1100=CARTESIAN_POINT('Ctrl Pts',(21.740036960975,0.399999928185845,26.0324470508229));
#1101=CARTESIAN_POINT('Ctrl Pts',(21.8440599438448,0.399999922077297,25.8724711919307));
#1102=CARTESIAN_POINT('Ctrl Pts',(21.9465248558229,0.399999916060244,25.7148914739896));
#1103=CARTESIAN_POINT('Ctrl Pts',(22.0434737181684,0.399999913553378,25.5537254461823));
#1104=CARTESIAN_POINT('Ctrl Pts',(22.1346445791138,0.399999912113493,25.3892218936466));
#1105=CARTESIAN_POINT('Ctrl Pts',(22.2114059098813,0.399999910901181,25.2507180835731));
#1106=CARTESIAN_POINT('Ctrl Pts',(22.2840706944002,0.399999910387384,25.1098478320593));
#1107=CARTESIAN_POINT('Ctrl Pts',(22.3524550151219,0.399999907064005,24.9667516125507));
#1108=CARTESIAN_POINT('Ctrl Pts',(22.403079187559,0.399999904603743,24.8608190301245));
#1109=CARTESIAN_POINT('Ctrl Pts',(22.451356924353,0.399999900558741,24.7536663710232));
#1110=CARTESIAN_POINT('Ctrl Pts',(22.4972680116184,0.399999892922323,24.6453602567766));
#1111=CARTESIAN_POINT('Ctrl Pts',(22.5668859570616,0.399999881342728,24.4811287039669));
#1112=CARTESIAN_POINT('Ctrl Pts',(22.6308438606714,0.39999986689597,24.314767642156));
#1113=CARTESIAN_POINT('Ctrl Pts',(22.6891603603468,0.399999854515467,24.1464956333598));
#1114=CARTESIAN_POINT('Ctrl Pts',(22.7476865975155,0.399999842090437,23.9776184279298));
#1115=CARTESIAN_POINT('Ctrl Pts',(22.8005308875504,0.39999983174298,23.8068159152319));
#1116=CARTESIAN_POINT('Ctrl Pts',(22.8476609590678,0.399999825005982,23.6342969946793));
#1117=CARTESIAN_POINT('Ctrl Pts',(22.8947910305853,0.399999818268985,23.4617780741266));
#1118=CARTESIAN_POINT('Ctrl Pts',(22.936206982075,0.399999815136202,23.2875421408313));
#1119=CARTESIAN_POINT('Ctrl Pts',(22.9718240126397,0.399999813769096,23.111795064122));
#1120=CARTESIAN_POINT('Ctrl Pts',(23.0045655827328,0.39999981251236,22.9502365304793));
#1121=CARTESIAN_POINT('Ctrl Pts',(23.0323618519425,0.399999818265533,22.7875822435139));
#1122=CARTESIAN_POINT('Ctrl Pts',(23.0551128458803,0.39999982899171,22.6243629574575));
#1123=CARTESIAN_POINT('Ctrl Pts',(23.0778519047936,0.39999983971226,22.4612292951859));
#1124=CARTESIAN_POINT('Ctrl Pts',(23.095550918845,0.399999855391664,22.2975317839881));
#1125=CARTESIAN_POINT('Ctrl Pts',(23.1081616661218,0.399999878693615,22.1338068400789));
#1126=CARTESIAN_POINT('Ctrl Pts',(23.1207073352974,0.399999901875316,21.9709268031563));
#1127=CARTESIAN_POINT('Ctrl Pts',(23.1282171200674,0.399999932599685,21.8080201603012));
#1128=CARTESIAN_POINT('Ctrl Pts',(23.1306950059801,0.399999978211512,21.6456132529199));
#1129=CARTESIAN_POINT('Ctrl Pts',(23.1313061341264,0.399999989460888,21.60555836914));
#1130=CARTESIAN_POINT('Ctrl Pts',(23.1316114289708,0.400000001638449,21.5655338525772));
#1131=CARTESIAN_POINT('Ctrl Pts',(23.1316114341106,0.400000014898874,21.5255475239185));
#1132=CARTESIAN_POINT('Origin',(2.4424906545358E-14,0.400000014901161,15.0043691606391));
#1133=CARTESIAN_POINT('',(-23.1316114341393,0.400000014901019,21.5255475239185));
#1134=CARTESIAN_POINT('Ctrl Pts',(-23.1316114341107,0.400000014896253,21.5255475239185));
#1135=CARTESIAN_POINT('Ctrl Pts',(-23.1316113653811,0.399999937739083,21.8209205106009));
#1136=CARTESIAN_POINT('Ctrl Pts',(-23.1155251574471,0.39999989831345,22.1154622047977));
#1137=CARTESIAN_POINT('Ctrl Pts',(-23.0832539015793,0.399999877342232,22.4080006360697));
#1138=CARTESIAN_POINT('Ctrl Pts',(-23.0509826457115,0.399999856371013,22.7005390673418));
#1139=CARTESIAN_POINT('Ctrl Pts',(-23.0025264941268,0.399999854174164,22.9910750322477));
#1140=CARTESIAN_POINT('Ctrl Pts',(-22.9377348384597,0.399999859297108,23.2784625418738));
#1141=CARTESIAN_POINT('Ctrl Pts',(-22.8772194071737,0.39999986408194,23.5468825862787));
#1142=CARTESIAN_POINT('Ctrl Pts',(-22.8024541594866,0.399999875947558,23.8125561777861));
#1143=CARTESIAN_POINT('Ctrl Pts',(-22.7140695409758,0.399999889688032,24.0740365698472));
#1144=CARTESIAN_POINT('Ctrl Pts',(-22.6579823736608,0.399999898407471,24.2399669630112));
#1145=CARTESIAN_POINT('Ctrl Pts',(-22.5964096993835,0.399999907800582,24.4042091455174));
#1146=CARTESIAN_POINT('Ctrl Pts',(-22.5295019997234,0.399999915747336,24.5663952631066));
#1147=CARTESIAN_POINT('Ctrl Pts',(-22.4410021052658,0.399999926258637,24.7809214590762));
#1148=CARTESIAN_POINT('Ctrl Pts',(-22.3433074769963,0.399999931369493,24.9915206643272));
#1149=CARTESIAN_POINT('Ctrl Pts',(-22.2367865082997,0.39999993667687,25.1974489306191));
#1150=CARTESIAN_POINT('Ctrl Pts',(-22.129098184613,0.399999942042409,25.4056339487242));
#1151=CARTESIAN_POINT('Ctrl Pts',(-22.0123887969101,0.399999947600502,25.6090458833162));
#1152=CARTESIAN_POINT('Ctrl Pts',(-21.8869857928995,0.399999955261245,25.8069116847823));
#1153=CARTESIAN_POINT('Ctrl Pts',(-21.7614246567382,0.399999962931649,26.0050269933875));
#1154=CARTESIAN_POINT('Ctrl Pts',(-21.6271476780151,0.399999972696454,26.1975829708739));
#1155=CARTESIAN_POINT('Ctrl Pts',(-21.4844343819903,0.399999982785521,26.3837872899882));
#1156=CARTESIAN_POINT('Ctrl Pts',(-21.4587823916561,0.39999998459898,26.4172565708972));
#1157=CARTESIAN_POINT('Ctrl Pts',(-21.4328577173578,0.39999998641362,26.4505205801444));
#1158=CARTESIAN_POINT('Ctrl Pts',(-21.4066618252407,0.399999988207073,26.4835746296523));
#1159=CARTESIAN_POINT('Ctrl Pts',(-21.2615920866933,0.399999998139,26.6666240291004));
#1160=CARTESIAN_POINT('Ctrl Pts',(-21.1082078560912,0.400000007686395,26.8432370978322));
#1161=CARTESIAN_POINT('Ctrl Pts',(-20.9472281066968,0.400000011077944,27.0129057337803));
#1162=CARTESIAN_POINT('Ctrl Pts',(-20.9043779367067,0.400000011980718,27.0580687429147));
#1163=CARTESIAN_POINT('Ctrl Pts',(-20.8609893834211,0.400000012429215,27.1027395206146));
#1164=CARTESIAN_POINT('Ctrl Pts',(-20.8170755710532,0.400000012275059,27.1469080443453));
#1165=CARTESIAN_POINT('Ctrl Pts',(-20.6727161597748,0.400000011768294,27.2921047771953));
#1166=CARTESIAN_POINT('Ctrl Pts',(-20.5229253881737,0.400000002390972,27.4316334073319));
#1167=CARTESIAN_POINT('Ctrl Pts',(-20.368153617965,0.399999991485584,27.5652220324994));
#1168=CARTESIAN_POINT('Ctrl Pts',(-20.2125281782118,0.399999980520046,27.6995474880373));
#1169=CARTESIAN_POINT('Ctrl Pts',(-20.0518660581366,0.399999968010774,27.8278677215643));
#1170=CARTESIAN_POINT('Ctrl Pts',(-19.8865890013854,0.39999995786645,27.949868573982));
#1171=CARTESIAN_POINT('Ctrl Pts',(-19.7224294725678,0.399999947790717,28.0710445123844));
#1172=CARTESIAN_POINT('Ctrl Pts',(-19.5537165758695,0.399999940043108,28.185986648393));
#1173=CARTESIAN_POINT('Ctrl Pts',(-19.3808371952537,0.399999934994041,28.2943434232685));
#1174=CARTESIAN_POINT('Ctrl Pts',(-19.2115772249107,0.399999930050681,28.4004316359666));
#1175=CARTESIAN_POINT('Ctrl Pts',(-19.0383227969715,0.399999927682679,28.5002076144923));
#1176=CARTESIAN_POINT('Ctrl Pts',(-18.8614208050234,0.399999925042857,28.5932945294269));
#1177=CARTESIAN_POINT('Ctrl Pts',(-18.7811342484155,0.39999992384478,28.6355418087427));
#1178=CARTESIAN_POINT('Ctrl Pts',(-18.7000962060273,0.399999922547634,28.6764106182627));
#1179=CARTESIAN_POINT('Ctrl Pts',(-18.6183384753394,0.399999920670118,28.7158622081186));
#1180=CARTESIAN_POINT('Ctrl Pts',(-18.5031775049161,0.399999918025517,28.7714322849093));
#1181=CARTESIAN_POINT('Ctrl Pts',(-18.3865886119089,0.399999914243733,28.8241907933514));
#1182=CARTESIAN_POINT('Ctrl Pts',(-18.2686684274365,0.399999907645576,28.8741085006122));
#1183=CARTESIAN_POINT('Ctrl Pts',(-18.004834445022,0.399999892882896,28.9857941086236));
#1184=CARTESIAN_POINT('Ctrl Pts',(-17.7348681583055,0.399999877604533,29.0830321206958));
#1185=CARTESIAN_POINT('Ctrl Pts',(-17.4602893917481,0.39999986636793,29.1654624508392));
#1186=CARTESIAN_POINT('Ctrl Pts',(-17.2268923083152,0.399999856816607,29.2355297720785));
#1187=CARTESIAN_POINT('Ctrl Pts',(-16.9901628615407,0.399999850157867,29.2948975198381));
#1188=CARTESIAN_POINT('Ctrl Pts',(-16.7510560032319,0.399999850015319,29.3433240311208));
#1189=CARTESIAN_POINT('Ctrl Pts',(-16.5963121794592,0.399999849923065,29.3746644267115));
#1190=CARTESIAN_POINT('Ctrl Pts',(-16.4412889958691,0.399999849804322,29.4012811241585));
#1191=CARTESIAN_POINT('Ctrl Pts',(-16.2860599521819,0.399999855260458,29.4232497621158));
#1192=CARTESIAN_POINT('Ctrl Pts',(-16.1302428577805,0.399999860737264,29.4453016233728));
#1193=CARTESIAN_POINT('Ctrl Pts',(-15.9742178244568,0.399999871820853,29.4626702014692));
#1194=CARTESIAN_POINT('Ctrl Pts',(-15.8180473848855,0.399999891156324,29.4753807560256));
#1195=CARTESIAN_POINT('Ctrl Pts',(-15.6621735857497,0.399999910455067,29.4880671673162));
#1196=CARTESIAN_POINT('Ctrl Pts',(-15.5061544169268,0.399999937961622,29.4961132676048));
#1197=CARTESIAN_POINT('Ctrl Pts',(-15.3500480613978,0.39999997348074,29.49949259725));
#1198=CARTESIAN_POINT('Ctrl Pts',(-15.2937088680362,0.399999986299683,29.5007122061869));
#1199=CARTESIAN_POINT('Ctrl Pts',(-15.2373583185018,0.40000000013649,29.5013234746324));
#1200=CARTESIAN_POINT('Ctrl Pts',(-15.1809992189309,0.400000014896252,29.5013234878323));
#1201=CARTESIAN_POINT('',(-23.1316114341393,0.400000014901161,0.));
#1202=CARTESIAN_POINT('',(-20.41968412695,0.400000014901161,25.));
#1203=CARTESIAN_POINT('',(-20.41968412695,0.400000014901161,0.));
#1204=CARTESIAN_POINT('',(-6.27460384824038,0.400000014901161,25.));
#1205=CARTESIAN_POINT('',(-6.67357199379758,0.400000014901161,25.));
#1206=CARTESIAN_POINT('',(-6.27460384824038,0.400000014901161,0.));
#1207=CARTESIAN_POINT('Origin',(15.0470582624978,-0.099999999999999,10.765));
#1208=CARTESIAN_POINT('',(15.0470582624978,8.,10.765));
#1209=CARTESIAN_POINT('Ctrl Pts',(15.0470582624978,8.,21.4167703162193));
#1210=CARTESIAN_POINT('Ctrl Pts',(15.259907974138,8.,21.418664527703));
#1211=CARTESIAN_POINT('Ctrl Pts',(15.4727575488067,7.99160584293263,21.4205587391867));
#1212=CARTESIAN_POINT('Ctrl Pts',(15.6849462067382,7.97484358799555,21.4224529506704));
#1213=CARTESIAN_POINT('Ctrl Pts',(15.8971336642607,7.9580814278871,21.424347151438));
#1214=CARTESIAN_POINT('Ctrl Pts',(16.108659939441,7.93295128621186,21.4262413522056));
#1215=CARTESIAN_POINT('Ctrl Pts',(16.3188683680465,7.89953117722683,21.4281355529733));
#1216=CARTESIAN_POINT('Ctrl Pts',(16.5290756712506,7.8661112471644,21.4300297435998));
#1217=CARTESIAN_POINT('Ctrl Pts',(16.7379648714656,7.82440148161328,21.4319239342264));
#1218=CARTESIAN_POINT('Ctrl Pts',(16.9448874979574,7.7745313633914,21.4338181248529));
#1219=CARTESIAN_POINT('Ctrl Pts',(17.1536495754889,7.72421792177677,21.4357291540001));
#1220=CARTESIAN_POINT('Ctrl Pts',(17.3604096667556,7.66559838826607,21.4376401831473));
#1221=CARTESIAN_POINT('Ctrl Pts',(17.5645144589959,7.59885798665706,21.4395512122945));
#1222=CARTESIAN_POINT('Ctrl Pts',(17.7668399380529,7.53269940419661,21.4414455817675));
#1223=CARTESIAN_POINT('Ctrl Pts',(17.9665559720815,7.45856108536833,21.4433399512404));
#1224=CARTESIAN_POINT('Ctrl Pts',(18.1630424503355,7.37667322685334,21.4452343207133));
#1225=CARTESIAN_POINT('Ctrl Pts',(18.3595254378644,7.29478682313566,21.4471286565314));
#1226=CARTESIAN_POINT('Ctrl Pts',(18.552778731476,7.20515126064404,21.4490229923495));
#1227=CARTESIAN_POINT('Ctrl Pts',(18.7422023082896,7.10804484453651,21.4509173281676));
#1228=CARTESIAN_POINT('Ctrl Pts',(18.9316227499626,7.01094003563263,21.4528116326326));
#1229=CARTESIAN_POINT('Ctrl Pts',(19.11721335783,6.9063647455422,21.4547059370976));
#1230=CARTESIAN_POINT('Ctrl Pts',(19.298397919573,6.79464365432901,21.4566002415626));
#1231=CARTESIAN_POINT('Ctrl Pts',(19.4795797026101,6.68292427650717,21.458494516976));
#1232=CARTESIAN_POINT('Ctrl Pts',(19.6563553415141,6.5640594606634,21.4603887923893));
#1233=CARTESIAN_POINT('Ctrl Pts',(19.828176009054,6.43841824094828,21.4622830678027));
#1234=CARTESIAN_POINT('Ctrl Pts',(19.9999942501695,6.31277879551871,21.4641773164653));
#1235=CARTESIAN_POINT('Ctrl Pts',(20.1668574387823,6.18036329942339,21.466071565128));
#1236=CARTESIAN_POINT('Ctrl Pts',(20.3282475370099,6.04158284538913,21.4679658137907));
#1237=CARTESIAN_POINT('Ctrl Pts',(20.4896355520972,5.90280418266158,21.4698600380034));
#1238=CARTESIAN_POINT('Ctrl Pts',(20.6455504104388,5.75766090501022,21.4717542622161));
#1239=CARTESIAN_POINT('Ctrl Pts',(20.7955080764567,5.60660360778594,21.4736484864288));
#1240=CARTESIAN_POINT('Ctrl Pts',(20.9454639889828,5.45554807691174,21.4755426884919));
#1241=CARTESIAN_POINT('Ctrl Pts',(21.0894626555775,5.29857885925544,21.4774368905549));
#1242=CARTESIAN_POINT('Ctrl Pts',(21.2270570447645,5.13618325225365,21.479331092618));
#1243=CARTESIAN_POINT('Ctrl Pts',(21.3669383207025,4.97108855000337,21.4812567772555));
#1244=CARTESIAN_POINT('Ctrl Pts',(21.5002003632521,4.80038570518086,21.483182461893));
#1245=CARTESIAN_POINT('Ctrl Pts',(21.6264156191129,4.62462239485378,21.4851081465306));
#1246=CARTESIAN_POINT('Ctrl Pts',(21.7505763903034,4.45172009387311,21.4870024855947));
#1247=CARTESIAN_POINT('Ctrl Pts',(21.8679178713644,4.2739210439741,21.4888968246588));
#1248=CARTESIAN_POINT('Ctrl Pts',(21.9780757331129,4.09177728678759,21.4907911637229));
#1249=CARTESIAN_POINT('Ctrl Pts',(22.0882300555973,3.90963938170139,21.4926854419238));
#1250=CARTESIAN_POINT('Ctrl Pts',(22.1912010788075,3.72315728311051,21.4945797201246));
#1251=CARTESIAN_POINT('Ctrl Pts',(22.2866691123831,3.53290995514923,21.4964739983255));
#1252=CARTESIAN_POINT('Ctrl Pts',(22.3821345424524,3.34266781541806,21.4983682248675));
#1253=CARTESIAN_POINT('Ctrl Pts',(22.4700972694452,3.14866089664726,21.5002624514096));
#1254=CARTESIAN_POINT('Ctrl Pts',(22.5502842135892,2.95149149218339,21.5021566779516));
#1255=CARTESIAN_POINT('Ctrl Pts',(22.6327998832394,2.7485960505685,21.5041059151155));
#1256=CARTESIAN_POINT('Ctrl Pts',(22.7070812107808,2.54235195001419,21.5060551522794));
#1257=CARTESIAN_POINT('Ctrl Pts',(22.7728840150259,2.33343716614434,21.5080043894433));
#1258=CARTESIAN_POINT('Ctrl Pts',(22.836831612518,2.13041240660252,21.5098986709258));
#1259=CARTESIAN_POINT('Ctrl Pts',(22.892772182374,1.92486578213788,21.5117929524082));
#1260=CARTESIAN_POINT('Ctrl Pts',(22.9405320473564,1.71743544802814,21.5136872338906));
#1261=CARTESIAN_POINT('Ctrl Pts',(22.9903702802726,1.5009783598636,21.5156639488953));
#1262=CARTESIAN_POINT('Ctrl Pts',(23.0312998350727,1.28247026414422,21.5176406638999));
#1263=CARTESIAN_POINT('Ctrl Pts',(23.0631823499715,1.06264982441988,21.5196173789046));
#1264=CARTESIAN_POINT('Ctrl Pts',(23.0950648648703,0.842829384695544,21.5215940939092));
#1265=CARTESIAN_POINT('Ctrl Pts',(23.1179002912056,0.621696936476988,21.5235708089138));
#1266=CARTESIAN_POINT('Ctrl Pts',(23.1316114341393,0.400000014900875,21.5255475239185));
#1267=CARTESIAN_POINT('Origin',(15.5,8.,0.));
#1268=CARTESIAN_POINT('',(-15.0470582624978,8.,0.));
#1269=CARTESIAN_POINT('Origin',(-15.0470582624978,-0.0999999999999979,0.));
#1270=CARTESIAN_POINT('Ctrl Pts',(-23.1316114341393,0.400000014900877,21.5255475239185));
#1271=CARTESIAN_POINT('Ctrl Pts',(-23.1184725626588,0.612443818767964,21.5236533124348));
#1272=CARTESIAN_POINT('Ctrl Pts',(-23.0969555503566,0.824369328065562,21.5217591009511));
#1273=CARTESIAN_POINT('Ctrl Pts',(-23.0671271956106,1.03511863173806,21.5198648894674));
#1274=CARTESIAN_POINT('Ctrl Pts',(-23.0372990096116,1.24586674314466,21.5179706886998));
#1275=CARTESIAN_POINT('Ctrl Pts',(-22.9991596136454,1.4554383910067,21.5160764879322));
#1276=CARTESIAN_POINT('Ctrl Pts',(-22.9528274080248,1.66318297905599,21.5141822871646));
#1277=CARTESIAN_POINT('Ctrl Pts',(-22.9064954504548,1.87092645489467,21.512288096538));
#1278=CARTESIAN_POINT('Ctrl Pts',(-22.8519708306282,2.07684262313216,21.5103939059115));
#1279=CARTESIAN_POINT('Ctrl Pts',(-22.7894228134961,2.28029224244524,21.5084997152849));
#1280=CARTESIAN_POINT('Ctrl Pts',(-22.7263187720321,2.48555043929322,21.5065886861377));
#1281=CARTESIAN_POINT('Ctrl Pts',(-22.6550480579236,2.68829774595873,21.5046776569905));
#1282=CARTESIAN_POINT('Ctrl Pts',(-22.5758358696932,2.88789352912592,21.5027666278433));
#1283=CARTESIAN_POINT('Ctrl Pts',(-22.4973142252234,3.08574930705164,21.5008722583704));
#1284=CARTESIAN_POINT('Ctrl Pts',(-22.4109891387279,3.28050803986822,21.4989778888974));
#1285=CARTESIAN_POINT('Ctrl Pts',(-22.3171286463413,3.47156500906271,21.4970835194245));
#1286=CARTESIAN_POINT('Ctrl Pts',(-22.2232698214546,3.66261858399129,21.4951891836064));
#1287=CARTESIAN_POINT('Ctrl Pts',(-22.1218759793905,3.84997028093156,21.4932948477883));
#1288=CARTESIAN_POINT('Ctrl Pts',(-22.0132619330253,4.03303840058727,21.4914005119703));
#1289=CARTESIAN_POINT('Ctrl Pts',(-21.904649684326,4.21610349029126,21.4895062075052));
#1290=CARTESIAN_POINT('Ctrl Pts',(-21.7888176102673,4.39488490891569,21.4876119030402));
#1291=CARTESIAN_POINT('Ctrl Pts',(-21.6661253404058,4.56882758496757,21.4857175985752));
#1292=CARTESIAN_POINT('Ctrl Pts',(-21.5434349521932,4.74276759337751,21.4838233231619));
#1293=CARTESIAN_POINT('Ctrl Pts',(-21.413884736636,4.91186878380684,21.4819290477485));
#1294=CARTESIAN_POINT('Ctrl Pts',(-21.2778769023561,5.07560615553329,21.4800347723352));
#1295=CARTESIAN_POINT('Ctrl Pts',(-21.1418709887574,5.23934121498628,21.4781405236725));
#1296=CARTESIAN_POINT('Ctrl Pts',(-20.9994078139766,5.39771239655531,21.4762462750098));
#1297=CARTESIAN_POINT('Ctrl Pts',(-20.850929664428,5.55022802635931,21.4743520263471));
#1298=CARTESIAN_POINT('Ctrl Pts',(-20.7024534313591,5.70274168756995,21.4724578021344));
#1299=CARTESIAN_POINT('Ctrl Pts',(-20.5479625699798,5.84939975195546,21.4705635779217));
#1300=CARTESIAN_POINT('Ctrl Pts',(-20.3879366950888,5.98974692152997,21.468669353709));
#1301=CARTESIAN_POINT('Ctrl Pts',(-20.2279126914197,6.13009244999055,21.466775151646));
#1302=CARTESIAN_POINT('Ctrl Pts',(-20.0623540097042,6.26412705067729,21.4648809495829));
#1303=CARTESIAN_POINT('Ctrl Pts',(-19.8917746126313,6.39143462469958,21.4629867475198));
#1304=CARTESIAN_POINT('Ctrl Pts',(-19.7183601016743,6.52085811352087,21.4610610628823));
#1305=CARTESIAN_POINT('Ctrl Pts',(-19.5397567376276,6.64332881028618,21.4591353782448));
#1306=CARTESIAN_POINT('Ctrl Pts',(-19.3565375453098,6.75845378427341,21.4572096936073));
#1307=CARTESIAN_POINT('Ctrl Pts',(-19.1763007263934,6.87170479704559,21.4553153545432));
#1308=CARTESIAN_POINT('Ctrl Pts',(-18.9915974405841,6.97784725572182,21.453421015479));
#1309=CARTESIAN_POINT('Ctrl Pts',(-18.8030011662171,7.07655160254563,21.4515266764149));
#1310=CARTESIAN_POINT('Ctrl Pts',(-18.6144109512635,7.17525277809556,21.4496323982141));
#1311=CARTESIAN_POINT('Ctrl Pts',(-18.4219282407997,7.26651619293594,21.4477381200132));
#1312=CARTESIAN_POINT('Ctrl Pts',(-18.2261506288397,7.35005850488883,21.4458438418124));
#1313=CARTESIAN_POINT('Ctrl Pts',(-18.0303783559261,7.43359853856142,21.4439496152703));
#1314=CARTESIAN_POINT('Ctrl Pts',(-17.8313116132994,7.50941778315645,21.4420553887283));
#1315=CARTESIAN_POINT('Ctrl Pts',(-17.6295684024999,7.57728085827176,21.4401611621862));
#1316=CARTESIAN_POINT('Ctrl Pts',(-17.4219663257007,7.6471147588828,21.4382119250223));
#1317=CARTESIAN_POINT('Ctrl Pts',(-17.2115302686456,7.70852331305787,21.4362626878584));
#1318=CARTESIAN_POINT('Ctrl Pts',(-16.9989519869616,7.76130465561531,21.4343134506945));
#1319=CARTESIAN_POINT('Ctrl Pts',(-16.7923670161746,7.81259791108781,21.4324191692121));
#1320=CARTESIAN_POINT('Ctrl Pts',(-16.5837592506811,7.8557437377739,21.4305248877296));
#1321=CARTESIAN_POINT('Ctrl Pts',(-16.3737763496039,7.89060818194369,21.4286306062472));
#1322=CARTESIAN_POINT('Ctrl Pts',(-16.1546556143144,7.92698982350954,21.4266538912426));
#1323=CARTESIAN_POINT('Ctrl Pts',(-15.9340377011925,7.95435317054136,21.4246771762379));
#1324=CARTESIAN_POINT('Ctrl Pts',(-15.7126684059963,7.97260572162867,21.4227004612333));
#1325=CARTESIAN_POINT('Ctrl Pts',(-15.4912991108,7.99085827271598,21.4207237462286));
#1326=CARTESIAN_POINT('Ctrl Pts',(-15.2691787714042,8.,21.418747031224));
#1327=CARTESIAN_POINT('Ctrl Pts',(-15.0470582624978,8.,21.4167703162193));
#1328=CARTESIAN_POINT('Origin',(-13.3471439875952,-0.348144340965393,0.));
#1329=CARTESIAN_POINT('Origin',(-13.3471439875952,-0.348144340965393,25.));
#1330=CARTESIAN_POINT('Ctrl Pts',(15.0470582624978,8.,21.4167703162193));
#1331=CARTESIAN_POINT('Ctrl Pts',(15.0470582624978,8.,21.4167703162193));
#1332=CARTESIAN_POINT('Ctrl Pts',(15.0470582624978,8.,21.4167703162194));
#1333=CARTESIAN_POINT('Ctrl Pts',(15.0470582624978,8.,21.4167703162193));
#1334=CARTESIAN_POINT('Ctrl Pts',(15.0470582624978,8.,21.4167703162193));
#1335=CARTESIAN_POINT('Ctrl Pts',(15.0470582624978,8.,21.4167703162193));
#1336=CARTESIAN_POINT('Ctrl Pts',(15.0470582624978,8.,21.4167703162193));
#1337=CARTESIAN_POINT('Ctrl Pts',(16.2111826421152,8.,21.4271301976179));
#1338=CARTESIAN_POINT('Ctrl Pts',(16.1222432139527,8.00184123764435,21.5140498879044));
#1339=CARTESIAN_POINT('Ctrl Pts',(15.9338377659234,8.00267064395726,21.7018247900844));
#1340=CARTESIAN_POINT('Ctrl Pts',(15.5277895498481,8.00369020017028,22.1075043090675));
#1341=CARTESIAN_POINT('Ctrl Pts',(15.2324349006595,8.00217898399991,22.4053121437868));
#1342=CARTESIAN_POINT('Ctrl Pts',(15.1031840576419,8.00092409920303,22.5363325313867));
#1343=CARTESIAN_POINT('Ctrl Pts',(15.0598147254776,8.,22.5808946958368));
#1344=CARTESIAN_POINT('Ctrl Pts',(17.9558242304687,7.61655034622686,21.4426700197157));
#1345=CARTESIAN_POINT('Ctrl Pts',(17.8218479605923,7.66759484573048,21.7075235796839));
#1346=CARTESIAN_POINT('Ctrl Pts',(17.4649485697255,7.74082416059214,22.3002548054825));
#1347=CARTESIAN_POINT('Ctrl Pts',(16.4761053820385,7.76277034169048,23.3797468709621));
#1348=CARTESIAN_POINT('Ctrl Pts',(15.6179926714284,7.7080048537327,24.0355921978907));
#1349=CARTESIAN_POINT('Ctrl Pts',(15.2112172299578,7.64211873163394,24.2584485887123));
#1350=CARTESIAN_POINT('Ctrl Pts',(15.0789494199472,7.61655034622686,24.3255362841902));
#1351=CARTESIAN_POINT('Ctrl Pts',(20.4686593974853,6.11395110702747,21.4685697232122));
#1352=CARTESIAN_POINT('Ctrl Pts',(20.3946886969874,6.18863818071775,22.0700054087767));
#1353=CARTESIAN_POINT('Ctrl Pts',(19.9535335473172,6.29519904803104,23.4263177885209));
#1354=CARTESIAN_POINT('Ctrl Pts',(18.172335498514,6.32725936564028,25.5444948663235));
#1355=CARTESIAN_POINT('Ctrl Pts',(16.3502870047234,6.24727338287873,26.5950827525017));
#1356=CARTESIAN_POINT('Ctrl Pts',(15.4113843508654,6.15130950010525,26.8013881956775));
#1357=CARTESIAN_POINT('Ctrl Pts',(15.1108405773967,6.11395110702747,26.8383714512069));
#1358=CARTESIAN_POINT('Ctrl Pts',(22.4074426635566,3.85395686496298,21.4944694267085));
#1359=CARTESIAN_POINT('Ctrl Pts',(22.4097571716716,3.87534245805118,22.4330828342452));
#1360=CARTESIAN_POINT('Ctrl Pts',(21.9612039861929,3.90554454989747,24.4878099286904));
#1361=CARTESIAN_POINT('Ctrl Pts',(19.6704554654479,3.91460211105267,27.3580309932286));
#1362=CARTESIAN_POINT('Ctrl Pts',(17.0657178816269,3.89177259887164,28.6244010294351));
#1363=CARTESIAN_POINT('Ctrl Pts',(15.6119136228451,3.86458535179209,28.778348825706));
#1364=CARTESIAN_POINT('Ctrl Pts',(15.1427317348461,3.85395686496298,28.7771547172781));
#1365=CARTESIAN_POINT('Ctrl Pts',(23.0597875663433,1.56173243168552,21.5151891895057));
#1366=CARTESIAN_POINT('Ctrl Pts',(23.0587292584344,1.55969963607225,22.6400625739511));
#1367=CARTESIAN_POINT('Ctrl Pts',(22.5670730131063,1.55933763299673,24.9720228163903));
#1368=CARTESIAN_POINT('Ctrl Pts',(20.2302879431863,1.55811529698046,27.9401718461139));
#1369=CARTESIAN_POINT('Ctrl Pts',(17.4364853935348,1.55964085852743,29.2533045661483));
#1370=CARTESIAN_POINT('Ctrl Pts',(15.7305906786018,1.56070021235713,29.4289666145211));
#1371=CARTESIAN_POINT('Ctrl Pts',(15.1682446608056,1.56173243168552,29.4294996200648));
#1372=CARTESIAN_POINT('Ctrl Pts',(23.1316221626776,0.399826513812142,21.5255490709042));
#1373=CARTESIAN_POINT('Ctrl Pts',(23.1316179718264,0.399894299739897,22.7016525177696));
#1374=CARTESIAN_POINT('Ctrl Pts',(22.6034257642325,0.399988593041806,25.0762849908574));
#1375=CARTESIAN_POINT('Ctrl Pts',(20.3053212543617,0.400012738371254,27.9810466939283));
#1376=CARTESIAN_POINT('Ctrl Pts',(17.5357314158745,0.399940564830286,29.3080807270068));
#1377=CARTESIAN_POINT('Ctrl Pts',(15.7689594519474,0.399858181004276,29.5013322585815));
#1378=CARTESIAN_POINT('Ctrl Pts',(15.1810011237854,0.399826513812142,29.5013342163991));
#1379=CARTESIAN_POINT('Ctrl Pts',(-15.0470582624978,8.,21.4167703162193));
#1380=CARTESIAN_POINT('Ctrl Pts',(-15.0470582624978,8.,21.4167703162193));
#1381=CARTESIAN_POINT('Ctrl Pts',(-15.0470582624978,8.00000000000001,21.4167703162194));
#1382=CARTESIAN_POINT('Ctrl Pts',(-15.0470582624978,8.,21.4167703162193));
#1383=CARTESIAN_POINT('Ctrl Pts',(-15.0470582624978,8.00000000000001,21.4167703162194));
#1384=CARTESIAN_POINT('Ctrl Pts',(-15.0470582624978,8.,21.4167703162193));
#1385=CARTESIAN_POINT('Ctrl Pts',(-15.0470582624978,8.,21.4167703162193));
#1386=CARTESIAN_POINT('Ctrl Pts',(-15.0534364936905,8.,21.9988324789105));
#1387=CARTESIAN_POINT('Ctrl Pts',(-15.0968058238343,7.99836003753589,21.9567116996004));
#1388=CARTESIAN_POINT('Ctrl Pts',(-15.1910191963315,7.99762774979959,21.8628584503401));
#1389=CARTESIAN_POINT('Ctrl Pts',(-15.3958137700696,7.99673250789597,21.6583918181746));
#1390=CARTESIAN_POINT('Ctrl Pts',(-15.5443581894321,7.99807745179918,21.5084554375902));
#1391=CARTESIAN_POINT('Ctrl Pts',(-15.6081042482198,7.99918349572178,21.4436801782366));
#1392=CARTESIAN_POINT('Ctrl Pts',(-15.6291204251889,8.,21.4219502566773));
#1393=CARTESIAN_POINT('Ctrl Pts',(-15.0725711872687,7.81258959434387,23.7453867809283));
#1394=CARTESIAN_POINT('Ctrl Pts',(-15.2699076015941,7.84459302769597,23.6061871997728));
#1395=CARTESIAN_POINT('Ctrl Pts',(-15.7031666201146,7.8895887044559,23.2803298367428));
#1396=CARTESIAN_POINT('Ctrl Pts',(-16.5401641447257,7.90330893338968,22.4822521747182));
#1397=CARTESIAN_POINT('Ctrl Pts',(-17.0906752363836,7.86920160468326,21.8355049789183));
#1398=CARTESIAN_POINT('Ctrl Pts',(-17.3061988334545,7.8285548208808,21.5363056334607));
#1399=CARTESIAN_POINT('Ctrl Pts',(-17.3756747272067,7.81258959434388,21.4374900780512));
#1400=CARTESIAN_POINT('Ctrl Pts',(-15.1044623432324,6.56821664895877,26.4512282863636));
#1401=CARTESIAN_POINT('Ctrl Pts',(-15.6381916287078,6.65527221179282,26.3595014201114));
#1402=CARTESIAN_POINT('Ctrl Pts',(-16.851886551434,6.7809541173147,25.9158551432044));
#1403=CARTESIAN_POINT('Ctrl Pts',(-18.8140172061223,6.81801781288456,24.2299271485384));
#1404=CARTESIAN_POINT('Ctrl Pts',(-19.815990196766,6.72440365759545,22.5646004917946));
#1405=CARTESIAN_POINT('Ctrl Pts',(-20.035660519137,6.61170950423681,21.7304382006052));
#1406=CARTESIAN_POINT('Ctrl Pts',(-20.081516232642,6.56821664895877,21.4633897803409));
#1407=CARTESIAN_POINT('Ctrl Pts',(-15.1427317303888,3.85324321050948,28.7771372417265));
#1408=CARTESIAN_POINT('Ctrl Pts',(-16.0813360693096,3.87347212319156,28.7810777872152));
#1409=CARTESIAN_POINT('Ctrl Pts',(-18.1348351442236,3.90184662346627,28.3322657303871));
#1410=CARTESIAN_POINT('Ctrl Pts',(-21.00273863913,3.91073852297591,26.0247495095076));
#1411=CARTESIAN_POINT('Ctrl Pts',(-22.2575206526897,3.8892048080418,23.4149913505986));
#1412=CARTESIAN_POINT('Ctrl Pts',(-22.4093567923158,3.86342466907994,21.9638960549188));
#1413=CARTESIAN_POINT('Ctrl Pts',(-22.407425188005,3.85324321050948,21.4944694230886));
#1414=CARTESIAN_POINT('Ctrl Pts',(-15.1682446551597,1.56173294088684,29.4294995065838));
#1415=CARTESIAN_POINT('Ctrl Pts',(-16.2932707053387,1.56021846738663,29.4276045817562));
#1416=CARTESIAN_POINT('Ctrl Pts',(-18.621570292692,1.56010090558256,28.9325805308495));
#1417=CARTESIAN_POINT('Ctrl Pts',(-21.5844387367939,1.55923135182336,26.5780532539656));
#1418=CARTESIAN_POINT('Ctrl Pts',(-22.883399961045,1.56033131022648,23.7801228229288));
#1419=CARTESIAN_POINT('Ctrl Pts',(-23.0588448047864,1.56099010401838,22.0777923937816));
#1420=CARTESIAN_POINT('Ctrl Pts',(-23.0597874528622,1.56173294088684,21.5151891849205));
#1421=CARTESIAN_POINT('Ctrl Pts',(-15.1810011175452,0.399827082195529,29.5013341812589));
#1422=CARTESIAN_POINT('Ctrl Pts',(-16.3572899264895,0.399890409185587,29.5013302660762));
#1423=CARTESIAN_POINT('Ctrl Pts',(-18.727630070113,0.399983420930499,28.9687188689862));
#1424=CARTESIAN_POINT('Ctrl Pts',(-21.6274058521179,0.400015468540224,26.6526710547282));
#1425=CARTESIAN_POINT('Ctrl Pts',(-22.9401663901574,0.399947163797781,23.8771501879369));
#1426=CARTESIAN_POINT('Ctrl Pts',(-23.1316200322906,0.399860972228416,22.1137863189164));
#1427=CARTESIAN_POINT('Ctrl Pts',(-23.1316221275374,0.399827082195526,21.5255490658364));
#1428=CARTESIAN_POINT('Origin',(10.6856040044414,-1.59999998509884,22.4940729844617));
#1429=CARTESIAN_POINT('',(10.6856040044414,1.70000001490116,22.4940729844617));
#1430=CARTESIAN_POINT('',(10.6856040044414,-1.59999998509884,22.4940729844617));
#1431=CARTESIAN_POINT('',(1.50000002235174,1.70000001490116,22.4940729844617));
#1432=CARTESIAN_POINT('',(10.6856040044414,1.70000001490116,22.4940729844617));
#1433=CARTESIAN_POINT('',(1.50000002235174,-1.59999998509884,22.4940729844617));
#1434=CARTESIAN_POINT('Origin',(10.6856040044414,-1.59999998509884,29.9999999701977));
#1435=CARTESIAN_POINT('',(10.6856040044414,1.70000001490116,29.9999999701977));
#1436=CARTESIAN_POINT('Origin',(6.09280201339659,1.70000001490116,26.2470364773297));
#1437=CARTESIAN_POINT('',(1.50000002235174,1.70000001490116,22.4940729844617));
#1438=CARTESIAN_POINT('Origin',(-13.3471439875952,-0.348144340965393,25.));
#1439=CARTESIAN_POINT('Origin',(1.50000002235174,-1.59999998509884,22.4940729844617));
#1440=CARTESIAN_POINT('Origin',(19.0000002980232,0.400000014901161,20.0000002980232));
#1441=CARTESIAN_POINT('',(19.0000002980232,0.400000014901161,22.0000002980232));
#1442=CARTESIAN_POINT('',(19.0000002980232,0.400000014901161,18.0000002980232));
#1443=CARTESIAN_POINT('Origin',(19.0000002980232,0.400000014901161,20.0000002980232));
#1444=CARTESIAN_POINT('Origin',(-4.49162136754561,0.400000014901161,17.824));
#1445=CARTESIAN_POINT('',(-4.49162136754561,0.400000014901161,19.074));
#1446=CARTESIAN_POINT('',(-4.49162136754561,0.400000014901161,16.574));
#1447=CARTESIAN_POINT('Origin',(-4.49162136754561,0.400000014901161,17.824));
#1448=UNCERTAINTY_MEASURE_WITH_UNIT(LENGTH_MEASURE(0.01),#1452,
'DISTANCE_ACCURACY_VALUE',
'Maximum model space distance between geometric entities at asserted c
onnectivities');
#1449=UNCERTAINTY_MEASURE_WITH_UNIT(LENGTH_MEASURE(0.01),#1452,
'DISTANCE_ACCURACY_VALUE',
'Maximum model space distance between geometric entities at asserted c
onnectivities');
#1450=(
GEOMETRIC_REPRESENTATION_CONTEXT(3)
GLOBAL_UNCERTAINTY_ASSIGNED_CONTEXT((#1448))
GLOBAL_UNIT_ASSIGNED_CONTEXT((#1452,#1453,#1454))
REPRESENTATION_CONTEXT('','3D')
);
#1451=(
GEOMETRIC_REPRESENTATION_CONTEXT(3)
GLOBAL_UNCERTAINTY_ASSIGNED_CONTEXT((#1449))
GLOBAL_UNIT_ASSIGNED_CONTEXT((#1452,#1453,#1454))
REPRESENTATION_CONTEXT('','3D')
);
#1452=(
LENGTH_UNIT()
NAMED_UNIT(*)
SI_UNIT(.MILLI.,.METRE.)
);
#1453=(
NAMED_UNIT(*)
PLANE_ANGLE_UNIT()
SI_UNIT($,.RADIAN.)
);
#1454=(
NAMED_UNIT(*)
SI_UNIT($,.STERADIAN.)
SOLID_ANGLE_UNIT()
);
#1455=SHAPE_DEFINITION_REPRESENTATION(#1456,#1457);
#1456=PRODUCT_DEFINITION_SHAPE('',$,#1459);
#1457=SHAPE_REPRESENTATION('',(#610),#1450);
#1458=PRODUCT_DEFINITION_CONTEXT('part definition',#1463,'design');
#1459=PRODUCT_DEFINITION('NexBar','NexBar',#1460,#1458);
#1460=PRODUCT_DEFINITION_FORMATION('',$,#1465);
#1461=PRODUCT_RELATED_PRODUCT_CATEGORY('NexBar','NexBar',(#1465));
#1462=APPLICATION_PROTOCOL_DEFINITION('international standard',
'automotive_design',2009,#1463);
#1463=APPLICATION_CONTEXT(
'Core Data for Automotive Mechanical Design Process');
#1464=PRODUCT_CONTEXT('part definition',#1463,'mechanical');
#1465=PRODUCT('NexBar','NexBar',$,(#1464));
#1466=PRESENTATION_STYLE_ASSIGNMENT((#1467));
#1467=SURFACE_STYLE_USAGE(.BOTH.,#1468);
#1468=SURFACE_SIDE_STYLE('',(#1469));
#1469=SURFACE_STYLE_FILL_AREA(#1470);
#1470=FILL_AREA_STYLE('Steel - Satin',(#1471));
#1471=FILL_AREA_STYLE_COLOUR('Steel - Satin',#1472);
#1472=COLOUR_RGB('Steel - Satin',0.627450980392157,0.627450980392157,0.627450980392157);
ENDSEC;
END-ISO-10303-21;
